<svg xmlns="http://www.w3.org/2000/svg" width="90" height="125" viewBox="0 0 90 125">
    <g fill="none" fill-rule="evenodd">
        <g>
            <g>
                <g>
                    <g>
                        <path d="M0 125L90 125 90 0 0 0z" transform="translate(-728 -2803) translate(83 1964) translate(125 714) translate(520 125)"/>
                        <g>
                            <path fill="#5CFFE4" d="M54.016 101.738c.103-.08.192-.188.256-.304.142-.255-.091-.612-.405-.63-.468-.025-.862.204-1.014.56-.289.645-.826.98-1.385 1.236-.447.205-.803.495-.983.892-.317.701-.812 1.097-1.522 1.317-.707.22-.975.782-.937 1.634.25.002.464.047.64-.001.646-.174 1.1-.614 1.534-1.08.158-.17.276-.398.47-.509 1.353-.776 2.165-2.153 3.346-3.115M61.592 95.99l2.464-1.657-.03-.043c.246-.172.498-.334.736-.516.219-.17.398-.39.235-.725-.187-.384-.489-.274-.739-.203-.258.072-.596.123-.72.32-.371.597-1.056.633-1.593.933-.477.264-.885.647-1.298 1.007-.272.236-.196.61.007.888.206.283.513.236.768.098.059-.031.115-.066.17-.102M65.182 92.593c.678.35 1.005.055 1.31-.17.342-.25.624-.577.91-.91.057-.067.003-.308-.078-.402-.08-.092-.295-.177-.382-.139-.733.325-1.322.826-1.76 1.621M67.636 90.88c.639.106 1.118-.025 1.483-.31.113-.124.21-.269.295-.43.083-.157.099-.467.001-.598-.095-.127-.393-.2-.555-.164-.235.052-.42.145-.566.278-.36.23-.542.644-.658 1.224M57.077 97.773c-.272.283-.291.664-.07 1.06.97.065.979.06 1.246-1.014-.469-.373-.864-.37-1.176-.046M59.792 97.26l.202-.148c.035-.079.155-.275.204-.498.023-.103-.062-.288-.152-.382-.26-.27-.758-.252-1.047.01-.286.258-.368.788-.162 1.042.19.235.567.226.955-.024M56.5 99.845c.054-.149.135-.385.065-.478-.118-.157-.345-.294-.53-.326-.401-.069-.94.55-.824.943.04.136.251.335.374.344.232.018.455-.081.654-.125.108-.143.215-.235.26-.358M59.134 79.764c.038-.027.062-.071.077-.122.004-.014.006-.03.006-.047-.013-.171-.197-.422-.42-.583-.086-.063-.17-.118-.25-.16-.38-.222-.653-.246-.653.103 0 .121-.023.216-.06.29-.05.083-.052.103-.226.23-.278.201-.59.354-.89.534-.252.148-.51.29-.747.46l-1.95 1.376-2.093 1.448c-.65.449-1.346.84-1.947 1.345-.319.268-.634.532-.966.776-.334.266-.688.528-1.078.739-.377.208-.693.558-.979.896-.249.297-.587.599-.353 1.182.65-.021 1.083-.365 1.494-.727.456-.4.915-.793 1.384-1.175.465-.358.937-.672 1.425-.986 2.044-1.302 4.2-2.69 6.006-3.947.51-.35 1.006-.716 1.499-1.087l.72-.545zM59.818 79.15c.051-.063.08-.148.093-.247l.007-.075c.007-.032.03-.084.043-.125l.085-.273c-.157-.225-.313-.345-.47-.38-.08-.018-.159-.015-.238.008-.075.017-.178.082-.207.081-.282.103-.526.198.04 1.05.347.131.545.09.647-.039M61.637 76.917c.07-.076.24-.286.35-.47.121-.195.227-.414.313-.667-.513-.203-.954-.28-1.517.218-.362.286-.404.671-.35 1.107.034.287.354.471.573.313.214-.154.443-.3.63-.501M40.836 92.59c-.243.106-.452.278-.774.488.13.231.195.486.35.594.252.176.46-.003.628-.18.092-.097.238-.177.26-.296.03-.15-.001-.355-.086-.49-.055-.087-.286-.157-.378-.116M65.094 110.89c-.055.024-.134.035-.156.083-.319.678-1.057.862-1.539 1.348-.241.244-.44.477-.33.942.726.077.717.12 1.158-.226.516-.397 1.02-.808 1.518-1.226.305-.255.352-.52.173-.768-.179-.245-.481-.302-.824-.154M69.752 108.078c-.297-.064-.62-.23-.818-.153-.284.11-.515.364-.698.616-.187.257.089.797.365.757.354-.051.69-.182 1-.335.252-.125.275-.412.151-.885M70.778 106.29c-.33.156-.574.713-.472 1.118.068.274.318.407.493.347.458-.155.906-.357.933-1.058-.309-.34-.587-.58-.954-.407M72.056 105.271c-.288.267-.435.63-.09 1.095 1.029.084 1.128.001 1.23-.96-.378-.312-.786-.468-1.14-.135M67.865 109.6c-.198-.138-.501-.333-.617-.27-.324.176-.645.429-.378 1.106.485.08.806-.018.97-.387.048-.122.074-.41.025-.448M63.375 68.112l-.363-.423c-.648.066-1.103.394-1.54.763l-2.588 2.195-2.97 3.145-.55.58c-.121.129-.121.123-.143.144l-.063.06-.243.25c-.094.066-.183.134-.279.195l-.11.081-.438.337c-.313.252-.61.52-.867.826-.427.51-.892.896-1.48 1.183-.676.33-1.3.919-1.663 1.789 1.162-.066 2.012-.645 2.565-1.335.143-.172.26-.414.454-.484.627-.227 1.161-.586 1.669-.98l.378-.3.091-.075.023-.025.046-.048c.061-.065.132-.115.208-.162l.198-.12c.084-.078.17-.156.247-.242l.12-.124.086-.085.224-.239 1.946-2.07 1.388-1.429 1.17-.958c.37-.31.843-.704.986-.84.535-.482 1.158-.895 1.498-1.61M49.852 79.636c-.855-.215-1.144-.02-1.422.874.705.11 1.026-.328 1.422-.874M47.81 75.493c.64-.438 1.357-.914 1.89-1.3.18-.127.348-.29.456-.485.065-.118.065-.369-.016-.484-.082-.116-.333-.221-.45-.186-.302.093-.595.231-.85.411l-.96.705c-.332.247-.664.496-1.006.732-1.038.717-2.124 1.371-3.137 2.122l-.792.59-.823.684-1.645 1.39-3.273 2.796c-.547.496-1.09.974-1.625 1.475-.361.34-.673.72-.54 1.53.505-.278.919-.455 1.277-.71.392-.278.767-.578 1.131-.89l1.15-1.007c.804-.712 1.592-1.447 2.411-2.147l2.463-2.085c.798-.622 1.585-1.195 2.388-1.782.641-.465 1.295-.914 1.95-1.36M33.987 85.5c-.75.534-1.608 1.027-1.73 2.32 1.13-.213 1.72-.974 2.312-1.68.068-.081.003-.381-.096-.487-.107-.113-.399-.215-.486-.152M30.2 88.636c-.498.396-1.01.774-1.487 1.195-.127.11-.142.346-.241.613.352.03.65.146.824.055.506-.265.992-.579 1.425-.942.21-.176.286-.508.431-.785-.735-.299-.738-.305-.951-.136M70.38 113.076c-.169.049-.313.172-.465.282-.276.199-.414.455-.23.97 1.197-.074 1.391-.28 1.343-1.091-.256-.187-.47-.21-.648-.161M72.094 111.781c-.179.146-.33.363-.396.596-.077.277.24.605.51.549.454-.095.819-.3.823-.867-.694-.412-.725-.449-.937-.278M68.352 114.748c-.382.111-.624.366-.463.924.497.208.73-.046.936-.303.064-.08.044-.34-.033-.432-.097-.114-.332-.22-.44-.189M60.672 101.7c-.3.19-.66.363-.952.618-.891.772-1.592 1.745-2.72 2.251-.522.225-.873.747-.794 1.584.85-.142 1.461-.487 2.051-1.058.504-.49 1.06-.923 1.584-1.391.356-.317.728-.618 1.035-.984.215-.256.294-.611-.204-1.02M54.529 106.78c-.844.436-1.601.981-2.011 1.975.652.211 1.002-.126 1.358-.376.489-.347 1.1-.593 1.25-1.394-.23-.084-.482-.263-.597-.204M49.627 110.83c-.257.24-.51.53-.295 1.036.862.149 1.238-.536 1.792-.9.258-.172.403-.432.189-.935-.747-.007-1.236.378-1.686.798M75.145 91.169c.16-.176.284-.443.01-.655-.187-.145-.494-.256-.698-.22-.762.135-.959.704-.643 1.663.679.022.977-.398 1.331-.788M71.828 94.379c.195-.045.375-.153.508-.209l.016-.016c.112-.138.194-.222.252-.32.153-.263.279-.592-.008-.75-.188-.106-.549-.094-.715.034-.087.066-.164.155-.232.257-.129.135-.237.3-.329.458-.17.294.14.63.508.546M62.6 100.867c-.49-.44-.776-.208-1.055.021-.248.203-.201.459-.002.735.784-.022.784-.021 1.057-.756M67.02 98.115c.199-.13.311-.387.483-.621-.483-.416-.772-.375-1.018-.157-.202.18-.237.45-.009.66.127.12.43.194.544.118M65.073 99.5c.092-.094.156-.368.095-.44-.126-.144-.386-.315-.516-.28-.346.093-.545.347-.36.782.335.21.593.132.781-.061M68.939 95.371c-.044.092-.104.205-.081.297.041.165.108.387.225.46.112.072.345.038.452-.044.412-.314.283-.592-.435-.952-.053.076-.12.15-.161.24M62.312 106.652c-.574.18-.952.557-.907 1.374.772.012 1.207-.337 1.483-.917-.128-.33-.315-.538-.576-.457M64.2 105.786c.778-.046.924-.124 1.054-.924-.54-.35-.786-.017-1.035.19-.172.158-.269.43-.018.734M64.102 80.634c.476-.096.838-.262 1.099-.509.323-.317.585-.748.748-1.265-.918-.338-1.6.333-1.847 1.774M61.154 83.338c-.222-.117-.39-.163-.52-.153-.177.045-.336.16-.467.314-.168.196-.299.429-.072.74.856-.029 1.157-.26 1.06-.9M42.69 97.684l-.836.734c.76.474.88.476 1.139.116.227-.316.173-.59-.303-.85M45.329 96.316c.065-.106.009-.349-.07-.49-.049-.088-.27-.164-.37-.135-.377.11-.573.355-.333.879.384.124.628-.015.773-.254M46.613 94.451c.317.311.611.379.866.142.245-.215.209-.494-.107-.858-.426.111-.676.319-.759.716M49.044 98.864c-.645.036-1.186.353-1.568.815-.57.691-1.267 1.21-1.965 1.744-.403.31-.752.662-.72 1.414.24-.01.392.018.51-.025 1.615-.602 2.637-1.957 3.854-3.06.223-.203.285-.56-.111-.888M62.931 87.722c-.04.108-.267.129-.415.164-.955.23-1.268.697-1.104 1.769.22-.01.5.064.656-.043.445-.304.862-.645 1.282-.983.41-.331.878-.7 1.238-.92.329-.202.248-.35-.238-.866-.337-.032-.614 0-.827.121-.249.147-.46.402-.592.758M58.283 92c-.403-.351-.826-.372-1.188-.122-.564.388-1.296.655-1.31 1.675.993.192 1.515-.431 2.17-.74.28-.132.442-.418.328-.812M54.435 94.299c-.8.04-1.41.683-1.614 1.747.953.001 1.492-.518 2.037-1.01.087-.078.088-.365.015-.497-.07-.125-.298-.248-.438-.24M50.35 97.214c-.139.28-.278.557-.416.87.489.383.814.26 1.087.042.31-.253.598-.55.817-.887.118-.181-.037-.449-.307-.493-.495-.08-.945-.021-1.181.468M60.713 90.142c-.19-.287-.469-.387-.76-.293-.576.184-.88.589-.846 1.346.7.275 1.08-.07 1.46-.4.18-.16.336-.367.146-.653M66.87 84.195c-.049.167-.003.469.118.581.12.112.436.143.584.07.381-.183.616-.504.51-1.08-.722-.156-1.077-.043-1.213.43M69.067 83.313c.41-.46.448-.733.234-.954-.193-.202-.644-.181-.831.038-.102.119-.158.34-.156.539.012.187.081.352.193.397.19.087.452-.009.56-.02M65.69 86.326c.585-.006.596-.017.605-.705-.785.07-.772.055-.605.705M75.977 49.934l-.706.722-.676.667c-.242.242-.492.477-.748.707l-1.106 1.01c-.197.18-.363.418-.6.527-.257.118-.474.276-.664.46-.044.043-.1.1-.13.137l.013.02.048.065c.02.027.033.047.04.061.01.02.008.028 0 .028h-.005l-.002.002-.055.041c-.082.065-.163.131-.241.2-.769.68-1.545 1.348-2.367 1.962-.29.217-.47.59-.706.886-.178.194-.354.394-.557.56-.611.502-1.268.942-1.941 1.357l-1.019.606-.128.074-.242.153-.489.31-1.08.694-.218.143-1.557 1.248-.388.316-.225.175-.403.312c-.535.418-1.063.844-1.58 1.281l-1.095.938-1.694 1.477-1.922 2.11-.965 1.083-.572.661-.14.167c-.038.045-.122.143-.099.121l.004.027c.015.041.024.084.013.104-.013.014-.033.021-.083-.013-.017-.01-.022-.005-.023.002v.008c-.003.004.012-.005-.038.033l-.21.158c-.392.278-.545.685-.514 1.264.604.171.917-.197 1.256-.445l.194-.145c.013-.01.027-.018.042-.025.03-.016.053-.038.08-.058l.062-.073c.008-.014.019-.026.031-.036.029-.029-.032.047.165-.164.413-.435.9-.8 1.305-1.242.762-.872 1.528-1.749 2.292-2.62l.52-.462 2.058-1.761c.436-.365.879-.721 1.331-1.065.348-.265.689-.499 1.065-.759l1.962-1.49 1.146-.722c.27-.173.537-.356.803-.54l.42-.31c.276-.204.552-.403.857-.557.577-.292 1.091-.667 1.587-1.061l.738-.602.697-.62c.594-.51 1.161-1.055 1.744-1.577.29-.26.586-.516.892-.758l.229-.177c.008-.005.017-.008.027-.01.023-.003.044-.007.074 0 .04.003.09.016.153.04.283-.162.641-.444.93-.694l1.585-1.368.78-.697 1.388-1.309.016-.013c.25-.21.507-.4.765-.582l.389-.266.195-.126c.07-.045.135-.087.16-.097.296-.15.598-.285.885-.449.254-.144.45-.297.598-.465l-1.743-2.18c-.196.095-.385.21-.551.338-.188.316-.394.614-.616.896-.027.047-.173.187-.297.308l-.376.365-.768.714M41.002 62.867c-.082.057-.14.148-.239.254.054.165.1.344.171.514.024.059.11.128.17.135.174.02.382.073.52.004.33-.164.642-.371.937-.593.342-.259.662-.56.992-.839.06-.053.23-.184.351-.278l.4-.295c.267-.191.54-.37.823-.527.532-.292 1.033-.619 1.511-.963.445-.454.864-.931 1.279-1.412l1.189-1.387c.193-.228.363-.477.57-.69.255-.26.534-.502.801-.751.135-.125.265-.252.39-.385.078-.082.1-.118.138-.194.053-.123.123-.233.193-.343.107-.121.222-.237.347-.342l.823-.675c.63-.504 1.27-.995 1.888-1.511l.148-.12c.043-.03.05-.03.076-.047l.14-.069c.092-.045.188-.085.267-.144.054-.03.102-.066.143-.112.05-.067.204-.161.313-.227l.31-.198c.115-.075.228-.152.336-.231.433-.32.8-.7.948-1.287.763 0 1.219-.084 1.523-.377.363-.348.739-.678 1.133-.984.395-.305.789-.63 1.22-.902.348-.225.492-.518.317-.931-.439-.34-.85-.354-1.213-.004-.636.637-1.488.928-2.187 1.468-.464.362-.876.695-1.06 1.21l-1.658.615-.396.147-.196.072c-.048.014-.083.016-.126.025-.162.029-.334.064-.46.069-.016.001-.036.009-.035.03.004.076 0 .14-.015.192-.091.42-.428.197-1.022.754-.309.295-.775.425-1.054.74-.347.392-.678.797-1.012 1.2-.11.122-.089.135-.134.202l-.096.162c-.062.106-.127.21-.199.306-.041.077-.086.151-.136.221l-.235.359-.556.729c-.38.497-.715.946-1.15 1.47-.663.783-1.378 1.535-2.218 2.12-.088.06-.17.134-.25.218-.27.2-.518.473-.78.698-.192.165-.36.358-.565.507l-1.095.793-.822.58-1.458 1.024zM33.283 70.455c.304-.255.351-.52.171-.767-.178-.245-.48-.302-.822-.154-.055.025-.135.035-.157.084-.318.678-1.056.862-1.539 1.349-.241.242-.44.475-.33.94.725.078.717.12 1.158-.225.516-.397 1.02-.808 1.52-1.227M36.471 66.57c-.283.11-.515.364-.697.616-.188.257.088.797.365.757.353-.052.69-.182.999-.336.252-.123.275-.41.151-.884-.297-.064-.619-.229-.818-.153M38.315 64.935c-.33.157-.574.714-.472 1.117.068.275.319.407.493.349.458-.156.907-.358.933-1.06-.308-.34-.587-.58-.954-.406M40.734 64.05c-.379-.312-.787-.467-1.141-.133-.287.266-.435.629-.09 1.094 1.03.083 1.128.002 1.231-.96M61.973 46.983c.234-.101.529-.338.559-.562.057-.418-.327-.52-.718-.58l-.58.627c.11.497.392.668.739.515M40.991 69.854c-.128.205.123.57.366.543.565-.063 1.079-.207 1.14-.96-.391-.33-.693-.343-.936-.175-.222.154-.423.359-.57.592M53.572 58.919c-.191.091-.295.243-.318.464-.018.168.099.418.234.555.08.08.367.065.472-.013.159-.119.302-.252.39-.428.045-.088.076-.187.088-.299 0-.099.036-.27-.06-.34-.05-.053-.141-.05-.225-.046-.081.001-.157.005-.227.014-.14.017-.258.047-.354.093M50.09 64.104l2.148-2.305c.16-.174.32-.36.44-.554.04-.064.079-.133.098-.187.008-.04.012-.078.01-.116-.004-.076-.027-.149-.066-.215-.079-.13-.225-.231-.42-.283-.19-.086-.438.027-.654.188-.214.158-.408.376-.592.618-.277.36-.485.875-.796 1.09-.365.248-.7.526-1.018.823-.988.642-1.856 1.437-2.817 2.11l-.472.341-.318.257-.62.537c-.413.358-.838.702-1.342.951-.525.255-.993.793-.686 1.705.447-.03.86-.181 1.187-.43l3.145-2.42 2.773-2.11zM37.222 72.974c1.196-.076 1.391-.282 1.344-1.092-.257-.186-.471-.211-.65-.161-.167.049-.312.172-.464.282-.275.2-.414.454-.23.971M57.586 55.802c.143.192.272.307.331.321.017.006.03.004.035-.005.019-.028.026-.072.03-.125.03-.072.064-.148.102-.233-.306-.313-.515-.492-.651-.555-.125-.07-.148-.042-.133.083.003.016.009.037.019.062.047.117.16.309.267.452M39.746 71.57c.453-.094.818-.3.823-.865-.695-.414-.726-.45-.937-.278-.18.144-.331.362-.396.595-.078.277.24.605.51.549M54.528 58.596l.016.01c.325.198.399.24.355.112-.026-.077-.126-.245-.236-.386-.173-.224-.406-.402-.485-.39-.117.023-.02.218.3.595l.05.06zM57.163 55.618c-.045-.03-.064-.07-.115-.071-.052-.002-.098.004-.142.014-.085.023-.156.067-.217.13-.121.122-.203.312-.288.515.595.508.865.585 1.159.291.053-.053.123-.167.124-.244-.024-.055-.061-.124-.107-.188-.093-.13-.296-.348-.414-.447M35.426 74.317c.497.208.73-.046.936-.304.064-.08.044-.339-.033-.43-.097-.116-.331-.221-.44-.19-.383.111-.624.366-.463.924M55.785 57.92c.215-.194.149-.418.01-.594-.249-.286-.46-.363-.677-.173-.222.193-.25.522-.07.742.171.211.517.225.737.024M34.014 56.643c.127.12.429.193.544.117.198-.129.31-.387.482-.622-.482-.415-.771-.374-1.018-.157-.202.18-.237.451-.008.662M32.19 57.425c-.347.093-.546.347-.36.783.334.21.593.132.78-.063.093-.094.156-.369.095-.44-.125-.144-.386-.315-.516-.28M44.106 55.153c.347-.212.33-.44-.102-1.085-.734.566-.881.838-.669 1.14.216.306.514.104.77-.055M59.923 58.915l-.122.11-.243.224-.968.894c-.575.537-1.56 1.441-1.298 1.273-.002.017-.007.03-.014.04-.01.032-.03.05-.054.068l-.88.892-.948.956-1.723 1.821c-.383.414-.69.914-1.082 1.316l-.173.176-2.65 1.876c-1.06.747-1.348.925-1.848 1.303-.798.603-1.516 1.316-2.266 1.987-.321.285-.29.626-.01 1.155.233-.07.475-.074.685-.215.316-.215.605-.48.87-.759.632-.66 1.342-1.21 2.084-1.718l3.946-2.73.2-.2c.834-.837 1.756-1.592 2.554-2.469l.947-1.07.727-.845.361-.425.09-.106c.033-.039.066-.077.052-.065l-.004-.01-.025-.05-.004-.015c-.005-.012-.005-.018-.008-.028l-.002-.008c.002-.004-.008.003.005-.01l.067-.062.272-.25 1.089-1 1.089-.998.128-.117V59.835c0-.01.002-.017 0-.03.002-.006.002-.013.002-.022l.112-.098.655-.479.732-.517 1.476-1.018c.4-.273.85-.475 1.265-.732.48-.283.94-.625 1.4-.97.463-.338.932-.667 1.423-.956 1.007-.592 1.849-1.353 2.609-2.21.47-.464.93-.957 1.566-1.33l.029-.02c.568-.386.902-.928.741-1.382-.493-.08-.928.093-1.387.59l-.041.045c-.22.214-.49.522-.662.552-1.382.353-1.434 1.075-2.131 1.343-.624 1.003-1.648 1.505-2.594 2.106-.945.63-1.932 1.147-2.85 1.76-.706.475-1.392.978-2.073 1.49l-.51.383-.254.193-.117.09-.031.03c-.036.036-.101.09-.114.11-.005.016-.013.03-.021.041-.005.015-.01.027-.018.038-.01.012-.015.033-.024.045-.011.012.016-.01-.027.028M36.991 80.063l.969-.676c.289-.214.559-.451.79-.737.638-.272 1.15-.694 1.631-1.159l.71-.713c.236-.238.459-.47.777-.697.899-.668 1.667-1.505 2.733-1.953.167-.07.293-.215.434-.33.192-.156.225-.365.052-.639-1.072-.371-1.161-.323-1.858 1.005-.256-.013-.537-.067-.782-.024-.203.035-.434.133-.534.296-.368.627-1.013 1.013-1.503 1.355-.156.103-.314.227-.405.396-.296.55-.771.866-1.306 1.119-.15.07-.32.124-.442.23-.713.632-1.26 1.271-2.273 1.836-.138.073-.231.218-.345.33l-.953.93-.764.718c-.23.213-.436.467-.704.624-.447.26-.637.653-.667 1.294.49-.048.851-.15 1.15-.399.463-.387.992-.714 1.368-1.18.538-.668 1.231-1.147 1.922-1.626M31.64 83.79c-.29.1-.504.277-.567.714.157.065.285.159.342.131.198-.095.376-.227.55-.36.04-.031.041-.12.05-.185.02-.149-.227-.35-.375-.3M65.778 44.208l1.583-1.373c.202-.173.374-.378.557-.572.135-.144.24-.332.403-.434.502-.313 1.003-.625 1.477-.97l.35-.266.3-.246c.087-.069.163-.148.225-.246.054-.07.096-.151.134-.243.01-.026.047-.023.069-.035.01 0 .11-.073.168-.114l.193-.14.362-.276.725-.557-1.365-1.706c-.257.233-.563.413-.864.603-.275.168-.672.445-.693.54.002.136-.06.22-.143.286-.07.067-.157.12-.217.193-.047.053-.059.068-.137.146l-.268.262-.534.527c-.67.684-1.069 1.624-1.937 2.122-.12.073-.155.179-.276.33-.32.39-.648.771-.994 1.14-.225.208-.458.41-.697.606-.221.183-.534.422-.68.518-.282.193-.418.643-.538 1.01-.05.148.124.384.246.72l1.05-.722 1.501-1.103zM77.081 47.537h.001v-.001h-.001" transform="translate(-728 -2803) translate(83 1964) translate(125 714) translate(520 125) translate(0 5)"/>
                            <path fill="#5CFFE4" d="M31.075 51.811c-.372.597-1.056.633-1.593.933-.477.264-.884.648-1.298 1.006-.045.04-.079.082-.106.128-.868-1.694-1.736-3.387-2.613-5.076.4.209.8.42 1.198.63-.019.123-.026.259-.02.409.348.135.616.119.845.028 1.2.638 2.398 1.282 3.592 1.935l-.005.007m58.557 5.204l.04-.196.011-.054.04-.2.006-.033c.072-.383.132-.763.173-1.136v-.004c.043-.38.066-.753.066-1.115 0-.166-.005-.329-.016-.49l-.007-.094-.008-.093c-.007-.07-.014-.141-.023-.21-.011-.082-.024-.165-.039-.247l-.004-.026c-.015-.08-.03-.159-.048-.238l-.008-.036c-.017-.079-.036-.158-.057-.238l-.009-.035c-.021-.081-.043-.162-.067-.244l-.007-.025c-.078-.267-.168-.537-.266-.807v-.002l-.102-.274c-.14-.37-.289-.736-.435-1.097l-.031-.077-.012-.03c-.16-.394-.314-.78-.446-1.15v-.002c-.023-.064-.046-.128-.067-.192-.03-.086-.058-.173-.086-.262l-.044-.14-.039-.126-.068-.23-.011-.037c-.14-.477-.274-.973-.42-1.464h-.001l-.08-.263-.01-.032-.075-.232-.02-.058c-.022-.069-.045-.138-.069-.206l-.029-.08-.065-.181-.039-.1-.061-.157-.051-.12-.056-.133c-.022-.05-.045-.098-.068-.147l-.046-.099c-.039-.08-.08-.16-.121-.238-.048-.09-.098-.178-.15-.266l-.008-.012c-.05-.084-.101-.168-.155-.252-.057-.09-.115-.177-.175-.264l-.03-.042c-.05-.073-.102-.146-.155-.219l-.042-.058-.15-.2-.05-.066-.15-.19-.055-.07-.15-.185-.057-.07-.154-.185-.055-.066-.164-.194-.047-.055-.204-.24c-.139-.162-.277-.323-.412-.484l-.007-.008-.147-.176-.06-.073-.115-.14-.054-.067c-.055-.068-.11-.136-.163-.204-.066-.084-.131-.17-.197-.257l-.057-.076-.14-.19-.057-.078-.143-.199-.046-.064-.16-.226-.006-.009-.23-.328-.14-.199-.031-.043c-.06-.086-.122-.172-.183-.257l-.004-.007c-.385-.538-.782-1.068-1.208-1.543l-.031-.034-.152-.164-.081-.084-.114-.116c-.069-.067-.138-.134-.208-.198-.068-.062-.137-.124-.207-.185l-.127-.109-.076-.065-.173-.143-.026-.022-.199-.159c-.715-.564-1.494-1.085-2.302-1.58-.472-.29-.954-.571-1.438-.848l-.032-.017c-.383-.219-.768-.435-1.151-.65-.65-.362-1.292-.723-1.911-1.088l-.44-.264-.036-.022c-.142-.086-.284-.173-.423-.261-.023-.015-.047-.029-.071-.042l-.024-.012-.052-.025-.028-.012-.054-.022-.027-.01-.067-.023-.016-.005c-.029-.009-.058-.016-.088-.024l-.013-.002c-.025-.007-.051-.012-.078-.017l-.023-.004-.072-.012-.024-.003-.082-.009-.013-.001c-.068-.006-.137-.01-.207-.01h-.004l-.1.002h-.012l-.1.006h-.005c-.147.011-.297.032-.446.064-.096.02-.191.043-.285.071h-.002c-.047.014-.094.029-.14.045h-.001c-.045.015-.09.031-.134.048l-.007.002-.128.052-.017.007c-.04.017-.078.035-.116.053l-.01.004-.115.058-.025.013c-.038.02-.076.041-.112.063l-.4-.075-.122-.023-.27-.05c-.78-.148-1.574-.3-2.37-.431l-.008-.002c-.254-.042-.507-.082-.76-.119l-.018-.002c-.097-.015-.195-.028-.292-.042l-.017-.002c-.098-.014-.196-.027-.295-.039l-.01-.001-.302-.037h-.002c-.62-.072-1.239-.121-1.848-.137h-.027l-.188-.004-.05-.001-.338.001h-.052l-.147.004-.11.003-.134.006-.168.008-.144.01-.165.012-.1.009-.174.017-.076.008-.243.03-.067.01c-.064.01-.127.019-.19.03l-.073.011c-.083.014-.165.029-.248.045l-.293.056-.08.015-.251.046-.05.01-.303.054-.076.014-.253.044-.07.012-.316.055-.213.037h-.001l-.945.166-.043.008-.436.079-.044.008c-.484.09-.973.185-1.46.29l-.01.002c-.45.097-.897.203-1.34.32l-.01.002c-.115.03-.23.062-.344.094l-.024.006c-.11.031-.22.063-.329.096l-.036.01-.312.097-.05.016c-.099.032-.198.064-.295.098l-.063.021c-.093.033-.186.065-.278.099l-.075.028c-.087.032-.174.065-.26.099-.03.01-.058.023-.087.034l-.244.1-.097.042c-.076.033-.152.065-.227.1l-.108.05c-.07.033-.14.065-.209.099l-.118.06-.192.098-.127.07c-.058.032-.117.064-.174.097l-.139.083c-.051.03-.104.061-.154.093-.051.031-.1.065-.15.097l-.134.088c-.058.04-.115.081-.171.122-.034.025-.07.048-.103.073-.09.067-.178.136-.264.206-3.043 2.486-6.24 4.858-8.06 8.351l-.29.561-.492.959-.047.092-.447.883-.1.201-.398.8-.137.28c-.832 1.696-1.627 3.396-2.384 5.134-2.149-1.201-4.301-2.375-6.467-3.526l-1.228-.649h-.001c-2.133-1.122-4.28-2.222-6.453-3.3-.701-.348-4.29.213-3.592 1.522 1.945 3.647 3.826 7.324 5.71 11l.004.008.586 1.144v.001c1.371 2.673 2.747 5.343 4.152 8l.003.004.475.895v.001c.21.395.421.79.633 1.184-6.603 1.978-13.049 4.11-19.54 6.505-.912.337-1.895 1.633-.42 1.965 5.561 1.257 11.004 2.662 16.481 4.215-1.102 3.29-2.168 6.579-3.203 9.88v.001c-.427 1.364-.849 2.731-1.265 4.1l-.263.867-.244.81c-.185.615-.369 1.232-.552 1.85-.43 1.448 3.598.904 4.01-.486.23-.78.463-1.559.697-2.336l.002-.005c.233-.776.469-1.551.706-2.326.344-.08.403-.3.432-.891-.056 0-.108.002-.159.006.224-.726.45-1.45.676-2.173l.003-.01c.226-.722.454-1.445.684-2.167.271-.238.54-.471.812-.707.643-.553.773-.822.47-1.027-.374-.253-.575-.097-.759.095.705-2.189 1.424-4.374 2.16-6.56.17-.505-.424-.765-.785-.868-4.809-1.378-9.588-2.631-14.433-3.78 5.912-2.12 10.543-3.594 17.25-5.554.174-.051.563-.196.933-.401-.021.144.002.324.092.55.485.082.806-.017.97-.385.049-.123.074-.412.025-.449-.118-.083-.272-.185-.403-.24.164-.2.23-.42.108-.646-2.243-4.141-4.388-8.327-6.533-12.514.13.002.263-.042.385-.108.058-.032.115-.066.17-.104l2.464-1.656-.03-.043c.232-.162.469-.316.693-.485 1.286.71 2.57 1.428 3.854 2.158 1.078.614 3.134-.088 3.594-1.227l.284-.7c.063-.075.114-.136.153-.203.102-.174.19-.377.155-.541.307-.734.608-1.433.911-2.114-.002.221.046.481.144.78.68.021.977-.399 1.332-.79.16-.175.283-.442.01-.654-.187-.144-.495-.256-.7-.221-.194.035-.35.098-.472.188.854-1.877 1.75-3.677 2.872-5.83.745-1.43 1.275-2.604 1.906-3.25.27-.16.539-.322.804-.51l3.734-2.71c1.094-.865 2.233-1.68 3.28-2.6.804-.184 1.621-.353 2.438-.528l.094-.02.302-.066.136-.03.265-.058.155-.035.248-.057.165-.038.238-.057.17-.04.235-.06.17-.042.236-.062.165-.044.241-.067.157-.043.263-.078.131-.039c.131-.04.262-.08.391-.123.046.018.093.033.141.049l.06.018.068.019c.056.015.114.03.172.043l-2.214 1.783c-.19.154-.383.303-.563.462-.347.26-.671.575-.83 1.013-.059.179-.254.336-.432.414-.452.2-.779.525-1.085.907-.234.292-.55.514-.84.751-.85.684-1.685 1.394-2.577 2.011-.736.539-1.427 1.141-2.194 1.636-.265.172-.51.351-.714.569-.209.222-.366.478-.412.77-.392-.099-.67-.036-.907.114-.121.095-.227.218-.326.35-.115.154-.192.417-.36.432-.696.117-1.042.646-1.421 1.158-.254.34-.692.526-.948.865-.104.136-.214.263-.33.383-.101.107-.194.193-.3.28-.208.171-.435.32-.68.458l-.065.048c-.222.157-.406.37-.58.582-.089.107-.147.234-.16.407-.003.16.074.385.195.494.111.1.376.162.486.103.3-.144.548-.264.745-.472l.244-.26 1.892-1.634 2.021-1.777c.133-.117.272-.24.392-.377.137-.126.252-.269.33-.446.124-.253.32-.261.577-.289.258-.027.518-.036.69-.238.023-.025.06-.034.089-.055l2.19-1.537 1.293-.89 1.247-.967 2.49-1.94 1.64-1.276.614-.581.3-.294.238-.247c.49-.515 1.01-.96 1.637-1.303.468-.255.887-.589 1.316-.903l.263-.201 3.46.471.073.01c-.164.135-.331.266-.5.396l-.777.589c-.118.109-.237.22-.348.341l-.216.222-.273.27-.549.534-1.102 1.067c-.137.133-.216.351-.38.428-.311.147-.544.359-.787.614-.312.318-.61.658-.94.952-.31.237-.647.44-1.033.56-.115.038-.23.153-.27.232-.42.744-.977 1.319-1.72 1.762-.65.387-1.156 1.006-1.746 1.497-.527.461-1.127.8-1.48 1.436-.09.16-.32.273-.513.32-.72.173-1.303.535-1.843.96-.528.417-1.104.96-1.396 1.202-.029.175-.077.32-.144.443-.073.167-.177.293-.307.395-.133.106-.26.151-.552.307-.46.222-.495.717-.23.977.226.22.573.173 1.01-.184.02-.024.18-.143.176-.213.056-.3.21-.495.437-.592.09-.028.19-.042.298-.044.142.002.282-.127.408-.22l1.33-.934c.457-.326.903-.663 1.313-1.04.628-.59 1.386-.941 2.067-1.443.993-.74 2.022-1.445 2.933-2.282.262-.241.512-.49.78-.719.135-.116.263-.217.42-.326.19-.136.388-.262.597-.378.205-.112.413-.237.587-.39l.008-.006c.341-.345.691-.676 1.049-.996.255-.225.518-.44.786-.648.538-.415 1.097-.805 1.656-1.196.203-.142.395-.3.581-.465l.275-.253.22-.212c.109-.109.187-.247.278-.377.108-.13.229-.249.412-.295.495-.205.933-.736 1.429-1.039l.048-.033-.052-.064.051.064.043-.04c.341-.348.789-.6 1.138-.941l.558.322.2.114.314.18c.476.27.956.542 1.433.818l-.007.005c-.1.074-.195.15-.29.229-.19.158-.372.326-.553.496-.361.341-.717.69-1.11.976l.415.518.717.897.233.292c.693-.585 1.282-1.032 2.002-1.671.087-.077.215-.21.33-.285.105-.068.208-.138.311-.208.259.169.513.34.762.516l.133.095.182.131c.097.07.193.142.287.213l.104.08c.087.068.174.135.26.204l.099.08c.11.09.219.18.326.271l.082.072.014.013.083.076c-.047.035-.096.068-.147.1-.336.212-.656.458-.978.7l-.186.135-.145.097c-.098.062-.199.12-.304.166-.517.232-.786.899-1.342 1.047-.12.032-.223.07-.319.113-.062.084-.122.176-.18.285-.133.255-.378.412-.63.561-.127.075-.256.148-.375.23-.05.035-.134.1-.15.118-.012.016-.02.036-.024.062-.014.086-.055.14-.1.189-.036.051-.079.098-.092.172-.005.02-.007.042-.009.065.004.017 0 .043-.043.11l-.186.333c-.122.221-.248.44-.408.628-.46.539-.949 1.047-1.45 1.544l-.76.738-1.325 1.253-1.162.95-.24.194-.164.124-.335.236-.684.458c-.595.408-1.379.678-1.743 1.244-.437.676-1.151.877-1.638 1.422-.935.966-2.033 1.731-3.212 2.383-.398.218-.553.534-.41.896.108.279.542.433.877.181.472-.353 1.062-.499 1.51-.838.983-.75 1.896-1.568 2.797-2.468.159-.152.307-.335.498-.426 1.138-.539 2.225-1.173 3.228-1.943.134-.102.47-.381.744-.62l.846-.729.325-.31.582-.525.295-.258.149-.128.092-.073.69-.531c.463-.352.92-.712 1.32-1.14.247-.263.535-.486.822-.71l.425-.34c.08-.064.07-.053.095-.097.013-.028.033-.048.055-.067.05-.03.112-.042.167-.064.185-.125.47-.343.669-.55.198-.177.38-.38.598-.526.037-.024.067-.051.098-.079.034-.025.068-.047.1-.078.19-.182.428-.314.644-.468.325-.2.605-.453.883-.71l.421-.382c.25-.206.53-.432.807-.633.173-.126.34-.258.507-.394.519.622 1.073 1.328 1.61 2.043l-1.467 1.264c-.321.268-.639.49-.939.592-.393.257-.718.501-.992.735l.02.025-.02-.025c-.148.104-.301.242-.457.424-.071.246-.306.423-.565.58l-.197.116-.097.057c-.03.017-.017.001-.028.004-.02-.006-.037-.008-.037.009.001.023.007.05.015.08l.039.107.02.054.01.024c.001.005.004.008.004.013l-.04.052c-.21.277-.436.539-.712.762-.58.47-.937 1.173-1.597 1.578-.353.215-.348.781-.058 1.15.2.255.588.268.966.024.083-.054.148-.135.228-.195l1.835-1.374c.133-.099.296-.164.416-.276.08-.072.164-.151.252-.232l.05-.046c-.29.23.778-.632.888-.723.016.02.33-.216.519-.37.38-.3.978-.794.962-.814l2.271-1.808.2.29.012.018.187.279.002.002-1.16 1.099-.23.217c-.03.028-.015.004-.024.009.317-.29-.92.617-1.651 1.133-.162.135-.316.294-.452.464l.483.604.945 1.183.315.394c.196-.108.39-.265.586-.48.223-.245.421-.51.633-.765.105-.127.214-.252.331-.37.058-.06.12-.118.182-.174.06-.052.153-.127.135-.11.029-.01.061-.017.098-.02.027-.005.06-.006.14-.057 0 .013.15-.113.263-.206l.348-.291c.11-.092.218-.185.326-.279l.112.29.02.053.095.26.018.049c.075.21.15.425.223.645l.008.024c.034.1.068.202.1.305l.018.053.099.307.008.026c.075.234.148.471.222.71l-.12.091-.02.016c-.015.01-.05.017-.104.039l-.19.025c-.033.015 0-.022-.094.041-.07.044-.14.09-.213.135l-.437.28c-.583.38-1.153.775-1.463 1.06l.374.467-.373-.468c-.389.27-.793.622-1.148.967l-.131.13-.064.064-.112.103-.44.41c-.275.262-.515.496-.7.686-.109.117-.173.192-.228.26-.222.27-.472.522-.73.769l-.536.51c-.889.887-1.795 1.756-2.666 2.66-.194.195-.14.162-.179.22l-.06.128-.076.14c-.016.025-.018.041-.047.077l-.222.211c-.297.28-.6.553-.919.808-1.21.947-2.45 1.802-3.59 2.91-.144.15-.336.276-.542.324-.571.134-.984.485-1.34.904-.2.236-.434.423-.683.595l-1.367.91-.442.309c-.332.287-.652.59-.967.897l-.466.463-.228.236-.123.146c-.115.142-.051.443-.07.67l.231.168.593-.29c.307-.195.611-.39.91-.6.302-.219.585-.47.872-.719.162-.116.326-.232.493-.342l1.641-1.07 1.097-.693c.734-.46 1.473-.911 2.231-1.336 1.362-.835 2.599-1.807 3.825-2.814l.237-.2.083-.077c.05-.045.099-.09.157-.126.062-.05.134-.088.218-.113.018.022.211-.126.355-.238.15-.117.294-.237.435-.361.281-.25.548-.515.8-.8.353-.398.777-.73 1.179-1.08.176-.153.438-.233.556-.422.317-.413.721-.84 1.126-1.226.238-.197.486-.387.737-.574l.381-.28.19-.135.117-.076.96-.613c.132-.13.244-.253.342-.374.14-.069.285-.15.44-.252.391-.373.756-.763 1.138-1.115l.093-.08v.001l.063.197.014.045.058.181.017.05.09.275.039.116.036.105.046.135.032.094.053.15c.01.025.018.05.027.076l.08.22c.026.067.048.135.07.205.016.055.03.111.044.168.004.013.008.027.01.04.034.142.06.288.08.439-.306.192-.688.443-1.017.718-.305.234-.601.513-.843.753l-.316.32c-.088.09-.147.153-.237.228-.358.306-.723.606-1.091.902l-1.22 1.103-.81.69c-.522.446-1.158.747-1.457 1.45-.09.212-.223.404-.373.584-.133.165-.372.4-.382.428l-.204.254-.232.238-.06.062-.14.123-.28.248-1.13.987c-.407.356-.889.632-1.236 1.047-.248.295-.532.544-.832.77-.313.215-.654.4-.987.591-.668.38-1.327.769-1.836 1.367-.152.178-.46.195-.674.318-.118.068-.242.135-.357.21-.064.043-.1.07-.179.131-.083.065-.162.134-.234.207-.346.355-.783.723-1.232 1.054-.401.354-.822.68-1.278.963-.132.083-.26.169-.384.257-.087.056-.16.108-.237.166-.15.115-.285.242-.408.38-.246.277-.441.601-.593.973-.06.148-.178.35-.306.363-.43.04-.751.232-1.04.467l-.288.247-.334.297c-.222.199-.446.394-.683.572-.074.057-.123.148-.189.23l.111.7.05.252c.054-.01.107-.021.157-.036.557-.111.967-.456 1.349-.77l.607-.505.404-.35.8-.713c.266-.237.536-.472.813-.698l.422-.332.528-.393c.446-.327.883-.666 1.32-1.008l3.414-2.234c.078-.05.164-.096.256-.12.734-.191 1.278-.667 1.838-1.116.198-.153.356-.35.558-.49l2.145-1.537 1.073-.77.268-.193.162-.11.29-.194.066-.053c.094-.075.165-.175.235-.278.012-.03.137-.166.206-.247.083-.094.167-.186.255-.274.52-.516 1.062-1.01 1.599-1.51.142-.132.309-.238.448-.372l.453-.46.234-.235c.118-.112.238-.222.36-.33l.718-.608 1.327-.943c.106-.072.211-.145.316-.219-.015.07-.03.141-.047.212l-.013.06c-.015.067-.03.135-.047.202l-.015.068-.048.202-.016.066-.05.208-.013.05-.056.224v.001c-.088.35-.178.7-.266 1.044l-.036.145-.03.116-.042.166-.024.097-.042.17-.022.09c-.015.057-.029.115-.042.172l-.02.082-.042.177-.013.055c-.033.144-.065.286-.095.426l-.524.5c-.336.321-.67.645-.987.985l-1.092 1.17-.28.284-.241.236c-.113.108-.231.21-.356.303l-.037.027-.442.272c-.054.032-.19.127-.298.202l-.335.239c-.443.323-.87.665-1.26 1.059-.31.31-.595.67-.965.89-1.103.692-1.99 1.684-3.068 2.432-.383.262-.722.58-1.074.884-.176.152-.356.3-.546.434l-.144.1-.2.128c-.136.084-.276.164-.42.24-.294.154-.61.35-.904.547l-1.378 1.16c-.687.535-1.324 1.073-1.8 1.817-.215.33-.408.622-.945.72-.427.112-.825.528-1.235.806l.07.744.045.324c.088 0 .172-.004.252-.013.625-.027 1.046-.276 1.419-.685.376-.397.52-.654.819-.891l3.63-2.849.855-.523.945-.567c.266-.162.529-.327.785-.5.514-.348 1.006-.725 1.46-1.156.25-.236.601-.36.898-.547.552-.326 1.087-.668 1.537-1.107.43-.426.869-.811 1.394-1.114.593-.34 1.176-.784 1.692-1.176.165-.123.316-.266.469-.405.145-.157.292-.31.46-.438l.994-.792-.002.006c-.093.407-.187.813-.282 1.22l-.008.035-.265 1.132c-.2.854-.4 1.708-.594 2.563-.616.452-1.363.73-1.812 1.407-.045.067-.186.052-.279.083-.442.149-.814.392-1.18.653-.371.253-.715.547-1.06.839-.417.35-.794.75-1.198 1.117-.264.24-.58.425-.81.695-.215.247-.376.465-.658.69-.275.222-.593.396-1.01.478l-.189.175c-.38.425-.808.855-1.194 1.21-.348.32-.717.619-1.11.894-.374.263-.629.683-.976.987-.205.18-.353.36-.458.607-.12.26-.162.56-.087.919.388.126.709.073.974-.048.244-.104.446-.287.638-.457l1.341-1.177c.22-.2.435-.406.642-.62.218-.224.47-.49.688-.754.128-.152.268-.295.415-.434.264-.207.56-.405.823-.596l.392-.277.352-.239.716-.46 1.458-.909c.484-.306.96-.624 1.415-.965.452-.344.846-.755 1.222-1.182.125-.146.284-.263.446-.37-.04.185-.078.369-.116.553l-.016.083-.098.485-.02.096c-.035.178-.07.356-.103.534l-.006.028-.108.58-.009.047-.089.498-.027.16-.067.393-.03.185-.063.39-.026.17c-.029.184-.057.368-.083.552l-.008.051-.241.181c-.42.319-.876.632-1.167 1.065-.413.612-.965.994-1.571 1.37l-.734.475-.413.33c-.4.311-.777.657-1.208.894-.393.215-.751.428-.916.877-.047.126-.126.264-.235.322-.805.427-1.432 1.1-2.081 1.746l-.05.06c-.318.396-.657.78-.937 1.197-.337.503-.668.994-1.198 1.33-.501.318-.85.74-.808 1.548.736.015 1.226-.345 1.597-.75.77-.84 1.59-1.623 2.324-2.416.607-.524 1.196-1.08 1.753-1.734.805-.95 1.947-1.632 2.892-2.385l.043-.034c.451-.288.915-.532 1.365-.853l1.279-.929-.044.33-.004.028c-.03.223-.06.445-.092.667l-.005.037-.047.316-.002.014c-.034.224-.069.448-.106.67l-.005.03c-.056.337-.117.674-.184 1.01l-.002.011c-.046.225-.094.45-.145.674l-.002.01c-.078.335-.162.67-.257 1.002l-.004.016c-.063.222-.13.443-.202.663-.68.126-1.023.648-1.399 1.153-.253.341-.691.528-.948.866-.103.136-.213.264-.329.382-.101.108-.194.195-.3.282-.208.17-.436.32-.68.457l-.065.048c-.222.157-.406.37-.58.582-.09.108-.147.234-.16.408-.002.158.074.385.194.493.112.1.378.162.487.104.3-.145.547-.264.745-.473l.243-.26 1.893-1.634.058-.05-.001.003-.305.822-.078.21-.044.12-.113.307-.04.111-.093.253-.032.089-.115.322-.033.093-.094.266-.029.083-.113.33-.027.08-.092.273-.028.086-.108.333-.021.068c-.03.094-.06.188-.088.282l-.027.086c-.034.113-.068.225-.1.337l-.016.054-.083.293-.025.088-.091.34-.008.033-.079.311-.021.09c-.028.114-.055.228-.08.343-.029.129-.056.258-.083.387l-.02.093-.068.348-.007.038c-.054.282-.103.565-.149.849-.037-.06-.078-.124-.125-.194-.733.565-.881.837-.669 1.139.183.259.424.154.65.019-.144 1.043-.255 2.094-.369 3.144l-.06.545-.014.13-.08.703-.006.047c-.028.231-.056.462-.086.692l-.008.063c-.032.243-.064.485-.1.727l-.802.565-1.458 1.024c-.082.057-.14.147-.239.254.053.166.1.344.17.514.025.059.111.128.17.135.175.02.383.073.52.004.331-.163.643-.37.938-.593.151-.115.299-.238.444-.364-.343 1.857-.752 3.706-1.168 5.553l-.033.146-.158.696c-.029.014-.057.03-.085.05-.222.155-.423.36-.57.592-.129.205.123.57.366.543l.023-.003-.213.953-.03.138c-.07.315-.138.63-.206.944-.33 1.54 3.708.92 4.01-.485l.297-1.4.081-.389c.077-.365.153-.731.228-1.096l.07-.339c.098-.479.195-.958.29-1.436l.003-.015c.095-.47.187-.941.278-1.412l.054-.275c.083-.433.166-.866.247-1.299l.027-.14c.185-.988.365-1.977.538-2.967l.033-.19c.14-.802.276-1.606.408-2.412l.01-.06c.105-.641.207-1.284.306-1.93l.02-.126.127-.838.055-.374.093-.633c.051-.352.102-.705.15-1.058.393-2.812 1.501-5.43 2.412-8.117l.149-.45.047-.145.097-.31.049-.157.115-.388.068-.236.048-.17.075-.272.02-.077c.057-.213.112-.424.164-.636l.001-.003c.235-.946.427-1.885.599-2.856l.019-.107.049-.285.026-.16.055-.334.052-.321.03-.195.045-.296.025-.164.068-.465c.025-.176.051-.352.078-.527l.013-.084c.05-.323.1-.646.154-.968l.008-.049.08-.475.001-.004.112-.632.028-.154.097-.532.02-.103c.084-.449.17-.896.26-1.343.075-.372.151-.744.229-1.115l.001-.008c.077-.368.155-.735.234-1.101l.005-.022c.078-.363.157-.725.237-1.087l.006-.03.245-1.101.407-1.808c.196-.87.392-1.74.584-2.614l.025-.116c.059-.266.116-.532.173-.798l.031-.143.17-.802.024-.115c.059-.281.117-.563.174-.845l.057-.269.004-.016.06-.263c.026-.115.054-.231.083-.348l.008-.034c.059-.237.122-.479.187-.724l.01-.04.098-.36v-.003l.162-.594c.162-.592.325-1.197.47-1.803l.002-.004c.054-.225.105-.45.153-.674l.01-.043" transform="translate(-728 -2803) translate(83 1964) translate(125 714) translate(520 125) translate(0 5)"/>
                            <path fill="#C58FFF" d="M25.654 21.336c-1.155-1.492-3.608-3.918-5.483-4.327-1.769-.386-5.622-.313-7.357.448-1.015.445-1.949 1.274-2.826 2.176-1.89-3.738-3.868-7.48-6.114-11.175-.85-1.396-4.703.024-3.684 1.7 5.055 8.312 8.387 16.089 12.905 24.698.748 1.426 4.602.05 3.684-1.699-1.867-3.559-3.631-7.187-5.442-10.834l3.01-2.87c1.183.039 2.41.088 3.489-.138l.09-.022c.243.58 1.63 1.468 2.08 1.875 2.278 2.055 3.101 4.12 4.548 7.093.673 1.382 4.584.116 4.005-1.074-.909-1.868-1.635-4.21-2.905-5.85M37.68 22.187c-2.018-4.234-4.114-8.367-6.339-12.497-.506-.939-4.301.524-4.005 1.074 2.224 4.129 4.321 8.262 6.339 12.497.441.928 4.297-.458 4.004-1.074M24.288 5.475c.073.513.693.84 1.263.847h.063c1.015.011 3.366-.683 2.59-2.097L26.14.453c-.17-.309-.818-.425-1.106-.446-.517-.038-1.104.084-1.575.296-.734.33-1.468.978-1.016 1.801.615 1.124 1.23 2.248 1.846 3.37" transform="translate(-728 -2803) translate(83 1964) translate(125 714) translate(520 125) translate(0 5)"/>
                            <path fill="#000" d="M79.415 57.272c-.092-.645-.282-1.246-.56-1.833-.35-.746-.725-1.482-1.126-2.202-.364-1.356-1.224-2.462-2.203-3.439-.428-.427-.873-.837-1.304-1.262-.567-.56-1.115-1.15-1.81-1.559-.642-.376-1.374-.608-2.116-.73-.148-.089-.299-.173-.454-.251-.237-.12-.482-.215-.729-.314-.252-.101-.5-.205-.761-.278-.528-.146-1.082-.219-1.623-.289-.303-.04-.608-.06-.914-.073-.622-.024-1.245-.008-1.868 0-.614.009-1.227-.027-1.84-.022-.895.006-1.787.024-2.67.18-.863.155-1.712.31-2.543.59-.83.28-1.65.574-2.446.935-.555.251-1.1.523-1.644.798-.809.409-1.624.81-2.406 1.268-.717.42-1.36.95-1.996 1.482-1.119.932-2.051 2.056-2.922 3.218-.358.476-.694.97-1.006 1.478-.256.418-.514.845-.708 1.297-.453 1.052-.753 2.135-.923 3.265-.168 1.116-.219 2.236-.181 3.363.018.55.045 1.1.135 1.645.07.415.185.814.33 1.21.183.5.4.988.639 1.464.34.68.704 1.351 1.109 1.995.604.962 1.295 1.887 2.12 2.672.54.514 1.147.949 1.74 1.398.54.41 1.074.826 1.62 1.228.536.396 1.084.779 1.658 1.12.276.164.557.323.85.455.477.215.98.427 1.498.533.545.113 1.106.203 1.664.23.311.013.622.01.933.006.65-.008 1.297.004 1.946.035.66.032 1.32.071 1.98.074.925.005 1.875.007 2.791-.154.61-.107 1.223-.206 1.815-.388.609-.187 1.212-.402 1.801-.643.62-.253 1.22-.552 1.817-.855.582-.296 1.16-.6 1.756-.87.527-.239 1.03-.517 1.535-.802.238-.134.468-.28.69-.438.63-.45 1.242-.95 1.773-1.516.498-.53.949-1.114 1.362-1.713.61-.882 1.103-1.836 1.596-2.786.238-.458.476-.917.723-1.37.069-.092.134-.187.192-.287.026-.046.048-.093.07-.142.092-.211.185-.439.251-.66.077-.253.102-.5.091-.757.107-1.274.31-2.539.361-3.817.034-.827.023-1.67-.093-2.49" transform="translate(-728 -2803) translate(83 1964) translate(125 714) translate(520 125) translate(0 5)"/>
                            <path fill="#C58FFF" d="M69.866 67.761c-.326.58-.976 1.37-1.14 2.018-1.227.146-3.105 1.458-4.156 1.928-.097.043-.334.14-.572.242-.336.024-.737.061-.955.06-1.513-.008-3.079.105-4.586-.019-.047-.047-.103-.1-.177-.167-.647-.58-1.498-1.039-2.211-1.534-.66-.458-1.389-.886-2.012-1.395-.386-.314-.667-.561-.605-.486-.987-1.19-1.652-2.868-2.423-4.206-.2-.345-.49-.72-.687-1.1.082.031.019-.672.067-.992.251-1.69.188-3.431.389-5.13.021-.179.021-.28.01-.33.315-.487.753-.941 1.097-1.39l1.588-2.064c.243-.316 1.184-1.28.925-1.223.984-.563 2.138-.982 3.121-1.464.392-.192.99-.383 1.396-.643.439.082.904.13 1.385.156-1.08 1.234-2.551 3.046-3.099 4.47-.593 1.542.19 3.8.407 5.415.27 2.004.998 2.56 2.416 4.036 1.27 1.32 2.057 2.637 3.985 2.624 1.884-.012 5.371.22 6.902-1.069.155-.131.303-.28.449-.43l-1.514 2.693zm-1.45 2.582c-.011-.134.062-.235.168-.316-.085.112-.176.227-.169.316zm7.05-13.764c-.404-.868-.795-1.64-1.207-2.348-.048-.19-.1-.378-.164-.555-.555-1.53-2.356-2.907-3.468-4.087-.885-.94-1.654-1.193-2.617-1.232-.519-.344-1.052-.652-1.593-.823-1.468-.462-3.447-.22-4.956-.29-3.327-.154-5.401 1.07-8.375 2.565-2.413 1.211-4.592 3.925-5.86 6.297-1.003 1.878-1.404 6.202-.771 8.242.685 2.202 2.594 5.321 4.472 6.698 1.413 1.036 2.965 2.362 4.532 3.144 1.136.566 2.214.437 3.49.443 1.72.009 3.748.3 5.445-.083 1.739-.392 3.495-1.514 5.112-2.236 3.176-1.42 4.175-4.218 5.795-7.179.148-.17.246-.358.28-.566.054-.155.067-.294.044-.416.18-2.444.862-5.377-.16-7.574z" transform="translate(-728 -2803) translate(83 1964) translate(125 714) translate(520 125) translate(0 5)"/>
                        </g>
                    </g>
                </g>
            </g>
        </g>
    </g>
</svg>
