<svg xmlns="http://www.w3.org/2000/svg" width="135" height="180" viewBox="0 0 135 180">
    <g fill="none" fill-rule="evenodd">
        <g>
            <g>
                <g>
                    <path d="M0 0H135V180H0z" transform="translate(-208 -3878) translate(208 3647) translate(0 231)"/>
                    <g>
                        <path fill="#C58FFF" d="M86.508 22.788S75.733 16.083 54.136 16c-7.09-.027-15.066 1.639-20.378 4.295C11.998 31.175 4.744 56.831 3.29 72.91c-2.254 24.942 2.167 24.648 3.325 36.362 1.178 11.907 5.779 17.478 12.581 25.163 2.673 3.02 10.024 7.788 13.532 9.377 5.372 2.434 10.21 5.371 14.816 6.433 4.91 1.13 12.005-.5 19.785.343 3.492.377 7.988-1.578 11.999-3.064 12.42-4.602 24.262-13.99 29.2-31.212 5.297-18.478 4.688-17.754 5.637-31.595.839-12.232.399-49.544-27.658-61.929" transform="translate(-208 -3878) translate(208 3647) translate(0 231) translate(6.495 10.206)"/>
                        <path fill="#C58FFF" d="M43.924 146.66s-1.227 10.504 10.299 11.913c6.86.839 10.264-4.549 10.942-9.65l-21.24-2.263zM47.889 24.815S47.032 5.801 59.63 8.211c12.386 2.369 9.14 18.455 9.14 18.455l-20.882-1.85z" transform="translate(-208 -3878) translate(208 3647) translate(0 231) translate(6.495 10.206)"/>
                        <path fill="#000" d="M52.958 105.522c-1.317.282-2.843.4-4.053.318-1.01-.07-2.19-.303-2.785-.64-.625-.357-.948-.77-1.136-1.397 7.076-6.516 12.575-14.72 13.523-24.513.204-2.098-3.385-2.854-3.608-.542-.73 7.531-4.58 14.19-9.686 19.634-.862.92-1.769 1.796-2.698 2.645-.552.504-1.225.951-1.282 1.764-.055.782.269 1.722.581 2.418 1.126 2.508 3.822 3.711 6.42 4.006 1.806.205 3.725.138 5.508-.242 2.331-.498 1.317-3.899-.784-3.45" transform="translate(-208 -3878) translate(208 3647) translate(0 231) translate(6.495 10.206)"/>
                        <path fill="#FEFFFF" d="M96.905 76.098c-.032-.481.03-1.128-.236-1.54-.376-.585-1.242-1.028-1.756-1.436-.433-.346-.836-.686-1.31-.95-1.224-.682-2.428-1.29-3.738-1.722-1.475-.488-2.841-.766-4.369-1.01-1.237-.197-2.505-.073-3.754-.054-.036.001-.057.017-.087.024-.012 0-.023-.006-.036-.004-2.203.408-4.658.677-6.663 1.822-1.084.62-2.154 1.229-3.197 1.928-1.183.794-1.978 1.49-2.946 2.58-.327.37-.858.781-.961 1.297-.103.507.118 1.345.164 1.86.059.666.045 1.411.182 2.064.124.586.44.772.86 1.119 2.024 1.66 4.045 2.869 6.452 3.74 2.357.855 4.797.895 7.265.823 2.326-.07 4.328-.488 6.502-1.394 2.159-.9 4.133-2.02 5.83-3.77.755-.78 2.032-1.544 1.974-2.762-.044-.872-.118-1.744-.176-2.615M46.504 77.858c-.167-.622-.975-1.307-1.349-1.787-.341-.437-.652-.861-1.064-1.223-1.119-.984-2.188-1.842-3.47-2.559-1.326-.742-2.637-1.344-4.045-1.908-1.157-.463-2.437-.588-3.653-.824-2.266-.19-4.558-.434-6.808.085-1.168.27-2.37.483-3.435 1.058-1.127.61-2.207 1.2-3.263 1.932-.424.293-1.148.614-1.482 1.027-.32.396-.28 1.07-.343 1.578-.099.798-.272 1.628-.302 2.43-.018.5.123.664.437 1.056 1.631 2.041 3.304 3.772 5.536 5.085 2.161 1.272 4.492 1.866 6.895 2.467 2.35.588 4.64.434 6.999.021 2.22-.388 4.292-1.046 6.253-2.222.615-.368 1.197-.825 1.787-1.232.41-.284.77-.425.923-.9.205-.636.156-1.527.222-2.19.053-.517.303-1.37.162-1.894" transform="translate(-208 -3878) translate(208 3647) translate(0 231) translate(6.495 10.206)"/>
                        <path fill="#000" d="M33.368 69.491c5.592.75 10.198 3.936 12.68 8.185.829 1.417.608 3.145-.546 4.296-2.84 2.829-6.886 4.562-11.33 4.69-5.213-1.206-9.04-5.86-8.9-11.292.052-2.057.676-3.961 1.705-5.59 2.02-.46 4.175-.586 6.391-.289" transform="translate(-208 -3878) translate(208 3647) translate(0 231) translate(6.495 10.206)"/>
                        <path stroke="#000" d="M33.368 69.491c5.592.75 10.198 3.936 12.68 8.185.829 1.417.608 3.145-.546 4.296-2.84 2.829-6.886 4.562-11.33 4.69-5.213-1.206-9.04-5.86-8.9-11.292.052-2.057.676-3.961 1.705-5.59 2.02-.46 4.175-.586 6.391-.289z" transform="translate(-208 -3878) translate(208 3647) translate(0 231) translate(6.495 10.206)"/>
                        <path fill="#000" d="M77.137 74.699c-.141 5.687 4.526 10.44 10.421 10.626.257.008.501.004.746 0 3.968-1.066 7.268-3.331 9.385-6.294.35-.813.605-1.701.713-2.617.013-.012.014-.024.001-.036-.106-.616-.397-1.214-.875-1.712-3.338-3.558-8.56-5.677-14.274-5.29-1.765.11-3.438.457-5.007 1.009-.68 1.298-1.071 2.76-1.11 4.314" transform="translate(-208 -3878) translate(208 3647) translate(0 231) translate(6.495 10.206)"/>
                        <path stroke="#000" d="M77.137 74.699c-.141 5.687 4.526 10.44 10.421 10.626.257.008.501.004.746 0 3.968-1.066 7.268-3.331 9.385-6.294.35-.813.605-1.701.713-2.617.013-.012.014-.024.001-.036-.106-.616-.397-1.214-.875-1.712-3.338-3.558-8.56-5.677-14.274-5.29-1.765.11-3.438.457-5.007 1.009-.68 1.298-1.071 2.76-1.11 4.314z" transform="translate(-208 -3878) translate(208 3647) translate(0 231) translate(6.495 10.206)"/>
                        <path fill="#000" d="M67.935 67.967C72.76 62.85 78.622 58.655 85.16 55.7c1.63-.737 3.3-1.399 5.001-1.977 1.764-.6 3.65-1.282 5.522-1.47 3.635-.364 5.842 2.805 9.06 3.767.782.234-.118-1.725-.193-1.869-.386-.743-1.088-2.078-2.016-2.355-3.244-.97-5.294-4.025-8.988-3.784-1.912.125-3.807.78-5.605 1.378-1.706.566-3.381 1.214-5.017 1.94-6.688 2.97-12.683 7.218-17.604 12.438-.882.936 2.24 4.595 2.614 4.2M52.149 64.303c-5.615-4.229-11.4-8.244-17.339-12.03-1.37-.874-2.733-1.871-4.256-2.48-1.653-.66-3.281-.543-4.973-.087-3.46.934-6.85 2.157-10.15 3.53-1.203.502-.854 2.187-.242 2.975.785 1.014 2.117 1.502 3.332.996 2.824-1.176 5.708-2.192 8.658-3.025 1.446-.408 2.195-.629 3.492.157 1.31.794 2.596 1.625 3.88 2.455 5.124 3.306 10.11 6.808 14.972 10.47.898.676 2.398 1.16 3.277.17.824-.93.241-2.458-.651-3.13M35.541 125.978c11.912 7.446 27.105 8.105 39.4 1.281 2.103-1.168-.07-4.5-1.913-3.478-11.087 6.156-24.853 6.037-35.69-.738-.8-.499-1.947-.616-2.531.312-.546.864-.045 2.135.734 2.623M52.328 140.142c-.655 3.031-.621 6.146.151 9.154.101.39.535.772.823 1.02.51.438 1.135.844 1.745 1.14.226.11 2.333 1.014 2.124.203-.597-2.322-.765-4.71-.491-7.087-.01.072-.018.144-.027.217.077-.621.182-1.237.314-1.85.074-.34-.166-.61-.39-.855-.413-.452-.99-.862-1.52-1.173-.547-.32-1.135-.652-1.76-.805-.173-.042-.907-.25-.969.036" transform="translate(-208 -3878) translate(208 3647) translate(0 231) translate(6.495 10.206)"/>
                        <path fill="#A9FF03" d="M69.152 23.454c-.366-8.449-8.585-13.257-16.123-13.94-7.245-.655-15.357.445-21.975 3.576-3.684 1.742-6.906 4.19-9.39 7.458-1.664 2.19 2.503 4.985 4.18 2.78 4.682-6.161 12.588-8.493 19.935-9.22 4.202-.417 8.702-.57 12.68 1.071 3.128 1.29 5.77 4.13 5.923 7.656.116 2.665 4.902 3.674 4.77.62" transform="translate(-208 -3878) translate(208 3647) translate(0 231) translate(6.495 10.206)"/>
                        <path fill="#A9FF03" d="M67.27 22.35c-4.709-4.56-11.33-5.932-17.558-4.44-6.875 1.646-12.535 6.29-17.622 11.087-.952.898 2.309 4.992 3.101 4.244 4.748-4.476 9.978-8.835 16.275-10.726 5.292-1.59 12.042-1.198 16.227 2.855.444.43 1.457 1.148 1.462.067.004-1.065-1.194-2.417-1.884-3.086" transform="translate(-208 -3878) translate(208 3647) translate(0 231) translate(6.495 10.206)"/>
                        <path fill="#A9FF03" d="M71.542 27.71c1.142-6.73-1.387-13.33-5.998-18.383C60.595 3.906 53.358 1.105 46.039.26 41.7-.242 37.249.007 32.967.808c-1.019.19-2.521.8-2.369 2.04.144 1.165 1.886 1.535 2.852 1.355 8.047-1.506 17.076-.835 23.885 3.955 6.194 4.357 10.313 11.84 9.045 19.312-.423 2.49 4.796 2.395 5.162.24M99.89 86.538c-1.165 7.864-8.99 12.32-16.284 12.544-4.078.127-8.294-.791-12.077-2.307-3.279-1.313-6.514-3.207-8.81-5.967-2.362-2.84-3.56-6.26-3.146-9.977.347-3.118 1.853-6 4.579-7.531 3.012-1.207 6.455-1.443 9.622-1.634 4.504-.27 9.102-.01 13.54.811 3.465.641 7.098 1.655 9.702 4.189 2.597 2.525 3.393 6.366 2.874 9.872m3.51-8.7c-2.17-4.125-6.432-6.484-10.707-7.795-5.62-1.725-11.729-2.154-17.571-2.024-5.58.123-12.107.516-16.858 3.804-.658.455-.876.947-.812 1.406-3.654 4.46-3.793 11.51-.934 16.562 4.62 8.162 15.178 12.029 23.97 12.77 9.034.763 19.868-2.76 23.47-12.011 1.598-4.105 1.503-8.795-.558-12.712M44.745 89.269c-1.675 3.62-4.392 6.431-7.636 8.64-.476.323-.073.129-.618.312-.557.187-1.135.31-1.715.4-1.322.206-2.67.212-4.004.252-4.025.12-7.989.093-11.86-1.187-3.701-1.224-7.103-3.28-9.724-6.224-4.86-5.456-6.769-15.038-2.1-21.154 4.6-.727 9.239-1.148 13.894-1.22 4.548-.07 9.278-.03 13.75.907 4.066.851 8.298 2.9 10.238 6.84 1.8 3.655 1.458 8.798-.225 12.434m-.801-19.967c-4.895-2.49-10.765-2.571-16.125-2.632-5.963-.068-11.917.422-17.8 1.396-.436.072-.876.239-1.308.437.292-.415-1.033.033-1.184.094-1.022.412-2.144.954-2.973 1.706-6.109 5.54-5.661 15.524-1.092 21.864 2.39 3.316 5.713 5.717 9.442 7.252 4.337 1.784 8.76 2.018 13.381 1.875 3.124-.096 6.027-.316 8.94-1.57 3.96-1.704 7.866-4.348 10.718-7.637 2.896-3.338 4.482-7.205 4.589-11.66.119-4.944-2.23-8.91-6.588-11.125" transform="translate(-208 -3878) translate(208 3647) translate(0 231) translate(6.495 10.206)"/>
                        <path fill="#A9FF03" d="M62.304 76.195c-1.308-1.103-2.94-1.802-4.584-2.278-1.377-.4-2.81-.61-4.248-.585-1.968.036-4.272.535-5.571 2.106-.158.19.496.64.528.662.466.325 1.053.585 1.588.774.549.194 1.132.392 1.718.435.278.02.642.079.84-.162.945-1.141 2.65-1.59 3.954-1.71.21-.02.42-.032.63-.038.105-.004.21-.006.316-.006l.15.002.195.01c.124.01.249.02.372.035.017.001.034.004.05.006.83.628 1.907 1.047 2.92 1.237.32.06.916.235 1.206.045.236-.152.136-.364-.064-.533M108.137 79.339l10.756-11.226c.442-.463.783-.973.797-1.665.014-.616-.283-1.31-.725-1.704-.953-.845-2.71-1.1-3.68-.089L104.53 75.881c-.443.461-.783.971-.798 1.665-.013.615.284 1.31.726 1.702.952.847 2.71 1.103 3.68.09" transform="translate(-208 -3878) translate(208 3647) translate(0 231) translate(6.495 10.206)"/>
                    </g>
                </g>
            </g>
        </g>
    </g>
</svg>
