<svg xmlns="http://www.w3.org/2000/svg" width="90" height="125" viewBox="0 0 90 125">
    <g fill="none" fill-rule="evenodd">
        <g>
            <g>
                <g>
                    <g>
                        <path d="M0 125L90 125 90 0 0 0z" transform="translate(-728 -3053) translate(83 1964) translate(125 714) translate(520 375)"/>
                        <g>
                            <path fill="#C58FFF" d="M16.515 26.796c.937 1.063 4.037-.218 2.988-1.409-4.115-4.67-7.083-10.118-11.042-14.877-.907-1.089-4.012.178-2.988 1.409 3.96 4.758 6.928 10.205 11.042 14.877M29.901 19.323c.425-3.253.494-6.466 1.498-9.455.933-2.777.802-5.966 1.157-8.885.19-1.57-3.121-1.086-3.288.289-.395 3.256-.35 6.48-1.351 9.462-.939 2.795-.92 5.95-1.303 8.878-.204 1.564 3.108 1.086 3.287-.29M35.024 29.564c2.698-1.563 5.002-3.273 7.41-5.248 2.336-1.915 5.083-3.36 7.907-5.187 1.835-1.187-1.024-1.407-1.974-.793-2.522 1.631-5.339 2.989-7.656 4.89-2.71 2.223-4.78 3.876-7.661 5.545-1.888 1.094 1.01 1.352 1.974.793" transform="translate(-728 -3053) translate(83 1964) translate(125 714) translate(520 375) translate(19 4)"/>
                            <path fill="#5CFFE4" d="M34.277 105.545c-.244.054-.559.078-.68.257-.363.535-.991.538-1.495.79-.445.224-.83.563-1.219.88-.262.215-.2.572-.014.845.188.276.47.251.703.138.056-.027.11-.057.16-.088l2.32-1.437-.027-.042c.233-.145.472-.281.697-.437.203-.14.368-.332.231-.662-.156-.378-.439-.296-.676-.244M36.93 104.105c-.66.181-1.23.526-1.694 1.114l-.095.151c.1.065.192.112.276.144.434.185.694.013.945-.122.332-.18.64-.449.928-.713.059-.053.037-.286-.026-.388-.06-.097-.25-.21-.334-.186M38.94 102.974c-.728-.062-1.104.374-1.366 1.148.768.274 1.296.1 1.717-.33.108-.112.189-.375.129-.517-.06-.139-.32-.287-.48-.3M27.62 110.005c-.245.26-.249.615-.027.987.915.068.927.058 1.138-.938-.458-.348-.83-.347-1.11-.05M29.93 108.32c-.208-.027-.438.05-.594.21-.254.261-.3.772-.093 1.006.19.217.532.2.864-.042l.173-.145c.023-.064.095-.208.138-.383l.026-.094c.02-.093-.06-.27-.145-.362-.096-.103-.227-.167-.369-.19M26.687 111.177c-.375-.071-.844.487-.74.871.036.133.229.332.34.343.215.022.425-.07.612-.11.101-.138.202-.225.243-.343.05-.142.12-.362.051-.45-.115-.148-.333-.278-.506-.31M25.153 95.873l1.3-.78.323-.197.45-.284.98-.621.075-.049 1.94-1.04 1.41-.785c.075-.042.143-.101.2-.167.17-.195.093-.529-.158-.72-.493-.374-1.104-.422-1.43.137-.185.317-.428.508-.697.65-.141.075-.26.12-.434.192l-.652.29-.83.388-.33.204-2.287 1.474-1.875 1.193-.862.539-.958.607c-.267.212-.527.432-.777.662l-.64.58c-.169.155-.276.253-.422.375-.276.23-.569.44-.897.614-.318.166-.57.464-.796.753-.082.112-.26.29-.221.364.005.105.055.255.209.5.095.044.178.069.25.08.036.005.07.007.101.005.055-.02.108-.045.158-.072.205-.11.379-.258.548-.41.375-.337.753-.669 1.14-.99l.628-.508.924-.72.463-.348.998-.616.865-.526 1.304-.774zM33.757 90.636c-.18-.49-.427-.615-.768-.52-.531.154-1.059.31-.867 1.296.873.263 1.298-.2 1.635-.776M34.697 90.053c.397-.135.842-.225 1.033-.845-.36-.353-.641-.597-1.01-.45-.337.135-.426.453-.447.847-.014.259.22.518.424.448M14.28 103.34c.043-.13.04-.324-.018-.464-.038-.09-.236-.2-.323-.183-.228.048-.435.162-.746.288.086.236.114.483.237.613.202.211.41.09.58-.038.094-.07.234-.113.27-.216M20.835 92.717l.069-.061c.044-.043.088-.09.13-.14.086-.1.169-.213.256-.332-.38-.135-.632-.163-.821-.057-.288.171-.594.539-.907 1.072.452-.012.81-.162 1.15-.393l.123-.09zM8.72 94.844c-.672.308-1.591.61-1.925 1.805 1.102-.007 1.806-.603 2.364-1.104.068-.059.043-.343-.032-.46-.081-.125-.324-.278-.406-.24M38.362 92.942c-.703-.578-1.064-.397-1.612.856.838.11 1.345-.165 1.612-.856M31.238 96.875c.242 0 .47-.025.606-.035.135-.01.242-.038.33-.093.176-.109.276-.32.372-.685-.465-.237-.792-.167-1.061.078-.19.164-.44.42-.247.735M14.928 107.727l-.89.521c.63.578.74.604 1.037.32.26-.247.253-.51-.147-.84M17.498 106.987c.071-.085.052-.317-.002-.462-.033-.089-.222-.202-.316-.195-.353.027-.56.213-.412.738.33.19.568.11.73-.08M19.532 105.903c.152-.1.1-.335-.154-.72-.284-.033-.4.026-.487.35.265.336.473.482.64.37M18.996 110.487c-.616.526-1.304.872-2.042 1.23-.42.206-.799.471-.884 1.173.225.036.36.09.476.07 1.596-.253 2.71-1.3 3.968-2.087.232-.144.336-.461.018-.837-.593-.09-1.127.1-1.536.451M35.11 99.803c-.702-.109-1.175.037-1.563.7-.062.102-.296.1-.463.127-.224.034-.422.082-.59.144-.604.28-.902.798-.79 1.593.198.01.48.082.654-.027.267-.163.525-.34.782-.52l1.074-.632c.31-.182.622-.353.95-.502.377-.17.327-.324-.055-.883M27.572 104.284l-.472.284c-.451.334-.933.768-.898 1.509.67.102 1.169-.25 1.607-.57.19-.112.377-.225.573-.313.293-.13.482-.415.4-.806-.37-.353-.81-.363-1.21-.104M25.002 106.757c-.368.01-.683.158-.925.426-.117.131-.228.305-.296.485-.053.168-.086.365-.1.592.741.139 1.288-.39 1.75-.817.077-.07.063-.335-.011-.456-.072-.117-.29-.234-.418-.23M22.72 108.714l-.027-.009c-.4-.163-.739-.209-.914.143l-.341.646c.38.453.66.423.882.291.257-.152.497-.348.673-.589.01-.013.016-.027.02-.042.036-.152-.1-.369-.293-.44M30.343 102.462c-.53.137-.812.5-.794 1.217.636.303.991-.001 1.343-.29.17-.138.314-.325.143-.605-.17-.281-.425-.392-.692-.322M38.432 97.77c-.075.137-.099.422-.017.557.08.136.347.253.49.23.369-.06.642-.286.666-.832-.598-.342-.926-.342-1.139.045M40.114 96.647c-.184.132-.264.664-.086.807.158.124.382.126.469.152.388-.26.449-.478.294-.727-.14-.226-.508-.353-.677-.232M36.626 99.447c.616.122.618.12.866-.521-.834-.115-.832-.116-.866.521" transform="translate(-728 -3053) translate(83 1964) translate(125 714) translate(520 375) translate(19 4)"/>
                            <path fill="#5CFFE4" d="M47.778 95.808c-.17.477-.408 1.017-.687 1.573-.175.115-.355.221-.545.305-.375.165-.716.33-.9.741-.051.115-.134.24-.243.274-.823.285-1.472.824-2.15 1.327-.365.271-.745.525-1.085.83-.414.37-.822.732-1.371.897-.505.165-.955.423-1.105 1.15.664.22 1.193.083 1.62-.207 1.408-.905 2.919-1.656 4.226-2.727-.319.443-.64.84-.95 1.156-.745.762-1.849 1.173-2.631 1.898-.833.771-1.424 1.784-2.217 2.592-.52.527-1.347 1.287-2.042 1.763-.1.043-.272.11-.561.204-.637.21-1.4.433-1.997.747-.78.41-1.1.775-1.64 1.473-.373.486-.797.993-1.123 1.516-.209.09-.42.175-.627.255-1.075.414-2.04.86-2.993 1.487-.633.418-1.25.884-1.856 1.342-.198.065-.417.138-.505.158-.588.125-1.162.342-1.747.486.078-.061-1.097.017-1.454.02-.192.001-.375 0-.553-.002.689-.49 1.328-1.06 2.077-1.486.107-.06.203-.148.276-.247.163-.217-.03-.575-.32-.638-.435-.095-.802.055-.99.347-.35.54-.897.752-1.447.885-.44.107-.809.309-1.031.643-.099.148-.205.276-.319.386-.438-.052-.895-.123-1.416-.217-1.172-.211-2.47-.442-3.564-.97-1.109-.534-1.854-1.569-2.889-2.239-.955-.619-2.244-.735-3.166-1.383-.767-.539-1.399-1.575-1.995-2.397.072-.148.08-.309-.06-.462-1.13-1.244-1.993-1.99-2.4-3.594-.383-1.512-.808-2.994-1.212-4.5-.061-.23-.121-.461-.18-.695.359-.135.708-.293 1.036-.48.23-.128.358-.427.543-.663-.646-.405-.648-.412-.88-.289-.305.163-.614.32-.92.482-.46-2.118-.699-4.337-.318-6.436.113-.623.25-1.24.434-1.842.027-.021.054-.043.08-.066.614-.52 1.328-.861 2.048-1.193.098-.038.318-.146.587-.284.589.976 1.097 1.89 1.57 2.88-.054.12-.097.255-.132.408.116.01.225.016.33.017.355.78.692 1.615 1.032 2.568.097.271.201.53.313.78-.066.17-.102.383-.09.662.126-.038.246-.071.36-.103 1.098 2.11 2.747 3.528 4.552 5.375 1.022 1.047 4.106-.278 2.982-1.43-1.197-1.225-2.403-2.445-3.593-3.678-.523-.541-.822-1.197-1.114-2.003l.913-.795.924-.792 1.634-1.37.996-.675.81-.542.498-.323.856-.537.485-.303c.715 1.05 1.339 2.124 1.953 3.258-.155.202-.29.435-.405.706.27.007.518-.019.746-.07.258.486.516.984.782 1.496.695 1.337 3.784.1 2.975-1.458-.332-.639-.652-1.263-.974-1.875.2-.1.396-.206.591-.314.381-.175.803-.385 1.13-.561l.506-.278.295-.174c.39-.235.775-.482 1.181-.688.768-.389 1.524-.799 2.277-1.212.404-.209.668-.41 1.009-.614l.971-.602c.49-.298 1.006-.556 1.499-.85 1.19.53 3.598-.616 2.64-1.647-.048-.053-.098-.105-.147-.157.253-.093.506-.187.745-.308.27-.137.496-.352.75-.52l2.157-1.44c.755-.433 1.513-.858 2.289-1.258.724-.372 1.432-.768 2.127-1.182.218-.134.443-.265.66-.402.293.618.596 1.248.962 1.899.122.218.267.426.425.63-.4.257-.835.474-1.174.798-1.1 1.06-2.737 1.345-3.759 2.512-.148.179-.441.2-.649.328-.229.139-.477.274-.644.483-.41.514-.896.921-1.486 1.16-.67.272-1.145.747-1.473 1.422-.068.139-.186.314-.292.29-.734-.103-1.115.41-1.643.663-.043.02-.064.075-.098.119.063.26.125.52.19.797.413.16.674-.005.917-.142.5-.295.942-.568 1.451-.942.52-.395 1.046-.779 1.619-1.102 1.248-.692 2.37-1.594 3.591-2.347.08-.046.165-.089.256-.11.725-.163 1.275-.604 1.841-1.021.197-.144.382-.308.594-.43l1.932-1.112.046.056c.839 1.035.64 1.023.543 2.618l-.01.177c-.095.065-.193.124-.297.172-1.17.54-2.041 1.487-3.113 2.16-.76.471-1.295 1.247-2.124 1.64-.555.272-1.031.692-1.55 1.033-.647.414-1.29.912-1.75 1.504-.197.247-.415.491-.846.45-.298-.028-.553.194-.826.303l.117.903c.55.261.896.175 1.184-.09.225-.206.429-.448.69-.596l.447-.253.465-.308.933-.62c.624-.41 1.253-.813 1.894-1.197 1.02-.61 1.997-1.268 2.918-2.028.249-.216.59-.322.88-.489.3-.173.612-.331.912-.504-.016 1.107-.017 2.237-.057 3.362-.379.302-.729.64-1.1.953-.244.233-.537.414-.75.676-.375.463-.724.944-1.368 1.007-.65.69-1.37 1.28-2.182 1.755-.18.104-.335.253-.489.4-.152.134-.302.272-.47.381-.392.254-.639.582-.537 1.244.625.394 1.049.103 1.428-.145.44-.268.881-.61 1.311-.94.43-.336.845-.693 1.222-1.102.291-.316.651-.557.991-.819.557-.453 1.17-.84 1.798-1.213-.134 1.28-.368 2.529-.79 3.706M37.7 107.415c.113-.12.185-.128 0 0M4.841 87.122c.115-.188.438-.462.877-.84.116.183.23.362.34.539l-.099.052-.127.066-.073.032-.147.062c-.099.04-.2.076-.302.109-.148.048-.267.171-.398.26l-.363.244c.09-.177.187-.352.292-.524m2.353-4.83c.077-.439.214-.647.723-1.332.344-.157.642-.445.92-.73l.031-.038c.195.005.332-.067.65-.246.65-.366 1.294-.747 1.933-1.135.101-.061.172-.117.249-.187.105-.085.187-.168.245-.249.117-.16.14-.306.076-.437.479.015 1.045.061 1.993.138.093.007.25.003.441-.014.234.67.453 1.314.677 1.935-.043.01-.085.024-.126.044-.123.062-.238.176-.369.354-.066.09-.136.196-.214.32-.018.03-.043.064-.056.093l.024.045.054.098c-.096-.123-.222-.279-.296-.355-.027-.028-.051-.05-.068-.062-.019-.012-.025-.007-.006.028.031.06.053.104.068.138.006.017.01.03.012.041-.003.008.011.001-.008.022l-.094.09c-.255.233-.539.436-.829.634-.172.117-.347.256-.453.435-.174.29-.391.526-.638.727l-.55.417c-.251.183-.508.358-.768.528-.295.192-.606.366-.871.594l-.956.838-.122.079c-.278-.436-.563-.876-.852-1.326-.165-.257-.431-.405-.742-.467-.07-.358-.132-.712-.078-1.02m12.284-21.063c.018-.014.035-.028.05-.043.182-.172.356-.412.135-.637-.145-.15-.467-.25-.643-.192l-.027.01c-.457-.868-.866-1.758-1.437-2.573l1.085-.687c.79-.545 1.512-1.117 2.267-1.68.34-.256.709-.53.908-.91.277-.53.91-.161 1.211-.539.019-.024.052-.031.077-.05.63-.492 1.305-.913 1.98-1.337l1.013-.635c.729.81 1.446 1.631 2.126 2.495-.35.236-.68.494-.903.888-.081.142-.29.23-.464.26-1.259.179-1.994 1.145-2.876 1.892-.19.108-.373.232-.553.357-.136.09-.273.234-.33.38-.04.108-.05.262-.018.388-.15.11-.316.205-.494.287-.14-.14-.335-.259-.497-.277-.764-.088-1.161.399-1.136 1.349.41.156.752.054 1.073-.109.01.017.022.033.034.048.19.233.51.223.937-.072.032-.031.146-.098.204-.207.271-.506.676-.799 1.218-.926.203-.05.375-.207.546-.337.09-.07.182-.137.273-.205l1.627-1.021 2.285-1.457c.64.896 1.251 1.807 1.854 2.72-.436.227-.898.413-1.3.704-.41.297-.776.57-.932 1.027-1.015.33-1.89.675-2.784.993-.028.01-.063.03-.071.057-.265.815-1.103.826-1.637 1.264-.304.25-.74.327-1.02.6-.297.262-.599.535-.907.81-.241.084-.4.164-.49.254-.599-.624-1.178-1.268-1.736-1.96-.241-.298-.453-.61-.648-.93m-3.653-8.141c.837-.791 1.89-1.334 2.855-1.976.43-.292.885-.544 1.3-.854.904-.717 1.861-1.355 2.822-1.988.74.88 1.509 1.725 2.278 2.568l-.407.266-2.011 1.415c-.47.317-.87.667-1.025 1.287-.6-.125-.985.16-1.33.533-.146.157-.271.425-.448.439-.659.051-1.003.511-1.392.963-.238.298-.684.41-.97.683-.106-.102-.29-.186-.418-.193-.26-.017-.482.028-.674.124-.645-.74-1.305-1.445-1.884-2.263.452-.308.89-.637 1.304-1.004m-5.107-11.618c.326-.101.616-.223.775-.31l2.164-1.174c.62.008 1.267.028 1.797.161l-.07.046c-.76.472-1.295 1.247-2.124 1.64-.555.272-1.031.692-1.55 1.033-.238.152-.474.315-.702.49-.2.086-.373.204-.478.4-.209.193-.402.397-.571.614-.098.123-.2.246-.334.333l.03-.205c.177-1.13.58-2.077 1.063-3.028m7.985 8.188l-1.044.708c-.134.088-.265.18-.397.27-.169.02-.305.109-.422.272-.11.065-.222.125-.338.177-.374.164-.716.33-.9.74-.045.102-.116.211-.207.259-.373-.031-.483.004-.536.228-.377.189-.72.424-1.057.671-.955-1.388-2.112-2.118-3.567-3.16-.371-1.444-.681-2.554-.693-3.846l.047-.04c.225-.207.429-.449.69-.597l.448-.253.464-.308.933-.62c.625-.41 1.253-.813 1.894-1.196.907-.544 1.78-1.125 2.61-1.78.427.426.876.832 1.301 1.26.271.274.533.548.787.824-.396.311-.759.665-1.145.989-.244.233-.536.413-.75.676-.375.463-.725.944-1.369 1.007-.65.69-1.37 1.28-2.181 1.755-.18.104-.336.253-.489.4-.152.134-.302.273-.47.382-.393.253-.639.581-.537 1.243.625.394 1.048.103 1.428-.145.44-.268.881-.61 1.312-.94.43-.336.844-.692 1.221-1.102.29-.316.652-.557.991-.818.974-.793 2.12-1.384 3.21-2.045.625.753 1.225 1.525 1.841 2.33l.013.017c-.193.129-.385.259-.575.391-.394.283-.837.537-1.1.951-.368.585-.873.95-1.413 1.3m15.698-6.744c.04.016.07.03.116.047.356.142.764.155 1.148.227l-.019.026c-.28.422-.597.77-1.016 1.008-.594.343-1.22.622-1.817.974l-1.202.752c.116-.362.262-.71.489-1.115.32-.57 1.16-1.387 1.004-1.457.38-.14.88-.315 1.297-.462m.801-.3c.036.102-.108.128-.31.124.19-.069.313-.116.31-.124m4.514 3.39c-.067.034-.118.097-.171.157l.059.087-.038-.056c-.026.03-.053.057-.082.08-.786.619-1.671 1.074-2.472 1.672-.728.54-1.481 1.04-2.24 1.65-.14.11-.239.308-.398.36-.866.277-1.307 1.248-2.257 1.381-.083.012-.166.095-.212.174-.286.47-.62.886-1.047 1.191-.413-.511-.835-.997-1.265-1.474l.01-.02c.396-.789.783-1.526 1.107-2.294.502-.36 1-.726 1.475-1.123.505-.423 1.032-.777 1.647-1.02.458-.187.878-.401 1.306-.623 1.053-.531 1.939-1.294 2.951-1.906.677.441 1.282.978 1.966 1.625-.11.032-.223.078-.339.138m2.416 26.22c-.059.042-.119.083-.18.123-.455.303-.916.598-1.387.879-.334.2-.567.55-.852.826-.196.19-.388.386-.606.549-.651.498-1.367.904-2.055 1.342-.68.445-1.376.866-2.065 1.298l-1.606 1.03-.295.199c-.8-1.316-1.32-2.865-2.288-4.04-.525-.636-1.184-1.163-1.855-1.68.347-.25.675-.494.99-.733.024-.003.045-.008.064-.014.322-.118.62-.28.772-.632.494-.385.971-.765 1.464-1.148.513.018.699-.02.864-.258.092-.134.153-.345.135-.511.224-.17.449-.338.676-.501.154.17.465.191.713.028.265-.176.248-.406.144-.592l-.008-.011c.155-.098.31-.195.469-.286.333-.205.711-.343 1.057-.53.321.145.61.091.999-.162l.063-.05c.045-.035.09-.076.134-.122 1.53 1.684 3.15 3.291 4.653 4.996M21.536 84.553c-.216-.249-.42-.478-.615-.696.382-.346.768-.688 1.161-1.019l.68-.595.318-.288.165-.157.662-.625c.224-.205.453-.404.694-.588.12-.092.245-.18.372-.264.103-.066.25-.166.276-.153-.01-.017-.095-.133-.276-.37-.28-.343-.437-.514-.47-.527-.01-.004-.012.001-.007.016-.001.01.014.01.004.034l-.093.14c-.125.204-.263.476-.44.834-.262.02-.548 0-.798.073-.207.062-.442.189-.543.367-.05.085-.102.168-.156.247-.063.086-.083.128-.238.285-.252.262-.517.512-.789.753-.4.35-.815.687-1.236 1.018-.437-.53-.783-1.035-1.01-1.65-.217-.584-.427-1.17-.634-1.758.122-.212.202-.45.26-.728-.078-.03-.156-.047-.234-.054l.27-.132 1.353-.622c.07.021.143.024.213.001.26-.084.49-.2.64-.39.483-.206.988-.372 1.436-.633l.536-.318.582-.384 1.162-.786 1.606-1.094c.58.456 1.135.93 1.587 1.49.653.812 1.478 2.965 2.363 4.267-.486.325-.969.657-1.454.985-.43.315-1.028.703-1.6 1.065-.575.363-1.161.707-1.794.972-.279.116-.527.294-.795.433-.098.05-.158.096-.253.177-.145.11-.274.229-.387.355-.216.249-.41.55-.56.896.214.018.426-.003.617-.042.18-.034.351-.092.517-.164.4-.18.488-.257.658-.348l3.554-1.958c.392-.229.779-.365 1.14-.598.383-.251.738-.545 1.108-.813.772.901 1.653 1.744 2.483 2.596l-2.252 1.379c-.282.166-.5.328-.833.5l-.942.511-1.88 1.026c-.306.168-.62.33-.92.51-.41.241-1.018.617-1.544 1.009l-.088.065c-.159.138-.318.27-.477.399-.885-1.633-1.824-3.174-3.1-4.649m-9.241 7.114c-.266-.746-.563-1.45-.887-2.131.46-.272.954-.485 1.456-.704.83-.385 1.658-.772 2.37-1.362.293-.097.574-.216.846-.349.136-.066.27-.136.402-.21l.644-.376c.413-.25.82-.507 1.223-.767.359.423.693.847 1.008 1.273-.24.166-.481.33-.728.487l-1.045.639-1.926 1.232c-.457.36-.904.73-1.351 1.102l-1.863 1.593c-.048-.139-.097-.28-.15-.427m5.678-23.122c.243-.144.5-.373.765-.526.211-.126.43-.243.65-.36.072.003.143.006.213.013.55.058 1.11.073 1.668.091.293.536.572 1.11.86 1.686l-.23.145-1.42.895c-.08.051-.142.135-.242.233.043.16.08.333.14.498.02.057.1.128.155.136.169.027.366.086.502.027.154-.068.304-.145.451-.228-.03.042-.059.09-.083.142-.075.161-.044.432.044.594.052.093.343.138.476.08.399-.169.757-.414.831-.998-.358-.09-.642-.116-.861-.07l.073-.048c.214-.146.433-.317.64-.48.356.666.74 1.306 1.188 1.854.352.432.767.814 1.206 1.175l-.22.162-.617.483c-.412.322-.836.632-1.33.846-.26.113-.503.287-.654.547-.016.03-.044.072-.045.098l.02.068.011.035c-.405.214-.809.43-1.207.655-.257.145-.46.386-.721.52-.524.264-1.057.512-1.586.764l-.684.333c-.141-.407-.284-.815-.427-1.221-.18-.508-.658-.747-1.197-.785-.068-.197-.136-.393-.202-.59l.64-.366.551-.31c.152-.071.3-.153.442-.239.02-.013.04-.027.057-.041l2.15-1.21c.113-.063.227-.138.315-.233.24-.26.147-.594-.191-.793l-.042-.022c.038-.128.068-.29.101-.495-.175-.157-.359-.277-.544-.32-.178-.048-.412.02-.446.074-.12.132-.136.363.152.773-.05.03-.098.065-.146.103-.226-.257-.418-.426-.577-.375-.084.028-.126.141-.124.283.02.054-.047.202-.047.305-.012.113-.006.222.02.32l.003.006c-.892.18-1.565.76-2.347 1.138-.111.054-.22.113-.327.174-.05-.21-.095-.423-.13-.636-.309-1.884-.385-2.55.447-3.745.653-.345 1.249-.778 1.876-1.165m13.021-8.653c.199.02.474-.059.825-.244.527.804 1.056 1.607 1.6 2.402-.11.06-.217.125-.32.195-.255.173-.6.338-.838.44-.216.09-.427.18-.601.322-1.016.826-1.968 1.74-3.045 2.504l-.792.575-.8.54c-.533.36-1.068.721-1.614 1.064-.116.073-.233.144-.35.213-.321-.634-.636-1.258-.916-1.753-.146-.258-.404-.406-.713-.466L23 65.267c.933-.577 1.844-1.107 2.567-1.658.494-.352 1.077-.584 1.529-.986.703-.617 1.695-.913 1.925-1.984.683.06 1.087.022 1.354-.223.2-.183.406-.357.617-.524m3.456-2.184l.203-.15.936-.584 2.128-1.397c.208-.14.393-.315.586-.478.125-.105.232-.246.367-.331-.866 1.758-1.532 3.456-2.05 5.243l-.563.221c-.558-.825-1.104-1.657-1.652-2.488l.045-.036m.188 9.23c-.334.202-.663.413-.987.629-.32.223-.623.478-.932.72l-1.844 1.468-1.919 1.507-.239.19-.3.21-.459.318c-.491-.4-.955-.82-1.34-1.303-.312-.391-.697-1.092-1.097-1.866l.168-.106c.01.03.024.06.042.09.138.22.498.258.771.075.269-.18.231-.402.112-.582-.028-.042-.056-.08-.085-.114.116-.074.233-.146.355-.21.233-.127.476-.237.72-.346.287.235.476.243.69.057.113-.097.207-.327.177-.484.162-.095.318-.2.465-.322.051-.042.104-.082.156-.122.14.1.324.083.455-.032.22-.19.396-.44.65-.732l-.023-.016c.27-.18.544-.355.82-.525.13.027.27.004.39-.091.383-.32.907-.386 1.29-.657.458-.32.893-.669 1.323-1.024l.393-.24c.478.661.973 1.314 1.494 1.952.172.21.346.419.522.626-.602.289-1.201.585-1.768.93M31.904 53.72l.172-.151c.134-.032.257-.085.35-.2.02-.025.057-.036.084-.055l.996-.74c.109-.05.214-.108.305-.184.222-.185.452-.36.687-.526l1.422-.887c.372-.208.748-.405 1.121-.595.398-.19.763-.442 1.12-.695.172-.12.324-.267.48-.407l.79-.493c.473-.181.842-.573 1.294-.796l.045-.026-.066-.097.044.066c.093-.049.175-.101.247-.158.053.654-.06 1.405-.263 2.302-.111.492-.285.99-.491 1.487-.137.09-.283.173-.41.267l-1.064.769c-.405.306-.75.753-1.148 1.136-.176.115-.35.23-.516.356-.082.063-.166.13-.244.202-.04.02-.08.039-.123.056-.11.047-.187.168-.271.263-.092.103-.185.203-.28.302-.11.009-.214.027-.312.055-.113.035-.184.052-.347.15-.284.165-.546.36-.797.568-.364.302-.705.633-1.058.949-.625-.938-1.261-1.87-1.928-2.788l.161-.13M13.088 83.206c.103-.097.204-.195.304-.294.19-.063.354-.193.51-.325.034-.037.148-.224.188-.364.203-.196.408-.388.622-.57l.114-.099v-.005l-.008-.018-.016-.043c-.005-.015-.01-.033.004-.026.009-.002-.006.011.023-.002l.218-.12c.148-.077.3-.147.458-.21.017-.006.032-.013.048-.021.537 1.346 1.166 2.6 2.117 3.837-.205.137-.413.27-.625.396-.289.171-.584.331-.885.483-.181.093-.214.1-.312.14l-.256.098c-.195.07-.404.12-.576.229-.974.611-1.923 1.381-2.997 1.722-.144.041-.26.16-.388.244l-.651.42c-.464-.89-.97-1.749-1.507-2.611l.174-.117.411-.395c.623-.402 1.226-.839 1.81-1.3l.432-.352.373-.319c.142-.122.28-.249.415-.378m23.46-1.067c-.039.042-.06.103-.073.173-.903-.92-1.865-1.833-2.665-2.826.786-.486 1.616-.901 2.4-1.392.59-.368 1.099-.878 1.707-1.212 1.196-.58 2.174-1.455 3.252-2.193.402-.274.796-.562 1.19-.85.24-.172.478-.346.706-.522.127.154.253.308.377.464.626.788 1.085 1.565 1.49 2.351-1.286.832-2.683 1.526-3.811 2.589-.153.143-.353.263-.561.308-.29.062-.542.177-.77.325-.219.162-.41.361-.589.574-.404.485-.929.779-1.428 1.124-.445.308-.85.688-1.225 1.087m15.584-.039c-.078-.442-.22-.864-.458-1.253-.22-.36-.474-.681-.733-.995-.445-.539-.904-1.054-1.24-1.692-.02-.035-.039-.07-.057-.107-.396-.8-.64-1.63-1.025-2.413-.098-.198-.204-.394-.324-.585-.243-.386-.498-.764-.762-1.135-.586-.824-1.22-1.612-1.881-2.378-.37-.43-.75-.853-1.134-1.271-1.489-1.621-3.057-3.181-4.505-4.826l-.168-.193c-.104-.12-.208-.24-.31-.36-.115-.135-.23-.27-.342-.406l-.05-.061c-.242-.293-.478-.588-.71-.886.355-.187.618-.431.671-.713.19-1.017.428-1.972.705-2.894.047-.159.096-.316.145-.472.201-.63.42-1.248.654-1.86l.048-.038-.044.03c.603-1.575 1.31-3.118 2.073-4.785.1-.216.193-.426.283-.632.075-.172.146-.34.215-.507l.07-.038-.035-.05c.19-.47.352-.924.487-1.382.107-.367.196-.736.266-1.116.116-.637.18-1.308.184-2.057.004-.5-.092-.957-.265-1.381-.231-.567-.601-1.073-1.062-1.534-.367-.368-.791-.708-1.248-1.029-2.307-1.62-5.038-2.21-7.653-1.682-.847.17-1.682.457-2.486.865-.663.336-1.197.79-1.64 1.324-1.2 1.444-1.734 3.474-2.349 5.354l-.295-.312c-.609-.646-1.16-1.338-1.693-2.042-.34-.448-.672-.902-1.007-1.353-.505-.68-1.018-1.355-1.572-1.996-.12-.138-.243-.283-.368-.43-.316-.373-.649-.77-.998-1.166-.671-.762-1.404-1.52-2.194-2.096-.588-.428-1.207-.755-1.857-.908-.085-.02-.17-.037-.256-.051-2.465-.395-3.981-.047-5.796.808-.19-.187-.476-.257-.798-.246-.872.03-2.015.653-2.277 1.15l-.05.097c-.954 1.818-1.656 3.16-1.975 5.2-.296 1.893.208 3.327.686 5.186.002.051.024.1.064.145.06.097.156.17.28.222 1.52 1.1 2.468 1.878 3.456 3.226.134.183.268.376.405.582.06.09.12.184.182.279l.044.07c.105.164.215.323.33.478.629.844 1.396 1.557 2.074 2.351.2.235.393.477.571.732l.01.014c1.017 1.456 1.539 3.093 2.67 4.494.787.975 1.618 1.853 2.482 2.715l-.03.023c-2.116.162-4.176.741-5.56 2.404-.528.635-.932 1.136-1.216 1.64-.148.264-.263.529-.346.814l-.049.042.027.038c-.08.302-.124.627-.133.998-.005.208 0 .43.017.67.092 1.31.327 2.396.668 3.548l-.054.025c-.897-.004-1.797.04-2.724.174-2.141.307-2.949 1.521-4.248 3.178-1.253 1.596-2.34 2.569-1.912 4.676.041.202-.04.808.035.907-.356.338-.94.654-1.23.917-.649.586-.914.915-1.318 1.674-.476.894-.817 1.797-1.049 2.71-.057.226-.108.453-.152.68-.469 2.402-.224 4.869.303 7.394.073.345.155.688.242 1.029.064.247.13.493.199.738.306 1.098.647 2.186.905 3.3.508 2.196 1.105 2.949 2.558 4.554-.05.132-.04.276.076.423.644.822 1.291 2.086 2.124 2.71.946.709 2.31.808 3.313 1.424.935.576 1.592 1.635 2.55 2.169.991.553 2.32.863 3.426 1.142.81.204 1.67.374 2.553.5.439.062.884.113 1.333.151 3.19.272 6.57-.099 9.181-1.654.622-.37 1.244-.872 1.815-1.314.164-.126.341-.26.52-.387l.203-.095c.073-.035.148-.068.224-.1.294-.127.611-.24.934-.352.641-.225 1.303-.453 1.847-.8.098-.021.185-.075.262-.149.02-.02.039-.048.056-.08l.029-.024c.464-.39.815-.91 1.157-1.436.122-.19.244-.379.369-.564.058-.087.118-.174.179-.259.09-.017.59-.39 1.143-.597.141-.053.287-.102.434-.151.195-.066.393-.13.587-.201.25-.091.495-.192.722-.318.297-.165.575-.348.84-.543.283-.208.55-.432.807-.666 1.162-1.064 2.096-2.352 3.23-3.466 1.707-1.68 3.328-2.573 4.697-4.726.46-.724.849-1.46 1.176-2.206.372-.85.664-1.713.894-2.592.351-1.344.555-2.724.67-4.138.054-.642.089-1.292.11-1.949.018-.505.028-1.013.033-1.527.006-.664.088-1.36.15-2.05.07-.79.113-1.572-.015-2.299" transform="translate(-728 -3053) translate(83 1964) translate(125 714) translate(520 375) translate(19 4)"/>
                            <path fill="#5CFFE4" d="M25.269 80.189c0 .004-.001.009-.004.015.041.042.014.004.004-.015" transform="translate(-728 -3053) translate(83 1964) translate(125 714) translate(520 375) translate(19 4)"/>
                            <path fill="#5CFFE4" d="M25.27 80.19l-.004-.005c.005.002.007.006.007.012l-.004-.008M6.907 92.07c.178-.053.342-.141.502-.231.039-.022.046-.103.06-.161.028-.134-.167-.365-.298-.345-.259.04-.458.164-.548.555.13.087.234.197.284.182" transform="translate(-728 -3053) translate(83 1964) translate(125 714) translate(520 375) translate(19 4)"/>
                        </g>
                    </g>
                </g>
            </g>
        </g>
    </g>
</svg>
