<svg xmlns="http://www.w3.org/2000/svg" width="90" height="125" viewBox="0 0 90 125">
    <g fill="none" fill-rule="evenodd">
        <g>
            <g>
                <g>
                    <g>
                        <path d="M0 125L90 125 90 0 0 0z" transform="translate(-208 -3178) translate(83 1964) translate(125 714) translate(0 500)"/>
                        <g>
                            <path fill="#C58FFF" d="M44.178 50.08c-.2 0-.463-.036-.568.1-.316.412-.833.297-1.256.428-.373.116-.7.348-1.03.56-.217.139-.182.473-.046.757.14.288.375.318.576.258.045-.013.09-.03.135-.049l1.963-.855-.021-.043c.197-.087.399-.164.59-.262.178-.09.326-.233.216-.553-.126-.364-.363-.343-.559-.342M46.306 49.088c-.572.124-1.024.44-1.405.994.505.448.775.287 1.013.152.268-.144.498-.367.72-.589.045-.044.013-.261-.045-.36-.055-.095-.216-.212-.283-.197M47.875 48.201c-.601-.113-.877.259-1.043.953.645.31 1.067.19 1.385-.176.081-.095.13-.331.07-.465-.057-.132-.28-.288-.412-.312M38.491 52.712c-.217.178-.24.492-.075.87.756.257.766.252.994-.586-.362-.408-.67-.487-.919-.284M40.021 51.755l-.02.016c-.225.177-.295.623-.14.877.142.236.424.296.712.153l.016-.01.141-.069c.029-.059.126-.196.173-.374.022-.081-.033-.258-.096-.358-.177-.28-.545-.376-.786-.235M37.655 53.55c-.31-.142-.742.26-.663.614.027.123.185.336.28.369.179.064.355.029.511.034.088-.098.174-.152.212-.246.047-.113.116-.293.064-.386-.089-.156-.262-.32-.404-.385M42.73 36.521c-.183-.456-.402-.597-.652-.542-.399.086-.793.174-.554 1.086.704.324.992-.058 1.206-.544M43.503 36.105c.321-.058.749-.175.905-.748-.329-.345-.587-.584-.923-.45-.314.134-.371.404-.367.75.001.231.214.488.385.448M25.369 45.495c-.187.045-.344.148-.59.264.108.212.168.434.292.552.202.19.36.08.486-.037.069-.062.181-.102.195-.196.018-.118-.013-.293-.084-.42-.045-.08-.228-.179-.3-.163M33.312 36.042c.093.007.175-.013.25-.053.152-.078.277-.234.415-.408-.295-.2-.492-.278-.64-.224-.073.027-.135.087-.19.183-.067.101-.066.207-.226.427.084.023.173.032.242.043.052.018.102.028.149.032M46.051 38.707c-.211.108-.409.459-.602.973.71.214 1.158-.068 1.365-.691-.313-.29-.55-.393-.763-.282M26.972 50.027l-.464.335c.538.575.616.609.725.42.17-.22.12-.456-.261-.755M28.642 48.772c-.292.023-.44.191-.236.665.306.17.494.1.602-.073.047-.076-.004-.286-.07-.416-.041-.08-.217-.183-.296-.176M30.412 47.533c-.093.092-.166.207-.217.352.207.252.42.356.634.281.052-.013.105-.038.16-.072.25-.16.252-.414.013-.784-.241.027-.44.096-.59.223M43.378 45.482c-.034.08-.197.052-.314.046-.74-.032-.999.284-.92 1.218.168.043.378.17.503.117.352-.15.691-.333 1.02-.523.321-.197.644-.39.992-.54.291-.125.24-.27-.105-.814-.558-.166-.962-.053-1.176.496M38.822 47.613c-.27.124-.59.214-.847.408-.212.187-.375.451-.413.877.362.132.65.113.912.033.345-.079.642-.254.953-.33.226-.052.35-.252.286-.613-.292-.388-.571-.52-.891-.375M36.49 49.266c-.611-.141-1.077.253-1.246 1.092.724.212 1.144-.102 1.566-.39.067-.046.07-.284.015-.407-.053-.12-.227-.27-.334-.295M34.255 50.652c-.352-.19-.752-.207-.999.183l-.33.507-.098.187c.15.152.283.239.404.277.204.073.374.022.523-.066.267-.158.57-.388.723-.609.092-.124-.02-.381-.223-.479M41.589 46.989c-.133-.285-.338-.433-.557-.423-.434.02-.672.29-.677.935.51.396.807.192 1.102.002.14-.091.264-.23.132-.514M47.54 44.171c.309-.013.527-.183.516-.669-.524-.37-.802-.408-.96-.086-.057.114-.06.365.015.495.076.13.308.264.429.26M49.044 42.805c-.129-.22-.445-.36-.582-.258-.15.112-.192.6-.033.744.14.124.328.14.404.17.313-.217.354-.414.211-.656M46.407 44.378c-.681-.172-.678-.173-.659.406.505.163.507.161.659-.406M22.483 21.245c.062.034.12.057.175.073.082.028.157.04.224.041.123-.01.075-.21-.014-.63-.194-.136-.363-.38-.469-.385-.105-.009-.157.044-.206.126-.012.027-.024.057-.034.087-.043.13.201.62.324.688M23.751 20.652c.389-.046.777-.136.864-.74-.221-.356-.426-.62-.74-.541-.283.07-.533.508-.49.88.028.253.218.42.366.401M25.89 19.107c-.278-.349-.588-.571-.884-.37-.256.174-.41.461-.17.932.843.266.918.227 1.055-.562M25.575 24.189c-.13.157.037.524.243.546.478.05.929.015 1.062-.635-.293-.36-.544-.429-.764-.326-.203.094-.393.237-.541.415M35.154 19.94c.155-.053.32-.127.414-.245.09-.116.142-.285.134-.537-.282-.13-.492-.192-.656-.174-.18.02-.301.117-.369.295-.051.136-.008.38.076.534.049.09.294.162.401.127M28.315 23.745l1.233-.637c.417-.22.874-.493 1.31-.736l2.719-1.531c.096-.055.192-.119.264-.204.199-.232.105-.547-.199-.748-.335-.224-.585-.12-.81.07-.167.143-.288.422-.48.443-.829.09-1.412.635-2.11.964-.399.188-.766.454-1.128.685-.347.21-.703.407-1.115.505-.435.104-.813.437-.67 1.306.394.046.707.025.986-.117M24.297 24.703c-.053-.056-.07-.103-.163-.084-.15.015-.283.099-.424.17-.254.126-.393.325-.28.806.516.063.83.059 1.01-.052.09-.055.149-.137.18-.248-.026-.078-.072-.19-.137-.336-.076-.115-.137-.198-.186-.256M40.633 16.324c.185-.13.33-.32.541-.533-.617-.56-.873-.62-1.076-.268-.07.124-.053.408.03.588.115.252.353.321.505.213M24.54 24.358c-.067.046-.065.133-.031.27.04.16.25.518.333.593.067.064.123.096.172.05.02-.02.032-.057.032-.114.009-.062.07-.177.08-.298-.551-.484-.502-.557-.585-.501M37.198 18.486c.057-.12.072-.337.014-.494-.09-.248-.38-.376-.561-.303-.293.12-.333.402-.157.887.462.107.608.114.704-.09M39.602 16.996c.095-.075.17-.283.13-.43-.04-.147-.224-.351-.36-.428-.368-.21-.504.056-.65.363.438.559.643.681.88.495M22.599 26.363c.062-.058.068-.29.01-.383-.073-.116-.264-.247-.359-.238-.337.034-.565.216-.48.734.403.265.627.08.829-.113M38.185 17.823c.172-.119.13-.323.03-.501-.18-.296-.339-.407-.513-.293-.177.118-.211.39-.082.616.124.214.388.301.565.178M21.56 32.548c.377-.253.807-.447 1.113-.782.263-.29.573-.511.9-.708.032-.017.105-.065.102-.055l.013.012.025.027.052.06c.024.027.037.042.042.045l.002-.003c.001-.003-.007 0 .003-.008l.077-.055c.102-.073.2-.153.294-.24.593-.148 1.095-.448 1.572-.788l1.194-.883c0-.006-.002-.017-.008-.036-.001-.025-.05-.036.14-.132.324-.163.662-.3 1.03-.38.15-.034.278-.142.414-.22.185-.105.24-.284.123-.556-.873-.516-.949-.492-1.714.566-.096-.035-.247-.054-.305-.113-.051-.062-.103-.118-.144-.153-.083-.054-.115-.094-.09-.033l.024.069c.03.087.036.123.028.138-.002.003-.005.004-.01.004l-.146.077-.332.157c-.15.067-.302.152-.4.287-.318.441-.77.648-1.267.792-.14.04-.294.06-.413.136l-.371.252-.184.129c-.023.017-.077.051-.076.055l-.002.01c-.005.026-.013.044-.043.03-.018-.004-.05-.03-.096-.072-.025-.023-.006.017-.008.026l-.742.613-.62.485c-.188.143-.354.325-.573.415-.18.075-.31.188-.397.349-.016.06-.143.224-.222.371-.086.152-.162.318-.233.5.305-.06.608-.154.839-.235.153-.023.288-.07.409-.153M52.106 47.847l.008-.013c-.1.103-.128.151-.113.146.033-.047.068-.09.105-.133M14.035 43.695c-.03.01-.063.035-.095.062.033-.028.066-.052.095-.062M65.255 53.468c.054-.055-.021-.194 0 0M20.013 56.063c.024-.023.028-.027 0 0" transform="translate(-208 -3178) translate(83 1964) translate(125 714) translate(0 500) translate(8 11)"/>
                            <path fill="#C58FFF" d="M61.287 60.01c-.77-.59-1.537-1.182-2.317-1.757-.18-.132-.359-.265-.54-.395-.16-.116-.323-.23-.486-.345-.962-.673-1.957-1.327-2.85-2.08-1.18-.993-2.306-2.059-3.453-3.094.519-.356.917-.8 1.293-1.279.22-.278.431-.567.656-.857.137-.177.282-.354.43-.531.57-.686 1.182-1.382 1.596-2.148.526-.977.985-1.995 1.477-2.988.085-.17.179-.343.273-.517.7.695 1.397 1.392 2.097 2.088.326.325.653.649.98.972.31.306.619.61.93.914.023.685.046 1.37.072 2.056.019.523.04 1.046.063 1.568.048 1.088.107 2.175.189 3.26.04.545.087 1.09.14 1.633.146 1.478.344 2.95.622 4.41-.383-.304-.774-.604-1.172-.91M49.148 51.66c-.84.55-1.682 1.097-2.523 1.646-.348.227-.983.484-1.261.812.171-.184.527-.232.1-.033l-.12.057c-.208.096-.415.193-.621.29-1.092.51-2.186 1.017-3.275 1.531-.767.362-1.009.672-1.152 1.203-.306.212-.594.455-.897.672-.177.128-.36.246-.556.345-.098.05-.198.095-.303.133-.09.03-.18.051-.278.066-.204.03-.368.147-.453.358-.058.174-.069.404-.014.696.182.033.344.041.492.027.349-.015.578-.11.89-.347.276-.205.568-.385.859-.566l-.143.819-2.06 1.836-.99-.862c.09-.114.16-.26.192-.46-.185-.107-.391-.299-.482-.27-.13.044-.259.091-.383.145l-1.175-1.022.343-2.768c.004-.026.005-.05.006-.075.121-.113.244-.223.372-.326.1-.068.202-.131.308-.19.08-.045.151-.116.203-.198.114-.183-.055-.533-.299-.614-.324-.107-.609-.025-.763.17-.02.028-.037.058-.051.09-.096.209-.228.363-.38.48l-2.697-1.021c-.371-.14-.742-.288-1.114-.43.405-.319.787-.675 1.198-.985.168-.127.217-.417-.107-.757-.518-.076-.93.088-1.221.405-.307.334-.666.586-1.04.819l-3.08-1.9c-.698-.43-.972-.856-1.459-1.542l-2.038-2.867c-.002-.017-.004-.03-.01-.053-.051-.234-.187-.474-.276-.696-.254-.638-.508-1.275-.76-1.914-.294-.737-.645-1.466-.84-2.236l-.966-3.834c-.184-.73-.18-1.315-.172-2.077l.046-3.98.004-.308.012-.089c.073-.519.11-1.045.163-1.566.132-1.263.256-2.528.395-3.791.089-.814.22-1.623.335-2.434.105-.743.155-1.529.297-2.276.364.123.62.08.771-.19.027-.048.048-.134.057-.213.015-.082-.028-.13-.038-.157-.105-.179-.38-.377-.473-.35-.034.012-.068.024-.1.037.296-1.017.705-2.02 1.043-3.02.118-.349.318-.751.391-1.126l.04-.038c.177-.16.333-.354.496-.529.866-.924 1.742-1.84 2.598-2.774.083-.06.298-.243.308-.25l1.524-1.216 1.569-1.25c.049-.04.11-.08.168-.122 1.07-.416 2.119-.904 3.175-1.35l.976-.411c.052-.022.11-.047.17-.075-.027.146.01.311.104.446.164.234.432.268.78.06.026-.023.12-.068.166-.158.208-.425.546-.618 1.009-.636.173-.009.317-.12.461-.205.657-.391 1.358-.722 1.947-1.208.455-.376.999-.564 1.51-.827.007-.005.016-.009.024-.013l-.153 2.22c-.002.023.006.038.007.058-.066.205-.002.399.34.506l.118.038c.031.01.06.023.094.03l.747.237c-.22.087-.436.18-.632.31-.33.22-.624.423-.739.82l-2.349.42c-.024.005-.053.016-.06.038-.22.659-.911.57-1.347.89-.247.183-.609.195-.835.402-.66.605-1.259 1.297-1.968 1.84-.367.269-.653.55-1.067.84-.399.289-.799.578-1.21.849-.444.293-.91.555-1.47.638-.23.033-.406.252-.604.391-.108.077-.2.184-.316.243-.828.42-1.684.869-2.468 1.2-.066.03-.118.093-.2.161.031.151.057.313.104.472.015.054.079.132.124.152.136.056.296.146.408.12.269-.065.524-.17.769-.292.586-.316 1.123-.817 1.771-.98.962-.243 1.693-.85 2.492-1.351.206-.13.397-.285.611-.398.262-.139.54-.255.812-.38.24-.123.461-.255.658-.432 1.05-.952 2.316-1.535 3.497-2.264.4-.257.884-.38 1.267-.648.587-.428 1.437-.506 1.604-1.43.567.138.9.153 1.113-.036.494-.44 1.03-.802 1.637-1.066.516.162 1.03.326 1.545.49.173.054.35.127.528.167.055.012.093.026.121.037.468.37.967.71 1.47 1.048l-.062.031c-.428.222-1 .294-1.252.693-.302.484-.825.504-1.17.82-.645.613-1.407 1.053-2.241 1.372-.282.108-.38.341-.255.667.097.251.423.46.655.313.327-.204.752-.214 1.062-.411.681-.437 1.299-.96 1.944-1.465.111-.095.216-.218.353-.255.783-.213 1.527-.506 2.213-.912.444.318.873.652 1.266 1.02.398.375.755.82 1.105 1.265-.039.03-.077.048-.115.034-.626-.228-.787.455-1.257.516-.423.707-1.153.915-1.824 1.224-.674.275-1.357.51-1.988.848-1.08.573-2.081 1.275-3.12 1.912-.92.635-1.835 1.288-2.738 1.949-2.646-.5-5.514.462-7.28 2.525-.599.7-1.042 1.497-1.325 2.34-.402.25-.788.515-1.19.77-.285.18-.316.498-.134 1.012.205-.02.429.008.606-.067.135-.056.264-.126.39-.204-.137 1.291.08 2.618.672 3.82l-.13.056-.456.207-.985.466-.436.259-1.667 1.02-1.107.697c-.82.52-1.146.741-2.93 1.834l-.264.165-1.064.78-.53.394-.28.216c-.268.212-.493.464-.36 1.151.381-.134.696-.202.963-.345.109-.06.172-.09.315-.18l.529-.355c.351-.237.694-.487 1.038-.736l1.068-.666.531-.34.304-.206c.36-.25.72-.5 1.089-.736l1.278-.81.773-.482 1.246-.756 1.517-.754.059-.029c.8 1.16 1.925 2.003 3.196 2.5-.146.157-.272.356-.377.605.679.203 1.172.066 1.587-.242.994.209 2.037.223 3.054.031 2.692-.507 4.92-2.479 5.735-5.016.125-.118.238-.256.33-.427l-.15-.248c.093-.436.146-.886.152-1.345-.013-.967-.216-1.897-.578-2.747l.457-.192c.502-.228.932-.591 1.45-.785.98-.366 1.756-1.052 2.626-1.588 1.21-.841 2.28-1.891 3.701-2.378.247-.084.482-.196.705-.324.22.653.423 1.31.582 1.973.066.27.117.544.164.82-.669.524-1.298 1.11-2.004 1.571-.501.327-1.022.62-1.53.938-.542.3-1.065.629-1.53 1.053-.121.111-.283.196-.455.21-.474.043-.822.295-1.122.612-.34.358-.788.53-1.211.751-.383.189-.711.475-1.013.787-.092.094-.054.363-.076.551l.17.192c.3-.08.61-.134.893-.245.22-.088.418-.231.632-.34 1.224-.598 2.426-1.238 3.684-1.773.293-.125.584-.256.871-.39.273-.146.536-.3.8-.456.527-.313 1.042-.645 1.549-.993.216-.148.43-.302.65-.444.127.712.28 1.43.352 2.147.027.274.047.549.063.824l-.74.54c-.336.244-.73.408-1.017.711-.862.834-2.203.912-3.035 1.809-.124.132-.376.103-.551.18-.194.085-.405.162-.546.318-.34.39-.766.645-1.245.792-.554.154-.937.518-1.193 1.08-.052.113-.148.259-.246.242-.657-.118-1.006.37-1.484.602-.038.018-.057.071-.088.112l.174.768c.374.164.605.013.823-.112.883-.51 1.666-1.18 2.604-1.609 1.026-.453 2.015-.998 3.016-1.51.065-.032.134-.06.209-.068.594-.06 1.036-.394 1.491-.703.159-.108.307-.233.478-.318.476-.257.947-.516 1.414-.778.016.898.032 1.796.112 2.688l.01.074c-.005.03-.01.069-.017.128l-.005.05c-.755.398-1.386 1.002-2.128 1.422-.612.34-1.083.895-1.78 1.114-.473.145-.877.432-1.296.68-.532.297-1.045.618-1.43 1.144-.167.226-.353.448-.728.392-.26-.04-.48.159-.715.251l.123.859c.487.271.782.208 1.024-.03.19-.184.361-.403.585-.531l1.523-.869.77-.42.807-.359c.864-.368 1.703-.766 2.425-1.369.175-.147.413-.206.628-.298l-.278 2.894c-.024.241-.041.483-.055.725-.106.07-.21.145-.296.24-.315.343-.608.708-1.157.657-.554.486-1.118.953-1.79 1.26-.295.142-.504.443-.78.625-.32.212-.517.506-.405 1.131.54.41.879.169 1.184-.037.707-.476 1.45-.898 2.056-1.533.243-.233.549-.383.835-.556.102-.062.206-.121.311-.18 0 .917.025 1.836.022 2.747 0 .218-.003.437-.002.655.002.324-.051.056-.003-.002-.132.157-.234.375-.326.594-.033.013-.067.025-.1.036-.309.098-.59.201-.732.546-.04.096-.105.196-.191.222-.653.196-1.155.642-1.68 1.052-.284.221-.58.425-.839.678-.31.319-.646.571-1.095.666-.424.08-.76.303-.837.954.563.258.978.145 1.326-.055.308-.178.625-.34.937-.508l.907-.546c.437-.272.863-.56 1.265-.89-.264.53-.527 1.062-.784 1.596l-.023.043c.01-.011.017-.02.028-.03-.013.012-.024.03-.036.043-.047.082-.092.129-.105.133-.023.033-.046.066-.07.095l-1.07 1.38-1.713 2.206m-25.501 1.497l-3.455 2.775c-.148.118-.318.229-.451.362l.257-.254c-.048.046-.229.216-.348.302l-2.149 1.53c-.514.367-1.035.725-1.542 1.1-.492.362-.88.836-1.298 1.28l-1.896 2.018c-.169.18-.398.363-.535.57-.006.009-.003.009-.005.015l-.328.241.182-.877c.195-.942.455-1.884.53-2.844.198-2.497.352-4.994.678-7.478l.574-4.372c1.073-1.085 2.19-2.147 3.19-3.296.24-.276.473-.56.71-.84.032.097.06.196.096.291.463 1.235.975 2.453 1.462 3.679.303.762.705 1.333 1.181 2.004l1.301 1.83c.26.366.501.84.821 1.157.185.183.455.305.678.443l.458.283c-.036.027-.076.053-.111.081m2.565-39.768c.236-.257.09-.089-.002.003l.002-.003M37.05 2.9l2.307 2.21c-.33.193-.651.393-.85.774-.062.119-.231.173-.376.178-1.073.038-1.71.815-2.502 1.327-.114.3-.283.515-.495.67-.095.078-.2.142-.312.196.15-.16.24-.347.208-.562l-.397-2.587 2.417-2.205m15.146 14.28c.02.022.029.038.042.056.121.379.25.757.383 1.136-.135.095-.24.196-.392.22-.394.063-.673.296-.913.592-.288.355-.694.519-1.042.776-.661.489-1.33.963-2.036 1.383-.245.15-.445.434-.667.652-.156.148-.309.303-.484.424-1.056.732-2.254 1.22-3.425 1.752l-.013.006c-.76-1.146-1.854-2.066-3.191-2.61l.855-.604 1.055-.737 1.088-.672c.654-.4 1.324-.774 2-1.138.274-.148.588-.227.872-.358.328-.152.647-.323.97-.484.324-.166.654-.359 1.002-.493.713-.286 1.3-.746 1.825-1.3.162-.173.3-.352.516-.443l.126.151 1.08 1.277c.115.138.226.283.35.415m.057.066c.087.115.071.15 0 0m15.179 48.758l-1.416-6.14c-.394-1.71-.471-3.537-.654-5.292-.015-.146-.03-.292-.047-.436-.023-.192-.043-.384-.067-.576-.006-.042-.009-.076-.01-.103l-.006.007v-.051l-.01-.286-.013-.379-.114-3.22-.026-.74c-.01-.278.006-.615 0-.955-.01-.532-.073-1.074-.377-1.412-.355-.396-.737-.773-1.126-1.143-.365-.348-.736-.69-1.1-1.035-.118-.112-.236-.225-.352-.338-.675-.66-1.343-1.326-2.008-1.995l-1.122-1.132-1.075-1.087.005-1.504v-.15c.002-.12.003-.239 0-.359l.006-.028c.073-.511.099-1.035.149-1.549.11-1.14.23-2.28.333-3.421l.04-.441c.046-.552.02-1.112-.014-1.67-.017-.273-.035-.545-.046-.816-.03-.71-.042-1.425-.068-2.14-.018-.504-.044-1.009-.09-1.509-.027-.307-.07-.615-.12-.922-.1-.625-.23-1.25-.332-1.87-.02-.117-.037-.236-.055-.355-.106-.727-.186-1.475-.404-2.171l-.073-.232c-.245-.78-.499-1.556-.753-2.332l-.401-1.232c-.093-.284-.16-.586-.296-.854-.029-.055-.059-.11-.094-.162-.226-.335-.538-.636-.798-.945-.807-.955-1.567-1.997-2.443-2.889-.534-.544-1.239-.98-1.881-1.423-.11-.076-.219-.152-.324-.23-.304-.222-.616-.487-.939-.744-.45-.36-.92-.705-1.414-.903-1.172-.467-2.435-.773-3.637-1.154l-.705-.223c.05-.718.103-1.435.148-2.152.02-.306.036-.512-.15-.77-.093-.13-.223-.247-.354-.36-.1-.086-.2-.17-.286-.253l-.875-.837L39.148.324c-.704-.675-2.506-.096-3.114.459l-4.016 3.664c-.212.193-.427.383-.636.58-.354.334-.422.571-.37 1.009.082.675.196 1.346.305 2.018l-1.858.786c-.911.384-1.836.708-2.614 1.329l-3.128 2.494c-.674.538-1.232 1.179-1.821 1.807-.734.784-1.658 1.55-2.276 2.43-.213.303-.295.721-.411 1.066l-.694 2.052c-.252.748-.577 1.49-.687 2.274l-.563 3.987c-.282 2.002-.463 4.03-.646 6.042-.075.823-.045 1.66-.055 2.486-.013 1.192-.139 2.441-.041 3.63.048.582.22 1.18.394 1.768l-.023.024-1.902 2.273c-.331.395-.663.79-.993 1.186l-.08.095c-.205.246-.09.04.02-.056-.082.068-.17.197-.222.25l-2.59 2.656c-.3.308-.734.66-.86 1.077-.077.258-.075.572-.11.837-.246 1.876-.562 3.756-.728 5.641-.177 2.01-.199 4.062-.48 6.058-.297 2.108-.87 4.208-1.302 6.294-.285 1.374 2.426.773 2.95.386l3.651-2.694c1.034-.763 1.848-1.703 2.728-2.639l.927-.986c.173-.184.467-.404.59-.629.29-.205.579-.412.868-.618 1.137-.811 2.311-1.588 3.406-2.456 1.043-.826 2.076-1.665 3.112-2.5.492.322.991.641 1.52.863 1.202.504 2.444.927 3.663 1.389l.626.237-.039.313-.132 1.065-.091.733c-.04.322-.15.686.05.962.113.157.34.295.483.421l3.817 3.322c.747.65 2.472.114 3.115-.459l3.607-3.216c.44-.392.876-.703 1.014-1.295.152-.647.246-1.312.351-1.972 1.5-.667 3.027-1.32 4.392-2.21l.444-.289c1.102.99 2.206 1.979 3.309 2.967.927.832 1.995 1.51 3.005 2.238l.107.078c.284.205.567.41.848.618.607.446 1.21.896 1.81 1.356l2.199 1.688c.098.076.305.3.45.358.03.03.06.062.088.094l3.455 3.616c.924.968 3.85.402 3.464-1.275" transform="translate(-208 -3178) translate(83 1964) translate(125 714) translate(0 500) translate(8 11)"/>
                            <path fill="#C58FFF" d="M41.359 41.915c.631.16.79.068.884-.578-.384-.261-.635-.227-.828-.028-.031.032-.06.066-.084.104-.175-1.224-1.071-2.217-2.275-2.571l-.068-.019.07-.029c.413-.165.75-.358 1.1-.552l1.047-.586c.055-.03.102-.077.14-.132.116-.16.026-.47-.186-.667-.417-.388-.892-.492-1.095-.017-.23.538-.685.599-1.107.755-.194.064-.393.12-.578.202l-2.99 1.344-.749.312c-.338.148-.715.321-1.074.521l-.09.059c-.375.254-.746.504-1.128.734-.25.151-.498.27-.781.354-.273.079-.497.288-.7.495-.178.182-.42.347-.243.879.474.138.788-.041 1.085-.239.309-.204.62-.404.938-.595l.653-.381.56-.31c-.436.952-.396 2.094.208 2.993.895 1.335 2.505 1.638 3.994 1.299 1.693-.386 3.217-1.508 3.297-3.347" transform="translate(-208 -3178) translate(83 1964) translate(125 714) translate(0 500) translate(8 11)"/>
                            <path fill="#5CFFE4" d="M42.88 95.303c-.02-.033-.046-.066-.068-.1.026.03.048.066.067.1m-.004.014c-.004-.01-.01-.02-.015-.029.05.089.069.158.015.029M73.428 80.54l-2.631-.932c-.855-.304-1.877-.877-2.798-.915-1.546-.061-2.91.883-4.203 1.608-.993.557-2.01 1.083-2.985 1.673-.658.398-1.14 1.18-1.622 1.766-.728.883-1.594 1.744-2.224 2.698-.343.52-.205 1.448-.234 2.054-.057 1.144-.254 2.374-.174 3.516.018.247.064.307.213.533.346.527.691 1.055 1.038 1.58.331.508.664 1.014.996 1.52l-1.588-.039-2.855-1.062c-.791-.295-1.522-.441-2.101-1.05-1.456-1.53-2.876-3.07-4.447-4.48-.857-.77-1.875-1.5-2.64-2.365-.008-.02-.02-.054-.04-.123-.068-.237-.191-.47-.284-.698l-.818-2.01c-.307-.755-.557-1.57-.972-2.273-.686-1.16-1.404-2.302-2.107-3.452-.498-.817-.734-1.55-1.025-2.472l-1.148-3.645c-.152-.483-1.433-.172-1.71-.109-.511.117-1.645.353-1.879.917-.728 1.754-1.613 3.505-2.18 5.316-.394 1.26-.75 2.535-1.126 3.803-.1.338-.156.776-.323 1.09-.148.28-.448.542-.65.784-1.403 1.69-2.783 3.356-4.061 5.143l-1.252 1.748c-.124.175-.255.348-.375.525l-.024.035c-.945.761-1.803 1.667-2.695 2.49-.047.044-.645.572-.937.847-.27.125-.542.248-.813.372l-2.239 1.025-3.252-.37 1.127-2.139.794-1.51c.115-.218.295-.451.302-.705.01-.307-.17-.706-.24-.999l-.43-1.79c-.184-.77-.292-1.63-.574-2.37-.34-.896-.895-1.758-1.329-2.611l-.794-1.562c-.105-.207-.198-.494-.38-.65-.225-.192-.63-.305-.893-.433l-1.63-.79c-.787-.382-1.578-.856-2.398-1.163-1.067-.4-2.941.332-4.043.594l-3.086.736c-.323.077-1.806.491-1.664 1.023.142.53 1.698.113 1.952.053l3.941-.939 3.627 1.76c.239.115.475.24.718.347.019.008.022.007.032.01.025.05.048.1.068.146.356.787.79 1.55 1.182 2.32.343.676.746 1.345 1.04 2.044.155.371.217.788.31 1.18l.69 2.874c.075.31.133.633.226.938.018.059.035.127.046.191l-.013.021c-.843 1.413-1.542 2.93-2.309 4.386-.106.203.121.346.294.366l4.143.47c1.152.13 2.185.099 3.293-.383.461-.2.916-.419 1.374-.628l2.433-1.113c.528-.242 1.15-.458 1.604-.83 1.093-.897 2.095-1.935 3.134-2.894 1.618-1.494 2.638-3.5 4.008-5.213.948-1.187 1.941-2.34 2.912-3.507.673-.811.81-1.881 1.107-2.885.182-.616.355-1.234.544-1.846l.023 4.973c.006 1.445.28 2.888.458 4.32.092.742.116 1.538.281 2.267.136.6.574 1.173.864 1.706l1.604 2.936c.242.442.457.887.78 1.276 1.224 1.478 2.533 2.893 3.798 4.337.47.536 1.33.917 2.049.816.62-.088.872-.583.432-1.086l-3.432-3.918c-.054-.063-.312-.446-.446-.539-.047-.084-.1-.169-.142-.247l-1.481-2.71c-.334-.61-.63-1.45-1.08-1.993-.004-.08-.027-.175-.034-.237l-.173-1.39c-.181-1.453-.491-2.948-.52-4.412-.012-.625-.013-1.25-.016-1.876.088.16.18.318.258.479.646 1.32 1.12 2.752 1.675 4.113.135.333.227.676.468.943.418.464.956.859 1.42 1.275.869.78 1.785 1.53 2.608 2.359 1.058 1.067 2.074 2.179 3.11 3.268.73.768 1.954.971 2.93 1.334.73.271 1.46.545 2.191.816.495.183 1.008.155 1.53.168l4.752.116c.334.008 3.382-.6 2.984-1.207l-1.85-2.82-1.08-1.649c-.164-.248-.174-.276-.165-.57.046-1.385.138-2.77.206-4.155.012-.247.03-.494.036-.741.002-.059.007-.102.014-.134.246-.365.574-.696.853-1.034l2.358-2.862 2.735-1.533 4.073 1.443c.729.259 1.865-.16 2.524-.47.376-.177 1.185-.65.452-.91" transform="translate(-208 -3178) translate(83 1964) translate(125 714) translate(0 500) translate(8 11)"/>
                            <path fill="#5CFFE4" d="M34.873 90.571c-.619.07-1.282.355-1.532.953l-1.575 3.758c-.077.185-.161.368-.233.555.14-.365-.028-.055-.16.11l-1.489 1.854-1.003 1.25-3.794 2.365c-.396.247-.777.819-.22 1.124.562.307 1.418.078 1.924-.237l2.566-1.601c.747-.466 1.5-.849 2.057-1.54l2.28-2.839c.207-.26.424-.488.554-.795.15-.35.295-.703.443-1.054l1.367-3.265c.247-.59-.88-.673-1.185-.638" transform="translate(-208 -3178) translate(83 1964) translate(125 714) translate(0 500) translate(8 11)"/>
                        </g>
                    </g>
                </g>
            </g>
        </g>
    </g>
</svg>
