<svg xmlns="http://www.w3.org/2000/svg" xmlns:xlink="http://www.w3.org/1999/xlink" width="450" height="425" viewBox="0 0 450 425">
    <defs>
        <path id="18rq8ji54a" d="M0 0.184L49.838 0.184 49.838 56.343 0 56.343z"/>
        <path id="lnj95rvsdc" d="M0.089 0.023L34.551 0.023 34.551 33.498 0.089 33.498z"/>
    </defs>
    <g fill="none" fill-rule="evenodd">
        <g>
            <g>
                <g>
                    <path fill="#DCFF02" d="M13.226 339.802L31.366 336.135 47.075 346.089 48.202 348.253 73.833 331.221 84.498 326.607 89.222 320.871 97.258 317.198 108.392 308 124.442 316.119 126 333.957 110.428 346.398 101.748 354.468 90.941 357.923 77.735 364.775 65.965 374.42 67.736 376.46 71.46 394.73 61.097 410.19 42.831 414 27.374 403.654 23.879 383.863 6.641 373.331 3 355.19z" transform="translate(-193 -6113) translate(193 5991) translate(0 126)"/>
                    <g>
                        <path fill="#000" d="M97.387 314.597l-.015.012.015-.012M68.554 396.508l-1.059-5.216-2.037-10.036-.05-.23c-.356-.29-.647-.748-.945-1.094l-.728-.842c-.228-.263-.216-.886-.212-1.203.01-.794.222-1.582.467-2.33.411-1.256 1.028-2.697 2.078-3.562l5.362-4.411c2.08-1.712 4.125-3.488 6.251-5.144.477-.372 1.086-.626 1.621-.905l3.867-2.014 7.882-4.106c.414-.215.822-.34 1.269-.484l4.39-1.409 4.482-1.438c.245-.08.507-.194.766-.266.06-.054.121-.106.178-.158 3.237-3.021 6.369-6.194 9.824-8.966l11.096-8.9-.988-11.364-.144-1.653-13.598-6.905-1.644-.836-7.179 5.954c-1.099.911-2.17 1.879-3.306 2.743-.34.257-.731.42-1.116.596l-2.477 1.137-4.433 2.035-3.002 3.658c-.427.521-.837 1.065-1.285 1.567-.564.631-1.183.86-1.92 1.18l-5.976 2.596-2.71 1.178c-.218.094-.435.19-.653.283-.14.104-.342.194-.454.269l-1.36.907-4.481 2.99-11.733 7.827c-2.43 1.621-4.842 3.273-7.292 4.865l-.113.076c-.327.218-.9.513-1.169-.004l-1.063-2.048-13.5-8.59-1.829-1.162-15.524 3.15-1.68.341-7.325 11.068 2.702 13.515.338 1.693 14.744 9.044c.682.419 1.412.802 2.064 1.266.606.432.63 1.57.75 2.255l1.794 10.2 1.341 7.627 13.14 8.83 1.799 1.21c5.222-1.095 10.444-2.188 15.667-3.282l1.667-.35 7.446-11.152m3.925-60.482c-.251.104-.148.072 0 0m-31.547 82.936c-.344-.122-.707-.475-1.007-.676l-4.747-3.191c-3.138-2.11-6.276-4.218-9.415-6.327-.068-.047-.14-.09-.207-.14-.312-.236-.42-.545-.496-.906-.093-.442-.157-.892-.235-1.337l-1.002-5.7-2.092-11.894-.037-.207-9.79-6.005-5.842-3.584c-.383-.235-.794-.45-1.16-.712-.482-.343-.53-.973-.639-1.517l-2.836-14.188-.512-2.563c-.422-2.11.237-4.266 1.373-6.086.764-1.224 1.595-2.41 2.391-3.613l7.638-11.54.165-.25c.336-.5.82-1.323 1.46-1.452l16.845-3.42c.472-.095 1.286-.407 1.75-.19.836.392 1.625 1.034 2.403 1.53l9.158 5.826 3.574 2.274c.272.173.569.33.758.599.32.455.562.995.807 1.517l3.706-2.472 9.682-6.46 8.85-5.904c1.316-.878 2.542-1.735 3.994-2.366l9.02-3.919 3.837-4.675c.29-.354.575-.74.933-1.029.277-.223.7-.373 1.027-.523l3.497-1.605 3.388-1.555.2-.091.001-.002-.001.001c.076-.035.152-.072.23-.105.273-.116.025-.105-.214.092.096-.082.207-.157.298-.232l5.644-4.68 5.045-4.186c.248-.242.538-.331.868-.267l10.37 5.267 5.167 2.624c.5.254.848.407.946 1.087.074.514.09 1.043.136 1.56l1.23 14.133c.053.622.109 1.243.161 1.864.05.595.058 1.18-.024 1.777-.247 1.805-1.132 3.915-2.547 5.111-1.142.966-2.337 1.875-3.504 2.81l-11.016 8.837c-2.516 2.019-4.792 4.352-7.148 6.552l-2.079 1.94c-.34.317-.677.546-1.126.69l-6.316 2.028-3.125 1.003c-.357.114-.734.205-1.076.356-1.55.686-3.037 1.582-4.54 2.365l-6.673 3.476c-.504.262-1.006.527-1.51.787-.136.128-.294.24-.437.357l-6.778 5.577.945 4.655 2.438 12.001c.132.656.222 1.165.15 1.872-.176 1.751-.898 3.367-1.863 4.813l-2.827 4.234-6.766 10.133c-.496.742-.996 1.71-1.843 2.028-.254.095-.564.118-.828.173l-5.281 1.106-11.629 2.436c-.282.059-.64.176-.917.078" transform="translate(-193 -6113) translate(193 5991) translate(0 126)"/>
                        <g transform="translate(-193 -6113) translate(193 5991) translate(0 126) translate(0 332.423)">
                            <mask id="lm1i590u0b" fill="#fff">
                                <use xlink:href="#18rq8ji54a"/>
                            </mask>
                            <path fill="#000" d="M16.67 54.903c-3.694-1.319-7.026-3.551-9.724-6.392C4.124 45.539 2.126 41.879 1 37.947-.166 33.88-.28 29.453.49 25.301c.905-4.88 2.772-9.698 5.711-13.726 1.416-1.939 2.98-3.694 4.805-5.26 1.63-1.399 3.433-2.538 5.344-3.51C19.764 1.07 23.58.168 27.41.185c3.923.017 7.766.838 11.28 2.606 3.53 1.776 6.66 4.44 8.988 7.632.71.974 1.345 2 1.908 3.064.327.618.275 1.413.18 2.075-.142 1-.503 2.103-.974 2.995-.373.708-.821 1.595-1.517 2.033-.365.23-.953.51-1.238-.03-1.415-2.674-3.302-5.07-5.58-7.062-3.308-2.763-7.321-4.62-11.575-5.336-1.156-.194-2.325-.3-3.496-.329-3.88-.01-7.71.904-11.166 2.667-.938.511-1.846 1.076-2.71 1.704-.461.334-.91.683-1.347 1.048-.216.181-.428.366-.638.554-.084.075-.166.151-.25.228-.778.762-1.504 1.576-2.172 2.437l-.055.075c-.17.237-.335.478-.496.72-.139.21-.274.423-.407.638-.048.077-.094.156-.141.234-.214.393-.422.789-.615 1.192l-.076.163c-.066.16-.134.318-.196.479-.09.232-.178.465-.26.7l-.031.088c-.135.447-.26.897-.368 1.351l-.029.125c-.04.216-.082.432-.118.65-.08.495-.145.992-.196 1.49l-.01.16c-.017.286-.03.573-.036.86-.012.536-.007 1.073.016 1.61.011.245.106.628.061.878.014.124.027.247.043.37.077.614.177 1.226.3 1.832.234 1.15.558 2.278.956 3.382 1.428 3.655 3.724 6.934 6.674 9.524 3.314 2.778 7.34 4.645 11.608 5.363 1.157.195 2.325.3 3.496.329 3.86.01 7.673-.895 11.114-2.64.722-.392 1.426-.812 2.107-1.271.415-.279.89-.436 1.238.03.366.49.266 1.552.18 2.075-.169 1.03-.485 2.068-.974 2.994-.38.72-.825 1.568-1.517 2.034-3.377 2.272-7.242 3.802-11.296 4.268-3.827.44-7.774.027-11.404-1.27" mask="url(#lm1i590u0b)"/>
                        </g>
                        <path fill="#C58FFF" d="M151.545 242.863L147.207 251.433 140.382 258.093 133.087 264.253 124.471 268.673 115.45 271.766 107.421 276.615 98.812 280.385 90.529 284.752 82.3 289.27 84.119 299.683 85.805 310.105 89.021 320.165 91.113 330.559 95.948 340.054 98.834 349.016 102.654 357.663 107.534 365.777 114.169 372.58 120.116 379.845 126.764 385.879 136.296 381.929 145.586 377.226 154.822 372.42 163.582 366.702 172.667 361.606 182.619 358.164 191.524 352.721 200.517 347.447 207.19 346.652 217.323 347.543 227.487 347.206 237.634 346.626 247.821 346.013 257.801 343.941 267.603 341.175 277.371 338.418 287.19 335.28 295.905 338.777 305.286 338.676 314.012 332.091 319.224 322.486 329.319 318.479 338.455 312.62 348.299 308.184 357.987 303.333 364.961 299.128 370.236 292.54 369.363 283.891 367.99 276.679 361.895 271.953 373.941 270.132 381.216 261.625 381.528 249.712 379.557 242.195 371.979 237.881 386.862 236.841 395.126 232.625 397.898 223.381 397.863 213.858 395.731 205.695 388.656 201.448 393.24 194.175 400.412 189.237 408.731 185.777 416.824 181.825 425.004 178.117 433.403 174.78 440.547 169.223 442.936 157.044 435.288 147.656 426.826 146.864 418.284 147.948 424.108 139.049 428.88 129.896 434.319 121.119 437.578 112.834 437.789 104.055 435.295 95.493 428.37 89.635 419.122 85.436 410.706 79.767 401.647 75.224 392.479 70.876 383.963 65.378 375.462 59.846 366.207 55.659 357.403 50.67 348.543 45.779 340.089 40.11 330.406 36.889 320.037 36.706 311.14 42.76 305.245 52.169 300.04 61.006 294.434 69.65 289.943 78.917 285.093 87.985 280.188 97.025 275.276 106.06 269.475 114.602 265.275 124.031 259.548 132.624 252.564 139.291 246.381 146.734 238.857 152.866 233.051 160.678 225.308 166.595 218.594 173.519 212.948 181.488 204.937 187.146 199.105 194.931 192.248 201.714 184.836 207.957 177.905 214.671 172.465 222.842 165.179 229.208 158.406 236.078z" transform="translate(-193 -6113) translate(193 5991) translate(0 126)"/>
                        <path fill="#000" d="M87.983 306.023l.516 3.192c.058.36.124.721.176 1.084.89 1.635 1.232 3.89 1.796 5.653.525 1.644 1.148 3.282 1.511 4.97.398 1.85.747 3.713 1.12 5.568l.698 3.466c.027.13.057.263.086.395.289.477.497 1.12.72 1.56l1.77 3.475c.795 1.56 1.74 3.115 2.393 4.743 1.224 3.057 1.823 6.36 3.083 9.406.871 2.107 1.846 4.178 2.767 6.264.256.578.51 1.158.767 1.735-.47-1.077.427.622.682 1.046 1.196 1.99 2.48 3.95 3.598 5.983.05.092.09.167.121.23.029.024.059.05.094.083.756.68 1.438 1.473 2.148 2.201 3.077 3.155 5.86 6.345 8.652 9.757 1.765 2.157 3.835 4.014 5.92 5.86 2.519-1.036 5.043-2.06 7.548-3.128.007-.006.015-.012.028-.02.182-.119.4-.198.592-.3.862-.454 1.74-.881 2.61-1.321 1.787-.905 3.575-1.808 5.36-2.714 2.743-1.39 5.459-2.83 8.185-4.25 2.69-1.399 5.162-3.142 7.7-4.798 4.925-3.216 10.026-6.314 15.593-8.24 1.999-.69 3.997-1.382 5.995-2.073.124-.043.248-.09.372-.134.537-.412 1.197-.725 1.772-1.077 2.601-1.59 5.184-3.213 7.814-4.755l5.315-3.117c1.098-.644 2.295-1.606 3.546-1.926 1.788-.459 3.824-.456 5.658-.675 1.234-.147 2.31-.114 3.55-.005 3.023.266 6.12.786 9.156.686 3.158-.105 6.32-.164 9.476-.321 6.483-.324 13.084-1.149 19.576-1.168.176-.07.458-.08.624-.115l2.812-.584c1.955-.406 3.92-.779 5.869-1.218 3.09-.697 6.134-1.698 9.183-2.558 5.836-1.647 11.64-3.315 17.416-5.161 1.859-.594 3.501-1.461 5.435-.727 1.463.555 2.906 1.166 4.358 1.749l2.713 1.089c.106.042.34.127.595.22.317.01.775.047 1.005.045l3.42-.037 3.627-.04 6.716-5.067c.428-.323.847-.682 1.295-.979.005-.034.013-.074.027-.124.384-1.342 1.495-2.755 2.16-3.979 1.2-2.211 2.067-5.235 4.508-6.212 3.01-1.204 6.02-2.411 9.04-3.588.006-.009.011-.018.023-.031.333-.385 1.057-.678 1.48-.95l4.742-3.04c1.973-1.266 3.793-2.239 5.932-3.203 5.339-2.406 10.604-4.9 15.812-7.583.884-.455 1.721-.98 2.573-1.493 1.427-.86 3.12-2.347 4.712-2.842l.016-.004c.091-.111.182-.222.27-.335.578-.753 1.187-1.484 1.78-2.225l2.615-3.265c-.478-4.605-1.072-9.074-1.888-13.614l-4.767-3.696c-1.133-.878-2.833-4.041-.254-4.431l11.505-1.74 6.48-7.577.264-10.074c.016-.618-.147-1.454.141-.418-.202-.729-.384-1.463-.575-2.195l-1.037-3.95-5.691-3.24c-1.905-1.084-3.86-4.7-.318-4.948 4.708-.33 9.415-.659 14.123-.987l7.252-3.7 1.966-6.557c.148-.492.25-1.032.451-1.504l.073-.161c-.085-1.133 0-2.311-.003-3.443l-.017-4.545c0-.227-.03-.501-.033-.76.021.169.099.078.02-.32.003-.023.005-.046.01-.068l-.012.064c-.012-.06-.026-.124-.046-.197-.556-2.063-1.086-4.134-1.623-6.203l-5.915-3.552c-1.18-.708-2.09-2.502-1.293-3.767l3.662-5.809c1.036-1.645 2.071-2.363 3.683-3.472 1.772-1.22 3.548-2.773 5.533-3.628 2.253-.97 4.531-1.885 6.796-2.827l.974-.404.057-.037c.985-.603 2.121-1.036 3.158-1.542 1.687-.824 3.366-1.674 5.07-2.465 3.935-1.826 7.885-3.585 11.916-5.186 1.415-.562 2.829-1.126 4.244-1.686.05-.02.094-.039.135-.057l-.012.012.013-.013c.478-.217.401-.356.144-.142.25-.223.575-.414.826-.609l5.525-4.298 2.05-10.456-5.505-6.76-2.316-.216-2.91-.272c-.275-.026-1.616-.117-1.148-.168-2.663.126-5.395.724-8.03 1.059-2.074.263-5.84-2.074-4.238-4.523 1.947-2.975 4.086-5.89 5.86-8.969 1.781-3.09 3.16-6.413 4.982-9.48 1.222-2.056 2.523-4.071 3.783-6.105.424-.684.82-1.41 1.28-2.072.115-.366.292-.725.431-1.08l1.422-3.615c.284-.721.614-2.426 1.175-2.986.021-.021.04-.037.056-.051.007-.241.009-.483.014-.723l.097-4.025c.021-.878-.26-2.565.082-3.392l.002-.003c-.145-.43-.251-.881-.377-1.314l-1.72-5.903-4.334-3.667c-.32-.27-.697-.531-1-.83-.73-.29-2.51-1.195-2.676-1.27-2.054-.932-4.197-1.767-6.196-2.813-2.24-1.17-4.298-2.837-6.389-4.246-.763-.514-1.553-1.005-2.302-1.542-.411-.152-.825-.433-1.207-.624-2.39-1.199-4.773-2.41-7.169-3.595-3.489-1.726-7.283-3.083-10.576-5.162-3.613-2.28-7.184-4.633-10.765-6.963-.532-.346-5.829-4.055-5.985-3.895-.09.09 1.317.644.143.17-.507-.206-1.001-.453-1.5-.679l-4.11-1.86c-4.01-1.814-7.75-4.06-11.587-6.216-3.463-1.947-7.097-3.676-10.42-5.854-2.427-1.59-4.911-3.158-7.26-4.863-.067-.026-.134-.052-.195-.073l-4.713-1.567-2.332-.776c-.304-.1-1.047-.206-1.351-.42-.495.018-1.008-.03-1.498-.038l-7.569-.134-5.406 3.679c-.856.582-1.75 1.382-2.687 1.85-.117.373-.511.801-.713 1.123-2.489 3.972-4.976 7.934-7.355 11.972-2.431 4.128-4.984 8.137-7.59 12.158-2.175 3.352-3.604 7.144-5.418 10.698-4.099 8.028-8.55 15.892-12.856 23.811-2.14 3.936-4.507 8-7.342 11.472-.079.097-.134.163-.17.205-.116.257-.226.517-.34.773l-1.829 4.107c-.783 1.758-1.45 3.649-2.486 5.276-1.528 2.401-3.16 4.741-4.74 7.11-.998 1.498-2.39 2.621-3.691 3.864-3.474 3.317-6.445 6.783-9.518 10.483-1.27 1.53-2.955 2.685-4.49 3.936l-3.36 2.739c-.101.082-.205.162-.308.243-.016.046-.263.325-.423.554-1.585 2.27-3.262 4.53-4.98 6.7-1.231 1.555-3.11 2.653-4.673 3.848-1.108.847-2.202 1.718-3.327 2.543-.193.141-.37.295-.433.348l-.378.39c-1.9 1.96-3.903 3.859-5.72 5.898-2.564 2.88-4.044 7.028-7.23 9.278-2.245 1.586-4.446 3.445-6.825 4.82l-.017.01c-.215.333-.492.646-.728.96l-2.751 3.674c-2.66 3.551-5.766 6.571-8.978 9.646-1.623 1.554-3.426 2.938-5.144 4.385-.886.746-1.751 1.533-2.665 2.245-.347.345-.704.681-1.055 1.021-1.815 1.758-3.906 3.43-5.535 5.361-1.454 1.723-2.583 3.86-3.832 5.736-1.097 1.65-2.043 2.845-3.525 4.14l-5.58 4.876c-.056.055-.134.132-.232.235-.418.433-.846.857-1.268 1.286l-3.3 3.347c-1.2 1.216-2.406 2.423-3.62 3.624l-5.04 4.984c-1.362 2.691-2.56 5.564-4.121 8.143-.455.751-1.101 1.29-1.738 1.912l-4.236 4.135c-2.017 1.967-4.21 3.732-6.362 5.55-.82.692-1.623 1.524-2.525 2.107-1.203.776-2.614 1.341-3.886 1.994-2.465 1.264-4.804 2.482-7.42 3.379l-5.572 1.91c-.272.093-.546.183-.819.276.336-.089-.748.448-1.001.601-2.37 1.43-4.704 3.08-7.19 4.294-2.718 1.325-5.594 2.324-8.315 3.64-5.283 2.557-10.41 5.515-15.55 8.355.547 3.114 1.106 6.225 1.63 9.343.313 1.862.603 3.728.905 5.592m.695 4.291l.012.081c.094.681.09.192-.012-.08M427.223 91.626c-.19-.206-.133-.128 0 0m.241.203c.102.07.196.11.24.057-.015.018-.104-.006-.24-.057m-7.728-8.67c-.001.004.059.034.161.082-.088-.054-.157-.092-.16-.082M349.56 43.726l.253.138c-.265-.34-.983-.524-.253-.138m-10.103-1.312c.223.107.48.202.729.232-.229-.027-.49-.137-.73-.232m-.088-.044l-.086-.061c-.754-.55-.47-.225.086.06M210.424 179.465c-.04.057-.042.072 0 0m-42.718 51.79c.042-.04.042-.04 0 0M80.113 286.92c5.095-2.797 10.201-5.558 15.343-8.268 2.336-1.232 4.803-2.208 7.222-3.268 2.448-1.072 4.61-2.36 6.905-3.746 2.406-1.453 4.476-2.538 7.124-3.446l5.386-1.846c.526-.18 1.088-.54.265-.06.475-.277.986-.507 1.475-.757 2.428-1.246 5.287-2.284 7.451-3.95 1.436-1.105 2.784-2.35 4.168-3.52l1.823-1.539c.22-.184 1.048-.93.824-.702 1.122-1.078 2.228-2.176 3.342-3.263.999-.975 2.31-1.941 3.137-3.071.939-1.283 1.531-3.024 2.248-4.44l1.604-3.17c.04-.335.188-.656.476-.942.18-.355.435-.59.735-.732 4.92-4.914 9.673-10.127 14.9-14.695 1.777-1.552 3.527-3.143 5.332-4.662.12-.244.315-.473.464-.698l2.1-3.153c.95-1.43 1.815-3.032 2.923-4.343 1.437-1.699 3.274-3.17 4.872-4.718 2.85-2.761 5.904-5.26 8.94-7.817.234-.197.464-.4.702-.593.642-.642 1.292-1.277 1.938-1.916 1.532-1.515 3.224-2.964 4.64-4.59 1.188-1.364 2.2-2.932 3.285-4.38 1.009-1.346 1.928-2.986 3.274-4.023 1.86-1.433 3.852-2.72 5.77-4.075.57-.402 1.149-.796 1.713-1.208l.048-.1c.205-.432.598-.844.875-1.234 2.35-3.317 4.533-6.4 7.354-9.31 1.428-1.472 2.79-3.101 4.35-4.44 1.474-1.263 3.11-2.376 4.652-3.555.897-.685 1.775-1.428 2.706-2.067l.046-.034-.1.141c.034-.05.072-.098.107-.147.276-.211.335-.43.086-.117.113-.151.228-.301.34-.452l4.397-5.916c.932-1.254 1.963-2.11 3.177-3.098 1.774-1.446 3.499-3.02 5.35-4.367.171-.21.348-.417.522-.625l2.555-3.077c1.022-1.229 1.995-2.536 3.097-3.695 2.472-2.602 5.628-4.704 7.627-7.704l4.18-6.27c.206-.308.393-.686.641-.962.026-.028.046-.05.064-.067.361-.775.693-1.567 1.04-2.347.947-2.126 1.88-4.26 2.841-6.38.699-1.54 1.785-2.893 2.733-4.288 4.417-6.504 7.994-13.436 11.742-20.342 3.648-6.726 7.153-13.483 10.49-20.368 1.587-3.274 3.97-6.2 5.893-9.287 1.84-2.955 3.498-6.024 5.31-8.998 1.095-1.8 2.238-3.573 3.357-5.359.89-1.419 1.699-3.36 2.996-4.464 1.53-1.302 3.422-2.329 5.081-3.458 1.48-1.006 3.236-2.745 5.092-2.9 2.01-.168 4.14.073 6.156.109 1.686.03 3.58-.175 5.222.271 2.209.601 4.379 1.457 6.551 2.18 1.713.57 3.384 1.035 4.902 2.03 2.015 1.322 4.005 2.686 6.007 4.029.414.278 1.501.754 1.832 1.202.376.205.75.415 1.124.622 3.428 1.893 6.856 3.782 10.262 5.712 3.45 1.954 6.802 3.717 10.41 5.35 1.755.794 3.625 1.479 5.264 2.502 1.792 1.12 3.546 2.308 5.317 3.461 3.233 2.104 6.472 4.195 9.712 6.286.433.28 1.118.587 1.59.952-.334-.237-.544-.184-.003.038l.119.053c.065.056.125.113.176.173-.057-.066-.115-.122-.172-.171.419.18.828.397 1.24.592l6.611 3.135c3.253 1.543 6.517 3.13 9.686 4.837 1.56.84 3 1.936 4.466 2.924l3.222 2.17c.364.246.733.487 1.095.738l.09.062c1.548.717 9.004 3.989 9.945 4.71 1.83 1.401 3.54 2.995 5.301 4.485.564.477 1.169.934 1.7 1.45.976.95 1.219 1.87 1.576 3.096.655 2.248 1.367 4.488 1.967 6.752.473 1.782.17 3.762.125 5.59-.04 1.632.184 3.56-.28 5.14-.667 2.263-1.761 4.475-2.625 6.67-1.417 3.603-3.864 6.774-5.866 10.073-1.884 3.104-3.27 6.497-5.083 9.643-.654 1.135-1.358 2.248-2.083 3.35.671-.032 1.337-.033 1.993.014 2.217.158 4.432.415 6.645.622 2.009.188 3.445.881 4.714 2.439l4.522 5.552c.97 1.19 2.963 3 3.25 4.56.277 1.512-.48 3.493-.768 4.961l-1.377 7.02c-.289 1.471-.89 2.103-2.063 3.015-1.81 1.408-3.588 2.874-5.437 4.23-1.159.848-2.586 1.262-3.92 1.792-1.782.708-3.567 1.408-5.345 2.123.66-.26-.79.363-1.138.52l-3.393 1.539c-1.284.582-2.575 1.15-3.845 1.76-3.21 1.54-6.36 3.196-9.647 4.563-2.143.892-4.348 1.7-6.456 2.675-.026.035-.065.08-.127.142-.274.28-.696.48-1.018.702l-3.554 2.446c-.648.447-1.336.868-1.97 1.34-.054.07-.117.165-.17.28-.205.451-.551.876-.814 1.293l-2.119 3.36 3.244 1.948c1.126.676 2.121 1.293 2.642 2.605.32.81.454 1.74.675 2.583.533 2.04 1.394 4.23 1.598 6.339.232 2.393.018 4.91.027 7.313.006 1.749-.136 3.05-.638 4.723-.694 2.314-1.17 4.89-2.13 7.106-.78 1.8-3.42 2.502-5.077 3.348-1.671.853-3.54 2.193-5.444 2.348-2.388.195-4.78.362-7.171.522.912.623 1.688 1.38 2.04 2.429 1.101 3.268 2.09 6.78 1.999 10.228l-.195 7.416c-.035 1.353.135 2.712-.707 3.824-1.326 1.753-2.882 3.371-4.31 5.041-.976 1.14-2.198 3.236-3.691 3.747-1.818.623-4.112.622-6.007.909l-1.384.21c1.114.81 2.267 1.746 2.674 2.898.49 1.385.59 3.04.864 4.473.225 1.181.502 2.367.664 3.559.224 1.643.334 3.31.5 4.96.123 1.207.642 2.962.303 4.176-.357 1.274-1.862 2.553-2.654 3.543-.938 1.172-1.814 2.514-2.87 3.584-.898.91-2.198 1.482-3.283 2.136-1.365.823-2.711 1.702-4.105 2.476-2.609 1.447-5.355 2.686-8.023 4.022-4.4 2.203-9.172 3.764-13.316 6.422-2.697 1.73-5.4 3.943-8.382 5.142-2.934 1.179-5.877 2.336-8.817 3.5l-4.222 7.78c-1.233 2.273-3.26 3.426-5.319 4.98-2.143 1.618-4.088 3.822-6.873 3.852l-5.669.061c-1.474.017-2.906.182-4.306-.352-2.453-.934-4.881-1.941-7.314-2.93-5.288 1.686-10.567 3.322-15.911 4.83-4.903 1.383-9.78 2.975-14.768 4.01-2.89.6-5.858 1.5-8.806 1.722-3.234.244-6.479.394-9.716.585-5.415.32-10.822.61-16.244.79-2.556.083-4.923.087-7.465-.136l-5.734-.505c-.306-.027-.659-.018-.98-.063.4.04.519-.13.003-.065-.072.01-.144.017-.216.026l-.024-.005.02.005c-.343.042-.687.082-1.03.123-1.525.182-3.23.616-4.776.587-.153.093-.33.172-.467.252l-2.173 1.275c-2.308 1.353-4.63 2.681-6.914 4.077-2.629 1.607-5.223 3.5-7.979 4.877-2.864 1.432-6.232 2.197-9.254 3.242-.413.143-.827.285-1.24.429 1.183-.413-.04.098-.402.3l-4.943 2.773c-2.155 1.21-4.211 2.456-6.281 3.807-9.68 6.318-20.15 11.536-30.826 15.96l-3.496 1.449c-1.232.51-2.765-.578-3.598-1.335-2.408-2.186-5.173-4.232-7.235-6.751-2.31-2.823-4.533-5.7-7.08-8.312-1.56-1.598-3.186-3.152-4.687-4.805-1.089-1.199-1.828-2.718-2.658-4.098-2.037-3.387-3.741-6.645-5.337-10.258-1.544-3.495-2.716-6.958-3.889-10.602-.192-.598-.748-1.586-.723-2.225l-.298-.592-3.381-6.64c-1.749-3.434-2.17-7.247-2.928-11.016-.126-.626-.256-1.252-.38-1.88l-.017-.02c-.188-.254-.268-.841-.364-1.138l-2.204-6.897c-1.271-3.978-1.648-8.214-2.32-12.327-.603-3.688-1.278-7.364-1.921-11.045-.098-.558.274-1.338.77-1.61" transform="translate(-193 -6113) translate(193 5991) translate(0 126)"/>
                        <path fill="#000" d="M230.525 158.59c.035-.048.065-.089.093-.123-.03.039-.057.078-.086.117l-.007.006M393.492 68.75c.04.027.079.056.12.091l-.004-.001c-.036-.031-.076-.06-.116-.09M208.361 349.361c-.065-.007-.138-.019-.217-.04h.004c.068.018.14.03.213.04M394.896 213.241c-.014.101-.02.209-.019.32-.008-.067-.006-.177.018-.325l.001.005M431.247 172.404h-.001c.03-.033.059-.063.086-.09-.03.03-.058.06-.085.09M431.39 172.263c-.014.013-.03.025-.043.039l.044-.04M431.347 172.302l-.014.013.014-.013" transform="translate(-193 -6113) translate(193 5991) translate(0 126)"/>
                        <path fill="#5CFFE4" d="M196.515 284.456L214.692 295.338 233.175 305.677 251.873 315.638 270.101 326.431 288.475 336.965 304.099 338.8 316.38 329.077 325.726 311.075 335.991 293.593 346.13 276.037 355.775 258.203 365.873 240.625 376.052 223.092 385.747 205.286 396.229 187.924 406.05 170.19 415.663 152.336 425.862 134.812 435.27 116.843 437.297 101.892 428.165 89.54 409.623 79.305 391.413 68.481 372.494 58.913 354.034 48.53 335.703 37.92 320.528 35.789 308.52 45.386 298.13 62.798 288.998 80.92 278.811 98.447 269.073 116.229 258.752 133.682 249.116 151.522 238.234 168.658 228.357 186.36 218.342 203.986 208.834 221.898 198.563 239.381 189.286 257.425 187.366 272.327z" transform="translate(-193 -6113) translate(193 5991) translate(0 126)"/>
                        <path fill="#000" d="M192.055 259.098c-.15.279-.046.246 0 0m-1.146 8.894l-.674 5.227 7.787 10.324c5.842 3.524 11.635 7.165 17.587 10.494 6.782 3.794 13.52 7.676 20.38 11.33 7.171 3.82 14.368 7.554 21.36 11.694 7.096 4.202 14.198 8.383 21.352 12.484l7.176 4.114 1.853 1.063c.636.007 1.384.217 1.966.285l3.914.46 7.827.919.554.065 11.005-8.713c.952-.755 1.272-1.604 1.843-2.704l4.187-8.064c4.32-8.32 9.061-16.34 13.81-24.425 3.896-6.637 7.858-13.265 11.519-20.034 4.561-8.434 9.128-16.84 13.904-25.154 4.738-8.248 9.511-16.474 14.287-24.7 3.863-6.655 7.152-13.65 11.128-20.237 4.83-7.999 9.659-15.96 14.185-24.133 4.71-8.504 9.333-17.048 13.942-25.607 3.696-6.863 8.038-13.378 11.67-20.272 2.603-4.937 5.178-9.888 7.766-14.833.41-.78.783-1.595 1.233-2.353l.03-.057c.022-.181.053-.363.077-.543l1.135-8.375.715-5.269-7.7-10.414c-5.997-3.285-12.083-6.455-17.958-9.947-6.656-3.956-13.194-8.227-20.106-11.722-7.165-3.624-14.364-7.153-21.362-11.089-7.177-4.036-14.342-8.08-21.468-12.205l-7.251-4.198-2.098-1.214c-.52-.027-1.26-.262-1.612-.312l-3.8-.534-7.856-1.103-.598-.083-10.918 8.725c-.917.733-1.372 1.826-1.971 2.829l-4.744 7.95c-1.85 3.1-3.755 6.15-5.38 9.373l-7.597 15.078c-3.457 6.861-7.826 13.274-11.518 20.016-4.627 8.448-9.262 16.848-14.165 25.138-4.828 8.164-9.322 16.467-13.83 24.814-3.643 6.747-8.454 12.829-12.19 19.524-4.583 8.212-9.162 16.425-13.808 24.601-4.774 8.404-9.33 16.893-13.862 25.43-3.639 6.856-8.104 13.269-11.679 20.153-2.572 4.954-5.105 9.93-7.657 14.894-.404.784-.774 1.6-1.216 2.363l-.026.05c-.02.183-.05.367-.073.548l-1.075 8.349m241.596-152.835c.141-.26.05-.234 0 0M187.692 253.465l2.988-5.812c3.087-6.003 6.217-11.855 9.634-17.674 3.41-5.805 6.72-11.592 9.876-17.537 3.151-5.936 6.33-11.823 9.65-17.665 3.314-5.834 6.618-11.671 9.887-17.53 3.288-5.894 6.592-11.657 10.207-17.35 2.125-3.347 4.316-6.66 6.379-10.044 1.426-2.34 2.636-4.836 3.938-7.246 3.196-5.918 6.407-11.776 9.83-17.564 3.422-5.786 6.8-11.559 10.028-17.453 3.226-5.89 6.46-11.756 9.836-17.562 3.39-5.832 6.699-11.6 9.731-17.62 1.858-3.687 3.7-7.382 5.574-11.06 1.148-2.255 2.574-4.389 3.87-6.56 2.153-3.608 4.302-7.219 6.46-10.825.38-.635.874-.964 1.463-1.435l5.189-4.147 4.95-3.956c.292-.233.697-.677 1.044-.827.53-.23 1.327-.02 1.901.061 4.234.595 8.468 1.19 12.701 1.783 1.221.172 2.227.318 3.34.93 1.318.724 2.608 1.51 3.91 2.263l11.908 6.892c5.767 3.338 11.6 6.562 17.408 9.828 5.768 3.244 11.734 6.12 17.639 9.107 5.88 2.974 11.46 6.407 17.125 9.774 5.631 3.347 11.349 6.504 17.085 9.67l5.428 2.997c1.324.73 2.677 1.379 3.653 2.588 2.468 3.06 4.694 6.35 7.03 9.51.816 1.104 2.061 2.35 2.567 3.651.476 1.224-.155 3.11-.323 4.347l-.969 7.147c-.185 1.365-.217 2.874-.57 4.208-.25.94-.903 1.854-1.349 2.706l-3.164 6.043c-1.673 3.196-3.286 6.432-5.022 9.594-3.25 5.916-6.88 11.624-10.187 17.508-3.308 5.885-6.376 11.908-9.606 17.835-3.227 5.923-6.449 11.866-9.809 17.714-3.363 5.853-7.077 11.504-10.465 17.343-3.385 5.833-6.403 11.884-9.687 17.776-3.283 5.892-6.782 11.67-10.16 17.51-3.376 5.838-6.77 11.672-10.08 17.547-3.312 5.877-6.378 11.893-9.634 17.8-3.253 5.903-6.73 11.695-10.112 17.525-3.384 5.834-6.894 11.597-10.244 17.45-1.322 2.31-2.476 4.73-3.702 7.093-1.86 3.58-3.533 7.363-5.618 10.82-.398.66-1.012 1.03-1.63 1.518l-5.287 4.187-4.82 3.816c-.305.242-.72.695-1.082.853-.503.218-1.267.032-1.82-.033l-12.868-1.512c-1.29-.151-2.376-.217-3.555-.848-1.195-.638-2.357-1.351-3.533-2.025-5.764-3.305-11.555-6.565-17.272-9.95-5.759-3.41-11.437-7.023-17.345-10.17-5.975-3.183-12.014-6.267-17.922-9.572-5.974-3.342-12.04-6.559-17.93-10.044-5.8-3.43-11.564-6.92-17.344-10.382-.64-.28-1.262-.72-1.758-1.181-.499-.413-.963-.904-1.195-1.427l-6.187-8.204c-.807-1.07-1.647-2.123-2.425-3.215-1.04-1.46-.485-3.044-.271-4.706l.911-7.078c.197-1.522.246-3.162.6-4.658.209-.879.797-1.73 1.205-2.522" transform="translate(-193 -6113) translate(193 5991) translate(0 126)"/>
                        <path fill="#DCFF02" d="M292.904 221.15c-2.123-1.064-2.789-2.308-3.309-3.549-.608-1.449-1.202-2.886-1.106-5.128.066-1.535.124-3.28-.114-5.423-.173-1.552-.177-3.37-.743-5.329-.437-1.512-1.012-3.165-1.787-4.957-.63-1.46-1.22-3.132-2.13-4.796-.932-1.709-1.746-3.422-2.508-5.138-.795-1.793-1.286-3.664-1.896-5.46-.635-1.872-1.926-3.424-2.362-5.297-.453-1.942-.9-3.891-1.142-5.83-.248-1.997.51-4.161.484-6.148-.027-2.03-.864-3.98-.663-5.996.203-2.036 1.414-4.022 1.847-6.038.433-2.015.536-4.065 1.196-6.052.652-1.966 1.288-3.964 2.16-5.898.852-1.894 1.76-3.814 2.82-5.672 1.06-1.858 2.578-3.405 3.781-5.117 1.229-1.747 2.03-3.818 3.405-5.406 1.39-1.605 3.31-2.667 4.846-4.105 1.537-1.438 2.998-2.95 4.678-4.213 1.661-1.25 3.408-2.362 5.206-3.435 1.76-1.052 3.483-2.277 5.37-3.154 1.832-.851 3.665-1.965 5.614-2.648 1.879-.658 3.859-1.265 5.845-1.763 1.907-.477 3.906-.917 5.91-1.243 1.918-.312 3.903 0 5.908-.17 1.921-.162 3.696.083 5.313-.176 1.959-.315 3.735-.815 5.304-1.233 1.995-.53 3.785-1 5.267-1.617 2.01-.836 3.667-1.76 5.016-2.56 1.992-1.184 3.206-2.817 4.636-3.316 1.495-.521 3.24-.672 5.295.358 2.123 1.066 2.8 2.629 3.332 3.856.63 1.453.436 3.065.333 5.303-.07 1.535-.145 3.37.086 5.517.168 1.552.334 3.4.899 5.36.433 1.514 1.462 2.968 2.237 4.763.63 1.459.948 3.303 1.858 4.968.934 1.71 1.907 3.315 2.668 5.031.795 1.793 1.309 3.65 1.92 5.447.634 1.872 1.224 3.677 1.66 5.549.453 1.942 1.676 3.618 1.917 5.556.249 1.998-.359 4.15-.332 6.136.027 2.031.182 4.019-.019 6.034-.203 2.037-.964 4.013-1.396 6.029-.433 2.015-.98 3.956-1.64 5.944-.651 1.966-.558 4.178-1.429 6.111-.853 1.895-2.358 3.542-3.418 5.4-1.06 1.859-2.286 3.554-3.489 5.264-1.228 1.747-1.894 3.935-3.268 5.523-1.39 1.606-2.908 3.171-4.444 4.608-1.536 1.438-3.613 2.186-5.293 3.45-1.66 1.25-3.394 2.332-5.191 3.406-1.76 1.05-3.491 2.17-5.38 3.048-1.83.85-3.566 2.253-5.515 2.937-1.88.658-3.856 1.281-5.843 1.779-1.906.477-3.91.783-5.914 1.109-1.919.312-3.887-.178-5.892-.009-1.962.166-3.745.784-5.361 1.065-2.01.35-3.784.622-5.339 1.098-2.043.625-3.685 1.489-5.12 2.216-2.013 1.018-3.66 1.812-4.954 2.718-1.834 1.284-3.124 2.212-4.869 2.384-1.332.132-2.847-.037-4.945-1.09" transform="translate(-193 -6113) translate(193 5991) translate(0 126)"/>
                        <path fill="#000" d="M293.477 223.056c-1.725-.895-3.21-2.053-4.349-3.642-.793-1.109-1.308-2.392-1.784-3.66-.48-1.276-.769-2.644-.776-4.01-.008-1.452.104-2.893.027-4.347-.079-1.484-.218-2.988-.395-4.463-.17-1.429-.603-2.792-1.077-4.146-1.029-2.935-2.376-5.772-3.8-8.57-.775-1.525-1.513-3.078-2.148-4.666-.62-1.55-1.075-3.15-1.607-4.731-.18-.534-.41-1.022-.748-1.664-.36-.684-.74-1.358-1.05-2.067-.676-1.547-.991-3.212-1.324-4.86-.318-1.576-.69-3.203-.572-4.82.106-1.453.486-2.888.505-4.346.02-1.462-.382-2.784-.586-4.218-.204-1.444-.062-2.86.386-4.246.479-1.483 1.165-2.888 1.477-4.423.325-1.594.462-3.222.856-4.802.808-3.234 2.151-6.382 3.6-9.374.77-1.593 1.576-3.19 2.591-4.644.978-1.398 2.146-2.652 3.112-4.06.975-1.418 1.668-3.008 2.656-4.422.954-1.366 2.232-2.371 3.547-3.37 2.642-2.004 4.814-4.526 7.521-6.456 1.4-.998 2.859-1.908 4.331-2.795 1.37-.825 2.696-1.727 4.097-2.502 2.872-1.588 5.878-3.05 9.005-4.051 3.267-1.047 6.655-1.918 10.054-2.413 1.505-.22 3.024-.085 4.538-.1 1.63-.014 3.263-.078 4.894-.104 3.132-.05 6.32-1.139 9.311-1.992 2.898-.827 5.75-2.08 8.246-3.785 1.214-.83 2.22-1.985 3.51-2.696 1.148-.631 2.446-.837 3.743-.772 3.452.174 6.482 2.735 8.102 5.635.646 1.159 1.138 2.412 1.3 3.734.172 1.403-.007 2.845-.067 4.251-.124 2.887-.013 5.86.59 8.695.34 1.605.862 2.584 1.653 4.107.733 1.412 1.252 2.87 1.736 4.38.224.7.38 1.164.658 1.725.38.765.825 1.501 1.24 2.248.877 1.573 1.668 3.165 2.306 4.85.573 1.512 1.03 3.067 1.545 4.598.519 1.538 1.018 3.083 1.41 4.659.393 1.58.898 2.541 1.509 4.124.548 1.42.748 2.88.638 4.396-.108 1.472-.372 2.922-.35 4.402.026 1.661.135 3.322.039 4.982-.099 1.697-.47 3.308-.92 4.94-.432 1.566-.755 3.156-1.173 4.724-.414 1.551-1.019 3.066-1.35 4.635-.317 1.499-.4 3.056-.94 4.502-.572 1.536-1.6 2.881-2.532 4.213-.966 1.38-1.771 2.86-2.706 4.261-.944 1.415-2.02 2.751-2.816 4.257-.781 1.479-1.47 3.01-2.571 4.288-1.122 1.304-2.319 2.547-3.553 3.743-1.17 1.133-2.403 1.992-3.818 2.793-1.376.779-2.616 1.707-3.922 2.593-1.378.934-2.808 1.783-4.231 2.645-1.458.882-2.91 1.778-4.447 2.518-1.388.67-2.661 1.52-4.013 2.255-1.435.779-2.973 1.277-4.526 1.764-1.626.51-3.27.969-4.94 1.31-1.653.337-3.372.715-5.057.835-1.519.108-3.028-.156-4.544-.124-1.52.033-2.996.419-4.465.77-1.52.363-3.07.572-4.603.877-2.984.594-5.6 1.873-8.293 3.234-1.278.645-2.562 1.293-3.742 2.108-1.143.788-2.267 1.608-3.565 2.127-2.412.964-5.14.26-7.373-.837-1.063-.522-2.068-1.538-2.399-2.7-.264-.926.298-1.579 1.252-1.11 2.05 1.006 4.173 1.438 6.313.262 1.163-.639 2.19-1.489 3.325-2.17 1.295-.775 2.662-1.427 4.007-2.108 2.64-1.337 5.237-2.449 8.16-2.999 1.45-.273 2.907-.49 4.343-.838 1.436-.346 2.88-.695 4.364-.718 1.473-.023 2.95.233 4.42.127 1.596-.116 3.222-.47 4.79-.782 1.67-.331 3.314-.777 4.941-1.28 1.462-.453 2.96-.883 4.306-1.625 1.28-.706 2.489-1.519 3.81-2.15 1.49-.713 2.902-1.569 4.314-2.425 1.384-.84 2.778-1.662 4.126-2.56 1.284-.855 2.488-1.808 3.83-2.576 1.286-.735 2.559-1.44 3.645-2.46 1.219-1.146 2.389-2.345 3.507-3.587 1.11-1.234 1.866-2.513 2.619-3.983.756-1.477 1.698-2.8 2.642-4.16.967-1.394 1.802-2.856 2.722-4.278.856-1.325 1.88-2.553 2.586-3.97.682-1.37.87-2.865 1.118-4.355.252-1.523.774-2.95 1.202-4.428.444-1.531.76-3.088 1.157-4.63.384-1.499.88-2.979 1.094-4.516.21-1.508.124-3.063.08-4.58-.046-1.539.017-3.018.195-4.548.146-1.259.299-2.624-.051-3.805-.217-.732-.31-.878-.621-1.592-.33-.76-.666-1.525-.91-2.318-.453-1.477-.786-2.985-1.264-4.458-.487-1.5-.978-2.999-1.48-4.494-.501-1.492-1.1-2.845-1.858-4.25-.8-1.484-1.697-2.91-2.316-4.484-.245-.623-.453-1.258-.655-1.897-.1-.322-.2-.645-.308-.965-.046-.138-.095-.274-.143-.411-.226-.644.215.432-.14-.335-.682-1.47-1.537-2.85-2.111-4.37-.558-1.48-.805-3.1-1.002-4.664-.186-1.469-.337-2.944-.356-4.426-.018-1.43.069-2.856.139-4.283.03-.62.058-1.242.027-1.862-.007-.132-.016-.265-.029-.397.007.065-.08-.558-.038-.343.033.174-.053-.2-.06-.231-.024-.091-.051-.18-.082-.27.079.18.092.21.04.089-.17-.426-.38-.838-.6-1.24.26.476.107.185.035.082-.346-.499.296.301.022.01-.107-.114-.431-.415-.003-.032-.04-.037-.477-.387-.259-.229.275.198-.382-.23-.338-.206.085.047.188.088-.194-.091-.197-.093-.482-.217-.653-.272-.576-.187-1.218-.267-1.82-.218-1.175.094-2.126.473-3.042 1.201-1.187.945-2.29 1.913-3.61 2.679-2.6 1.508-5.297 2.702-8.196 3.504-2.936.812-5.989 1.837-9.059 1.855-1.592.009-3.181.096-4.772.103-1.47.006-2.95-.115-4.413.098-3.307.481-6.606 1.322-9.79 2.329-2.985.943-5.817 2.291-8.563 3.79-1.368.748-2.659 1.626-3.99 2.434-1.39.842-2.775 1.687-4.109 2.615-1.35.939-2.61 1.964-3.81 3.087-1.199 1.121-2.343 2.291-3.646 3.295-1.211.933-2.482 1.815-3.472 2.993-1.068 1.27-1.746 2.801-2.608 4.206-.906 1.477-2.03 2.775-3.083 4.145-1.014 1.32-1.795 2.756-2.537 4.241-1.475 2.952-2.666 5.98-3.676 9.118-.476 1.478-.674 3.01-.92 4.537-.241 1.502-.655 2.878-1.197 4.296-.495 1.293-.984 2.588-.902 3.992.081 1.398.488 2.687.631 4.096.144 1.42-.109 2.835-.317 4.236-.219 1.472-.135 2.822.12 4.286.259 1.483.553 3.011 1.008 4.446.007.022.145.371.045.131.059.142.125.281.191.419.15.314.311.622.475.928.348.655.706 1.305 1 1.987.651 1.506 1.055 3.103 1.59 4.65.488 1.416 1.138 2.785 1.811 4.165.71 1.455 1.528 2.855 2.18 4.338.64 1.458 1.244 2.94 1.835 4.42.564 1.412 1.09 2.856 1.468 4.33.375 1.465.515 2.962.639 4.464.119 1.45.267 2.883.259 4.34-.008 1.278-.167 2.77.029 3.923.095.556.284 1.1.474 1.63.02.053.163.428.07.188-.112-.285.12.288.112.27.084.203.168.405.26.604.045.095.09.191.138.285.031.06.312.456.079.158-.218-.278.013.02.068.085.245.294-.44-.506-.036-.05.266.3-.089-.045-.08-.07-.007.018.268.233.311.266-.375-.295.43.247.447.256 1.06.549 2.063 1.522 2.399 2.7.259.907-.299 1.605-1.252 1.11" transform="translate(-193 -6113) translate(193 5991) translate(0 126)"/>
                        <path fill="#000" d="M285.617 129.758c2.253-2.901 3.451-6.15 6.363-8.502 2.698-2.179 5.161-4.735 7.936-6.788 2.685-1.987 5.603-3.777 8.47-5.414 6.065-3.464 12.772-5.813 19.407-6.667 3.004-.388 6.132-.192 9.116-.222 3.291-.033 6.788-1.111 10.038-2.095 3.19-.964 6.463-2.488 9.179-4.661 1.826-1.461 3.275-2.538 5.55-2.5 3.921.072 7.291 3.242 8 7.103.474 2.589-.15 5.545-.016 8.212.196 3.906 1.092 6.976 2.703 10.32 1.396 2.894 2.364 5.917 3.884 8.767 1.466 2.748 2.398 5.723 3.382 8.727.975 2.98 2.09 5.959 2.983 8.961.804 2.71-.023 5.732.013 8.593.043 3.483-.18 6.273-1.086 9.75-.868 3.326-1.97 6.724-2.576 10.072-.643 3.552-2.166 5.525-4.097 8.598-1.99 3.167-3.97 6.269-5.853 9.494-1.805 3.093-4.98 6.193-7.982 8.027-3.377 2.064-6.638 4.332-10.042 6.355-3.194 1.898-6.65 4.052-10.085 5.248-3.456 1.203-6.974 2.01-10.507 2.52-1.61.234-3.1.094-4.683.056-2.05-.05-4.007.436-6.051.878-3.666.792-7.044 1.375-10.545 3.105-1.679.83-3.409 1.642-5.013 2.646-1.364.854-2.635 1.967-4.138 2.507-2.396.86-4.703.2-6.763-.722-.079-.027-.164-.063-.264-.119-.054-.025-.109-.058-.161-.097-3.432-1.995-5.26-5.584-5.269-9.89-.008-3.264.037-6.549-.634-9.682-.708-3.303-2.128-6.558-3.566-9.512-1.365-2.808-2.88-5.485-3.905-8.488-.989-2.898-2.527-5.556-3.394-8.486-.76-2.567-1.424-5.648-1.117-8.455.204-1.864.5-3.546.242-5.36-.206-1.456-.62-2.864-.487-4.39.25-2.904 1.824-5.836 2.304-8.774.58-3.547 1.823-7.029 3.352-10.368 1.484-3.239 3.119-5.923 5.312-8.747m-5.99 16.908c-.948 3.181-1.278 6.32-2.367 9.494-1.23 3.586.26 6.58-.117 10.127-.38 3.568-.272 6.683.744 10.007.485 1.587 1.361 2.892 2.003 4.39.626 1.462 1.002 3.049 1.546 4.553 2.129 5.888 5.736 10.97 7.254 17.188.68 2.786.872 5.938.831 8.889-.048 3.504.22 7.236 3.346 8.98 2.633 1.215 4.92 1.38 7.678-.362 2.609-1.646 5.166-3.155 7.928-4.482 2.371-1.138 4.721-1.79 7.214-2.26 2.813-.528 5.76-1.459 8.576-1.425 5.82.069 12.19-.668 17.793-3.546 5.535-2.842 10.635-6.425 15.976-9.643 2.849-1.717 5.126-3.605 7.363-6.168 2.163-2.48 3.599-5.726 5.474-8.466 1.792-2.619 4.368-5.856 5.473-8.776.493-1.302.594-2.626.854-3.957.312-1.59.887-3.124 1.32-4.694.873-3.154 1.987-6.617 2.182-9.813.19-3.12.211-6.305.316-9.42.097-2.895-1.413-5.348-2.144-7.999-.84-3.048-1.784-6.133-2.942-9.036-1.023-2.57-2.642-4.766-3.654-7.334-1.024-2.6-2.257-5.1-3.255-7.702-.863-2.25-1.133-4.919-1.294-7.395-.185-2.837.646-6.215-.063-8.907-.793-3.007-4.074-4.946-7.2-3.697-2.214.884-4.3 3.19-6.495 4.367-4.649 2.49-10.574 4.34-15.597 4.524-2.635.095-5.257-.025-7.892.08-3.402.136-6.982 1.152-10.334 2.166-6.087 1.841-11.901 5.231-17.301 8.927-2.678 1.831-4.817 4.199-7.33 6.237-2.66 2.157-4.315 3.805-6.093 6.807-1.79 3.02-4.192 5.523-5.825 8.652-1.624 3.11-2.979 6.376-3.968 9.694" transform="translate(-193 -6113) translate(193 5991) translate(0 126)"/>
                        <path fill="#000" d="M379.354 147.37c-.092 3.225.02 6.535-.424 9.737-.412 2.98-1.344 5.929-2.204 8.805-.442 1.476-.932 2.93-1.198 4.452-.257 1.47-.474 2.891-1.098 4.26-1.199 2.629-3.019 4.919-4.662 7.275-1.83 2.624-3.173 5.575-5.126 8.111-1.807 2.346-4.092 4.378-6.541 6.031-2.688 1.814-5.513 3.45-8.254 5.185-2.777 1.758-5.576 3.491-8.484 5.027-2.593 1.37-5.357 2.326-8.228 2.92-2.737.566-5.54.83-8.335.859-1.443.015-2.865-.004-4.297.21-1.452.215-2.88.564-4.31.88-2.918.647-5.79 1.182-8.525 2.443-2.968 1.368-5.76 3.061-8.536 4.776-1.852 1.144-3.883 1.42-5.81.696-.276-.103-.618-.254-.752-.328.08.044-.316-.267-.274-.2-.029-.03-.057-.062-.085-.094-.019-.025-.096-.118-.125-.152l-.063-.078c-.075-.132-.14-.272-.203-.41-.124-.273-.14-.31-.248-.69-.084-.296-.153-.595-.211-.897-.107-.561-.151-1.135-.182-1.705-.075-1.4-.007-2.803-.043-4.204-.04-1.55-.163-3.094-.388-4.628-.454-3.102-1.452-6.052-2.716-8.913-1.188-2.688-2.586-5.277-3.803-7.95-.578-1.272-1.122-2.56-1.55-3.89-.488-1.514-.918-3.049-1.591-4.495-.629-1.35-1.397-2.609-1.797-4.053-.35-1.26-.574-2.539-.665-3.842-.19-2.706.37-5.387.121-8.082-.109-1.186-.298-2.365-.346-3.556-.052-1.32.153-2.489.56-3.74.97-2.983 1.361-6.113 2.243-9.12.917-3.048 2.108-6.007 3.537-8.852 1.51-3.008 3.679-5.53 5.52-8.326.824-1.25 1.547-2.548 2.492-3.717.85-1.052 1.813-2 2.832-2.888 1.215-1.06 2.473-2.062 3.665-3.15 1.182-1.078 2.35-2.175 3.603-3.17 2.445-1.943 5.19-3.596 7.895-5.147 5.329-3.055 11.136-5.278 17.184-6.411 3.1-.58 6.21-.453 9.347-.475 3.053-.02 6.014-.331 8.973-1.108 2.944-.772 5.788-1.881 8.497-3.266 1.202-.615 2.272-1.376 3.336-2.205 1.001-.781 2.009-1.639 3.157-2.2.974-.475 2.156-.67 3.155-.407.079.02.517.188.59.216-.012.004.374.246.398.241.12.11.277.266.263.24l.06.07.083.12c-.075-.084.225.487.208.398.081.232.14.474.188.714.111.564.133 1.144.14 1.718.013 1.343-.13 2.681-.207 4.021-.165 2.871.125 5.918.862 8.7.836 3.151 2.463 6.086 3.683 9.098 1.165 2.874 2.932 5.445 4.052 8.335 1.147 2.96 1.863 6.039 2.874 9.038.446 1.324.975 2.508 1.365 3.803.405 1.341.437 2.579.398 3.97m-87.35 70.79c-.075-.092-.042-.059 0 0m90.18-73.204c-.36-1.288-.937-2.63-1.35-3.81-.536-1.521-.909-3.1-1.381-4.643-.523-1.707-1.097-3.397-1.728-5.067-1.146-3.033-2.985-5.71-4.194-8.712-1.188-2.952-2.843-5.829-3.558-8.944-.644-2.809-.72-5.697-.518-8.558.202-2.858.275-5.759-1.395-8.237-1.6-2.374-4.308-4.127-7.246-3.86-2.674.243-4.746 2.457-6.81 3.94-2.428 1.742-5.41 2.848-8.243 3.734-2.83.886-5.778 1.498-8.75 1.587-3.375.1-6.783-.18-10.137.308-3.111.453-6.207 1.338-9.18 2.35-5.982 2.033-11.72 5.316-16.815 9.03-2.679 1.954-5.031 4.365-7.568 6.498-1.105.929-2.166 1.914-3.1 3.017-1.017 1.2-1.827 2.528-2.656 3.86-1.791 2.878-4.094 5.393-5.662 8.419-1.567 3.025-2.86 6.19-3.843 9.454-.881 3.006-1.272 6.136-2.242 9.118-.426 1.31-.686 2.622-.67 4.005.015 1.258.214 2.504.338 3.754.277 2.8-.305 5.583-.095 8.393.108 1.445.341 2.891.713 4.292.42 1.583 1.113 3.006 1.845 4.461.698 1.39 1.128 2.837 1.604 4.312.498 1.546 1.105 3.056 1.771 4.536 2.46 5.463 5.675 10.627 6.348 16.702.33 2.971 0 5.98.39 8.938.412 3.134 1.86 6.086 4.646 7.77 2.054 1.242 4.789 1.768 7.092.984 1.366-.465 2.555-1.317 3.775-2.063 1.443-.881 2.906-1.73 4.402-2.517 2.828-1.487 5.735-2.484 8.87-3.093 2.888-.561 5.723-1.426 8.689-1.412 5.89.027 11.903-.728 17.247-3.342 3.064-1.5 5.986-3.29 8.872-5.103 2.848-1.79 5.717-3.55 8.554-5.357 2.603-1.658 4.988-3.707 6.945-6.099 2.098-2.565 3.446-5.626 5.325-8.339 1.704-2.46 3.6-4.842 4.922-7.542.694-1.42.989-2.872 1.249-4.419.27-1.61.773-3.141 1.24-4.7.871-2.918 1.762-5.882 2.22-8.897.514-3.39.409-6.887.506-10.307.044-1.523-.01-2.963-.422-4.441" transform="translate(-193 -6113) translate(193 5991) translate(0 126)"/>
                        <path fill="#000" d="M278.77 148.923c-.312 1.498-.584 2.962-1.058 4.422-.458 1.412-.976 2.812-1.278 4.269-.276 1.322-.16 2.585.078 3.9.27 1.49.413 2.927.283 4.438-.13 1.518-.398 3.011-.339 4.541.058 1.486.325 2.944.685 4.384.739 2.952 2.108 5.604 3.218 8.419.605 1.535 1.127 3.085 1.822 4.585.69 1.489 1.453 2.943 2.183 4.412 1.393 2.804 2.689 5.682 3.576 8.691.927 3.15 1.16 6.4 1.189 9.666.023 2.615-.062 5.212 1.189 7.46.026.038.129.205.155.246.091.142.189.279.284.418.012.018.04.054.066.088.071.086.143.171.216.255.09.101.182.2.274.298l.041.045.065.054c.102.09.204.182.309.27.05.042.255.2.337.266.08.05.374.247.333.221.101.064.204.126.307.187-.06-.043.353.164.457.208.6.253 1.214.49 1.85.636 1.281.294 2.562.27 3.806-.178 1.356-.488 2.473-1.47 3.67-2.244 1.4-.904 2.903-1.641 4.396-2.376 1.44-.707 2.876-1.378 4.403-1.88 2.844-.934 5.822-1.469 8.746-2.088 1.565-.332 3.133-.578 4.738-.56 1.593.018 3.15.15 4.736-.081 3.128-.458 6.227-1.164 9.234-2.142 3-.975 5.74-2.438 8.45-4.036 2.83-1.67 5.608-3.411 8.366-5.198 2.663-1.726 5.452-3.269 7.792-5.436 1.074-.995 2.072-2.078 2.958-3.245.929-1.223 1.654-2.58 2.447-3.892 1.784-2.95 3.627-5.866 5.486-8.77.728-1.137 1.454-2.282 2.02-3.51.608-1.323.946-2.689 1.223-4.112.63-3.233 1.653-6.37 2.479-9.556.718-2.768 1.03-5.561 1.041-8.418.006-1.452.065-2.874.193-4.32.117-1.32.259-2.698.05-4.016-.245-1.545-.892-3.087-1.393-4.564-.551-1.624-1.123-3.24-1.662-4.869-1.011-3.052-1.99-6.062-3.477-8.924-1.487-2.863-2.538-5.932-3.91-8.85-1.23-2.614-2.108-5.346-2.518-8.207-.201-1.408-.306-2.827-.257-4.25.05-1.469.209-2.934.2-4.405-.007-1.262-.176-2.492-.67-3.527-.06-.123-.122-.247-.187-.367l-.058-.088c-.075-.114-.154-.229-.228-.345l-.054-.086-.035-.041c-.087-.106-.176-.21-.268-.313l-.201-.211c-.067-.061-.133-.123-.201-.182 0 0-.287-.23-.302-.249-1.71-1.221-4.216-1.525-6.215-.396-1.184.67-2.183 1.612-3.288 2.396-1.26.894-2.61 1.65-4.002 2.317-2.75 1.321-5.734 2.185-8.685 2.933-1.499.38-3.022.691-4.564.816-1.547.125-3.107.065-4.657.05-3.1-.03-6.11.186-9.152.811-6.025 1.239-11.686 3.611-16.979 6.713-2.918 1.71-5.82 3.521-8.447 5.66-1.281 1.042-2.5 2.159-3.73 3.263-1.256 1.13-2.635 2.156-3.833 3.344-2.246 2.224-3.537 5.187-5.443 7.676-3.948 5.112-6.938 11.232-8.26 17.574m88.604-51.639c.041.074.13.2 0 0m-83.17 30.883c2.041-2.667 3.389-5.88 5.938-8.143 1.305-1.157 2.656-2.263 3.953-3.43 1.26-1.135 2.522-2.268 3.864-3.305 2.757-2.131 5.756-3.958 8.775-5.69 2.786-1.596 5.69-2.991 8.7-4.116 2.933-1.097 5.964-1.944 9.05-2.49 3.172-.56 6.333-.599 9.545-.567 1.57.016 3.107-.002 4.662-.254 1.587-.257 3.147-.662 4.691-1.105 3.06-.88 6.075-1.852 8.818-3.505 2.264-1.365 4.231-3.66 6.898-4.24 2.865-.623 5.878.618 8.028 2.472 2.406 2.074 4 4.962 4.298 8.133.274 2.92-.325 5.838-.029 8.768.28 2.761 1.103 5.347 2.274 7.822 1.44 3.045 2.562 6.223 4.11 9.217 1.575 3.044 2.555 6.343 3.635 9.581.543 1.627 1.116 3.244 1.664 4.87.542 1.604 1.166 3.228 1.398 4.912.198 1.433.09 2.87-.038 4.305-.133 1.489-.17 2.955-.184 4.45-.025 3.032-.404 6.028-1.172 8.963-.845 3.225-1.872 6.406-2.495 9.685-.281 1.482-.694 2.894-1.363 4.25-.643 1.302-1.447 2.515-2.229 3.735-1.905 2.978-3.79 5.973-5.603 9.008-1.622 2.715-3.367 5.162-5.761 7.262-2.479 2.175-5.439 3.774-8.197 5.561-2.835 1.837-5.708 3.612-8.637 5.294-2.805 1.61-5.672 2.97-8.774 3.91-3.13.947-6.516 1.83-9.796 1.978-1.627.074-3.264-.154-4.887-.009-1.573.141-3.113.52-4.653.851-3.039.655-6.11 1.234-8.994 2.431-1.547.643-3.061 1.418-4.535 2.213-1.425.768-2.7 1.725-4.065 2.585-1.333.84-2.724 1.367-4.308 1.405-1.398.033-2.761-.29-4.067-.773-2.783-1.032-5.163-3.037-6.709-5.573-1.639-2.69-2.121-5.575-2.127-8.68-.006-3.229-.055-6.454-.905-9.59-.82-3.025-2.151-5.881-3.547-8.677-.754-1.508-1.535-3.002-2.231-4.538-.698-1.54-1.21-3.145-1.851-4.706-1.247-3.036-2.663-5.944-3.43-9.155-.375-1.575-.651-3.196-.714-4.816-.06-1.53.207-3.023.338-4.541.129-1.497-.04-2.864-.288-4.334-.27-1.599-.306-3.072.026-4.666.311-1.496.85-2.932 1.317-4.384.484-1.506.74-3.024 1.075-4.565.7-3.226 1.886-6.341 3.292-9.323 1.425-3.02 3.199-5.844 5.24-8.486" transform="translate(-193 -6113) translate(193 5991) translate(0 126)"/>
                        <path fill="#C58FFF" d="M221.672 211.711L234.769 193.002 247.308 173.915 259.696 154.729 263.747 136.829 264.116 118.44 256.657 101.804 239.84 95.462 233.952 117.045 222.022 136.013 207.671 153.299 195.645 167.694 182.696 181.344 168.28 193.387 156.234 210.228 146.056 228.311 136.745 246.857 129.979 266.481" transform="translate(-193 -6113) translate(193 5991) translate(0 126)"/>
                        <path fill="#000" d="M220.023 210.505c4.405-6.293 8.96-12.503 13.22-18.894 4.322-6.487 8.608-13.004 12.836-19.552l8.3-12.854 3.329-5.157c.098-.152.191-.308.295-.457.135-.194-.068.338.005.017.153-.67.303-1.34.455-2.01l3.37-14.89c.206-.913.213-1.735.232-2.68l.158-7.878.152-7.567c.006-.276-.003-.557.017-.832.024-.337-.077-.301.053-.033-.227-.47-.428-.953-.64-1.43l-6.305-14.061-.508-1.134 2.084 1.885-14.724-5.552-2.094-.79 1.3-.185-5.74 21.039c-.167.61-.385 1.027-.724 1.567l-2.84 4.515-7.329 11.652c-1.069 1.7-2.208 3.144-3.497 4.696l-9.008 10.851c-4.22 5.084-8.461 10.15-12.697 15.221-4.353 5.211-9.17 10.013-13.842 14.939-1.595 1.681-3.31 3.1-5.094 4.591l-10.08 8.421c-1.789 1.494-2.976 3.722-4.32 5.602l-7.765 10.857c-1.313 1.835-2.33 3.858-3.435 5.823l-6.626 11.772c-3.297 5.857-6.12 12.005-9.135 18.01-.96 1.913-1.628 3.784-2.329 5.816l-4.519 13.108-.95 2.756c-.282.817-3.734-1.148-3.298-2.412l3.254-9.437c1.158-3.36 2.147-6.848 3.495-10.139.311-.76.74-1.488 1.108-2.22l2.988-5.952c1.714-3.414 3.388-6.853 5.144-10.246 1.27-2.455 2.711-4.836 4.067-7.245l5.971-10.608c1.242-2.205 2.955-4.217 4.424-6.272l7.406-10.354c.389-.544.738-.867 1.26-1.302l4.508-3.767c2.985-2.493 6.087-4.894 8.976-7.498 2.248-2.026 4.235-4.439 6.317-6.634 2.251-2.373 4.593-4.686 6.764-7.132 4.221-4.756 8.186-9.771 12.248-14.663l7.444-8.966c2.2-2.65 4.596-5.223 6.64-7.997 1.702-2.31 3.101-4.92 4.628-7.349l6.824-10.85c.167-.265.332-.532.502-.797-.124.193-.08.262-.025.069.05-.18.098-.361.147-.542l1.325-4.857 3.654-13.393.723-2.65c.164-.602.878-.345 1.3-.186l14.594 5.504c.72.272 1.459.517 2.169.818 1.185.502 1.9 1.374 2.4 2.488l3.386 7.554 3.48 7.763c.55 1.227.354 2.435.327 3.776l-.196 9.738c-.038 1.928.116 3.973-.118 5.89-.233 1.91-.872 3.855-1.297 5.73l-2.145 9.48c-.267 1.18-.375 2.437-1.036 3.461l-4.127 6.392c-2.638 4.085-5.259 8.182-7.914 12.256-2.854 4.38-5.74 8.74-8.611 13.109-1.92 2.922-3.83 5.84-5.836 8.703L224.1 211.804l-.779 1.112c-.647.925-3.972-1.448-3.298-2.411" transform="translate(-193 -6113) translate(193 5991) translate(0 126)"/>
                        <path fill="#000" d="M176.04 306.282l9.889-7.279 2.186-1.61c.165-.12.328-.244.494-.362.229-.163-.422.36-.159.117 1.183-1.092 2.417-2.134 3.623-3.2l10.136-8.952c.589-.52.877-1.359 1.246-2.04l3.44-6.346 3.55-6.552 1.053-1.942c.065-.12.12-.274.206-.38-.053.065-.17.523-.074.174 1.13-4.171 2.402-8.309 3.603-12.46l1.605-5.55c.214-.738.164-1.472.178-2.244l.276-14.594c.02-1.039-.005-2.09.064-3.126.096-1.454.282-2.908.422-4.358l1.379-14.202.095-.985c.117-1.207 2.019-.491 2.595-.161.631.363 1.262.82 1.698 1.41.3.406.635.896.584 1.428l-1.119 11.523-.649 6.69c-.07.722-.135 1.426-.149 2.15l-.266 14.075-.057 3.013c-.01.49.029 1.009-.028 1.496-.027.228-.115.454-.179.675l-.666 2.303-4.07 14.076c-.244.838-.43 1.685-.848 2.455l-2.73 5.04-3.84 7.084c-.782 1.443-1.502 2.948-2.358 4.35-.11.18-.243.286-.407.43l-1.668 1.474-5.686 5.021-5.228 4.618c-.678.599-1.347 1.18-2.075 1.716l-11.063 8.143-.975.718c-.35.258-1.219-.007-1.537-.125-.658-.242-1.366-.696-1.86-1.191-.625-.626-1.605-1.803-.63-2.52" transform="translate(-193 -6113) translate(193 5991) translate(0 126)"/>
                        <path fill="#FFF" d="M271.12 274.16c-5.55 9.743-2.146 22.14 7.605 27.687 9.75 5.547 22.156 2.145 27.707-7.6 5.551-9.743 2.147-22.139-7.604-27.686-9.751-5.547-22.156-2.145-27.707 7.598" transform="translate(-193 -6113) translate(193 5991) translate(0 126)"/>
                        <path fill="#000" d="M271.227 280.038c-.886 3.25-.948 6.679-.193 9.96.204.813.453 1.614.755 2.396.318.828.74 1.593 1.106 2.396l.164.283c.116.195.235.389.357.58.237.372.486.735.746 1.09.104.142.211.28.318.42l.008.009c.087.106.175.212.264.317.278.327.568.643.866.951l.142.143c.17.16.34.319.515.474.154.137.31.271.469.404l.184.143c.175.135.354.267.534.395.09.065.181.129.273.192l.087.059.048.03c.095.06.19.12.287.179.206.126.416.248.627.367.087.049.173.097.26.144.196.095.389.195.586.287.4.188.808.357 1.218.522.091.033.182.066.274.097.221.076.444.15.668.218.444.137.893.258 1.346.363l.36.081.054.011c.236.043.472.085.71.122.497.075.997.133 1.5.171.957.074 1.92.075 2.878.014 3.339-.28 6.574-1.373 9.394-3.181 3.127-2.081 5.637-5.006 7.215-8.415.434-.938.793-1.91 1.081-2.901.884-3.247.945-6.672.19-9.95-.204-.813-.453-1.613-.754-2.396-.318-.827-.741-1.592-1.106-2.395l-.164-.284c-.116-.195-.235-.389-.357-.58-.237-.371-.486-.735-.746-1.09-.104-.141-.211-.28-.318-.419l-.008-.01c-.087-.106-.175-.212-.264-.317-.279-.326-.568-.643-.866-.95-.048-.048-.095-.098-.143-.143-.169-.161-.34-.32-.514-.474-.154-.138-.311-.272-.47-.404-.06-.048-.121-.097-.183-.144-.176-.134-.354-.266-.534-.395l-.273-.191-.087-.06-.048-.03c-.095-.06-.191-.12-.287-.178-.207-.126-.416-.249-.627-.368-.087-.049-.174-.096-.26-.143-.196-.095-.39-.196-.586-.288-.4-.187-.808-.356-1.219-.522l-.273-.096c-.222-.077-.444-.15-.668-.218-.444-.137-.893-.258-1.346-.364-.12-.028-.24-.055-.36-.08l-.054-.012c-.236-.042-.472-.085-.71-.121-.497-.076-.998-.133-1.5-.172-.958-.073-1.92-.075-2.879-.013-3.342.28-6.58 1.374-9.402 3.186-2.642 1.76-4.835 4.115-6.413 6.869-.793 1.4-1.422 2.886-1.872 4.431m3.24 17.108c-.262-.342-.098-.122 0 0m28.62-25.884c.26.341.097.122 0 0m-33.945 1.45c2.149-3.751 5.462-6.748 9.395-8.547 3.836-1.755 8.255-2.303 12.407-1.552 5.247.949 9.982 3.653 13.72 7.421 3.173 3.2 5.345 7.33 6.15 11.76.765 4.21.154 8.621-1.67 12.49-1.863 3.951-4.97 7.188-8.794 9.288-3.69 2.027-8.012 2.867-12.198 2.44-5.107-.521-9.904-2.856-13.755-6.203-3.459-3.007-6.135-7.013-7.275-11.472-1.084-4.235-.892-8.629.657-12.728.378-1 .836-1.967 1.363-2.896" transform="translate(-193 -6113) translate(193 5991) translate(0 126)"/>
                        <path fill="#C58FFF" d="M291.687 279.575s-.878-2.924-2.895-3.942c-1.699-.857-5.33-1.62-7.387 2.792-1.974 4.233 2.675 14.31 2.675 14.31s10.562-.877 13.292-4.133c2.37-2.827 2.265-6.471-.037-8-2.301-1.527-4.258-1.547-5.648-1.027" transform="translate(-193 -6113) translate(193 5991) translate(0 126)"/>
                        <path fill="#000" d="M293.148 285.99c.569-.56 1.014-1.252 1.354-1.972.108-.31.195-.627.256-.948-.758.232-1.767.057-2.43-.181-.638-.208-1.307-.547-1.92-.954-.469-.308-.907-.66-1.289-1.06-.567-.594-1.208-1.326-1.497-2.139-.287.13-.559.288-.815.472-.56.547-1.012 1.208-1.352 1.913-.218.666-.294 1.372-.302 2.074.1 1.79.505 3.565 1.027 5.288.249-.048.498-.093.746-.144.782-.162 1.559-.348 2.33-.56 1.363-.413 2.75-.938 3.892-1.789m-14.464-12.36c1.097-1.19 2.394-1.898 3.986-2.17 1.478-.251 3.038.03 4.454.452 2.36.706 4.402 2.126 5.973 3.962 1.359.306 2.61.73 3.855 1.386 1.281.674 2.578 1.522 3.586 2.574 1.424 1.483 2.662 3.407 2.773 5.52.045.862.05 1.7-.166 2.54-.217.846-.568 1.683-1.002 2.44-1.12 1.949-3.042 3.095-5.103 3.837-2.162.778-4.43 1.295-6.695 1.671-1.206.2-2.422.373-3.64.475-1.322.11-2.547-.405-3.642-1.09-1.183-.74-2.297-1.729-2.892-3.021-.504-1.094-.94-2.223-1.347-3.355-.884-2.463-1.72-5-2.021-7.612-.147-1.271-.23-2.623.01-3.889.256-1.338.946-2.718 1.87-3.72" transform="translate(-193 -6113) translate(193 5991) translate(0 126)"/>
                        <path fill="#C58FFF" d="M291.687 279.575s-.878-2.924-2.895-3.942c-1.699-.857-5.33-1.62-7.387 2.792-1.974 4.233 2.675 14.31 2.675 14.31s10.562-.877 13.292-4.133c2.37-2.827 2.265-6.471-.037-8-2.301-1.527-4.258-1.547-5.648-1.027M319.685 323.042s25.458-13.956 38.564-19.036c11.318-4.387 11.323-9.47 11.767-20.088.405-9.66-7.943-11.85-7.943-11.85s4.45-.157 11.926-1.646c7.477-1.49 7.889-13.863 8.034-20.7.144-6.837-9.245-11.729-9.245-11.729s3.694.178 14.107-.8c10.413-.977 11.119-14.97 10.937-23.334-.068-3.097-1.052-5.483-2.36-7.295-2.784-3.858-7.037-5.12-7.037-5.12s-26.752-.55-31.677-.787c-2.337-.112-6.418.51-10.257 2.504-2.313 1.201-6.24 5.235-6.24 5.235s-2.487 4.361-2.924 7.295c-.907 6.083 3.547 14.15 3.547 14.15s7.007 5.712 11.045 6.962l-16.526 2.255s-6.963 5.275-8.236 10.918c-1.162 5.154 1.441 11.824 1.441 11.824s13.338 7.865 17.449 8.447l-23.636 4.323s-4.81 5.28-5.242 9.76c-.602 6.246 3.112 13.02 3.112 13.02l10.76 5.099-11.366 20.593z" transform="translate(-193 -6113) translate(193 5991) translate(0 126)"/>
                        <path fill="#000" d="M366.017 276.714c.054.074.114.153.152.19l.011.017c-.07-.025-.163-.18-.163-.207" transform="translate(-193 -6113) translate(193 5991) translate(0 126)"/>
                        <path fill="#000" d="M347.48 232.522c.294.193.59.383.888.57.149.094.298.184.447.277l.048.03c.577.316 1.142.649 1.734.938.272.132.548.26.828.377.113.048.231.09.345.139l.043.013c.963.306 1.91.966 2.238 1.972.24.737-.026 1.796-.93 1.92l-13.97 1.906c-.753.103-1.533.274-2.295.318-.277.282-.652.519-.946.774-.265.23-.526.465-.784.703h-.001l-.22.21c-.173.167-.344.335-.513.506-.715.719-1.4 1.47-2.037 2.259-.685.848-1.321 1.74-1.864 2.687-.143.25-.28.504-.41.761l-.023.047-.02.047c-.052.115-.102.23-.15.347-.202.487-.372.987-.499 1.499-.313 1.27-.344 2.334-.262 3.72.039.648.11 1.293.203 1.935.043.292.091.584.144.874l.049.26.071.333c.215.969.466 1.94.779 2.887 3.956 2.305 8.006 4.523 12.2 6.347.366.16.735.314 1.107.462.191.077.384.15.576.224.042.016.127.036.182.059.494.158.988.31 1.504.387.946.142 1.944 1.073 2.237 1.972.25.764-.035 1.756-.93 1.92l-8.008 1.464-12.692 2.321-2.527.463c-.516.603-1 1.236-1.463 1.878-.547.759-1.062 1.542-1.53 2.352-.215.375-.524.953-.648 1.213-.131.276-.398.929-.545 1.36-.147.432-.27.872-.36 1.32-.023.115-.042.232-.061.349-.004.02-.02.137-.03.207l-.014.154c-.012.205-.023.41-.028.614-.028 1.087.06 2.177.228 3.25.037.237.079.472.123.707.01.03.106.49.117.537.115.493.245.984.388 1.47.262.894.567 1.775.907 2.642.152.386.31.769.477 1.149.067.153.136.305.205.458l8.356 3.96 1.368.647c1.149.544 2.22 1.907 1.518 3.179l-7.326 13.273c.229-.12.456-.243.685-.363 5.865-3.094 11.766-6.124 17.74-9.003 2.93-1.412 5.878-2.79 8.865-4.076 3.166-1.363 6.447-2.39 9.307-4.351.328-.225.649-.461.96-.71.148-.119.293-.24.436-.365l.18-.158.017-.016.038-.039c.483-.498.942-1.008 1.342-1.577.19-.272.369-.554.534-.842.082-.143.159-.29.236-.436l.056-.104c.01-.022.023-.058.047-.113.275-.646.505-1.306.685-1.985.192-.723.333-1.458.445-2.198.057-.381.106-.763.148-1.146.02-.17.037-.34.053-.509.003-.053.035-.426.04-.484.145-1.872.24-3.758.283-5.634.021-.933-.054-1.853-.199-2.774l-.01-.053-.048-.203c-.048-.189-.096-.378-.152-.565-.113-.382-.246-.758-.4-1.125-.058-.139-.324-.612-.042-.11-.072-.128-.133-.263-.204-.392-.173-.316-.364-.619-.566-.917.006.002.013.004.019.004-.006 0-.017-.009-.03-.021l-.018-.028c-.099-.145-.134-.178-.134-.162-.05-.068-.094-.13-.11-.149-.205-.242-.42-.476-.647-.7-.075-.074-.153-.146-.229-.219-.216-.175-.432-.347-.658-.51-.186-.134-.376-.259-.568-.384-.058-.034-.117-.069-.176-.1-.333-.182-.676-.347-1.025-.496-.088-.037-.177-.071-.265-.106-.05-.016-.1-.033-.15-.046-1.033-.274-2.105-1.126-2.29-2.227-.171-1.024.47-1.684 1.498-1.721.737-.027 1.472-.095 2.205-.165l.526-.053.135-.014.158-.018c.48-.056.961-.115 1.441-.179 1.224-.161 2.444-.347 3.66-.553 1.29-.219 2.631-.386 3.888-.754.144-.042.284-.094.424-.145.013-.012.295-.13.375-.17.386-.205.752-.448 1.093-.722.08-.064.377-.348.282-.246.129-.132.257-.265.378-.406.282-.324.54-.67.776-1.029.245-.373.464-.763.668-1.16l.072-.148.073-.165c.109-.255.215-.51.314-.77.722-1.903 1.135-3.915 1.415-5.926.067-.48.125-.96.177-1.44.008-.08.043-.436.05-.493.024-.27.047-.54.067-.811.073-.967.124-1.935.16-2.905.034-.868.064-1.737.074-2.606.005-.43-.028-.851-.083-1.277l-.014-.115-.028-.103c-.057-.215-.115-.428-.185-.639-.07-.21-.147-.418-.232-.623-.025-.059-.05-.118-.077-.177-.223-.38-.418-.77-.66-1.14-.109-.166-.224-.328-.338-.49l-.035-.052-.092-.112c-.263-.325-.54-.639-.825-.944-.314-.333-.639-.655-.974-.966l-.099-.092-.037-.03c-.172-.146-.344-.292-.518-.434-.593-.481-1.207-.936-1.84-1.364-.265-.18-.534-.356-.807-.527-.065-.042-.131-.082-.198-.123-.145-.083-.29-.167-.438-.245-.84-.44-1.716-1.256-1.765-2.276-.042-.874.69-1.507 1.55-1.467 2.852.134 5.758-.132 8.6-.338 1.8-.13 3.609-.256 5.404-.451-.125.01.509-.078.611-.098.271-.05.54-.112.806-.185.308-.084.606-.192.908-.297l.068-.023.06-.03c.137-.068.276-.131.411-.202.487-.256.95-.556 1.385-.894.117-.091.232-.186.344-.282l.157-.142.15-.15c.14-.142.274-.289.405-.439.364-.418.696-.865.998-1.33.14-.216.273-.436.401-.659.078-.135.153-.272.226-.41.017-.031.125-.246.176-.343l.107-.228c.065-.147.128-.294.19-.442.103-.25.201-.501.294-.755.228-.621.425-1.254.599-1.892.342-1.26.59-2.545.774-3.837.085-.595.155-1.192.216-1.79.001-.037.046-.542.053-.626.026-.337.049-.674.068-1.012.072-1.242.103-2.487.105-3.731.002-1.393.002-2.786-.216-4.164-.035-.216-.072-.374-.176-.752-.098-.361-.214-.718-.344-1.069-.058-.154-.118-.308-.182-.46-.016-.037-.149-.31-.165-.348-.144-.277-.293-.551-.458-.817-.094-.154-.193-.306-.294-.455-.002-.003-.164-.23-.197-.28-.23-.297-.482-.58-.74-.852-.16-.17-.331-.332-.497-.499l-.09-.091-.095-.076c-.332-.265-.662-.53-1.01-.773-.11-.077-.737-.376-.805-.52l-.06-.034c-.143-.08-.287-.156-.432-.23-.379-.193-.766-.364-1.158-.526-.225-.004-.451-.012-.675-.017l-3.98-.084c-4.267-.092-8.533-.187-12.8-.288-3.885-.092-7.77-.182-11.655-.31-.591-.02-1.182-.04-1.773-.065-.317-.013-.634-.03-.95-.03-.259 0-.517.008-.774.022-.168.009-.335.02-.501.035-.071.005-.259.027-.31.032-2.912.377-5.98 1.233-8.377 2.956-1.017.731-1.965 1.56-2.887 2.406l-.236.22c-.072.066-.143.134-.214.201-.16.153-.321.308-.48.463-.25.242-.526.48-.753.745-.294.343-.477.785-.684 1.186-.11.214-.218.428-.325.644l-.133.273-.134.289c-.299.652-.58 1.313-.829 1.986-.235.634-.446 1.28-.597 1.94-.07.309-.123.62-.162.933l-.011.075-.004.09c-.013.25-.025.499-.026.75-.003.702.048 1.405.138 2.102.041.321.09.641.147.96.003.013.065.32.074.374.04.18.08.362.124.542.322 1.334.747 2.644 1.24 3.926.204.532.42 1.06.648 1.582.09.206.18.412.274.616.035.076.068.157.105.234.017.03.033.06.044.083.104.213.21.425.318.637 1.052.831 2.132 1.63 3.227 2.403.561.395 1.128.783 1.702 1.16m-10.876 8.49c.02.008.047.005.076-.003-.03.006-.058.01-.076.004m7.728 26.878c-.142-.049-.31-.1-.108-.035l.108.035m19.99 1.927c.039-.004.05-.006 0 0m24.655-66.364h-.022c.41.063.217-.005.022 0m-48.148 28.551c-.637-.494-1.398-1.012-1.831-1.693-.39-.614-.674-1.336-.98-1.99-.556-1.19-1.057-2.404-1.489-3.643-1.128-3.234-1.95-6.83-1.332-10.255.287-1.592.94-3.124 1.622-4.583.433-.928.84-2.039 1.452-2.874.388-.53.98-.984 1.454-1.432 1.13-1.071 2.28-2.131 3.522-3.074 2.797-2.124 6.501-3.259 9.96-3.662 1.896-.22 3.762-.109 5.662-.05 4.739.15 9.479.256 14.218.365 4.286.099 8.572.193 12.858.283.801.017 1.687-.058 2.472.143 1.243.318 2.45.983 3.54 1.632 1.82 1.083 3.497 2.449 4.8 4.127 1.2 1.546 2.162 3.26 2.696 5.153.497 1.759.61 3.53.623 5.345.02 2.998-.117 6.008-.554 8.977-.832 5.646-3.13 11.832-8.992 13.857-1.77.612-3.698.65-5.548.806-1.814.154-3.63.29-5.447.396-.351.02-.703.04-1.055.058.31.27.615.543.913.823 1.387 1.303 2.667 2.83 3.535 4.529.97 1.897 1.36 3.78 1.309 5.9-.106 4.303-.311 8.74-1.549 12.888-.574 1.923-1.405 3.899-2.72 5.44-1.413 1.654-3.191 2.6-5.312 3.012-2.201.428-4.439.831-6.686 1.13 1.745 1.693 3.074 3.811 3.712 6.083.554 1.969.595 3.91.51 5.936-.083 1.953-.176 3.906-.38 5.85-.32 3.05-1.086 6.134-3.064 8.56-2.461 3.018-6.082 4.653-9.622 6.043-.663.26-1.322.528-1.978.802l-.36.151-.31.132c-.384.165-.767.33-1.15.499-1.504.66-2.998 1.34-4.487 2.035-6.307 2.944-12.514 6.1-18.68 9.324-3.573 1.867-7.103 3.815-10.671 5.69h-.001c-.36.365-.942.41-1.509.295-.693-.109-1.37-.499-1.808-1.008-.06-.069-.12-.148-.178-.232-.256-.332-.439-.705-.493-1.096-.092-.434-.046-.866.26-1.18l9.917-17.97.318-.575-7.544-3.574c-.825-.391-1.594-.803-2.089-1.635-.504-.847-.88-1.797-1.258-2.705-1.343-3.226-2.322-6.815-2.21-10.331.116-3.632 1.89-6.85 4.024-9.706.478-.64.967-1.295 1.52-1.874.44-.463.819-.516 1.374-.618l11.98-2.19c1.692-.31 3.384-.647 5.079-.974-2.042-.997-4.052-2.063-6.042-3.157-1.489-.819-2.97-1.654-4.437-2.51l-.246-.145c-.836-.493-1.412-1.101-1.747-1.995-.364-.969-.645-1.975-.892-2.979-.845-3.437-1.406-7.34-.184-10.758 1.11-3.108 3.272-5.758 5.622-8.024.8-.771 1.622-1.523 2.486-2.221.31-.25.609-.413 1.004-.482 1.491-.262 3.011-.411 4.511-.616 2.243-.306 4.487-.648 6.733-.964-.636-.422-1.262-.856-1.88-1.29-1.008-.71-1.997-1.444-2.97-2.199" transform="translate(-193 -6113) translate(193 5991) translate(0 126)"/>
                        <path fill="#FFF" d="M351.949 236.357L359.48 237.038 367.046 236.955 374.556 238.135M346.057 270.243L354.119 270.687 362.072 272.083" transform="translate(-193 -6113) translate(193 5991) translate(0 126)"/>
                        <path fill="#000" d="M349.97 234.91c.303-.356.753-.483 1.213-.441l4.736.429c1.131.102 2.264.258 3.4.246l5.867-.064c.38-.005.778-.043 1.157-.003.67.072 1.34.21 2.004.315l5.443.855c.616.097 1.152.293 1.661.665.441.322.952.849 1.137 1.381.139.4.253.928-.053 1.289-.291.342-.766.51-1.213.44l-4.685-.735c-1.122-.176-2.253-.45-3.391-.438l-5.856.065c-.396.004-.799.03-1.194.008-.662-.038-1.324-.12-1.983-.18-1.833-.166-4.464.165-6.297-.001-.59-.054-.388-.815-.862-1.162-.442-.322-.952-.849-1.137-1.381-.14-.399-.253-.928.053-1.288M345.324 268.31l7.093.391c.719.04 1.408.126 2.117.251l4.076.715 3.276.576c.564.098 1.238.583 1.619.985.336.354.732.94.75 1.456.016.438-.1.908-.525 1.136-.477.254-.96.193-1.473.103l-6.951-1.22-.51-.09-.076-.001c-.172-.008-.344-.02-.516-.029l-4.126-.227-3.287-.181c-.59-.033-1.205-.303-1.675-.647-.443-.324-.95-.86-1.124-1.4-.135-.419-.228-.96.087-1.332.312-.37.765-.512 1.245-.485" transform="translate(-193 -6113) translate(193 5991) translate(0 126)"/>
                        <path fill="#FFF" d="M322.012 296.539L335.708 302.883" transform="translate(-193 -6113) translate(193 5991) translate(0 126)"/>
                        <path fill="#000" d="M322.345 294.617l4.62 2.14 7.372 3.416 1.704.79c.506.234.937.557 1.226 1.068.223.395.411 1.02.294 1.536-.107.47-.35.95-.797 1.17-.446.217-.977.258-1.388.068l-4.62-2.14-7.372-3.416-1.703-.79c-.507-.234-.938-.557-1.227-1.068-.223-.395-.41-1.02-.294-1.536.107-.47.35-.95.797-1.17.446-.217.977-.258 1.388-.068M340.617 205.63c3.348-.281 6.714-.454 10.073-.265 2.158.122 4.36.361 6.443.958 2.05.589 4.215 1.54 5.601 3.227.838 1.02 1.355 2.197 1.756 3.448.415 1.29.687 2.644.813 3.993.218 2.332 0 4.784-.721 7.017-.643 1.99-1.67 3.858-3.305 5.194-.667.544-1.5.954-2.34 1.134-1.002.215-2.084.165-3.104.195-4.343.128-8.692.27-13.038.264-.291-.001-.583-.003-.874-.009-.595-.013-1.222-.273-1.695-.62-.448-.327-.945-.876-1.104-1.426-.13-.45-.193-1.007.134-1.399.325-.388.787-.561 1.293-.55 1.805.038 3.615-.012 5.42-.047 2.438-.046 4.876-.106 7.314-.175 1.12-.031 2.265 0 3.38-.113l-.513.053c.375-.044.737-.14 1.086-.282-.147.06-.293.122-.44.183.55-.234 1.041-.572 1.481-.976l-.339.315c.81-.757 1.417-1.698 1.89-2.695l-.197.418c.733-1.57 1.134-3.276 1.288-4.997l-.042.475c.138-1.641.045-3.293-.285-4.908l.105.505c-.226-1.072-.552-2.123-.992-3.128-.027-.06-.058-.12-.082-.181-.023-.06.305.586.172.365-.037-.061-.068-.126-.105-.187-.037-.062-.075-.122-.115-.18l-.062-.089c-.164-.254.44.541.24.312-.096-.11-.189-.222-.292-.327-.052-.053-.107-.103-.16-.156-.21-.206.436.373.364.321-.046-.033-.088-.075-.132-.11-.12-.098-.246-.191-.374-.28l-.226-.148c-.314-.205.678.383.273.163-.33-.18-.666-.346-1.014-.49-.083-.034-.166-.067-.25-.099l-.127-.048c-.244-.095.666.234.347.125-.188-.065-.377-.127-.568-.185-.41-.124-.825-.23-1.243-.323-.425-.095-.853-.176-1.284-.246l-.31-.049-.157-.023c-.3-.045.355.048.323.045-.239-.027-.476-.062-.715-.09-.93-.105-1.864-.17-2.8-.21-1.771-.075-3.546-.055-5.317.023-1.37.06-2.737.16-4.103.274-.546.046-1.277-.314-1.695-.62-.447-.327-.945-.877-1.103-1.426-.13-.45-.194-1.007.134-1.399.344-.412.774-.507 1.293-.55M331.822 240.732c1.674-.097 3.356-.116 5.033-.11 2.092.008 4.2.051 6.278.304.901.11 1.838.224 2.702.515.732.248 1.465.556 2.155.906 1.707.868 3.277 2.124 4.246 3.801 1.214 2.104 1.575 4.525 1.512 6.925-.035 1.376-.162 2.754-.34 4.12-.117.903-.264 1.808-.516 2.684-.455 1.586-1.266 3.064-2.71 3.947-1.706 1.045-3.868 1.167-5.811 1.145-2.118-.023-4.244-.245-6.357-.381-1.95-.127-3.9-.245-5.848-.385-.224-.017-.449-.032-.673-.052-.605-.053-1.187-.287-1.677-.645-.443-.324-.949-.861-1.121-1.402-.136-.422-.226-.963.09-1.338.307-.364.773-.533 1.25-.49 3.58.314 7.178.466 10.764.718 1.208.085 2.418.142 3.628.06l-.501.035c.868-.063 1.736-.197 2.553-.507-.142.055-.284.11-.426.163.536-.209 1.032-.496 1.461-.88l-.322.292c.485-.446.85-.992 1.128-1.587l-.181.395c.397-.87.618-1.81.781-2.75.228-1.31.365-2.644.447-3.97-.01.151-.018.302-.027.454.09-1.562.06-3.148-.302-4.677l.118.488c-.093-.38-.205-.755-.346-1.12-.06-.155-.126-.31-.198-.46-.018-.04-.038-.078-.055-.117-.072-.16.219.395.18.353-.057-.061-.092-.17-.134-.245-.076-.13-.155-.256-.239-.38-.18-.266-.49-.591.052.04-.184-.214-.373-.416-.578-.61-.3-.283.492.414.295.258-.048-.038-.093-.077-.14-.115-.114-.09-.231-.176-.35-.26-.104-.07-.212-.136-.317-.206-.113-.076.7.411.367.222l-.195-.11c-.446-.245-.911-.451-1.38-.648-.13-.053-.577-.228-.058-.03.521.196.023.015-.12-.025-.283-.08-.571-.14-.86-.193-.43-.078.37.057.231.037l-.232-.035c-.186-.027-.372-.051-.559-.073-.405-.048-.812-.087-1.22-.119-1.783-.14-3.576-.177-5.365-.177-1.551 0-3.105.02-4.654.11-.54.031-1.264-.343-1.677-.644-.443-.325-.948-.862-1.121-1.402-.136-.423-.226-.964.09-1.339.333-.395.753-.462 1.249-.49" transform="translate(-193 -6113) translate(193 5991) translate(0 126)"/>
                        <path fill="#000" d="M321.627 273.566c3.094-.172 6.256.096 9.304.617 3.759.641 7.883 1.924 10.197 5.162.565.79.864 1.682 1.039 2.626.183.99.324 1.988.412 2.99.183 2.086.151 4.278-.4 6.31-.544 1.998-1.683 3.855-3.468 4.968-1.8 1.122-3.94 1.36-6.012 1.466-1.979.102-3.967.037-5.943-.093-1.763-.116-3.53-.282-5.275-.564-.218-.035-.436-.074-.652-.12-.595-.13-1.22-.532-1.628-.975-.341-.37-.713-.978-.712-1.508.003-1.197 1.063-1.625 2.113-1.396.216.047.434.085.652.12.13.022.261.042.392.06l.23.033.09.012c.311.044-.633-.08-.313-.041.776.095 1.553.178 2.333.245 1.905.164 3.82.26 5.732.247 1.02-.008 2.04-.048 3.053-.158l-.517.057c.95-.108 1.887-.286 2.772-.66l-.445.188c.658-.289 1.259-.672 1.787-1.16l-.343.32c.598-.565 1.067-1.234 1.427-1.972l-.202.424c.548-1.152.819-2.406.941-3.67l-.045.48c.205-2.246-.02-4.537-.442-6.747l.102.51c-.056-.268-.143-.518-.242-.772-.102-.263.283.549.143.304-.034-.059-.062-.12-.095-.178-.068-.117-.143-.23-.218-.342-.19-.285.33.417.23.3-.045-.054-.087-.109-.132-.161-.09-.107-.186-.21-.286-.309-.05-.05-.104-.097-.155-.148-.116-.116.588.504.304.27-.123-.101-.245-.201-.373-.296-.114-.084-.23-.164-.349-.242l-.168-.108c-.347-.225.631.363.272.161-.275-.154-.554-.3-.84-.433-.31-.145-.628-.276-.948-.397l-.212-.079c.76.286.527.185.361.129l-.108-.037c-.17-.058-.342-.114-.514-.167-1.409-.435-2.862-.72-4.32-.927l-.24-.034c-.244-.033.563.073.32.043l-.12-.015c-.185-.024-.37-.046-.556-.066-.363-.041-.728-.077-1.093-.109-.663-.057-1.327-.1-1.992-.129-1.165-.05-2.335-.067-3.5-.003-.563.031-1.262-.293-1.7-.613-.448-.328-.944-.881-1.098-1.433-.128-.457-.185-1.018.145-1.414.341-.409.783-.537 1.305-.566" transform="translate(-193 -6113) translate(193 5991) translate(0 126)"/>
                        <path fill="#5CFFE4" d="M289.024 340.626L271.131 331.458 254.087 320.766 236.637 310.802 218.579 301.928 201.296 291.662" transform="translate(-193 -6113) translate(193 5991) translate(0 126)"/>
                        <path fill="#000" d="M199.293 288.425c.883-.181 1.961-.074 2.741.39l5.871 3.488 9.293 5.52c1.168.693 2.306 1.35 3.523 1.948l9.31 4.575c2.408 1.183 4.83 2.34 7.225 3.55 1.664.84 3.258 1.851 4.876 2.775l9.687 5.531c1.562.893 3.133 1.769 4.658 2.725l8.186 5.135 7.451 4.675 5.792 2.967 9.632 4.936 2.224 1.139c.933.478 1.82 1.182 2.373 2.089.393.647.776 1.7.514 2.475-.62 1.841-2.864 1.898-4.364 1.13l-6.078-3.115-9.65-4.944c-1.51-.774-2.965-1.583-4.403-2.485l-8.768-5.5c-2.179-1.367-4.36-2.731-6.536-4.101l-10.492-5.991c-2.621-1.497-5.205-3.072-7.914-4.404l-13.98-6.869c-.915-.45-1.872-.855-2.754-1.366-1.527-.886-3.037-1.804-4.554-2.706l-12.34-7.33-.259-.154c-.942-.56-1.788-1.128-2.372-2.089-.394-.646-.776-1.7-.515-2.475.255-.754.81-1.352 1.623-1.52M76.605 287.159c.922.086 2.035.68 2.79 1.15 1.064.66 2.12 1.42 2.957 2.357.522.583 1.175 1.27 1.266 2.084l.806 7.213 1.28 11.452c.096.858.142 1.74.29 2.593.094.546.302 1.092.453 1.625l3.006 10.595c.747 2.632 1.495 5.263 2.24 7.896l2.526 6.694 4.052 10.737c.29.77.58 1.54.872 2.31l3.673 5.465 6.443 9.586.952 1.416 4.566 3.85 8.787 7.409 2.013 1.696c.676.57 1.58 1.463 1.94 2.31.185.438.33 1.116-.314 1.265-.764.178-1.726-.257-2.372-.575-1.139-.561-2.173-1.285-3.142-2.103l-2.461-2.074-5.463-4.606-5.587-4.71c-.943-.795-1.897-1.58-2.83-2.387-1.272-1.098-2.074-2.429-2.995-3.798l-3.847-5.724-4.165-6.198c-.799-1.188-1.6-2.374-2.395-3.564-.242-.361-.471-.716-.624-1.12l-.629-1.667-2.339-6.198-2.674-7.086L84 330.596c-.303-.803-.506-1.65-.74-2.475l-1.73-6.1-2.088-7.357-1.418-4.997c-.17-.6-.222-1.18-.292-1.803l-.671-6.009-.854-7.639-.62-5.548c-.03-.276-.062-.551-.093-.827-.073-.66.662-.724 1.112-.682" transform="translate(-193 -6113) translate(193 5991) translate(0 126)"/>
                        <g transform="translate(-193 -6113) translate(193 5991) translate(0 126) translate(244.66)">
                            <mask id="59a5b2uzzd" fill="#fff">
                                <use xlink:href="#lnj95rvsdc"/>
                            </mask>
                            <path fill="#C58FFF" d="M18.995 6.626s-.92-2.34-3.19-4.26c-.635-.537-1.377-1.042-2.233-1.452-.857-.41-2.926-.89-2.926-.89s-2.376.09-3.48.209C5.366.426 4.074 1.853 3.046 3.13 1.83 4.638 1.128 7.6 1.128 7.6S.127 10.226.094 11.574c-.033 1.35.096 2.741.37 4.158.344 1.776.918 3.591 1.692 5.408.42.988 1.75 2.77 1.75 2.77s1.338 3.01 2.32 4.386c1.281 1.797 2.732 3.544 4.32 5.202 0 0 2.406-.537 5.683-1.748.968-.358 3.164-1.038 3.333-1.149.08-.052 2.541-1.414 3.94-2.226 1.888-1.094 3.735-2.382 5.348-3.883 1.684-1.567 4.063-5.414 4.063-5.414s1.497-4.051 1.618-5.638c.362-4.758-4.217-8.034-4.217-8.034s-3.252-1.27-5.457-1.244c-2.205.027-4.478.672-5.862 2.464" mask="url(#59a5b2uzzd)"/>
                        </g>
                        <path fill="#C58FFF" d="M165.542 67.402l-6.796-7.012-11.686-2.501s-6.78 1.886-9.281 3.534c-2.635 1.736-4.582 4.005-5.744 6.845-1.213 2.964-.96 10.798-.96 10.798s2.133 5.853 4.663 9.339c2.135 2.941 4.82 6.055 7.69 9.107 2.404 2.557 4.938 5.07 7.385 7.4 3.285 3.129 8.867 8.065 8.867 8.065l5.005 4.25s3.008-1.775 7.26-4.663c1.68-1.142 3.555-2.457 5.515-3.906 2.306-1.705 7.096-5.602 7.096-5.602s8.611-7.894 11.458-12.026c1.796-2.606 3.482-7.686 3.482-7.686s.168-12.088-2.114-16.263c-1.468-2.686-3.481-4.8-5.837-6.232-2.319-1.41-7.755-2.147-7.755-2.147l-8.745 1.378s-7.803 4.513-9.503 7.322" transform="translate(-193 -6113) translate(193 5991) translate(0 126)"/>
                        <path fill="#FFF" d="M218.176 243.441c-5.563 9.774-2.17 22.199 7.58 27.75 9.749 5.552 22.162 2.129 27.725-7.645 5.563-9.775 2.169-22.199-7.58-27.75-9.75-5.553-22.162-2.13-27.725 7.645" transform="translate(-193 -6113) translate(193 5991) translate(0 126)"/>
                        <path fill="#000" d="M217.643 255.936c.09 1.062.255 2.115.506 3.151.127.525.275 1.045.444 1.558.072.22.15.44.23.657-.03-.078.007.032.036.103l.003.006c.02.056.042.111.063.167l-.042-.114c.049.12.097.24.147.358.426 1.004.936 1.965 1.512 2.89l-.1-.15.1.153.008.012.032.053c.062.1.168.247 0-.008.07.107.143.213.216.318.157.224.318.445.484.662.166.219.337.433.511.645l.237.28c.022.026.045.05.067.077.365.392.74.775 1.135 1.14.169.155.341.305.514.456.114.092.228.182.344.272.429.331.872.64 1.324.938l.009.006c.11.067.22.133.332.198.264.153.533.302.804.443.24.126.483.248.728.364l.042.02c.123.053.245.106.368.157.52.215 1.05.408 1.587.578.133.043.267.083.4.123.058.017.157.043.234.062l-.255-.063c.27.067.537.138.808.198.553.124 1.11.225 1.671.301.317.043.634.079.952.107.151.014.303.023.454.035-.591-.047-.06-.004.09.001.618.024 1.237.02 1.855-.013 1.171-.061 2.334-.23 3.478-.49 2.807-.706 5.441-1.994 7.716-3.784 2.695-2.213 4.786-5.094 6.073-8.334 1.002-2.687 1.429-5.557 1.253-8.419-.089-1.061-.254-2.115-.505-3.15-.128-.525-.276-1.045-.444-1.558-.073-.221-.151-.44-.231-.658.03.079-.006-.031-.036-.102l-.002-.007c-.021-.056-.043-.11-.063-.167l.041.114c-.048-.119-.096-.238-.147-.357-.425-1.004-.936-1.965-1.511-2.891l.1.15-.1-.152-.009-.013c-.01-.017-.02-.035-.032-.052-.061-.1-.167-.248.001.007-.071-.106-.143-.213-.216-.317-.157-.224-.318-.445-.484-.663-.166-.218-.337-.433-.512-.644-.078-.094-.157-.188-.236-.28l-.067-.077c-.365-.393-.741-.775-1.136-1.14-.168-.155-.34-.306-.513-.456-.114-.092-.229-.183-.344-.272-.429-.331-.872-.64-1.324-.939l-.01-.005c-.11-.067-.22-.133-.331-.198-.265-.154-.533-.302-.804-.444-.24-.126-.483-.247-.729-.364l-.041-.019c-.123-.053-.245-.106-.369-.157-.52-.215-1.05-.408-1.586-.579-.134-.042-.267-.083-.401-.122-.058-.017-.16-.044-.236-.064l.257.065c-.269-.068-.537-.138-.808-.199-.552-.124-1.11-.224-1.67-.3-.317-.044-.635-.08-.953-.108-.15-.013-.302-.022-.453-.035.591.048.06.005-.09 0-.618-.025-1.237-.02-1.855.012-1.172.062-2.335.231-3.478.491-2.8.703-5.426 1.987-7.697 3.768-1.948 1.596-3.584 3.535-4.834 5.72-.481.85-.9 1.73-1.26 2.636-1 2.685-1.427 5.553-1.252 8.412m-1.446-13.942c2.158-3.77 5.516-6.843 9.469-8.655 3.985-1.827 8.523-2.373 12.836-1.614 4.923.868 9.601 3.385 13.092 6.956 3.213 3.286 5.523 7.459 6.324 12.005.77 4.372.178 8.833-1.705 12.852-1.863 3.974-5.01 7.293-8.85 9.417-3.851 2.13-8.305 2.942-12.668 2.517-5.015-.49-9.72-2.792-13.485-6.081-3.462-3.025-6.016-7.138-7.15-11.594-1.061-4.172-.848-8.656.687-12.682.41-1.076.883-2.118 1.45-3.121M241.736 235.474c-.158-.04-.103-.026 0 0" transform="translate(-193 -6113) translate(193 5991) translate(0 126)"/>
                        <path fill="#000" d="M252.795 245.575v.002c.014.035.025.071.038.107l-.06-.162.022.053M218.862 261.411l-.001-.001-.038-.107.06.161-.021-.053M220.55 264.727l-.008-.014.04.06-.032-.046M229.918 271.512c.162.04.105.027 0 0M251.106 242.26l.009.014-.04-.06.031.045M223.876 255.006l7.113-2.032 2.412-.69-1.803-6.68-.699-2.59c-.123-.458-.193-.95.11-1.365.276-.377.821-.549 1.27-.518.602.04 1.208.262 1.685.633.457.356.958.837 1.113 1.413l1.902 7.048.26.963 4.99-1.425 2.564-.733c1.04-.298 2.218.36 2.937 1.093.35.355.77.807.852 1.317.05.316.038.791-.356.903l-7.112 2.033-2.8.8 1.698 6.289.698 2.59c.124.457.194.95-.11 1.365-.276.377-.82.549-1.27.518-.6-.04-1.207-.262-1.684-.633-.457-.356-.958-.837-1.114-1.413l-1.901-7.048-.154-.572-4.602 1.315-2.565.733c-1.041.297-2.219-.36-2.938-1.093-.349-.355-.77-.807-.851-1.317-.05-.317-.038-.791.355-.904" transform="translate(-193 -6113) translate(193 5991) translate(0 126)"/>
                        <path fill="#C58FFF" d="M127.851 284.453c.935-2.251 2.305-9.31 5.125-19.41 1.551-5.552 3.54-12.023 6.134-19.117 2.128-5.816 4.662-12.05 7.697-18.544 2.693-5.761 5.78-11.725 9.325-17.78 3.255-5.558 6.897-11.191 10.975-16.813 0 0 6.252-4.641 14.444-12.042 4.162-3.76 8.825-8.232 13.423-13.17 4.193-4.5 8.332-9.389 11.99-14.477 4.777-6.646 9.371-11.801 13.521-16.524 5.023-5.717 9.396-10.801 12.656-17.132 2.82-5.48 4.808-11.892 5.662-20.456 7.225-.37 12.533 1.684 16.342 5.222 4.135 3.84 6.502 9.43 7.634 15.566 1.052 5.705 1.037 11.883.381 17.566-.808 7.005-2.589 13.258-4.54 16.95-2.166 4.096-6.781 11.367-12.069 19.377-4.125 6.25-8.659 12.95-12.757 18.944-7.158 10.47-12.987 18.785-12.987 18.785l.258.921c.789 3.863.859 10.77-.004 19.172-.594 5.78-1.629 12.266-3.175 18.955-1.408 6.092-3.24 12.352-5.55 18.399-2.324 6.089-5.132 11.961-8.477 17.229-3.581 5.64-7.778 10.586-12.657 14.36l-17.599-3.952-17.6-3.951-17.6-3.952-17.6-3.951c10.28-3.05 6.011 2.321 7.048-.175" transform="translate(-193 -6113) translate(193 5991) translate(0 126)"/>
                        <path fill="#C58FFF" d="M220.736 211.348L233.833 192.64 246.372 173.553 258.76 154.366 262.81 136.467 263.179 118.077 255.721 101.442 238.904 95.099 233.016 116.682 221.086 135.65 206.735 152.936 194.709 167.331 181.76 180.981 167.343 193.024 155.535 209.6 145.689 227.464 136.878 245.861 130.78 265.333" transform="translate(-193 -6113) translate(193 5991) translate(0 126)"/>
                        <path fill="#000" d="M231.346 115.518l.003-.012c-.089.153-.057.231-.003.012m30.105 1.703c-.014-.103-.038-.106 0 0M136.344 242.326l2.907-6.07c1.582-3.302 3.096-6.65 4.75-9.918 1.325-2.615 2.834-5.152 4.25-7.72 1.843-3.345 3.598-6.76 5.54-10.05 1.395-2.364 3.215-4.553 4.807-6.788 2.297-3.224 4.533-6.502 6.895-9.679.406-.546.981-.934 1.504-1.37l4.85-4.053c2.737-2.286 5.641-4.462 8.25-6.892 2.405-2.239 4.568-4.811 6.828-7.194 2.07-2.181 4.243-4.3 6.219-6.567 4.197-4.815 8.214-9.805 12.295-14.72l7.64-9.201c2.1-2.532 4.41-4.988 6.349-7.648 1.745-2.396 3.194-5.075 4.77-7.583l6.712-10.671c.146-.233.29-.468.44-.7.047-.186.102-.372.152-.557l1.338-4.904 3.63-13.308c.24-.874.478-1.748.716-2.623.164-.6.878-.344 1.3-.185l14.623 5.515c.711.268 1.44.51 2.14.807 1.208.511 1.907 1.389 2.412 2.516l3.415 7.617 3.462 7.722c.55 1.226.328 2.503.301 3.837l-.196 9.79c-.038 1.873.118 3.868-.116 5.73-.249 1.98-.902 3.987-1.342 5.93l-2.138 9.45c-.268 1.185-.39 2.348-1.049 3.37-1.4 2.166-2.798 4.333-4.197 6.5-2.6 4.026-5.183 8.064-7.8 12.08-2.877 4.413-5.786 8.806-8.678 13.21-1.895 2.884-3.783 5.763-5.762 8.59l-10.386 14.836-.79 1.129c-.647.925-3.972-1.449-3.298-2.412 4.404-6.291 8.95-12.505 13.216-18.89 4.328-6.477 8.605-12.997 12.83-19.542l8.232-12.749 3.376-5.227c.103-.16.198-.33.312-.483.01-.015.02-.027.028-.036.16-.6.274-1.218.41-1.824l3.398-15.014c.204-.901.22-1.693.239-2.627l.157-7.86.152-7.582c.006-.298-.002-.6.019-.897.004-.076.001-.135-.004-.18-.201-.423-.384-.858-.575-1.286l-6.229-13.892-13.196-4.977-.998-.376-5.546 20.331c-.164.602-.345 1.02-.679 1.549l-2.783 4.425-7.333 11.66c-1.045 1.661-2.11 3.072-3.366 4.586l-8.864 10.677c-4.187 5.042-8.39 10.07-12.592 15.099-4.35 5.206-9.112 10.023-13.781 14.946-.698.735-1.367 1.528-2.11 2.22-.866.81-1.834 1.533-2.744 2.294l-10.316 8.617c-.52.436-1.102.828-1.517 1.365-.921 1.188-1.752 2.46-2.625 3.684l-7.858 11.03c-1.236 1.735-2.212 3.539-3.242 5.41l-6.643 12.05c-3.223 5.847-5.9 12.013-8.783 18.033-.295.615-.59 1.229-.883 1.843-.07.145-.276.595-.252.499-.402 1.09-.695 2.238-1.042 3.346l-4.12 13.159-.877 2.798c-.39 1.243-3.76-.938-3.435-1.977 2.028-6.476 3.866-13.046 6.092-19.456.306-.883.786-1.72 1.189-2.562" transform="translate(-193 -6113) translate(193 5991) translate(0 126)"/>
                        <path fill="#000" d="M175.104 305.92l9.889-7.28 2.187-1.61.337-.247c1.182-1.091 2.414-2.133 3.62-3.198l10.136-8.952c.589-.52.877-1.359 1.246-2.04l3.44-6.346 3.55-6.552 1.053-1.942c.053-.097.1-.216.162-.315 1.122-4.134 2.383-8.236 3.573-12.351l1.605-5.55c.214-.738.163-1.472.178-2.244l.276-14.594c.02-1.038-.005-2.09.063-3.126.097-1.454.283-2.907.423-4.357l1.379-14.202.095-.985c.117-1.208 2.018-.492 2.594-.162.633.363 1.262.82 1.699 1.411.3.405.635.895.584 1.427l-1.118 11.523-.65 6.69c-.07.723-.135 1.427-.149 2.15l-.266 14.075-.057 3.013c-.01.49.029 1.009-.028 1.497-.027.227-.115.453-.179.674l-.666 2.303-4.07 14.076c-.243.838-.43 1.685-.848 2.455l-2.731 5.04-3.84 7.084c-.782 1.443-1.501 2.949-2.357 4.35-.11.18-.243.286-.407.43l-1.668 1.475-5.686 5.02-5.228 4.618c-.679.6-1.347 1.18-2.076 1.716l-11.062 8.143-.975.718c-.35.258-1.219-.007-1.538-.124-.657-.243-1.365-.697-1.859-1.192-.626-.626-1.605-1.802-.63-2.52M223.598 169.714c-1.28-.745-3.747-2.744-3.103-4.536.64-1.781 2.884-1.337 4.187-.578 6.03 3.51 19.797 5.83 22.603 4.14l-1.978 7.178c-8.181-.83-14.527-2.022-21.709-6.204" transform="translate(-193 -6113) translate(193 5991) translate(0 126)"/>
                        <path fill="#000" d="M195.057 210.048c.967-.224 2.024-.179 2.97.114.941.29 1.912.713 2.594 1.449.028.03.06.057.09.086.208.155.424.3.644.438.285.144.575.277.87.399.341.109.686.205 1.034.288.509.083 1.021.14 1.536.176.915.007 1.83-.052 2.737-.168 1.698-.292 3.358-.765 4.974-1.362 1.674-.668 3.295-1.456 4.87-2.332.766-.426 3.895-1.413 4.74-1.318.979.11.071 1.418.872 2.012.592.44 1.838.363 1.596 1.124-.439 1.38-.5 2.664-.559 2.69-3.011 1.327-6.447 2.653-9.634 3.496-1.412.373-2.858.62-4.308.785-1.318.15-2.623.138-3.946.084-.854-.035-1.7-.132-2.54-.294-1.04-.202-2.064-.407-3.064-.76-1.632-.576-3.184-1.253-4.62-2.236-.622-.425-1.25-.895-1.762-1.447-.46-.495-.9-1.223-.7-1.936.194-.686.962-1.139 1.606-1.288" transform="translate(-193 -6113) translate(193 5991) translate(0 126)"/>
                    </g>
                </g>
            </g>
        </g>
    </g>
</svg>
