<svg xmlns="http://www.w3.org/2000/svg" xmlns:xlink="http://www.w3.org/1999/xlink" width="438" height="300" viewBox="0 0 438 300">
    <defs>
        <path id="lsb3yilafa" d="M0 0.152L264.073 0.152 264.073 274.365 0 274.365z"/>
        <path id="z13g3zlssc" d="M0.499 0.105L108.634 0.105 108.634 21.499 0.499 21.499z"/>
    </defs>
    <g fill="none" fill-rule="evenodd">
        <g>
            <g>
                <g>
                    <g>
                        <path fill="#C58FFF" d="M220.735 104.08L219.501 98.09 217.406 92.329 214.858 86.761 212.305 81.203 209.411 75.814 206.483 70.427 203.097 65.313 199.136 60.634 194.852 56.272 190.839 51.66 186.435 47.408 181.436 43.88 176.529 40.239 171.068 37.494 165.851 34.294 160.178 32.018 154.507 29.72 148.602 28.12 142.578 27.079 136.575 25.981 130.503 25.304 124.395 25.185 118.211 25 112.035 25.383 105.873 25.979 99.872 27.531 93.793 28.635 87.777 30.127 82.189 32.85 76.362 34.943 71.027 38.091 65.425 40.775 60.533 44.603 55.419 48.105 50.922 52.38 46.203 56.4 42.03 60.988 38.011 65.702 33.86 70.327 30.756 75.735 26.94 80.642 24.17 86.211 20.902 91.488 18.245 97.095 15.869 102.825 13.202 108.439 11.372 114.378 9.425 120.269 7.846 126.27 6.61 132.351 5.268 138.407 4.503 144.563 3.332 150.681 3 156.892 3.01 163.109 3.112 169.334 4.012 175.496 4.832 181.655 6.016 187.753 7.128 193.875 9.195 199.748 10.687 205.79 13.125 211.512 15.1 217.413 18.029 222.902 20.751 228.472 23.707 233.921 26.818 239.286 30.437 244.32 33.927 249.442 37.597 254.452 41.544 259.254 46.296 263.282 50.679 267.658 55.521 271.513 60.4 275.312 65.413 278.948 70.729 282.12 76.134 285.142 81.816 287.6 87.406 290.306 93.443 291.778 99.243 294.004 105.395 294.857 111.389 296.478 117.558 297.051 123.718 297.678 129.913 297.538 136.071 298 142.21 297.345 148.331 296.741 154.508 296.447 160.547 295.165 166.455 293.386 172.554 292.315 178.402 290.319 183.973 287.629 189.576 285.077 195.285 282.694 200.508 279.385 205.847 276.273 210.655 272.378 215.785 268.917 220.241 264.621 224.546 260.195 229.01 255.936 233.084 251.299 237.302 246.763 240.61 241.517 244.442 236.646 247.397 231.199 250.606 225.903 253.186 220.273 255.493 214.533 257.425 208.664 259.689 202.888 260.655 196.764 261.631 190.673 262 184.518 255.447 183.093 248.971 181.353 242.587 179.267 235.992 177.973 229.714 175.888 228.621 170.058 228.357 164.006 227.643 158.007 226.651 152.043 225.971 146.042 225.289 140.042 224.577 134.045 223.801 128.054 222.916 122.074 222.17 116.08 221.809 110.031z" transform="translate(-783 -4261) translate(208 3647) translate(535 568) translate(40 46)"/>
                        <g>
                            <path fill="#000" d="M99.606 27.59l.048-.013c-.283.016-.455.077-.402.084.093-.023.181-.034.276-.052.027-.007.047-.01.078-.019M110.97 27.932c-.137-.003-.264-.017-.372-.048h-.002c.157.048.29.056.373.048M27.945 76.871c-.17.201-.17.216-.108.142.029-.038.056-.076.086-.112l.022-.03" transform="translate(-783 -4261) translate(208 3647) translate(535 568) translate(40 46)"/>
                            <g transform="translate(-783 -4261) translate(208 3647) translate(535 568) translate(40 46) translate(0 24.942)">
                                <mask id="so4n7c9jrb" fill="#fff">
                                    <use xlink:href="#lsb3yilafa"/>
                                </mask>
                                <path fill="#000" d="M258.267 169.445c-.492 3.06-.73 6.31-1.482 9.308-.355 1.413-1.085 2.81-1.618 4.166-.453 1.152-.864 2.294-1.253 3.469-1.048 3.169-2.205 6.235-3.468 9.326-.499 1.222-1.083 2.41-1.635 3.61-.348.755-.757 1.507-1.052 2.284-.01.026-.01.035-.017.051-.17.278-.338.557-.507.835-1.767 2.904-3.449 5.815-5.075 8.8-.168.309-.34.615-.504.925l-.002.005c-.008.005-.013.008-.028.024-.543.594-1.011 1.28-1.51 1.912-.829 1.05-1.73 2.068-2.464 3.187-1.01 1.542-1.892 3.19-2.967 4.687-.81 1.127-1.907 2.103-2.854 3.117-.841.901-1.673 1.803-2.489 2.728l-2.144 2.43c-.242.274-.5.541-.73.827-.052.065-.086.108-.106.137-2.356 2.255-4.713 4.49-6.992 6.823-.884.905-1.764 1.812-2.676 2.689l-2.262 2.171-.924.887c-.104.1-.396.303-.428.343-.07.039-.136.075-.168.097l-1.13.76-2.604 1.748c-1.061.713-2.03 1.512-3.026 2.316l-2.275 1.836-.085.072c-.091.057-.345.244-.445.302-1.557.904-3.13 1.786-4.674 2.713-1.251.75-2.473 1.555-3.708 2.333l-1.083.683c-.046.03-.095.058-.144.086-.485.067-1.385.637-1.723.778-3.036 1.261-6.032 2.583-9.024 3.948-1.34.612-2.663 1.263-3.99 1.9-.696.335-1.393.668-2.088 1.005l-.056.01c-.334.075-.669.228-.993.338l-2.983 1.014-.575.195c-.519-.022-1.414.31-1.82.38-1.025.18-2.05.36-3.075.538-2.732.477-5.293 1.567-7.991 2.174-1.582.355-3.187.63-4.767.996-.197.012-.399.04-.58.048l-3.114.148c-2.962.14-5.908.456-8.857.759-1.756.18-3.51.373-5.266.56-.077.01-.186.01-.3.01-.847-.08-1.7-.126-2.548-.189-1.376-.103-2.762-.266-4.144-.235-1.728.04-3.673-.175-5.378.116-.354-.043-.71-.072-1.065-.108l-3.158-.32c-1.202-.121-2.404-.236-3.607-.348l-3.11-.287c-.244-.022-.645-.141-.884-.082-.01.002-.007.005-.013.007-1.746-.497-3.507-.952-5.262-1.416-1.41-.374-2.877-.497-4.32-.696-.793-.11-1.633-.314-2.436-.341-.289-.154-.644-.244-.946-.36-1.54-.589-3.077-1.289-4.651-1.779-1.575-.49-3.239-.785-4.842-1.174-2.538-.616-4.781-2.103-7.167-3.149-2.99-1.312-5.843-2.586-8.694-4.174l-1.863-1.037c-.045-.026-.104-.06-.187-.11-.363-.217-.728-.433-1.091-.648-1.302-.774-2.656-1.497-3.918-2.335-2.515-1.67-4.916-3.548-7.302-5.398-2.442-1.893-4.984-3.726-7.314-5.754-2.033-1.77-3.779-3.843-5.843-5.587-1.129-.952-2.406-1.846-3.426-2.913-1.248-1.304-2.329-2.821-3.478-4.213-1.618-1.96-3.11-4.067-4.545-6.165-1.88-2.749-3.78-5.469-5.73-8.169-.224-.311-.445-.627-.674-.934-.087-.115-.14-.194-.17-.237-.367-.603-.712-1.222-1.067-1.833-.698-1.198-1.415-2.387-2.088-3.6-1.563-2.817-3.052-5.651-4.471-8.543-1.26-2.57-2.87-5.032-4-7.65-1.157-2.675-1.836-5.55-2.987-8.24-.524-1.227-1.173-2.45-1.527-3.738-.486-1.769-.838-3.573-1.326-5.34-.706-2.558-1.918-4.935-2.396-7.554-.594-3.252-1.208-6.5-1.84-9.745-.49-2.514-.716-5.076-1.085-7.61-.265-1.823-.617-3.651-.804-5.483-.147-1.421-.071-2.89-.095-4.319-.019-1.209-.033-2.416-.036-3.624l-.005-3.174c0-.37.006-.739-.002-1.108-.002-.116-.006-.182-.006-.217.115-3.133.343-6.112.934-9.184.574-2.986.817-5.994 1.318-8.99.455-2.715 1.209-5.397 1.76-8.097.653-3.2 1.427-6.323 2.262-9.481.66-2.497 1.628-4.915 2.391-7.384.505-1.63.91-3.338 1.525-4.93.568-1.465 1.371-2.876 2.048-4.295 1.136-2.383 2.021-4.874 3.122-7.271.764-1.663 1.604-3.29 2.36-4.958.053-.118.1-.214.125-.266l.3-.484 1.617-2.598c.674-1.084 1.336-2.143 1.906-3.285l1.46-2.923.555-1.113c.137-.274.458-.67.077-.197 1.906-2.363 3.7-4.69 5.213-7.315l1.515-2.629c.072-.124.142-.256.215-.385.038-.026.174-.17.292-.292 1.284-1.318 2.489-2.737 3.709-4.115 1.752-1.978 3.414-4.032 5.196-5.984l2.14-2.341c.248-.272.504-.54.745-.817l.051-.06c1.426-1.044 2.728-2.32 4.075-3.463 1.936-1.643 3.568-3.706 5.667-5.138 2.774-1.89 5.443-3.808 8.09-5.872.295-.23.597-.454.887-.69.414.02 1.666-.821 1.977-.97 1.253-.598 2.546-1.146 3.759-1.82 1.573-.875 3.149-1.791 4.676-2.745.194-.051.536-.226.619-.255l3.002-1.075c1.285-.46 2.504-.944 3.73-1.539l2.85-1.383.594-.288c.465-.02 1.561-.452 1.805-.513 1.011-.248 2.022-.499 3.033-.748.241-.06.488-.112.73-.177.832-.14 1.662-.302 2.491-.452 3.164-.572 6.321-1.227 9.407-2.142.327-.006.665-.065.988-.096l3.143-.303 1.201-.115-.016-.005.02.004.031-.003c.475-.046.508.035.34.052.53.011 1.22-.152 1.643-.179 3.314-.204 6.509-.181 9.83-.084 1.358.04 2.716.058 4.074.084.742.015 1.513.086 2.258.052h.002c.399.056.802.09 1.201.134 3.38.375 6.66.888 10.006 1.497 1.327.241 2.657.462 3.986.691.79.136 1.68.423 2.483.427h.001c.34.098.684.185 1.025.277 1.53.413 3.117.743 4.618 1.254 1.691.576 3.338 1.347 4.995 2.015 1.235.499 2.472.99 3.708 1.484.79.316 1.597.734 2.416.965.033.009.046.011.066.015l.873.534c2.979 1.82 5.935 3.45 9.057 5.013.229.114.46.227.687.344l.135.111c.728.594 1.52 1.123 2.275 1.681 1.039.768 2.072 1.541 3.129 2.284 1.39.977 2.896 1.88 4.21 2.959 1.29 1.06 2.444 2.349 3.648 3.506 1.882 1.81 3.414 3.946 5.247 5.804 2.399 2.432 4.664 4.865 6.876 7.467.83.977 1.511 1.979 2.223 3.05l1.692 2.545c.08.122.162.243.243.365.029.064.189.35.245.452 2.897 5.306 5.719 10.583 8.245 16.078 1.33 2.893 2.584 5.728 3.676 8.718.98 2.683 1.473 5.406 2.053 8.206.384 2.118.961 4.276 1.104 6.424.16 2.418.244 4.83.544 7.234.614 4.913 1.365 9.807 2.003 14.717.581 4.467 1.074 8.944 1.585 13.42.52 4.562 1.332 9.069 1.877 13.623.343 2.877.572 5.677.698 8.572.113 2.552.696 5.02 1.169 7.53.088.224.25.37.485.441 2.087.69 4.164 1.485 6.28 2.077 2.209.617 4.56.966 6.823 1.358-.55-.09.212.073.502.168l2.211.72c1.13.367 2.256.762 3.393 1.104 2.116.635 4.276 1.169 6.415 1.718 2.033.522 4.1.926 6.157 1.357-.166 2.772-.333 5.495-.775 8.243m-86.559 97.079c-.938.319-.11-.035.44-.15l-.44.15m-68.455 4.757l.035.01c-.17-.012-.53-.147-.035-.01m-30.785-14.908c.09.052.104.062 0 0M66.616 17.542c.46-.377.175-.085 0 0m10.445-5.55c.527-.331.176-.043-.054.032l.054-.033m11.264-4.76c.84-.407.196-.046-.296.144l.296-.143M263.15 158.958c-2.18-.472-4.356-.97-6.54-1.417.885.182-.092-.035-.393-.116l-2.155-.576c-1.152-.308-2.316-.588-3.461-.926-2.12-.624-4.185-1.43-6.305-2.05-2.189-.639-4.54-.955-6.782-1.36l-.133-.023c-.052-.02-.126-.05-.236-.088-.683-.242-1.377-.455-2.065-.683l-3.347-1.107c-.4-2.03-.972-4.106-1.062-6.167-.107-2.45-.178-4.884-.469-7.318-.587-4.913-1.45-9.774-2.01-14.692-1.032-9.043-2.314-18.042-3.441-27.07-.359-2.865-.602-5.677-.775-8.56-.15-2.5-.716-4.947-1.163-7.41l-1.041-5.033c-.272-1.317-.78-2.537-1.241-3.803-1.052-2.88-2.309-5.62-3.592-8.407-2.545-5.525-5.254-11.032-8.374-16.262-1.531-2.565-3.26-5.013-5.19-7.285-2.087-2.455-4.342-4.666-6.547-7.014-1.966-2.095-3.729-4.323-5.802-6.317-.989-.95-1.93-2.017-3.037-2.828-1.49-1.094-3.035-2.112-4.537-3.189-2.358-1.692-4.527-3.482-7.124-4.782l-2.822-1.412c-.255-.128-.508-.259-.765-.384l-.075-.046c-1.574-.983-3.162-1.951-4.755-2.905-1.317-.79-2.876-1.239-4.297-1.807-1.198-.479-2.395-.959-3.591-1.442-1.359-.548-2.715-1.197-4.114-1.636-1.767-.554-3.59-.979-5.381-1.452-2.707-.715-5.543-1.006-8.299-1.508-3.345-.61-6.635-1.058-10.016-1.434-2.762-.306-5.586-.163-8.365-.246-3.388-.1-6.633-.054-10.016.154-2.927.181-6.06.231-8.91.921-1.76.426-3.519.885-5.268 1.357.047-.003.094-.005.147-.005-.087 0-.181.02-.273.037-.16.04-.249.054-.276.05-.083.02-.168.042-.245.057L96 3.318c-3.092.559-6.312 1.134-9.289 2.143-1.746.594-3.417 1.599-5.073 2.402l-.95.46.018-.01c-.726.11-1.517.544-2.206.79-1.446.518-3 .93-4.35 1.675-1.621.898-3.181 1.907-4.795 2.818-2.391 1.35-5.07 2.14-7.25 3.84-2.686 2.093-5.379 4.058-8.193 5.976-2.147 1.464-3.824 3.515-5.793 5.203-1.4 1.2-2.835 2.359-4.217 3.578-1.153 1.018-2.138 2.26-3.174 3.394-1.888 2.068-3.664 4.228-5.514 6.331-1.176 1.336-2.384 2.645-3.575 3.967-.902 1-1.485 2.23-2.157 3.395-.48.834-.961 1.669-1.443 2.503-.03.051-.063.1-.095.146l.029-.035c-.018.021-.033.044-.05.065-.035.046-.064.084-.087.111-.103.13-.204.261-.306.392-1.1 1.409-2.33 2.779-3.328 4.262-.882 1.312-1.478 2.884-2.183 4.295l-.556 1.113c-.078.156-.245.463-.225.443-.324.534-.662 1.062-.993 1.592-.788 1.268-1.67 2.515-2.358 3.842-.841 1.623-1.575 3.31-2.36 4.96-1.127 2.368-1.974 4.862-3.103 7.23-.721 1.511-1.563 3.012-2.18 4.57-.606 1.525-.986 3.181-1.47 4.75-.777 2.51-1.749 4.97-2.434 7.506-.859 3.179-1.624 6.334-2.282 9.559-.554 2.71-1.316 5.404-1.764 8.132-.506 3.074-.776 6.153-1.364 9.216-1.116 5.804-.96 11.763-.863 17.656.023 1.445-.051 2.93.1 4.366.195 1.84.543 3.674.808 5.505.374 2.582.616 5.186 1.115 7.747.646 3.319 1.271 6.64 1.878 9.965.467 2.557 1.762 4.882 2.386 7.4.44 1.77.776 3.605 1.327 5.344.448 1.419 1.173 2.795 1.758 4.162 1.066 2.491 1.632 5.198 2.747 7.654 1.308 2.881 3.006 5.634 4.404 8.482 1.303 2.654 2.689 5.263 4.139 7.84 3.039 5.397 6.668 10.355 10.197 15.44 1.515 2.181 3.097 4.343 4.788 6.392.999 1.209 1.933 2.557 3.036 3.672 1.22 1.236 2.707 2.285 4.034 3.406 1.995 1.684 3.62 3.787 5.664 5.409 2.598 2.06 5.202 4.107 7.822 6.139 2.12 1.643 4.269 3.332 6.533 4.765 2.726 1.725 5.562 3.294 8.38 4.863 2.647 1.473 5.391 2.566 8.147 3.822 1.477.673 2.927 1.41 4.39 2.115 1.191.575 2.288.845 3.585 1.16 1.344.326 2.747.563 4.049 1.037 1.743.633 3.446 1.395 5.203 1.989 1.38.466 2.957.506 4.39.704.754.104 1.581.331 2.344.325.38.106.764.206 1.147.31 1.624.436 3.28 1.04 4.942 1.315 1.715.284 3.507.324 5.238.484 2.689.249 5.414.758 8.113.728 1.823-.02 3.725.066 5.537-.124l.026-.004c.273.022.546.041.82.062l3.262.244c3.04.226 6.004-.248 9.033-.557 1.804-.184 3.609-.354 5.413-.532.08-.007.196-.005.313-.007.057-.01.135-.02.24-.027.037-.008.076-.016.103-.03-.021.011-.04.017-.061.027h.011c1.018-.05 2.036-.098 3.053-.146 3.344-.158 6.596-.767 9.85-1.58 1.504-.377 2.985-.89 4.47-1.336.366-.11.738-.211 1.101-.33l.063-.021c.686-.08 1.384-.26 2.056-.377 1.713-.3 3.503-.49 5.155-1.045 1.734-.583 3.463-1.178 5.194-1.766 1.384-.47 2.694-1.213 4.009-1.845.787-.378 1.576-.752 2.361-1.135.269-.119.536-.244.804-.365 3.086-1.4 6.177-2.74 9.306-4.04 2.561-1.065 4.762-2.798 7.15-4.195 1.573-.92 3.168-1.807 4.73-2.745 1.319-.793 2.477-1.883 3.673-2.848.985-.794 1.945-1.549 2.994-2.253 1.413-.949 3.018-1.807 4.27-2.964 2.198-2.031 4.324-4.143 6.414-6.284.68-.695 1.366-1.385 2.04-2.087l.208-.221.458-.435c1.255-1.193 2.522-2.375 3.766-3.577 2.189-2.116 4.079-4.582 6.16-6.812.92-.984 1.985-1.922 2.727-3.052 1.01-1.537 1.913-3.153 2.956-4.667 1.555-2.26 3.487-4.173 4.804-6.592l1.515-2.78c.195-.358.394-.714.585-1.073l.063-.12 2.792-4.587c1.354-2.226 2.398-4.738 3.372-7.154 1.28-3.172 2.453-6.308 3.527-9.555.39-1.178.829-2.32 1.284-3.475.503-1.279 1.199-2.595 1.474-3.946 1.203-5.92 1.894-11.94 2.26-17.958.035-.616-.382-.739-.923-.856" mask="url(#so4n7c9jrb)"/>
                            </g>
                            <path fill="#000" d="M147.136 298.152c-.28.052-.048.121.282-.03l-.042.003c-.073.017-.154.025-.24.027" transform="translate(-783 -4261) translate(208 3647) translate(535 568) translate(40 46)"/>
                            <path fill="#C58FFF" d="M129.199 108.237L122.884 107.395 116.583 107.439 110.349 108.341 104.186 109.695 98.221 111.781 92.373 114.232 87.042 117.667 81.785 121.199 76.916 125.252 72.176 129.474 74.61 131.812 80.453 131.97 86.391 131.953 92.259 131.752 97.504 134.268 102.973 136.416 108.517 138.408 114.278 139.687 120.148 140.237 126.029 140.206 131.875 139.658 137.747 138.23 141.111 143.199 145.424 147.174 149.997 150.879 156.542 154.251 163.369 156.571 170.193 156.911 177.043 156.343 182.842 157.879 188.664 159.26 194.878 157.394 200.735 154.681 206.611 151.979 211.705 147.99 216.871 144.097 220.669 138.844 222.809 132.803 227.834 129.95 231.887 125.761 236.75 121.231 242.248 117.584 248.228 114.728 254.841 114.058 261.119 113.912 267.362 114.657 273.615 115.062 279.797 115.381 281.112 110.425 275.531 108.06 270.005 105.661 264.141 104.283 258.167 103.517 252.158 103.191 245.816 103.54 239.463 103.485 233.128 103.864 226.838 104.73 220.515 104.958 214.299 101.474 208.345 97.446 202.363 93.495 196.388 91.353 190.392 89.266 184.302 87.43 178.039 86.321 171.713 85.482 165.592 86.472 159.562 87.593 153.677 89.456 148.33 92.556 143.063 95.789 138.014 99.388 133.575 103.716z" transform="translate(-783 -4261) translate(208 3647) translate(535 568) translate(40 46)"/>
                            <path fill="#000" d="M171.036 155.477c.031 0 .03 0 0 0M269.203 113.295c-.244-.015-.492-.044-.737-.048-1.77-.216-3.54-.423-5.31-.634-1.399-.168-2.79-.08-4.199-.047-1.4.034-2.813.011-4.208.153l-5.627.57c-1.591.162-2.894.896-4.316 1.575-1.396.667-2.897 1.248-4.221 2.053-1.546.938-3.025 2.005-4.531 3.005-2.277 1.51-4.259 3.548-6.205 5.458-1.243 1.222-2.428 2.511-3.64 3.765-.072.074-.237.21-.318.288l-.205.115-2.628 1.492c-.591.336-1.209.645-1.783 1.011-.819.523-1.002 1.147-1.296 1.977l-1.019 2.875c-.233.658-.574 1.358-.732 2.044l-.014.013c-.228.227-.404.558-.592.818l-1.841 2.549-.76 1.05c-.06.082-.239.269-.357.432.118-.116.246-.129-.048.067-.034.055-.058.106-.06.144.002-.05.023-.096.049-.137-.006.005-.008.007-.014.01-.338.219-.652.491-.973.733-2.569 1.936-5.116 3.89-7.648 5.873l-.91.713c-1.906.875-3.812 1.748-5.715 2.629l-4.506 2.087c-.241.111-.49.216-.727.336l-.018.01c-.408.119-.815.25-1.22.372l-3.506 1.053c-3.172-.756-6.331-1.534-9.484-2.37-.912-.242-1.593-.435-2.568-.364-.846.062-1.693.141-2.54.211l-3.39.281c-.27.023-.549.029-.817.068.247-.037.409-.046.467-.048-.049.001-.17.001-.392-.01l-5.827-.29c-2.01-.674-4.04-1.312-6.026-2.052-1.979-.737-3.862-1.945-5.739-2.911-.206-.107-.698-.485-.959-.51-.128-.107-.267-.21-.393-.313l-3.32-2.69c-1.602-1.298-3.074-2.763-4.59-4.16-.652-.601-1.082-1.405-1.578-2.136-.711-1.053-1.423-2.105-2.135-3.156-.472-.699-2.032-.422-2.664-.268-1.046.254-2.091.507-3.136.762l-1.965.478c-.086.021-.173.044-.261.064-1.2-.023-2.469.237-3.66.348-.561.053-1.124.101-1.685.158l-.117-.001c-2.084-.011-4.192.148-6.269-.047l-4.26-.399-.286-.026c-.27-.218-1.068-.236-1.394-.308-1.337-.297-2.674-.64-4.02-.892-.055-.01-.096-.018-.13-.022l-.01-.004c-.568-.213-1.142-.41-1.713-.616-2.007-.722-4.001-1.454-5.985-2.233-2.059-.808-4.023-1.667-6.017-2.624-1.01-.484-2.154-1.258-3.306-1.284-1.197-.026-2.411.083-3.607.124-4.365.15-8.72.071-13.084-.043l-1.41-1.353c1.268-1.14 2.53-2.286 3.821-3.398 1.546-1.33 3.314-2.509 4.754-3.951.047-.033.094-.063.14-.094l1.644-1.105c1.01-.678 2.013-1.363 3.027-2.034 1.717-1.135 3.504-2.177 5.195-3.35l.02-.015c.524-.208 1.04-.435 1.56-.653 1.226-.514 2.448-1.041 3.68-1.542 1.847-.752 3.773-1.343 5.658-1.998l.027-.001c.472-.037.974-.214 1.436-.316l4.008-.88c.04-.009.079-.018.117-.025.401-.043.802-.118 1.2-.176l4.098-.593c.176-.026.36-.043.539-.074.446.004.895-.01 1.34-.013 1.44-.01 2.9.05 4.337-.03l.069-.005.085.012 2.24.298 3.569.476c1.079.234 2.754-.13 3.548-.951 2.25-2.326 4.5-4.642 6.817-6.902.607-.591 1.426-1.18 1.92-1.872.008-.011.004-.011.008-.019l.924-.658c1.3-.927 2.574-1.918 3.92-2.776 2.938-1.875 5.952-3.625 8.966-5.373.323-.187.648-.372.97-.563.612-.19 1.22-.392 1.828-.585.983-.31 1.973-.606 2.95-.934.454-.151.646-.142-.26.007.29-.048.58-.108.87-.162 3.591-.667 7.183-1.28 10.787-1.866 3.717.5 7.399 1.058 11.096 1.712 1.782.316 3.509.963 5.24 1.486.44.133.882.269 1.324.399l.032.009.072.026c1.097.392 2.201.766 3.302 1.15 1.674.582 3.345 1.173 5.014 1.772 1.053.377 2.15.699 3.18 1.14.553.237 1.043.63 1.546.963 3.445 2.274 6.855 4.6 10.291 6.886 1.521 1.013 3.198 1.827 4.792 2.72.86.483 1.72 1.138 2.739 1.17.91.03 1.84-.066 2.75-.098 1.878-.068 3.737-.099 5.6-.356 1.834-.252 3.678-.601 5.529-.712l3.841-.23 1.335-.079.102.005c2.036.073 4.102.093 6.138.053 2.145-.043 4.293-.232 6.435-.352l.053.01c.477.079.997.055 1.479.08l3.738.203c.36.02 1.159.176.127-.02.346.066.706.092 1.055.137l3.95.506c1.794.23 3.546.735 5.306 1.148.42.099.842.214 1.266.297.038.02.081.041.14.068 1.092.506 2.21.96 3.314 1.439 1.666.722 3.336 1.432 5.008 2.14l1.739.737-.653 2.458c-1.834-.096-3.667-.195-5.5-.314l-3.087-.2m-30.64 8.527c.242-.246.152-.125 0 0m-.25.143c.032-.004.073-.029.11-.046-.039.023-.077.04-.11.046M115.76 138.316l-.286-.027c-.491-.043.19.006.286.027m5.71-29.545c-.035-.004-.066-.008-.089-.013.03.007.06.008.089.013m161.64.443c-1.86-.789-3.725-1.569-5.582-2.366-1.902-.814-3.79-1.83-5.756-2.472-3.882-1.265-8.034-1.743-12.068-2.218-4.365-.514-8.679-.267-13.043-.029-.04-.003-.12-.007-.265-.01-.653-.015-1.306-.011-1.959-.017-1.262-.011-2.526-.04-3.787-.033-2.22.011-4.455.249-6.67.381-2.187.131-4.434.491-6.59.869-.029.004-.038.007-.058.011l-.086.003-2.18.078-2.964.107c-2.75-1.538-5.489-3.04-8.101-4.808-3.042-2.058-6.1-4.088-9.165-6.112-1.293-.854-2.973-1.21-4.421-1.729-1.416-.508-2.834-1.007-4.253-1.501-3.386-1.179-6.828-2.47-10.318-3.296-3.349-.793-6.839-1.185-10.248-1.638-.78-.104-1.56-.217-2.341-.31-1.015-.122-1.971.1-2.97.261-1.598.258-3.204.491-4.797.787-1.86.346-3.72.683-5.577 1.037-1.978.378-3.91 1.156-5.826 1.762-1.844.584-3.412 1.585-5.08 2.553-1.316.762-2.621 1.533-3.917 2.328-2.971 1.824-5.797 3.758-8.629 5.797-1.627 1.172-2.999 2.811-4.433 4.21-1.145 1.116-2.24 2.286-3.352 3.436l-.258.266c-1.33-.182-2.662-.365-3.995-.525-2.218-.266-4.594-.074-6.826-.016-2.261.06-4.594.567-6.826.927-2.244.363-4.51.905-6.715 1.455-2.199.548-4.362 1.48-6.497 2.24-1.967.7-3.892 1.585-5.809 2.41-2.034.879-3.872 2.336-5.728 3.533-1.775 1.142-3.513 2.344-5.265 3.521-2.015 1.354-3.84 3.037-5.69 4.605-1.666 1.411-3.268 2.903-4.9 4.356-.362.322-.78.946-.32 1.388 1.1 1.056 2.236 2.685 3.85 2.776 1.692.096 3.397.093 5.092.14 2.402.064 4.823.062 7.225-.02l4.725-.163c2.762 1.32 5.496 2.577 8.35 3.697 1.264.496 2.527.97 3.803 1.43 1.475.53 2.964 1.203 4.498 1.543 1.766.391 3.534.87 5.316 1.18 1.751.304 3.581.346 5.35.512 2.846.267 5.817.21 8.663-.058 1.902-.178 3.88-.212 5.746-.647 1.165-.271 2.328-.557 3.49-.843l2.302 3.402c.754 1.113 1.768 1.92 2.757 2.833.971.894 1.926 1.792 2.951 2.622 1.31 1.062 2.595 2.364 4.043 3.235 1.5.903 3.147 1.62 4.703 2.422 1.055.544 2.014 1.006 3.133 1.387 1.794.61 3.587 1.228 5.384 1.83 1.505.503 3.314.363 4.884.44 1.625.083 3.19.167 4.81.032l4.935-.41c3.683.984 7.388 2.07 11.13 2.79 1.196.23 2.227-.14 3.34-.474l3.725-1.119c1.95-.586 3.73-1.458 5.577-2.314 3.395-1.572 7.13-2.83 10.082-5.142 1.498-1.173 2.982-2.366 4.502-3.511.992-.749 1.985-1.496 2.978-2.244.683-.515 1.498-.987 2.037-1.661.73-.911 1.376-1.904 2.06-2.85.626-.867 1.47-1.749 1.89-2.742.74-1.75 1.305-3.598 1.923-5.403l2.136-1.213c.86-.487 1.89-.918 2.636-1.581 1.47-1.306 2.706-2.887 4.122-4.252.864-.834 1.76-1.639 2.64-2.458l1.478-1.378c.125-.116.254-.23.377-.35.233-.126.516-.386.676-.493l1.89-1.253 1.619-1.074c.304-.203.819-.424 1.075-.708l.041-.019 1.881-.898c.99-.472 2.026-.903 3.001-1.416.435-.042.87-.088 1.305-.132l4.085-.415c.068-.007.123-.012.168-.018.462-.005.923-.021 1.385-.032l4.024-.094c.13-.003.299.018.427-.01.005 0 .002-.001.006-.002l1.07.127 4.06.485c4.502.538 9.091.625 13.618.858 1.065.055 3.155-.493 3.485-1.734l1.316-4.957c.102-.381-.172-.75-.51-.894" transform="translate(-783 -4261) translate(208 3647) translate(535 568) translate(40 46)"/>
                            <path fill="#000" d="M214.605 143.884l.011-.008c.013-.021.032-.045.048-.067-.022.021-.041.046-.06.075M224.485 126.34c-.553-.777-1.106-1.555-1.66-2.33-.024-.035-.041-.057-.054-.073-.006-.02-.017-.05-.043-.112-.133-.309-.296-.609-.443-.912l-1.42-2.924c-.324-.665-.814-1.387-1.02-2.099-.114-.39-.057-.864-.066-1.271l-.133-5.81c-.016-.688-3.033-.178-3.01.807l.085 3.76c.02.807.038 1.616.056 2.423.006.275-.032.6.04.864.134.482.474.975.692 1.424l1.162 2.391c.435.894.803 1.869 1.379 2.683.821 1.16 1.649 2.315 2.473 3.472l-1.637 4.257c-.279.723 2.654.394 2.986-.468.27-.704.54-1.407.812-2.111l.575-1.495c.085-.22.28-.53.296-.769.035-.521-.785-1.306-1.07-1.708" transform="translate(-783 -4261) translate(208 3647) translate(535 568) translate(40 46)"/>
                            <path fill="#000" d="M281.535 113.508c-1.833-.973-3.64-2.078-5.527-2.936-1.896-.86-3.935-1.492-5.886-2.22-.978-.366-2.035-.528-3.052-.757-1.164-.263-2.327-.567-3.5-.788-2.193-.416-4.486-.633-6.706-.849-2.056-.198-4.19-.128-6.256-.142-2.236-.014-4.514.426-6.732.672-2.039.226-4.07.724-6.086 1.095-2.218.409-4.385 1.1-6.559 1.691-2.185.595-4.295 1.534-6.411 2.331-1.922.725-3.715 1.816-5.537 2.76l-.847.44c-.675.35-2.079 1.238-1.302 2.152.706.83 2.518.555 3.341.128 1.854-.961 3.683-2.039 5.586-2.896 1.78-.801 3.685-1.32 5.49-2.064.12-.031.242-.069.362-.101l1.878-.512c1.143-.311 2.387-.525 3.493-.951.013-.004.011-.006.021-.01.584-.106 1.167-.214 1.75-.322 1.22-.224 2.438-.472 3.662-.675 2.029-.334 4.102-.426 6.14-.693h.007c.534.016 1.07.02 1.606.031 1.32.026 2.638.053 3.958.078 2.013.04 4.064.467 6.06.715l.083.01.015.007c.455.15.96.215 1.425.32l4.013.905c.16.037.33.095.494.112h.027l.941.355 3.888 1.466c1.886.71 3.64 1.83 5.417 2.774l.782.415c1.061.564 2.607.195 3.563-.429.719-.469 1.47-1.544.399-2.112M180.182 125.155L180.764 123.655 177.452 119.785 173.947 115.38 169.281 112.334 163.884 112.803 158.745 116.163 154.803 120.949 150.693 125.64 150.858 126.725 155.873 130.486 161.913 131.639 169.225 130.801 175.768 127.295zM199.3 123.512L199.106 122.186 200.479 117.116 203.621 112.875 208.475 110.829 214.324 114.495 216.233 121.224 215.705 121.942 212.28 125.58 207.884 127.388 203.242 126.275zM198.036 123.693c-.005-.455-.934-.518-1.202-.512l-5.9.14c-.283.006-.564.012-.846.02-.532.012-1.08.121-1.571.323-.346.142-.871.402-1.089.736-.495.762.424 1.054 1.05 1.04 1.85-.044 3.7-.088 5.55-.13l.054 4.628c.002.297.577.448.758.48.465.083 1.042.013 1.49-.117.676-.196 1.775-.588 1.765-1.44l-.059-5.168" transform="translate(-783 -4261) translate(208 3647) translate(535 568) translate(40 46)"/>
                            <path fill="#000" d="M191.406 127.948l-2.757.43-.98-1.817c-.147-.27-.593-.427-.867-.467-.376-.055-.855.02-1.19.2-.626.34-1.062.938-.69 1.626.439.813.877 1.627 1.317 2.44.204.378.868.541 1.255.48l3.677-.57c.412-.064.794-.155 1.13-.421.234-.185.506-.52.517-.839.024-.72-.745-1.165-1.412-1.062M193.805 138.999l-.058.001c-.07.019-.14.035-.201.051.068.003.16-.01.26-.052" transform="translate(-783 -4261) translate(208 3647) translate(535 568) translate(40 46)"/>
                            <path fill="#000" d="M193.24 141.126l-2.86-1.022 3.105-1.037.06-.016c-.127-.004-.158-.058.089-.05.038.002.075 0 .113 0 .08-.023.155-.05.203-.089-.047.04-.095.065-.145.087.183-.004.367-.016.548-.022l1.775-.062-2.888 2.21m11.565-8.645c-.055-.945-1.762-.86-2.34-.705-.866.232-1.73.81-1.674 1.78l.148 2.56c-1.604.036-3.206.075-4.81.131-1.06.037-2.178-.042-3.196.297l-4.177 1.394-3.113 1.039-5.575-1.138.415-.611 1.89-2.784 1.267-1.867c.51-.752-.442-1.073-1.056-1.062-.848.015-2.137.299-2.658 1.065l-2.955 4.353c-.338.498-.894 1.077-1.084 1.664-.237.731-.278 1.592-.41 2.348l-.465 2.668c-.247 1.415 3.778.73 4-.549l.384-2.198.027-.157 3.095.632c.812.166 1.808.497 2.64.423.25-.023.5-.084.749-.156.136.213.369.39.683.502 1.733.62 3.467 1.238 5.2 1.857.798.285 1.595.272 2.404-.074.343-.147.626-.392.92-.616l2.616-2.003 2.075-1.588c.298-.229.564-.557.665-.894.79-.015 1.58-.027 2.37-.044 1.016-.02 2.282-.765 2.218-1.88l-.253-4.387M199.052 145.34c-.89-.473-2.049-.171-2.858.32l-3.355 2.035-3.855-1.74c-.889-.402-2.064-.255-2.858.318-.518.376-1.222 1.364-.293 1.783l4.708 2.126c.267.12.58.3.86.369.99.242 1.915-.127 2.745-.63l2.474-1.501 2.137-1.297c.61-.37 1.127-1.339.295-1.782M144.908 113.84l.059-.127c-.018.04-.036.08-.06.127m25.01-16.361c-.28-1.046-2.153-.787-2.85-.602-2.445.647-4.945 1.195-7.364 1.938-.223.007-.448.028-.67.04l-2.736.158c-1.644.094-2.999.115-4.5.945-1.411.781-2.818 1.573-4.228 2.36-.538.3-1.003.575-1.392 1.09-.366.484-.7.996-1.048 1.493-.773 1.101-1.676 2.182-2.35 3.347-.678 1.173-1.166 2.502-1.738 3.73-.53 1.135-1.007 2.19-1.35 3.395l-.757 2.662c-1.119-.368-2.239-.732-3.363-1.081-1.338-.416-2.682-.815-4.022-1.222-.905-.275-1.831-.642-2.773-.761-2.393-.303-4.814-.762-7.229-.806-2.336-.042-4.674-.166-7.007-.005-2.516.174-5.006.282-7.488.737-1.408.258-2.818.508-4.226.774-1.275.242-2.453.764-3.66 1.233-2.27.883-4.516 1.785-6.756 2.742-1.14.487-2.329.92-3.427 1.498-1.153.608-2.281 1.265-3.42 1.896-2.073 1.148-4.151 2.287-6.229 3.426-.85.466-1.674.883-2.4 1.531l-3.493 3.109-.845.752c-.752.67-.584 1.437.435 1.623 1.118.204 2.687-.185 3.548-.951l2.644-2.355c.537-.478 1.075-.956 1.611-1.435.1-.089.217-.18.324-.277 1.18-.48 2.325-1.29 3.435-1.899.741-.406 1.485-.812 2.226-1.222l3.829-2.12c.389-.217.819-.415 1.2-.66.138-.06.279-.12.418-.178 2.12-.905 4.23-1.838 6.379-2.673l4.082-1.588 1.202-.22c1.36-.25 2.82-.378 4.149-.76.028-.008.035-.012.052-.018l.097-.007 2.113-.146c2.346-.162 4.597-.23 6.948-.188l2.258.041c.16.003.323.008.484.008 1.255.197 2.528.318 3.787.478l1.89.239c.166.02.542.142.126-.018.042.016.082.03.106.037 1.42.437 2.843.863 4.265 1.295 2.169.66 4.32 1.373 6.475 2.074.358.115.715.232 1.073.348 1.022.332 2.216.146 3.192-.325.962-.188 2.198-.693 2.472-1.657l1.037-3.645c.18-.631.385-1.261.54-1.9.032-.128.048-.193.051-.212l.074-.159c1.012-2.17 1.885-4.371 3.262-6.332l2.225-3.168 3.54-1.976 3.011-.172c1.063-.061 2.097-.075 3.132-.34 2.492-.639 4.975-1.316 7.461-1.974.742-.196 2.449-.901 2.168-1.947M181.002 105.94c-.139-.227-.262-.514-.435-.716-.158-.183-.464-.348-.659-.49-1.017-.747-2.035-1.493-3.052-2.241l-2.454-1.8c-.953-.7-4.084.697-2.698 1.714l5.187 3.808c.186.136.37.274.557.408.002.015.004.028.019.07.052.134.163.268.239.391l1.93 3.174c.527.864 1.052 1.729 1.578 2.593.152.25.691.326.93.337.43.023.95-.077 1.34-.26.56-.26 1.3-.771.89-1.446l-3.372-5.542M197.637 110.989c.443-.087.894-.205 1.301-.402.248-.12.561-.254.705-.504l2.093-3.608c.2-.345.301-.57.353-.962l.316-2.408.255-1.953c.025-.19-.558-.212-.593-.213-.403-.013-.86.07-1.244.18-.457.128-1.498.364-1.574.948-.18 1.364-.358 2.728-.536 4.093-.022.161-.04.324-.064.485l-.025.023c-.063.064-.107.184-.151.261l-1.22 2.103-.97 1.672c-.297.514 1.21.313 1.354.285M190.75 103.999l-.651-4.139c-.06-.378-.064-.787-.284-1.113-.242-.36-.585-.683-.866-1.012l-2.621-3.063c-.558-.65-1.605-.591-2.316-.248-.559.27-1.372 1.09-.809 1.747l2.176 2.542c.388.453.756.938 1.17 1.366l.028.03c.019.117.048.269.05.283l.635 4.043c.036.227.063.458.108.683v.006c-.03.43.03.897.039 1.321l.088 3.879c.019.841.816 1.164 1.573 1.108.639-.047 1.9-.54 1.881-1.373l-.076-3.4c-.02-.884.012-1.784-.126-2.66M160.414 110.447c.097-.068.199-.133.291-.206-.106.083-.202.15-.29.206m-.324.117c.1-.03.198-.066.297-.1-.526.33-.712.23-.297.1m18.202 1.321c-.695-.543-1.315-1.062-2.1-1.452l-3.964-1.969c-.895-.444-1.999-.435-2.983-.551-1.387-.164-2.959-.576-4.355-.333-1.404.243-2.81.879-4.152 1.336-1.111.38-2.294.68-3.303 1.297-1.234.753-2.453 1.536-3.68 2.303-.487.304-1.075.584-1.431 1.042-.296.38-.536.821-.799 1.224l-2.334 3.579c-.409.626 1.446.442 1.613.413.766-.133 1.889-.405 2.349-1.11l2.971-4.556c.694-.435 1.388-.868 2.08-1.303.712-.444 1.497-.855 2.191-1.344l.28-.095 1.788-.61 1.462-.498 4.408.522c1.571.766 3.264 1.439 4.74 2.36.766.477 1.463 1.141 2.174 1.696l2.173 1.697c.607.474 1.964.016 2.589-.214.262-.096 1.76-.719 1.19-1.164l-2.907-2.27M203.971 110.07c.046-.034.09-.072.134-.109-.073.107-.362.279-.134.109m11.502-1.696l-5.813-3.688c-.973-.617-2.617-.166-3.457.517l-4.812 3.924c-.466.38-.885.699-1.197 1.217l-1.858 3.089-1.556 2.585c-.457.761.401.998 1.038.993.77-.006 2.212-.3 2.662-1.047l3.203-5.324c.048-.08.402-.534.434-.689l.22-.18 2.793-2.276c.123-.102.247-.202.371-.303l4.225 2.68c.763.485 1.838.264 2.631-.056.275-.11 1.848-.977 1.116-1.442" transform="translate(-783 -4261) translate(208 3647) translate(535 568) translate(40 46)"/>
                            <path fill="#FFF" d="M172.746 119.605L171.032 121.002 169.303 119.605 171.032 118.056zM212.189 115.531L210.486 116.941 209.144 115.531 210.486 114.041z" transform="translate(-783 -4261) translate(208 3647) translate(535 568) translate(40 46)"/>
                            <path fill="#C58FFF" d="M222.735 132.716L228.42 130.859 230.638 135.264 233.435 139.04 241.661 139.375 245.646 136.164 250.717 134.761 259.927 135.205 265.631 135.462 271.344 135.8 276.612 137.977 277.785 143.831 278.648 149.719 278.936 155.674 280.067 161.566 279.777 167.957 279.828 174.361 277.807 180.48 272.814 184.436 267.361 185.312 261.886 185.962 256.375 185.853 250.892 185.012 244.306 184.641 237.725 186.452 232.114 188.601 226.187 189.746 220.607 192.039 214.689 193.13 208.848 194.49 202.983 195.718 197.134 197.037 191.229 198.072 185.29 198.906 179.387 200.048 173.025 200.501 166.648 200.578 160.282 200.831 153.91 200.763 147.535 200.763 141.146 200.926 134.778 200.499 128.437 199.758 122.086 199.204 115.755 198.456 109.388 197.941 103.258 196.417 103.463 189.856 104.33 183.295 106.13 176.925 108.403 170.707 112.487 165.472 116.475 160.401 119.026 154.304 119.903 147.733 122.982 141.91 130.307 140.171 137.627 138.462 142.644 142.669 148.289 145.979 154.037 149.08 160.157 151.356 166.382 153.319 172.838 154.292 179.319 155.285 185.866 154.92 192.457 154.318 198.972 153.13 205.385 151.423 211.221 148.274 216.324 144.136 220.088 138.778z" transform="translate(-783 -4261) translate(208 3647) translate(535 568) translate(40 46)"/>
                            <path fill="#000" d="M249.755 186.161h-.007c.04.02.205.051.319.028l-.039-.006c-.09.002-.201-.018-.273-.022M197.139 195.925c-.533.07-.268.043 0 0" transform="translate(-783 -4261) translate(208 3647) translate(535 568) translate(40 46)"/>
                            <path fill="#000" d="M277.817 174.39c-.03.42-.191.797-.325 1.2l-1.567 4.745-3.95 3.13c-2.447.39-4.886.764-7.349 1.056-.747.09-1.52.13-2.262.264-.344-.012-.688-.013-1.031-.02l-3.01-.06c-.333-.006-.67-.028-1.002-.019l-.031.002c-2.976-.512-5.907-.862-8.918-1.031-1.474-.083-3.093-.372-4.541-.002-1.75.447-3.485.959-5.226 1.437-1.204.332-2.349.755-3.517 1.202-.934.358-1.87.715-2.804 1.074l-.54.207c-1.558.28-3.11.603-4.664.903-1.449.28-2.723.83-4.084 1.389-.867.356-1.733.713-2.6 1.068-.079.033-.173.062-.266.094-1.614.297-3.229.593-4.842.893-2.554.476-5.061 1.18-7.604 1.712-3.084.647-6.161 1.31-9.235 2.003l-1.112.25c-.056.013-.127.026-.198.038.068-.01.146-.02.243-.031-.64.08-1.279.223-1.914.335-1.367.24-2.733.507-4.106.715-2.902.44-5.791.813-8.673 1.37-1.171.226-2.35.538-3.542.623l-5.402.386c-.147.01-.303.009-.449.031l.308-.047c-.115.014-.26.03-.362.03l-2.72.034c-1.186.015-2.373.01-3.557.055-2.952.118-5.883.235-8.836.203-3.016-.031-6.029-.036-9.044-.036-2.435 0-4.884.244-7.315.153-5.892-.22-11.742-1.086-17.612-1.598-2.553-.224-5.087-.61-7.637-.863-1.583-.157-3.175-.256-4.761-.385l-1.094-.088-.092-.007c.011.006.024.012.03.018-.006-.006-.025-.012-.037-.019-.086-.008-.172-.015-.258-.02-.317-.02.063-.046.229.005-.12-.047-.362-.072-.432-.089l-1.238-.308-3.582-.891c.05-1.892.071-3.79.18-5.677.114-1.968.5-3.949.758-5.903.238-1.799.87-3.539 1.362-5.282.496-1.754 1.093-3.433 1.72-5.147.328-.898.814-1.852 1.034-2.79.068-.057.179-.244.21-.285l1.082-1.388c1.151-1.475 2.3-2.952 3.457-4.423l2.444-3.107c.435-.553.818-1.02 1.088-1.667.48-1.146.96-2.292 1.438-3.438.318-.759.756-1.544.977-2.338.28-1.003.29-2.163.426-3.193l.3-2.247c.02-.144.227-.918.157-1.093.116-.211.226-.426.338-.64l1.06-2.001 1.173-2.221c3.99-.946 7.98-1.885 11.973-2.819l3.536 2.966c1.152.965 2.427 1.657 3.725 2.418 1.23.72 2.45 1.46 3.705 2.138 1.654.891 3.287 1.91 4.994 2.693 1.58.725 3.3 1.232 4.929 1.837 1.358.506 2.732.94 4.115 1.377 1.388.437 2.794 1.028 4.238 1.246 1.939.293 3.878.583 5.817.877 1.666.253 3.331.51 4.997.765.838.128 1.689.316 2.538.272.69-.036 1.38-.077 2.069-.115 3.583-.199 7.14-.493 10.713-.82 1.493-.136 2.985-.511 4.458-.78 1.458-.266 2.893-.53 4.325-.91l3.38-.9c.895-.239 1.814-.42 2.637-.857 1.618-.857 3.224-1.739 4.836-2.608 1.297-.7 2.36-1.62 3.505-2.55 1.205-.976 2.635-1.864 3.534-3.145 1.124-1.599 2.38-3.16 3.392-4.829.86-1.417 1.395-3.137 2.057-4.654l.416-.952 2.566-.838c.545 1.107 1.086 2.217 1.672 3.3.338.626.824 1.182 1.246 1.753.541.73 1.038 1.591 1.666 2.248.49.51 1.324.443 1.99.47l3.08.126 3.197.13c1.084.045 2.137.124 3.119-.498 1.331-.844 2.54-1.962 3.76-2.99 1.285-.325 2.606-.62 3.848-1.053l1.028.049 3.435.166c3.29.158 6.583.286 9.872.458 1.755.091 3.509.205 5.264.31l4.545 1.879c.516 2.57 1.05 5.127 1.43 7.721.19 1.305.466 2.626.555 3.943.118 1.742.169 3.492.253 5.236.06 1.214.394 2.42.623 3.61.16.828.263 1.693.482 2.508l.04.154-.03.656c-.137 3.015-.249 5.997-.225 9.013.007.9.087 1.832.022 2.729m-155.909-26.848l.007-.012c-.013.113-.222.406-.007.012m77.29 4.447c-.077.013-.154.028-.23.043.07-.015.149-.03.23-.043m51.152-16.04l.048.003c-.43.057-.622-.03-.048-.002m30.763 20.075c-.398-2.076-.333-4.247-.435-6.354-.1-2.07-.531-4.176-.863-6.22-.135-.833-.324-1.66-.49-2.487l-.461-2.305c-.076-.376-.092-.85-.242-1.205-.183-.435-.588-.538-.987-.703l-1.903-.786c-1.115-.461-2.396-1.23-3.616-1.336-3.953-.344-7.94-.428-11.903-.619l-8.008-.386c-2.209-.106-4.49.82-6.592 1.43-1.198.347-2.025 1.11-2.973 1.873l-1.518 1.224-6.078-.248-1.147-1.547c-.32-.434-.64-.866-.961-1.298-.117-.16-.576-.914-.3-.35-.72-1.47-1.473-2.926-2.21-4.387-.389-.774-1.576-.735-2.285-.503l-5.667 1.85c-.334.084-.66.215-.946.397-.403.22-.758.52-.81.91l-1.858 4.256c-.221.505-.443 1.011-.663 1.517-.01.012-.057.086-.145.2-.236.304-.446.635-.668.95-.581.828-1.161 1.655-1.743 2.482-.308.439-.905 1.025-1.119 1.551l-.006.004c-.285.202-.548.446-.82.665l-2.347 1.904c-.5.406-1.014.8-1.506 1.218l-.056.022c-.28.122-.55.296-.82.442-1.408.76-2.854 1.478-4.244 2.276-.18.05-.361.117-.526.161l-2.885.769c-.784.208-1.572.406-2.353.625l-.158.045c-.103.02-.207.038-.31.056-2.947.538-5.824 1.058-8.805 1.33-3.07.28-6.13.468-9.207.64-.11.006-.22.013-.329.017-.715-.13-1.442-.219-2.16-.328-1.342-.206-2.683-.413-4.025-.617-1.716-.26-3.433-.517-5.15-.776-1.092-.165-2.044-.445-3.103-.78l-2.96-.932-.985-.31-.066-.021c-.103-.085-.421-.15-.517-.186l-1.219-.453-2.845-1.059c-2.526-.939-4.878-2.327-7.224-3.648-1.304-.733-2.583-1.513-3.873-2.27l-1.067-.624c-.166-.098-.431-.329-.633-.38l-.005-.006c-.263-.232-.539-.45-.807-.676-1.315-1.103-2.607-2.243-3.95-3.312-1.19-.947-3.658.032-5.022.35-2.954.689-5.906 1.383-8.856 2.084-1.335.317-3.823.514-4.62 1.772-.915 1.446-1.624 3.071-2.423 4.584-.242.456-.602.96-.747 1.463-.16.552-.162 1.208-.237 1.776l-.401 3.008c-.077.572-.087 1.208-.236 1.766-.37 1.386-1.153 2.767-1.707 4.089-.25.6-.527 1.198-.758 1.808-.017.013-.035.027-.064.055-.232.223-.418.53-.616.783-1.914 2.433-3.825 4.869-5.73 7.31-.758.972-1.547 1.818-1.971 2.978l-1.867 5.106c-.39 1.068-.658 2.18-.967 3.274-.348 1.233-.812 2.484-1.038 3.746-.498 2.794-.823 5.658-.912 8.494l-.14 4.485c-.016.526.296.752.788.874 2.088.52 4.223 1.26 6.354 1.552 2.177.298 4.398.323 6.586.54 2.11.208 4.212.529 6.322.747 2.11.217 4.23.34 6.34.554 4.23.427 8.436 1.06 12.695 1.167 2.118.054 4.253-.127 6.373-.158 2.117-.032 4.237-.01 6.354-.002 2.117.01 4.236.083 6.353.066 2.113-.016 4.227-.182 6.34-.245 2.115-.065 4.234-.032 6.35-.081 2.252-.052 4.529-.257 6.771-.462 2.029-.184 4.044-.79 6.051-1.14 2.002-.347 4.032-.536 6.038-.852 4.22-.666 8.348-1.62 12.522-2.507 2.058-.437 4.125-.83 6.174-1.306l4.159-.968.762-.177c.086-.02.337-.072.372-.081l.527-.098c2.356-.434 4.767-.705 6.99-1.619l3.98-1.635c.052-.023.11-.042.168-.063.315-.062.63-.13.943-.19 1.344-.26 2.688-.518 4.032-.779 1.05-.203 2.006-.597 3.002-.978 1.192-.456 2.396-.889 3.578-1.369.102-.027.204-.06.303-.087l1.811-.498c1.242-.342 2.494-.656 3.728-1.023.532.042 1.07.058 1.602.088l4.131.232c-.029-.015.01-.021.198.01l.082.012c.026 0 .058.005.077-.002-.011.004-.026.005-.038.008.582.094 1.166.179 1.75.268 1.11.17 2.22.358 3.333.512 1.195.164 2.442.093 3.647.117.993.019 2.007.1 2.997.001 1.355-.135 2.707-.32 4.06-.482 2.132-.252 4.25-.621 6.368-.97.822-.135 1.561-.343 2.24-.868.333-.258.66-.523.99-.785l3.406-2.7c.403-.319.744-.548.958-1.044.136-.314.22-.663.326-.988l1.369-4.144c.247-.749.325-1.172.318-1.957l-.034-4.333c-.017-2.11.133-4.218.228-6.326.1-2.197-.496-4.31-.91-6.464M173.604 199.307c.18-.023.277-.042 0 0" transform="translate(-783 -4261) translate(208 3647) translate(535 568) translate(40 46)"/>
                            <path fill="#000" d="M110.567 196.804h.007c-.01-.005-.021-.01-.036-.015.013.005.02.01.03.015M263.552 184.994l-3.013-.18-2.02-.121c-.15-.009-.304-.023-.456-.03-.29-.113-.62-.183-.9-.276l-2.006-.674c-.598-.2-1.196-.4-1.795-.602-.149-.05-.321-.138-.476-.16-.011 0-.013.002-.02 0l-2.701-2.132-1.417-1.119c-.11-.088-.219-.186-.336-.265-.462-1.124-1.046-2.212-1.566-3.311-.317-.67-.753-1.365-.941-2.084-.492-1.89-.764-3.923-1.05-5.855-.29-1.948-.554-3.904-.789-5.859-.25-2.082-.59-4.194-.71-6.287-.119-2.093-.025-4.232-.007-6.329.002-.265.002.053.003.038.018-.13.03-.262.045-.393l.19-1.703.431-3.866c.22-1.965.859-3.928 1.304-5.852l.199-.859c.258-1.116-2.771-.658-3.01.376-.48 2.069-1.065 4.139-1.443 6.228-.368 2.031-.503 4.16-.7 6.215-.195 2.021-.026 4.124-.023 6.154.002 1.976.358 3.96.58 5.92.45 4.002 1.08 7.957 1.796 11.918.358 1.982 1.443 3.74 2.3 5.553.339.716.527 1.123 1.144 1.609l3.224 2.547c.598.472 1.022.792 1.74 1.032l3.898 1.307c2.046.686 4.264.59 6.41.72l.946.056c.632.038 1.646-.233 1.987-.824.355-.618-.306-.861-.818-.892" transform="translate(-783 -4261) translate(208 3647) translate(535 568) translate(40 46)"/>
                            <path fill="#000" d="M270.663 160.45c-.132 1.07-.602 2.19-.888 3.229-.28 1.019-.563 2.04-.844 3.06l-3.044 4.555-3.39-.137-1.96-2.494c-.267-.34-.552-.863-.893-1.15l-.02-.063c-.075-.274-.17-.545-.256-.816-.407-1.294-.903-2.59-1.229-3.907-.23-.929-.298-1.924-.438-2.871l-.35-2.37c-.064-.426-.074-.916-.192-1.334.006-.247-.007-.496-.01-.742l-.026-2.299c-.01-.893-.158-1.894.027-2.771.294-1.403.733-2.79 1.097-4.176.573-2.18.673-4.457.889-6.7l3.215-3.515 3.528 1.52 1.67 2.459 1.084 1.594c.055.08.111.177.173.263.006.018.01.032.015.057.315 1.28.763 2.542 1.142 3.805.086.287.166 1.08.386 1.286h.001c.003.14.01.28.013.42.065 2.13.149 4.262.192 6.394.025 1.233.04 2.467.06 3.7.016.969.168 2.041.048 3.004m-11.018 7.067c.076.104.07.226 0 0m9.157-25.75c-.044-.093-.044-.161 0 0m4.687 7.65c-.04-1.312.059-2.663-.32-3.924l-.911-3.04c-.187-.622-.308-1.345-.628-1.92-.818-1.466-1.924-2.83-2.868-4.218-.339-.5-.71-.749-1.26-.986l-2.76-1.19-1.824-.786c-.087-.037-.177-.063-.269-.08-.668-.135-1.414.164-1.86.651l-3.474 3.798c-.43.47-1.059.97-1.204 1.616-.142.629-.137 1.329-.202 1.968-.144 1.41-.151 2.905-.513 4.279l-.749 2.85c-.193.736-.493 1.511-.596 2.267-.068.502-.003 1.051.003 1.558l.037 3.22c.016 1.302.209 2.536.4 3.826.21 1.424.289 2.95.673 4.34.444 1.604.907 3.303 1.525 4.849.236.588.76 1.09 1.148 1.582l1.895 2.41c.432.55.817.88 1.55.933.983.072 1.972.08 2.955.12.759.031 1.563.14 2.323.092 1.092-.071 1.481-.808 2.002-1.588 1.016-1.519 2.05-3.028 3.048-4.56.305-.469.408-1.058.556-1.596l.824-2.988c.34-1.234.735-2.325.715-3.596-.054-3.298-.116-6.592-.216-9.888M179.985 162.857c.026-.035.047-.074.07-.112-.013.173-.216.302-.07.112m7.82-8.8c-.812-.445-2.109-.046-2.84.38-1.328.77-2.655 1.541-3.982 2.313-.557.323-1.28.638-1.676 1.161-.333.44-.6.955-.892 1.423l-1.581 2.52c-.267.425-.628.87-.795 1.348-.514 1.464-.737 3.102-1.095 4.61-.264 1.11-.295 2.063-.317 3.215-.027 1.396-.178 2.851-.068 4.244.214 2.687.797 5.395 1.21 8.064.428 2.772.825 5.547 1.217 8.324l-1.758.522c-.482.142-.978.27-1.46.425-.06 0-.122.002-.175-.001l-4.691-.288-.449-.027c-.555-.173-1.163-.247-1.73-.368l-2.43-.515c-.452-.096-1.102-.362-1.583-.347-.198-.087-.403-.165-.603-.247l-2.291-.937c-2.329-.954-4.662-1.89-6.997-2.827-2.198-.88-4.24-2.124-6.316-3.26-.868-.473-1.72-.979-2.577-1.47-.717-.412-1.434-.825-2.15-1.235-.204-.118-.406-.242-.613-.352l-.012-.006c-.317-.392-.942-.722-1.327-1.022l-1.996-1.552c-.738-.574-1.471-1.141-2.244-1.668l-3.93-2.678-.365-.25-.058-.078c-.387-.48-.896-.898-1.33-1.333-1.795-1.8-3.586-3.504-5.5-5.174-1.875-1.636-3.736-3.287-5.596-4.94l-.944-.837c-.682-.605-1.9-.351-2.655-.032-.42.178-1.759.989-1.074 1.597 3.485 3.096 7.159 6.056 10.45 9.356.992.995 1.939 2.105 3.007 3.016.902.769 1.998 1.376 2.975 2.042l1.913 1.304.27.184c.008.007.048.04.167.134 1.205.965 2.438 1.896 3.656 2.844 1.948 1.515 4.181 2.636 6.323 3.852 1.84 1.045 3.708 2.171 5.63 3.049 2.1.959 4.305 1.715 6.443 2.59l4.406 1.803c.935.383 1.943.529 2.928.738 1.266.268 2.535.601 3.812.81 1.312.212 2.696.184 4.02.265 1.233.076 2.54.3 3.75-.023 1.444-.387 2.872-.852 4.306-1.278l1.21-.359c.641-.19 1.862-.662 1.74-1.53-.617-4.396-1.294-8.78-1.944-13.17l-.366-2.469c-.076-.513-.06-1.194-.248-1.68-.006-.012-.009-.014-.012-.022l.01-.539.045-2.315c.018-.984-.072-2.041.084-3.013.224-1.39.66-2.775.984-4.144.083-.347.407-1.07.366-1.462.029-.05.06-.097.09-.145l.579-.922 2.133-3.4 4.59-2.667c.581-.338 1.159-1.114.357-1.551M233.623 153.198c.014-.039.016-.072.011-.1-.005.028-.011.055-.018.08l.007.02M227.131 170.24c-.18.093-.266.155-.283.179.09-.06.178-.117.268-.164l.015-.014" transform="translate(-783 -4261) translate(208 3647) translate(535 568) translate(40 46)"/>
                            <path fill="#000" d="M231.765 160.413c.003-.113.031-.24 0 0m3.96-1.185c-.285-.957-.661-1.896-.99-2.838l-1.023-2.925c-.027-.076-.054-.179-.089-.267-.011.036-.03.074-.065.117.025-.032.042-.083.058-.136-.01-.022-.016-.05-.027-.067-.104-.159.028-.137.045-.015.038-.196.042-.45.064-.572.289-1.64.747-3.332.864-4.992.13-1.843.079-3.742.067-5.59-.004-.613-.18-1.2-.313-1.796l-.736-3.32c-.352-1.585-1.354-2.875-2.19-4.258l-1.123-1.858c-.807-1.336-4.683.047-3.7 1.673l2.035 3.367c.24.398.476.98.794 1.35l.003.051c.023.27.123.554.182.818.32 1.447.488 3.058.987 4.453l.012.029c-.01.161.003.334.002.484l-.03 2.46c-.011.965.072 1.976-.083 2.932-.241 1.495-.527 2.984-.79 4.475-.071.403-.221.868-.142 1.279.086.44.312.89.46 1.313l1.582 4.529c.014.04.116.432.178.553-.1.74-.15 1.491-.224 2.234l-.403 4-3.202 2.826-.797.704.046-.025c-.02.01-.04.027-.062.039-.176.155-.29.2-.267.164-.45.306-.883.74-1.285 1.053-2.435 1.897-4.904 3.691-7.43 5.467-.938.66-1.864 1.335-2.793 2.01l-2.326 1.688c-.194.142-.41.276-.596.431-2.767 1.276-5.463 2.618-8.099 4.142-2.598 1.502-5.212 2.974-7.828 4.444l-2.484.755-2.111.642c-.233.07-.47.135-.7.213-.037.012-.09.026-.14.038l-.588.081-2.108.293-2.515.348-5.416-2.25c-1.472-.61-4.665 1.505-2.385 2.452l5.078 2.108c1.607.667 3.368.13 5.042-.103 1.531-.212 3.02-.379 4.5-.829l3.391-1.031c.842-.256 1.709-.463 2.48-.895 2.968-1.661 5.926-3.336 8.87-5.039l1.291-.746.162-.094-.03.008c.013-.003.026-.01.04-.013l.219-.127c.2-.118.256-.066.09.02.571-.217 1.157-.598 1.675-.845 1.484-.71 3.124-1.307 4.462-2.279 5.368-3.898 10.98-7.546 15.96-11.944l2.612-2.305c.497-.438 1.118-.835 1.257-1.523.174-.86.18-1.791.268-2.664l.33-3.288c.05-.492.128-.932-.015-1.409" transform="translate(-783 -4261) translate(208 3647) translate(535 568) translate(40 46)"/>
                            <path fill="#000" d="M208.859 185.597c.148-.038.251-.076.318-.112-.104.04-.208.081-.31.107l-.008.005M227.469 158.578c.05-.05.103-.099.155-.148.311-.305-.056.092-.155.148m5.345-5.496c-.85-.595-2.088-.28-2.877.248-1.707 1.146-3.533 2.203-5.16 3.462-.82.634-1.536 1.465-2.28 2.182-.83.8-1.663 1.598-2.49 2.4-1.472 1.427-2.971 2.837-4.401 4.306-1.427 1.465-2.716 3.069-4.105 4.57-1.441 1.557-3.028 2.995-4.54 4.483-.674.664-.299 1.634.516 1.926.995.357 2.119-.053 2.838-.76 1.467-1.445 2.983-2.852 4.408-4.338 1.42-1.482 2.7-3.098 4.112-4.589 2.75-2.908 5.763-5.592 8.627-8.388.113-.021.3-.206.39-.265l1.73-1.16 3.011-2.021c.707-.474 1.004-1.51.221-2.056" transform="translate(-783 -4261) translate(208 3647) translate(535 568) translate(40 46)"/>
                            <path fill="#C58FFF" d="M256.985 162.019L260.346 158.824 263.6 155.414 266.652 151.812 269.979 148.443 274.649 149.739 279.316 148.361 281.831 143.548 283.025 138.666 286.354 138.265 289.881 139.218 293.65 138.656 296.046 135.614 292.591 132.294 288.171 130.918 283.465 130.861 279.112 132.921 280.845 128.781 284.107 125.854 286.834 122.93 286.697 119.191 281.893 118.838 277.684 121.329 275.543 124.602 273.226 127.734 270.443 130.453 269.497 126.024 270.787 122.641 269.104 119.818 264.927 121.763 262.389 125.681 261.664 130.329 262.004 135.123 258.249 139.36 258.105 143.745 256.782 148.006 256.081 152.77 256.184 157.555z" transform="translate(-783 -4261) translate(208 3647) translate(535 568) translate(40 46)"/>
                            <path fill="#000" d="M290.859 138.133c-1.018-.29-2.038-.606-3.07-.82-.808-.167-1.728.04-2.542.138l-1.914.23c-.671.08-2.11.476-2.306 1.272-.211.869-.425 1.738-.637 2.607-.182.748-.291 1.581-.569 2.3-.337.87-.892 1.706-1.323 2.532l-.785 1.501-2.346.692-3.773-1.047c-1.18-.327-2.608.06-3.466.929-1.733 1.755-3.427 3.486-5.02 5.367-.698.824-1.388 1.635-2.133 2.416l-1.807 1.892c-.187.197-.38.39-.563.59-.01.011-.01.013-.018.02l-.111.106c-.116-.61-.222-1.223-.283-1.832-.157-1.532-.004-3.098-.1-4.635.014-.087.025-.175.037-.261l.2-1.357c.138-.94.245-1.892.415-2.828.268-1.466.95-2.846 1.297-4.295.156-.647.1-1.374.122-2.037l.08-2.44 2.703-3.05c.305-.344.921-.819 1.054-1.288.146-.512-.064-1.294-.101-1.807l-.19-2.671c-.012-.186-.025-.372-.039-.557.034.499.05-.143.08-.33l.403-2.584.176-1.132c.008-.048.073-.248.045-.289h-.002c.797-1.09 1.488-2.28 2.213-3.423l1.187-.551.036.058c.244.411.516 1.173.884 1.484.017.014.03.022.044.03-.106.194-.169.445-.246.65l-.717 1.88c-.127.33-.299.642-.276 1.002.026.422.187.88.275 1.292l.663 3.104c.113.53 1.098.495 1.447.467.684-.055 1.633-.268 2.144-.768l2.394-2.338c.675-.66 1.201-1.378 1.763-2.14 1.131-1.528 2.168-3.103 3.21-4.693l2.667-1.58 2.644.195.11 3-2.276 2.44c-.074.08-.159.157-.226.243l-.019.025c-.061.045-.12.088-.145.11l-1.703 1.529c-.39.349-.786.692-1.17 1.049-.4.373-.533.788-.738 1.277l-1.423 3.4c-.476 1.138 2.427.568 2.756.413l3.641-1.723 3.413.04 1.842.574 1.487.463c.175.054.36.137.541.168.14.17.367.33.51.466l1.14 1.097 1.415 1.36-1.448 1.837-1.553.231zm-8.528-12.318c.072-.079.186-.206.185-.192-.004.046-.094.122-.185.192zm8.464 7.326c-.024-.023-.048-.052-.071-.091.018.031.046.06.07.09zm.002.002c.23.04.126.122 0 0zm7.123 1.72l-3.088-2.966c-.877-.844-2.26-1.017-3.396-1.37-.55-.172-1.096-.357-1.65-.515-.678-.192-1.453-.127-2.154-.135-1.611-.02-3.518-.3-5.037.338-.195.082-.387.17-.58.257l.724-1.732c1.494-1.337 2.98-2.655 4.35-4.123.46-.493.942-.972 1.383-1.482.283-.329.37-.586.358-1.022-.029-1.153-.084-2.307-.126-3.46-.01-.282-.573-.447-.754-.46-1.56-.115-3.12-.235-4.68-.343-2.122-.149-3.88 1.268-5.621 2.3-.582.344-1.41.703-1.837 1.237-.533.664-.954 1.457-1.42 2.17-.8 1.222-1.672 2.382-2.54 3.557l-.049-.226c-.09-.424-.192-.849-.272-1.275.01-.026.022-.052.049-.098.132-.228.202-.53.295-.775l.708-1.858c.123-.323.268-.564.142-.895-.358-.936-1.099-1.843-1.614-2.707-.493-.826-2.076-.481-2.766-.16l-3.838 1.786c-.622.29-1.206.57-1.603 1.146-.462.67-.886 1.368-1.328 2.05-.34.526-.712 1.043-1.027 1.586-.265.458-.272 1.015-.353 1.535-.193 1.236-.58 2.577-.525 3.831.061 1.433.196 2.865.302 4.295l-1.697 1.916c-.593.67-1.41 1.354-1.878 2.12-.22.36-.167.847-.18 1.265l-.065 1.956c-.016.49-.03.98-.048 1.47-.006.007-.011.01-.02.027-.095.183-.133.429-.194.625-.354 1.142-.768 2.282-1.068 3.44-.196.755-.251 1.565-.364 2.337-.137.93-.366 1.892-.384 2.834-.02 1.064.046 2.136.069 3.2.044 2.047.472 4.001.834 6.018.187 1.042 3.335.435 3.926-.623 1.772-1.688 3.524-3.377 5.216-5.149 1.583-1.66 2.96-3.501 4.54-5.156.557-.583 1.125-1.157 1.694-1.729.82.23 1.638.46 2.46.684 1.69.46 3.578-.418 5.2-.896.81-.24 1.782-.426 2.516-.844.718-.41 1-1.184 1.367-1.885.635-1.216 1.492-2.468 1.947-3.762.426-1.21.674-2.52.948-3.797l.554-.067c.896.243 1.792.488 2.689.727 1.238.331 2.507-.002 3.753-.188 1.462-.217 2.992-.325 3.976-1.574l2.133-2.707c.17-.216.243-.515.023-.727z" transform="translate(-783 -4261) translate(208 3647) translate(535 568) translate(40 46)"/>
                            <path fill="#000" d="M273.575 135.377c-.557.165-1.404.614-1.257 1.33.063.308.107.62.146.933.042.336.074.674.097 1.013l.01.171.008.212c.006.216.008.431.005.647-.012.915-.102 1.836-.335 2.723-.125.48-.175.643-.438 1.152-.1.192-.215.376-.336.556-.022.031-.052.073-.079.104-.085.102-.174.198-.267.294-.459.47-.29 1.138.351 1.31.722.196 1.604-.032 2.128-.57 1.483-1.517 1.97-3.7 2.01-5.76.022-1.19-.048-2.421-.29-3.591-.141-.69-1.251-.674-1.753-.524M282.743 135.42l-2.998-3.078c-.117-.12-.23-.272-.363-.373-.23-.172-.554-.149-.826-.157l-2.488-.065-2.037-.053c-.725-.02-1.531.13-2.128.57-.15.11-.392.302-.335.518.056.205.38.276.548.28l4.575.12 3.23 3.315c.598.614 3.409-.476 2.822-1.078M263.97 145.096c-.519-.823-.915-1.855-.89-2.84.005-.206-.449-.292-.555-.307-.351-.048-.776.013-1.112.109-.476.137-1.329.401-1.344 1.006-.013.547.126 1.119.305 1.63.438 1.262 1.302 2.352 2.395 3.111.527.367 1.42.151 1.964-.075.284-.117.639-.262.825-.518.103-.141.224-.37.028-.505-.632-.44-1.18-.977-1.615-1.61M249.918 189.02c-.022.015-.039.033-.058.05l.006-.002c.017-.016.032-.033.052-.048M141.33 206.898c-.288-.075-.207-.036 0 0M132.23 30.483l-.05.011.05-.01M126.55 208.441c-.341-.006-.686.025 0 0M132.18 30.494l-.037.006c.013-.001.024-.004.036-.006M215.022 199.515c-.067.007-.21.044-.414.125l.035-.006c.124-.044.249-.085.379-.119M165.858 206.5c-.01-.007-.113-.003-.308.036l.087-.002c.074-.01.146-.025.22-.033" transform="translate(-783 -4261) translate(208 3647) translate(535 568) translate(40 46)"/>
                            <path fill="#000" d="M95.2 47.102c.068-.072.137-.144.204-.217.229-.255-.129.159-.204.217m48.585-16.4c.114.006.228.012.342.015.41.006-.189.054-.342-.015m114.87 154.444c-.964-.493-2.694-.053-3.543.504l-4.688 3.067c-.129.085-.356.186-.506.303.238-.176.636-.248.271-.095-.108.046-.216.095-.323.143-.017.017-.04.033-.053.05.013-.017.032-.032.048-.048l-.168.074-3.16 1.39-1.323.583c-.436.192-1.255.327-.033.082-.764.153-1.528.464-2.273.69-1.69.513-3.387 1.003-5.057 1.581-1.626.564-3.278 1.084-4.894 1.683l-.046.016c-.166.063-.335.12-.5.185.181-.07.309-.118.398-.15-.083.028-.197.064-.339.105l-1.419.417-3.404 1c-.16.048-.412.08-.594.155l-.114.019-3.39.51c-1.641.248-3.18.548-4.772 1.016l-3.383.992c-.118.036-.244.066-.368.097.112-.01.017.054-.362.116l-.017.003c-.04.014-.085.023-.123.04.032-.014.058-.022.088-.034-1.908.31-3.824.595-5.727.934-1.936.345-3.847.905-5.757 1.37-.257.061-.514.123-.771.187l-.092.01c-1.062.143-2.122.303-3.182.454-3.116.444-6.211 1.148-9.333 1.514-3.678.43-7.352.815-11.024 1.297-.277.037-.56.06-.837.107l-.017.001-3.27.11c-1.64.056-3.23.142-4.855.363l-3.484.47c-.13.018-.266.03-.402.044.01.007-.065.025-.22.033-.097.013-.196.023-.288.046.076-.018.141-.033.201-.044-.04 0-.077.002-.125.001-1.903-.025-3.81-.082-5.713-.077-3.41.01-6.814.157-10.217.335-1.477.078-2.935.119-4.414.123l-3.389.013c-.131 0-.26-.015-.363-.033.074.019.165.043.29.08-.268-.078-.607-.059-.885-.085-3.698-.356-7.397-.715-11.096-1.056-1.74-.16-3.49-.223-5.234-.32l-1.418-.079h-.011c-.698-.357-1.82-.388-2.58-.551-3.21-.69-6.412-1.119-9.655-1.634-3.584-.569-7.16-1.207-10.74-1.796-.386-.064-.774-.144-1.161-.192-.087-.01-.144-.015-.178-.017l-2.74-.786c-1.484-.426-2.905-.836-4.33-1.418-1.526-.623-3.04-1.325-4.6-1.854-.954-.323-1.916-.623-2.873-.934l-1.614-.525c-.22-.072-.785-.373-1.043-.347-.031-.02-.064-.043-.088-.062-.375-.309-.76-.605-1.14-.907l-2.702-2.15c-1.218-.97-2.119-2.31-3.109-3.506-1.943-2.345-3.623-4.877-5.357-7.38l-2.046-2.956c-.243-.351-.479-.71-.73-1.054-.023-.033-.036-.047-.053-.07-.001-.005 0-.005-.003-.011-.293-.924-.89-1.838-1.313-2.708-.412-.85-.818-1.705-1.237-2.552-1.465-2.96-2.992-5.888-4.456-8.849-.658-1.332-1.326-2.657-2.008-3.978-.693-1.34-1.696-2.703-1.893-4.214-.486-3.735-.919-7.462-1.302-11.209-.159-1.545-.147-3.107-.193-4.66-.026-.828-.037-1.658-.075-2.486.029.616.015.012.03-.23l.106-1.545c.107-1.585.095-3.226.382-4.791.353-1.933.762-3.865 1.062-5.806.516-3.343.811-6.707 1.359-10.047.25-1.525.5-2.844 1.007-4.293.549-1.567 1.133-3.126 1.638-4.707.606-1.897 1.131-3.827 1.785-5.707.562-1.619 1.313-3.19 1.971-4.772.564-1.357.996-2.734 1.445-4.135.318-.992.705-1.985.96-2.995.017-.068.027-.113.032-.147.157-.271.3-.552.45-.828 3.295-6.038 6.636-12.176 10.708-17.73 1.996-2.721 4.03-5.41 6.09-8.084 1.176-1.528 2.362-3.05 3.542-4.574.043-.056.086-.115.132-.171-.025.01-.051.02-.078.018.026.001.068-.027.117-.068.034-.045.073-.087.104-.134.1-.154.108-.115.066-.033.133-.14.264-.3.304-.34l2.514-2.445c1.137-1.105 2.229-2.236 3.312-3.394l2.357-2.52.04-.041c.114.013.633-.456.713-.512 3.032-2.158 6.063-4.315 9.072-6.503.343-.118.684-.368 1.002-.54l3.145-1.69c.36-.193.724-.38 1.08-.58l.115-.066 2.538-1.236c1.372-.669 2.675-1.298 4.114-1.794l3.295-1.137.633-.22c.048-.005.124-.02.246-.046 1.863-.4 3.79-.757 5.618-1.294l1.435-.275 3.426-.657c.1-.018.335-.029.52-.063-.256.029-.567-.05-.232-.036.12.004.24.001.362-.001.033-.013.072-.024.09-.04-.018.016-.044.028-.071.04h.144l3.455-.008c1.494-.003 2.969.032 4.46.097l3.32.144c.037.003.073.004.11.005.128.066.625.086.713.1l5.46.891c1.174.192 2.638-.169 3.548-.951.768-.66.607-1.47-.44-1.64l-5.715-.933c-1.702-.278-3.477-.233-5.196-.307-1.56-.068-3.1-.091-4.661-.088-1.704.004-3.452-.127-5.133.195-7.2 1.38-14.432 2.726-21.07 5.96-1.58.77-3.18 1.512-4.73 2.344-1.72.926-3.6 1.736-5.198 2.868-2.955 2.095-5.878 4.233-8.828 6.333-1.368.974-2.398 2.07-3.55 3.3-.74.792-1.485 1.579-2.221 2.375-.278.254-.542.527-.811.789-1.316 1.28-2.8 2.498-3.976 3.91-1.283 1.544-2.468 3.182-3.694 4.771-1.965 2.545-3.91 5.104-5.811 7.696-1.965 2.68-3.712 5.443-5.424 8.295-1.906 3.175-3.726 6.38-5.5 9.63-.772 1.417-1.267 2.732-1.761 4.276-.472 1.47-.887 2.966-1.48 4.393-.713 1.714-1.513 3.415-2.145 5.16-.666 1.843-1.175 3.757-1.76 5.627-.478 1.53-1.044 3.035-1.574 4.547-.533 1.525-.837 2.853-1.1 4.452-.558 3.404-.872 6.826-1.389 10.233-.289 1.907-.696 3.802-1.043 5.7-.294 1.607-.292 3.281-.404 4.91-.472 6.96.524 13.907 1.421 20.795.197 1.512 1.2 2.873 1.893 4.214.712 1.38 1.408 2.764 2.096 4.156 1.45 2.932 2.97 5.828 4.412 8.763.853 1.738 1.62 3.536 2.541 5.239.87 1.61 2.101 3.086 3.141 4.589 1.772 2.558 3.496 5.134 5.482 7.53 1.01 1.22 1.918 2.508 3.158 3.494l2.746 2.185c.505.401 1.033.948 1.631 1.212 1.775.784 3.768 1.188 5.603 1.821 1.6.553 3.156 1.268 4.722 1.908 6.285 2.565 13.237 3.344 19.899 4.403 3.31.526 6.573.971 9.851 1.676 1.644.353 3.156.58 4.831.673l3.49.194c.281.016.578.058.86.047l-.115.005c.074.002.148.004.21.01 3.755.353 7.51.71 11.262 1.072 3.22.31 6.543.109 9.772-.06 3.327-.174 6.657-.318 9.99-.32 1.98 0 3.96.09 5.94.081 1.816-.007 3.671-.424 5.465-.666.417-.056.836-.104 1.252-.17l.043-.007c.976-.018 1.951-.067 2.926-.1 1.65-.057 3.267-.107 4.903-.323 3.631-.476 7.283-.794 10.912-1.276 3.283-.436 6.54-1.124 9.824-1.591 1.702-.243 3.358-.501 5.028-.907l3.471-.844c.301-.074.604-.144.904-.22 1.964-.298 3.931-.61 5.885-.96 1.915-.343 3.792-1.042 5.657-1.59.326-.095.66-.18.985-.288 1.012-.139 2.022-.304 3.032-.457 1.682-.253 3.299-.497 4.93-.977 3.669-1.077 7.276-2.254 10.884-3.515.013-.004.021-.007.036-.01.383-.11.763-.232 1.144-.348l3.5-1.063c1.628-.494 3.135-1.134 4.693-1.819 1.47-.647 3.007-1.207 4.354-2.089l4.629-3.03c.646-.422 1.518-1.295.475-1.828" transform="translate(-783 -4261) translate(208 3647) translate(535 568) translate(40 46)"/>
                            <path fill="#000" d="M132.23 30.483c.022-.005.042-.012.061-.02h-.018c-.016.006-.025.015-.044.02M232.953 195.153c.005-.003-.045.014-.148.05.043-.013.077-.025.102-.034l.046-.016M86.494 56.02l-.039.05c.096-.04.172-.144.21-.216-.06.064-.12.123-.171.166M242.637 183.788l-4.158 1.793c-.525.226-1.059.438-1.576.68 1.096-.51.436-.181.157-.07l-1.046.413c-.94.374-1.882.746-2.824 1.12l-1.025.406c-.174.068-.894.32-.177.097.71-.22.066-.027-.1.02l-1.154.332-2.847.815c-2.527.724-5.09 1.322-7.616 2.044-2.42.691-4.78 1.577-7.236 2.135-1.6.363-3.199.723-4.797 1.09-.162.037 1.036-.2.383-.099-.342.053-.682.117-1.023.175l-2.892.496c-2.905.498-5.761 1.225-8.613 1.97-.528.137.923-.177.39-.09-.285.045-.567.103-.85.155-.943.173-1.887.345-2.83.519-.725.133-1.465.236-2.184.4-.49.112.839-.053.331-.047-.286.003-.577.04-.863.06-2.99.206-5.95.442-8.929.783-3.013.345-6.012.775-9.013 1.211-.6.088.042-.043.28-.036-.222-.007-.46.035-.68.051l-2.756.21c-.821.063-1.644.116-2.464.188-.47.042-.282-.105.198.008-.208-.05-.47-.015-.683-.022-3.12-.1-6.189-.158-9.307-.045-.865.03-1.73.063-2.595.094-.142.005-.77.046-.177.007.598-.038-.117-.047-.274-.063l-5.254-.541c-1.268-.131-2.598.058-3.866.128l-2.74.15c-.203.011-.41.011-.613.033.627-.068.582-.006.143-.046-2.86-.262-5.708-.53-8.577-.676l-2.787-.143c-.226-.012-.482-.06-.708-.037.082-.008.622.08.104.012-1.724-.229-3.45-.447-5.174-.67-2.488-.323-4.989-.71-7.49-.91-1.693-.135-3.393-.214-5.09-.32-.289-.018-.579-.045-.868-.054-.546-.02.47.145.11.006-.661-.252-1.42-.361-2.104-.535-2.925-.746-5.836-1.383-8.795-1.98-2.441-.493-4.93-.879-7.34-1.498-1.55-.399-3.074-.949-4.602-1.42l-.977-.302c-.096-.03-.196-.07-.295-.09-.232-.05.19.071.19.076-.019-.072-.453-.24-.508-.27l-1.134-.6-3.874-2.053c-.909-.482-2.335-.034-3.23.29-.226.083-2.267 1.007-1.498 1.415 2.36 1.25 4.643 2.68 7.201 3.47 1.531.473 3.059 1.027 4.61 1.423 1.414.36 2.875.588 4.304.88 2.644.54 5.31 1.009 7.94 1.607 2.537.578 5.009 1.508 7.614 1.672 1.688.106 3.399.309 5.09.32.275.002-.655-.084-.134-.02.308.039.618.076.927.114l2.887.351c2.768.337 5.53.712 8.298 1.058 2.532.317 5.112.23 7.656.464 1.714.156 3.43.364 5.149.47 1.417.089 2.892-.114 4.308-.192.81-.044 1.62-.084 2.43-.134.572-.034-.185.013-.207.007.217.061.485.05.708.073 1.745.18 3.492.405 5.24.54 1.368.106 2.798-.064 4.167-.114l2.513-.091c.56-.02.157.063-.157.004.215.04.466.015.684.022 1.757.056 3.516.128 5.274.168 1.339.032 2.692-.15 4.025-.251 3.13-.238 6.203-.678 9.312-1.122.178-.026.356-.048.534-.077-.578.093-.75.098-.17.031.885-.1 1.77-.203 2.656-.304 1.181-.135 2.363-.304 3.55-.385l5.255-.362c1.343-.093 2.666-.396 3.988-.639 3.13-.573 6.185-1.303 9.273-2.07.236-.06.473-.115.708-.177.387-.102-1.068.204-.309.082.798-.128 1.593-.273 2.388-.409 1.442-.247 2.891-.46 4.317-.784 2.763-.625 5.51-1.215 8.215-2.052 2.916-.901 5.832-1.707 8.784-2.485 1.036-.273 2.064-.569 3.093-.864 1.527-.437 3.117-.79 4.608-1.343 2.693-.999 5.36-2.098 7.999-3.236l4.086-1.763c.489-.21 1.647-.967.618-1.292-1.045-.33-2.563.239-3.505.645" transform="translate(-783 -4261) translate(208 3647) translate(535 568) translate(40 46)"/>
                            <path fill="#C58FFF" d="M52.704 156.194L47.371 159.077 43.044 163.203 39.809 168.347 38.348 174.271 37.954 180.339 38.287 186.397 38.933 192.54 41.05 198.33 43.92 203.795 48.513 207.911 53.94 210.735 59.911 212.1 66.095 212.2 71.967 209.515 76.461 204.881 79.822 199.316 81.779 193.096 82.583 186.627 81.886 180.17 80.421 173.865 77.643 168.52 74.116 163.698 70.075 159.255 64.55 156.943 58.716 155.654z" transform="translate(-783 -4261) translate(208 3647) translate(535 568) translate(40 46)"/>
                            <path fill="#000" d="M79.508 191.385c-.096.77-.119 1.578-.352 2.32l-1.299 4.128c-.15.48-.316.958-.455 1.442-.083.102-.15.274-.209.37l-2.294 3.797c-.216.358-.574.782-.73 1.187l-.32.33-3.172 3.271-.41.424c-1.445.66-2.89 1.32-4.335 1.982l-3.08-.05c-.586-.01-1.225-.09-1.815-.037-.204-.048-.409-.094-.613-.14-1.554-.356-3.11-.78-4.677-1.072-.139-.078-.31-.138-.434-.203l-2.339-1.217-2.15-1.119c-.034-.017-.054-.03-.08-.044.034.037.066.08.084.133-.023-.065-.12-.144-.215-.214l-.017-.013c-.057-.041-.11-.08-.14-.107l-3.723-3.335c-.088-.08-.331-.39-.453-.407-.004 0 .255.517.016.06-.34-.653-.683-1.302-1.025-1.953-.574-1.093-1.242-2.178-1.732-3.312-.601-1.397-1.052-2.88-1.575-4.309-.359-.98-.55-1.695-.66-2.729-.29-2.773-.545-5.517-.698-8.3-.041-.747-.078-1.494-.124-2.24-.002.005-.004.013-.009.018.005-.005.006-.02.01-.028l-.002-.021c-.02-.325.02-.288.031-.18.002-.126-.006-.265-.003-.322l.324-4.985c.068-1.04.412-2.051.66-3.06.215-.869.43-1.738.643-2.606.044-.176.105-.365.14-.55.959-1.264 1.721-2.737 2.565-4.08.135-.213.278-.426.406-.644.471-.374.892-.861 1.324-1.273l1.966-1.875c.189-.18.38-.359.566-.54.523-.162 1.096-.608 1.563-.86l2.398-1.296.145-.078 4.548-.409 2.87.634 2.043.451c.028.007.08.025.136.043-.176-.07-.312-.174.08-.007l.11.046c.014 0 .03.003.039-.001-.009.004-.023.002-.034.002 1.302.553 2.61 1.093 3.916 1.64.075.032.783.385 1.061.473.166.195.347.382.52.57 1.554 1.71 3.1 3.358 4.462 5.22l1.434 1.959c.258.352.544.96.896 1.225h.001l.235.451 1.037 1.996c.445.855 1.043 1.737 1.362 2.648.416 1.191.587 2.532.874 3.761.2.863.46 1.733.59 2.609.197 1.306.286 2.64.428 3.953l.21 1.955c.003.027.004.063.004.104.017-.044.036-.019.007.148.004.064.013.124.033.157-.02-.033-.033-.07-.041-.105-.25 1.385-.35 2.817-.522 4.214m5.434-6.811c-.177-1.64-.293-3.302-.532-4.935-.174-1.19-.534-2.372-.805-3.542-.24-1.034-.344-2.243-.826-3.196-.758-1.493-1.545-2.972-2.318-4.458-.55-1.06-1.252-1.974-1.958-2.939-.726-.992-1.403-2.057-2.212-2.984-1.096-1.257-2.247-2.471-3.369-3.705-.299-.328-.564-.676-.963-.885-.62-.325-1.315-.55-1.96-.82-1.308-.548-2.645-1.272-4.017-1.649-1.546-.424-3.151-.695-4.716-1.04-.767-.17-1.468-.345-2.27-.291-.58.039-1.159.104-1.738.156l-3.778.339c-.239.002-.479.028-.719.078-.596.093-1.34.339-1.883.752l-3.669 1.982c-.47.255-.973.483-1.424.77-.529.336-.98.86-1.43 1.288-1.109 1.058-2.294 2.073-3.344 3.19-1.01 1.073-1.7 2.585-2.48 3.823-.642 1.02-1.173 1.842-1.461 3.01-.4 1.619-.897 3.243-1.204 4.882-.229 1.222-.191 2.539-.272 3.779-.076 1.177-.176 2.33-.111 3.506.157 2.86.328 5.693.627 8.54.113 1.075.065 2.308.44 3.33l1.764 4.824c.371 1.016.922 1.945 1.424 2.902l1.254 2.388c.202.385.393.886.68 1.21 1.048 1.18 2.428 2.175 3.604 3.229.874.783 1.669 1.301 2.713 1.845 1.319.686 2.621 1.451 3.975 2.068.562.257 1.201.346 1.8.482l2.788.637c1.17.269 2.245.503 3.448.523 1.656.027 3.314.07 4.972.08 1.765.011 3.286-.894 4.852-1.609 1.321-.604 3.138-1.131 4.219-2.145 1.17-1.096 2.245-2.315 3.361-3.467.809-.832 1.458-1.592 2.057-2.585.87-1.439 1.795-2.856 2.613-4.324.588-1.056.833-2.375 1.194-3.52.353-1.124.85-2.283 1.05-3.445.28-1.621.409-3.282.612-4.915.137-1.115.133-2.042.012-3.16" transform="translate(-783 -4261) translate(208 3647) translate(535 568) translate(40 46)"/>
                            <path fill="#000" d="M80.038 187.12c-.004-.05-.006-.102-.006-.149-.013.036-.022.115-.002.2l.005-.033.003-.019M50.596 206.66l.017.014c.025.018.07.045.131.08-.093-.104-.205-.143-.148-.093M40.512 179.818c-.001.085-.01.157-.03.2v.01c.033-.056.037-.144.03-.21M63 158.408l-.003-.002c-.051 0-.12-.017-.19-.04.07.027.141.046.194.042M50.95 175.031l-.01.054c.03-.048.042-.093.044-.118-.01.023-.023.042-.034.064" transform="translate(-783 -4261) translate(208 3647) translate(535 568) translate(40 46)"/>
                            <path fill="#000" d="M69.56 189.378c-.171 1.296-.533 2.7-.53 4.008 0 .056.004.09.008.114l-.144.295-1.056 2.175-1.562 3.215c-1.286.756-2.573 1.512-3.859 2.27l-3.87-.742-2.656-1.866c-.494-.347-1.003-.815-1.545-1.085-.036-.018-.062-.032-.084-.045-.06-.122-.145-.25-.187-.34-.668-1.385-1.336-2.77-2.003-4.157-.396-.823-.528-1.672-.725-2.57-.274-1.248-.642-2.51-.83-3.775-.176-1.193-.194-2.433-.29-3.635l-.17-2.118-.023-.28.027-.142c.296-1.498.476-3.029.713-4.538.05-.32.12-.646.152-.97.004-.044.01-.075.015-.107-.027.045-.065.091-.125.13.046-.03.09-.103.134-.184.02-.094.037-.101.034-.064.05-.101.093-.206.124-.26l.572-.995 1.872-3.254 3.376-1.312c1.727.338 3.455.674 5.183 1.01l2.28 1.68c.19.14 2.332 1.876 2.748 2.06.063.207.147.413.219.616l.776 2.199c.39 1.106.947 2.257 1.2 3.403.204.917.168 1.953.245 2.886.104 1.255.09 2.596.311 3.84-.036.139-.036.318-.054.445-.091.698-.184 1.395-.276 2.093m-15.262 8.418c.014.031.027.067.03.111-.002-.034-.015-.072-.03-.11m-4.265-16.97c-.008-.094-.015-.177-.013-.177.03-.004.022.099.013.178m17.077-7.02c-.05-.122-.074-.266 0 0m7.772 11.303c-.165-1.998-.313-3.998-.496-5.995-.036-.4-.168-.726-.304-1.112l-1.13-3.203c-.287-.81-.524-1.661-.865-2.45-.227-.526-.724-.771-1.175-1.102-1.51-1.113-3.006-2.249-4.531-3.34-.624-.444-1.417-.506-2.154-.65l-3.397-.662-1.645-.32c-.379-.147-.835-.166-1.294-.11-.618.041-1.252.21-1.798.494l-4.905 1.905c-.827.321-1.625.676-2.113 1.463-.52.843-.99 1.723-1.485 2.582-.46.8-.94 1.59-1.38 2.401-.293.536-.335 1.046-.43 1.647l-.53 3.373c-.1.642-.273 1.31-.247 1.963.074 1.874.3 3.755.449 5.625.122 1.528.585 3.04.912 4.535.13.591.2 1.248.406 1.817.27.749.708 1.471 1.053 2.188l1.343 2.788c.262.546.5.759.993 1.105l2.708 1.902c.662.465 1.459 1.204 2.255 1.402 1.762.437 3.591.687 5.375 1.03 2.396.458 4.32-1.047 6.27-2.193.907-.535 1.815-1.068 2.723-1.602.578-.34 1.122-.678 1.443-1.289.948-1.803 1.784-3.673 2.674-5.505.661-1.361.682-2.89.88-4.385.188-1.421.513-2.865.395-4.302M53.608 154.997c-1.976-.3-3.966-.71-5.954-.9-1.053-.1-2.186.097-3.235.167-1.122.075-2.26.101-3.377.226-1.013.113-2.024.422-3.014.652-1.154.269-2.328.493-3.471.807-.915.25-1.806.68-2.683 1.035-1.158.466-2.324.914-3.473 1.399-1.828.772-3.626 1.683-5.4 2.572-1.911.956-3.73 2.296-5.495 3.495-.68.462-1.202 1.093-1.76 1.691l-2.705 2.9c-1.355 1.452-2.82 2.809-4.233 4.203-.558.549-.897 1.175-1.278 1.854-.66 1.18-1.322 2.36-1.984 3.54-.959 1.711-1.99 3.383-2.994 5.069-.155.26-.241.54-.112.815.179.38.21 1.857 1.146 1.959 1.235.135 2.629-.42 3.275-1.506 1.021-1.714 2.064-3.415 3.062-5.141.421-.729.824-1.468 1.236-2.203.501-.895 1.17-1.825 1.577-2.78.072-.071.14-.15.203-.211l1.296-1.279c.839-.826 1.688-1.643 2.517-2.48 1.356-1.37 2.672-2.8 3.96-4.235l.017-.01c.434-.252.848-.549 1.27-.822l3.21-2.078c.437-.186.863-.414 1.292-.619l3.517-1.684c1.755-.84 3.617-1.488 5.422-2.214.426-.039.881-.208 1.295-.304l3.843-.892c.018-.005.037-.01.055-.013.327.065.875-.074 1.177-.094l3.977-.266c.075-.005.151-.011.227-.015.313.092.716.092 1.02.138l3.959.599c.28.042-.329-.884-.05-.843 1.148.174 3.3.014 3.83-1.072.56-1.146-.166-1.31-1.165-1.46M113.294 294.526l-3.752-4.156c-1.085-1.201-1.935-2.652-2.865-3.974-1.75-2.487-3.487-5.038-4.866-7.749l-1.578-3.102c-.137-.27-.273-.543-.414-.813l-.04-.082c-.813-1.707-1.624-3.415-2.441-5.12-1.491-3.114-2.938-6.204-4.27-9.39-2.556-6.114-4.68-12.41-5.923-18.932-.627-3.285-.964-6.657-1.39-9.975-.06-.47-.12-.942-.182-1.414-.01-.09-.023-.181-.034-.273-.005.023-.01.047-.018.068.009-.022.01-.052.016-.077-.007-.058-.013-.116-.022-.174-.052-.346.056-.118.034.115.029-.202 0-.471.006-.639l.077-1.726c.068-1.527.133-3.054.21-4.581.087-1.7.059-3.453.28-5.142.25-1.908.595-3.823.94-5.715.31-1.713.723-3.413 1.086-5.115.048-.223.12-.464.155-.697.03-.083.062-.165.093-.245l1.17-3.088.772-2.036c1.02-2.692-4.006-2.657-4.797-.57-.664 1.753-1.33 3.506-1.993 5.26-.625 1.648-.849 3.479-1.216 5.196-.631 2.96-1.237 5.984-1.391 9.007-.18 3.52-.52 7.097-.503 10.621.004.8.177 1.619.28 2.409l.438 3.421c.204 1.585.45 3.164.68 4.745.966 6.625 3.055 13.022 5.517 19.23 2.414 6.087 5.287 12.046 8.256 17.882.777 1.526 1.477 3.132 2.358 4.6.993 1.658 2.063 3.289 3.13 4.9.963 1.456 2.01 2.863 3.013 4.291.905 1.286 2.018 2.401 3.071 3.567l1.52 1.682c.848.94 2.334.891 3.407.372.8-.387 2.043-1.632 1.186-2.58" transform="translate(-783 -4261) translate(208 3647) translate(535 568) translate(40 46)"/>
                            <path fill="#000" d="M85.539 229.546c.005-.022.009-.044.01-.068-.002.022-.007.04-.012.059l.002.01M184.766 85.86c-1.574-1.787-3.066-3.695-4.804-5.326-2.05-1.924-4.079-3.824-6.252-5.607-2.192-1.801-4.409-3.441-6.732-5.073-2.082-1.464-4.322-2.69-6.535-3.946-.993-.563-2.019-1.073-3.028-1.605-1.092-.577-2.178-1.255-3.339-1.69-2.391-.895-4.822-1.69-7.224-2.556-1.448-.522-2.891-1.132-4.367-1.574-1.172-.35-2.43-.518-3.628-.77-1.165-.245-2.36-.591-3.552-.676l-4.986-.356c-2.562-.184-5.213.377-7.747.739-2.482.355-5.04.645-7.476 1.252l-4.894 1.218c-1.132.282-2.222.759-3.312 1.17-2.611.985-5.182 2.018-7.756 3.1-1.079.453-2.061.884-3.024 1.553l-4.096 2.843c-1.85 1.285-3.98 2.2-5.778 3.552-1.26.949-2.43 2.051-3.636 3.069-.831.7-1.623 1.393-2.37 2.184-1.909 2.018-3.805 3.983-5.836 5.876-.8.746-1.713 1.45-2.403 2.3-1.032 1.272-2.014 2.587-3.02 3.878-1.502 1.93-3.321 3.582-4.891 5.453-3.279 3.91-5.92 8.305-8.778 12.515-.76 1.121-1.52 2.242-2.281 3.361-.698 1.029.605 1.802 1.468 1.881 1.254.116 2.574-.432 3.284-1.476 1.316-1.94 2.654-3.866 3.94-5.827l2.72-4.148c.09-.14.215-.285.286-.436-.146.316-.401.539-.08.111.456-.603.91-1.206 1.364-1.809.74-.98 1.44-2.014 2.232-2.951.964-1.14 2.03-2.208 3.039-3.307 1.736-1.89 3.233-3.961 4.828-5.97.655-.826 1.534-1.5 2.302-2.216.849-.791 1.731-1.558 2.547-2.382 1.097-1.109 2.145-2.27 3.216-3.403.314-.332.794-.691 1.03-1.087-.295.495-.558.474-.164.142l.816-.69c1.196-1.008 2.358-2.082 3.597-3.035.903-.694 1.973-1.224 2.945-1.813 2.32-1.407 4.526-2.92 6.755-4.468.237-.165.478-.325.712-.494.52-.374-.269.134-.278.137.547-.144 1.097-.46 1.617-.68 1.365-.573 2.722-1.172 4.098-1.72 1.156-.462 2.332-.881 3.497-1.321.702-.265 1.405-.527 2.106-.795.618-.236-.335.16-.368.13.045.04.497-.124.554-.138l4.788-1.192c.203-.05.412-.092.612-.153.357-.108-1.041.17-.399.073.73-.11 1.457-.23 2.186-.345 2.729-.43 5.452-.81 8.192-1.162.56-.072 1.197-.072 1.742-.223.184-.052-.96-.05-.38.012.311.033.627.045.938.067 1.616.116 3.234.27 4.852.347.393.018.406.103-.27-.081.202.054.413.086.617.13l2.437.511c1.08.227 2.22.375 3.271.717 2.394.779 4.743 1.717 7.118 2.553 1.46.514 2.917 1.13 4.405 1.552.363.103-.664-.343-.258-.11.232.134.474.25.71.375l2.31 1.218c4.5 2.372 8.871 4.927 12.935 8 1.02.772 1.984 1.628 2.972 2.438.562.462 1.121.926 1.686 1.384.325.265.092.23-.12-.109.1.16.323.303.46.43 1.938 1.82 3.867 3.582 5.623 5.575l2.638 2.995c.804.913 2.387.714 3.376.256.753-.348 2.057-1.452 1.241-2.377" transform="translate(-783 -4261) translate(208 3647) translate(535 568) translate(40 46)"/>
                            <path fill="#C58FFF" d="M119.868 149.758L123.605 155.783 128.453 161.104 134.418 165.205" transform="translate(-783 -4261) translate(208 3647) translate(535 568) translate(40 46)"/>
                            <path fill="#000" d="M118.493 150.432l2.39 3.854c.575.928 1.083 1.882 1.818 2.689l3.769 4.136c.75.824 1.545 1.376 2.468 2.01l4.325 2.973c.631.435 1.58.287 2.163-.167.505-.395.776-1.178.147-1.61l-3.67-2.524-1.974-1.357c-.074-.05-.154-.124-.237-.162-.207-.095.105-.119.133.153-.01-.1-.316-.345-.376-.412l-3.673-4.03c-.71-.78-1.205-1.534-1.765-2.437l-2.768-4.464c-.742-1.196-3.601-.024-2.75 1.348M314.537 169.923L315.42 183.429 316.591 196.917 317.992 210.389M370.19 194.585L381.516 207.044M334.354 155.997L344.351 167.224 354.884 177.949M331.301 141.64L344.343 143 357.188 145.539 370.121 147.563 382.887 150.552 395.945 151.843 408.701 154.927 421.515 157.676 434.417 159.903M388.84 110.361L403.34 107.686M344.263 119.941L354.609 117.495 365.009 115.295 375.596 113.968M328.939 106.18L338.776 98.294 348.671 90.476 357.908 81.858 367.468 73.638 377.232 65.658 387.701 58.543 396.918 49.891 406.26 41.391M324.206 79.366L330.266 68.236 335.433 56.687 340.917 45.286M300.708 21.66L300.039 11.437 299.2 1.226M305.242 87.503L304.144 74.9 303.467 62.266 302.681 49.639M283.754 87.736L273.405 77.978 264.104 67.268 254.464 56.865" transform="translate(-783 -4261) translate(208 3647) translate(535 568) translate(40 46)"/>
                            <path fill="#FFF" d="M317.191 179.288l-.647-9.903c-.061-.938-1.76-.84-2.336-.686-.849.227-1.741.799-1.678 1.762.317 4.845.553 9.7.973 14.537.464 5.353.899 10.708 1.455 16.052l1.027 9.878c.097.936 1.735.848 2.335.686.82-.22 1.778-.804 1.679-1.762-.503-4.833-1.07-9.664-1.491-14.504-.464-5.352-.966-10.7-1.317-16.06M373.49 195.416l-1.423-1.565c-.797-.877-4.596.543-3.754 1.468 3.3 3.632 6.6 7.263 9.902 10.894l1.423 1.566c.797.876 4.596-.543 3.754-1.469l-9.902-10.894zM347.51 167.693c-2.514-2.56-4.842-5.3-7.229-7.98l-4.087-4.59c-.667-.75-1.881-.675-2.72-.274-.633.303-1.634 1.266-.96 2.023l8.744 9.82c2.387 2.68 4.965 5.186 7.48 7.747l4.306 4.385c.707.72 1.849.69 2.72.274.596-.286 1.673-1.296.96-2.023l-9.213-9.382" transform="translate(-783 -4261) translate(208 3647) translate(535 568) translate(40 46)"/>
                            <g transform="translate(-783 -4261) translate(208 3647) translate(535 568) translate(40 46) translate(328.27 139.954)">
                                <mask id="b614cwjfbd" fill="#fff">
                                    <use xlink:href="#z13g3zlssc"/>
                                </mask>
                                <path fill="#FFF" d="M107.652 18.47l-11.37-1.963c-3.085-.533-6.135-1.252-9.196-1.909-2.93-.628-5.846-1.272-8.759-1.977l-6.96-1.683c-1.099-.266-2.17-.558-3.295-.668-4.043-.4-8.085-.83-12.13-1.199l-.214-.044-2.334-.547-7.166-1.679C40.334 5.421 34.29 4.87 28.353 3.697 26 3.23 23.645 2.765 21.291 2.3c-1.426-.282-2.861-.646-4.305-.823C13.08 1 9.152.661 5.239.253L3.969.121C2.855.005 1.256.53.673 1.55c-.615 1.075.533 1.608 1.42 1.7 3.812.399 7.625.796 11.437 1.194.37.039.75.092 1.127.128-.136-.027-.095-.051.14-.002l.112.022c.07.004.14.017.208.018-.054-.001-.101-.003-.147-.006l.746.148 6.619 1.308c2.913.576 5.806 1.118 8.738 1.577 3.277.512 6.648.835 9.879 1.592 3.96.927 7.912 1.906 11.884 2.784 1.14.251 2.334.297 3.493.412l7.326.724 2.541.251c.062.006.125.01.188.018l.013.004c1.84.498 3.713.898 5.565 1.346 2.965.717 5.922 1.461 8.904 2.1 3.63.779 7.254 1.636 10.901 2.337 3.858.742 7.749 1.338 11.62 2.006l1.256.217c1.216.21 2.645-.04 3.547-.951.712-.718.59-1.813-.538-2.008" mask="url(#b614cwjfbd)"/>
                            </g>
                            <path fill="#FFF" d="M342.927 144.527c.064.013.17.025.312.032l-.06-.012c-.084-.004-.168-.012-.252-.02M402.893 106.014l-12.67 2.337-1.83.338c-.977.18-2.366 1.206-2.061 2.344.334 1.25 1.998 1.176 2.956 1l12.67-2.338 1.83-.336c.977-.181 2.366-1.207 2.061-2.346-.334-1.248-1.999-1.175-2.956-.999M375.81 112.095l-6.647.832c-1.787.224-3.586.39-5.35.763-4.149.878-8.305 1.723-12.432 2.699l-7.59 1.794c-1.012.24-2.357 1.236-2.037 2.43.333 1.242 1.982 1.323 2.98 1.087 3.702-.876 7.394-1.823 11.116-2.61l7.972-1.686c.4-.084.801-.168 1.2-.254.884-.035 1.8-.234 2.672-.343 2.563-.322 5.127-.643 7.69-.963 1.11-.14 2.624-.76 2.756-2.056.126-1.224-1.316-1.82-2.33-1.693M359.864 82.76c-.088.08-.175.162-.27.232.09-.066.192-.158.27-.232" transform="translate(-783 -4261) translate(208 3647) translate(535 568) translate(40 46)"/>
                            <path fill="#FFF" d="M398.701 50.935l.143-.134c.312-.294.025-.023-.143.134m-52.373 43.86c1.314-1.038 2.663-2.044 3.949-3.12 1.018-.85 1.957-1.817 2.927-2.721l5.118-4.777 1.511-1.41c.231-.215.17-.138.03-.007.045-.04.091-.077.136-.115 5.493-4.724 11.01-9.388 16.62-13.972 2.233-1.825 4.553-3.408 6.943-5.033l5.205-3.537c.859-.584 1.58-1.325 2.336-2.035 1.676-1.575 3.353-3.148 5.029-4.721l2.156-2.025.353-.33c2.854-2.478 5.598-5.094 8.394-7.637l.891-.811c.774-.704 1.332-1.85.267-2.605-.956-.679-2.74-.479-3.598.3-5.075 4.618-10.136 9.242-15.138 13.938-1.154 1.083-2.31 2.166-3.464 3.252-.008.003-.008 0-.02.005-.2.091-.394.268-.574.39l-2.248 1.528-5.785 3.931c-.755.514-1.527 1-2.234 1.579-5.61 4.584-11.164 9.202-16.658 13.925-2.277 1.958-4.462 4-6.658 6.048l-4.652 4.342-.205.191c-.013.008-.017.008-.04.024-.487.343-.942.745-1.41 1.114-5.783 4.569-11.547 9.16-17.297 13.77l-.938.752c-.827.662-1.293 1.876-.267 2.604 1.002.712 2.684.433 3.598-.3 5.23-4.193 10.463-8.381 15.723-12.537M326.676 78.907c1.27-2.33 2.538-4.662 3.807-6.992.91-1.671 1.884-3.315 2.662-5.052 2.05-4.584 4.059-9.183 6.236-13.707l4.006-8.329c.375-.78-1.735-.454-1.987-.408-.786.144-2.544.476-2.952 1.326-1.972 4.099-4.036 8.163-5.894 12.315-2.054 4.59-3.986 9.218-6.39 13.634l-4.427 8.13c-.416.763 1.763.45 1.987.408.83-.152 2.489-.474 2.952-1.325M302.715 21.122c-.355-5.427-.72-10.85-1.166-16.27l-.342-4.164c-.072-.878-1.784-.68-2.297-.542-.744.2-1.792.71-1.717 1.618.446 5.421.88 10.838 1.236 16.266.09 1.39.181 2.778.273 4.168.057.878 1.794.677 2.296.542.757-.203 1.777-.707 1.717-1.618M305.263 58.325l-.575-9.224c-.056-.891-1.79-.708-2.304-.571-.778.21-1.767.724-1.71 1.646.283 4.542.597 9.084.84 13.628.268 5.014.483 10.028.919 15.03l.802 9.207c.078.89 1.774.713 2.304.57.76-.203 1.79-.727 1.71-1.646-.395-4.529-.909-9.063-1.152-13.603-.268-5.013-.522-10.027-.834-15.037M279.212 80.94c-1.562-1.472-3.213-2.879-4.622-4.502-3.709-4.27-7.371-8.578-11.216-12.727l-7.035-7.593c-.84-.905-4.641.53-3.749 1.493 3.47 3.745 7.045 7.415 10.393 11.27l7.2 8.29c1.325 1.528 2.743 2.87 4.218 4.26l7.478 7.051c.916.864 4.66-.632 3.75-1.492-2.14-2.016-4.278-4.033-6.417-6.05" transform="translate(-783 -4261) translate(208 3647) translate(535 568) translate(40 46)"/>
                        </g>
                    </g>
                </g>
            </g>
        </g>
    </g>
</svg>
