<svg xmlns="http://www.w3.org/2000/svg" xmlns:xlink="http://www.w3.org/1999/xlink" width="287" height="433" viewBox="0 0 287 433">
    <defs>
        <path id="43025e7r1a" d="M0.001 0.637L286.763 0.637 286.763 211.632 0.001 211.632z"/>
        <path id="6k5y0y79hc" d="M0.217 0.257L20.118 0.257 20.118 68.066 0.217 68.066z"/>
        <path id="2obvqz5a7e" d="M0.079 0.332L141.746 0.332 141.746 126.881 0.079 126.881z"/>
    </defs>
    <g fill="none" fill-rule="evenodd">
        <g>
            <g>
                <g>
                    <path fill="#5CFFE4" d="M232 332.679L221.276 328.234 209.369 326.414 197.899 323.042 186.384 319.829 175.297 315.108 163.615 312.495 151.82 310.276 140.866 305.092 129.09 302.801 117.597 299.494 105.848 297.1 94.818 292.148 83.001 289 74.836 298.894 64.578 306.271 55.98 315.383 47 324.142 52.441 334.573 56.552 345.51 61.153 356.227 64.131 367.493 67.444 378.71 68.973 390.315 69.003 402.043 79.825 408.897 90.466 415.738 101.456 422.248 113.458 426.851 126.276 427.932 138.998 429 151.712 427.647 164.036 424.366 176.437 421.091 186.924 414.499 188.261 402.85 193.085 391.588 196.013 379.723 202.23 369.248 209.772 359.737 216.398 349.646 223.408 339.681z" transform="translate(-818 -5358) translate(208 5146) translate(610 212)"/>
                    <g>
                        <path fill="#000" d="M148.49 427.53h.005l-.042.003c.011-.001.025-.001.037-.003" transform="translate(-818 -5358) translate(208 5146) translate(610 212)"/>
                        <path fill="#000" d="M220.292 338.801c-1.873 1.53-3.024 3.468-4.419 5.455-3.483 4.965-6.82 10-10.144 15.073-2.63 4.015-6.285 7.336-8.731 11.467-1.766 2.99-3.816 5.932-5.352 9.045-.307.626-.423 1.296-.592 1.981l-1.404 5.7c-.54 2.188-1 4.247-1.882 6.308l-2.34 5.481c-.533 1.247-1.253 2.53-1.637 3.831-.23.78-.233 1.673-.325 2.482l-.698 6.08-.262 2.295c-.034.287-.267 1.094.03.738-.674.81-2.237 1.411-3.117 1.965-1.727 1.088-3.45 2.175-5.178 3.262-.557.351-1.131.684-1.675 1.057-.098.067-.203.126-.303.19-3.253.774-6.475 1.718-9.705 2.574-2.053.543-4.102 1.09-6.154 1.637l-5.887 1.572-1.889.504c-.048.014-.086.02-.133.031.238-.024.528-.049.931-.072-.312.018-.625.05-.937.073-.684.166-.91.095-.036.003-2.987.222-5.98.666-8.953.983l-1.158.124c-.689-.053-1.377-.102-2.064-.16l-18.407-1.553-1.22-.103-8.743-3.363c-.662-.255-1.324-.52-1.99-.765-.092-.034-.185-.07-.276-.106l-.01-.008c-1.266-.892-2.706-1.607-4.038-2.398-5.533-3.287-10.939-6.708-16.347-10.196-2.184-1.407-4.381-2.791-6.573-4.183-1.553-.986-3.079-2.064-4.677-2.972-.117-.066-.315-.165-.432-.266-.13-.495 0-1.22 0-1.722-.007-3.278.197-6.631-.023-9.903-.228-3.342-.883-6.708-1.32-10.03-.353-2.681-1.285-5.232-2.049-7.824-.735-2.498-1.468-4.99-2.133-7.507-.774-2.936-1.33-6.055-2.376-8.904-1.205-3.283-2.77-6.47-4.147-9.685-2.113-4.937-3.575-10.079-6.056-14.85l-2.9-5.574c-.264-.507-.502-1.05-.8-1.538-.221-.363-.408.034.087-.433 2.65-2.5 5.213-5.098 7.817-7.645 3.675-3.595 6.752-7.993 10.929-11.003l5.137-3.705c1.12-.807 2.447-1.55 3.458-2.493.695-.65 1.266-1.52 1.87-2.254l4.105-4.986c.255-.31.507-.619.763-.928l1.353.362c1.197.32 2.44.784 3.665.979.047.007.067.007.086.007.537.24 1.072.482 1.61.723 2.906 1.31 5.816 2.619 8.724 3.928 2.181.98 4.812 1.204 7.14 1.68l4.863.994c.02.004.534.105.856.17.081.025.184.055.323.095l9.484 2.736c2.048.59 4.125.965 6.218 1.374l5.272 1.028c.511.1 1.02.209 1.532.3.929.528 1.997.916 2.948 1.367l4.973 2.36c.851.404 1.697.85 2.565 1.217 1.054.445 2.221.58 3.34.79 5.48 1.034 10.918 2.11 16.357 3.33 1.412.316 2.822.645 4.238.95.08.162 1.056.445 1.211.512l9.028 3.855c1.958.836 4.11 1.258 6.156 1.831 2.204.616 4.416 1.214 6.614 1.858 3.134.92 6.267 1.847 9.4 2.771 2.22.654 4.459.971 6.744 1.322l5.406.829 1.33.203c.461.303 2.664 1.059 2.846 1.136 1.688.7 3.372 1.401 5.059 2.102l1.9.79-6.876 5.62m-81.003 89.926c.265.019.544.043.841.075-.278-.03-.56-.05-.84-.075m-1.296-.05c-.147.014-.293.03-.44.047-1.337.142-.954-.047.44-.047m17.457-118.257c-.624-.125-.372-.117 0 0m16.035 5.556l.105.023c.845.18.008.04-.105-.023m64.498 17.173c-.077-.077-.213-.161-.43-.25-2.58-1.073-5.158-2.146-7.74-3.218-.973-.405-1.947-.893-2.95-1.227-1.137-.38-2.5-.462-3.685-.643-2.902-.446-5.805-.948-8.716-1.341-.399-.129-.814-.232-1.209-.348-1.705-.503-3.413-1.005-5.119-1.509-5.11-1.506-10.242-2.933-15.373-4.368-4.414-1.236-8.332-4.136-12.8-5.172-5.016-1.166-10.038-2.298-15.099-3.253-1.825-.344-3.65-.69-5.476-1.033l-1.736-.328c-.803-.517-1.92-.856-2.735-1.243l-4.988-2.366c-1.998-.95-3.74-1.675-5.913-2.1-3.123-.609-6.244-1.307-9.383-1.83-.038-.007-.05-.007-.083-.011-.373-.12-.758-.217-1.133-.325l-5.204-1.5c-2.126-.614-4.24-1.302-6.41-1.746l-9.698-1.981c-.038-.008-.092-.025-.134-.036.194.1.137.163-.454-.102l-.027-.013c-.138-.03-.277-.065-.394-.055.096-.008.19-.004.28.004l-4.098-1.845c-2.205-.992-4.428-2.231-6.727-2.995-2.907-.964-5.968-1.594-8.926-2.384l-2.682-.717c-1.422-.38-2.9-.484-4.368-.477-.735.003-3.112-.2-3.665.471l-7.066 8.586c-1.912 2.323-4.583 3.837-7.013 5.589-1.39 1.002-2.902 1.931-4.212 3.038-.863.728-1.602 1.673-2.377 2.497-2.2 2.336-4.344 4.742-6.619 7.004-2.851 2.834-5.747 5.621-8.62 8.431l-.163.205c2.12 4.076 4.545 8.078 6.158 12.384 1.93 5.146 3.896 10.22 6.058 15.27.797 1.859 1.699 3.67 2.215 5.629.821 3.119 1.643 6.236 2.466 9.355.545 2.069 1.19 4.113 1.793 6.166.613 2.076 1.463 4.198 1.777 6.344.462 3.185.84 6.387 1.258 9.579.263 1.99.198 3.965.202 5.974l.013 5.375c.002.65-.2 1.57.219 2.083.582.713 1.97 1.252 2.736 1.738l4.681 2.972c4.312 2.74 8.601 5.515 12.895 8.283 1.576 1.015 3.198 1.951 4.81 2.907 2.373 1.411 4.713 3.01 7.174 4.262 2.274 1.157 4.845 1.895 7.22 2.809 2.71 1.041 5.182 2.185 8.095 2.444 4.892.436 9.788.828 14.68 1.24 3.224.271 6.445.544 9.667.814 2.87.243 5.603-.071 8.445-.375 2.808-.299 5.62-.591 8.428-.899 2.79-.305 5.554-1.296 8.258-2.018 5.08-1.355 10.164-2.703 15.247-4.05 2.016-.534 3.384-1.012 5.14-2.117 2.7-1.702 5.543-3.282 8.144-5.132.632-.45.594-.692.686-1.487.182-1.6.365-3.199.549-4.798.234-2.044.13-4.476.912-6.398 1.21-2.978 2.528-5.916 3.79-8.873.741-1.737 1.163-3.39 1.618-5.235.424-1.727.85-3.452 1.275-5.179.254-1.034.389-2.234.793-3.223.93-2.28 2.625-4.463 3.878-6.581 1.003-1.696 1.92-3.421 3.141-4.965 2.032-2.57 4.063-5.14 6.095-7.708 2.72-3.44 4.842-7.373 7.314-10.995 1.723-2.522 3.51-5.003 5.264-7.501l1.125-1.604c.075-.107.385-.518.446-.623.116-.081.488-.384.57-.45l1.756-1.435 6.152-5.03c.165-.132.139-.253.002-.361" transform="translate(-818 -5358) translate(208 5146) translate(610 212)"/>
                        <path fill="#000" d="M109.97 297.322c-.121-.064-.335-.14-.594-.167.037.018.074.036.113.052.17.04.327.074.481.115" transform="translate(-818 -5358) translate(208 5146) translate(610 212)"/>
                        <path fill="#C58FFF" d="M79.108 326.922L69.872 333.671 57.895 336.005 46.263 337.796 35.354 333.82 23.826 329.464 17.134 319.169 11.371 308.544 7.153 296.863 5.065 284.637 3.919 272.298 7.591 260.437 10.84 248.845 16.1 237.85 25.132 229.704 34.241 221.595 45.918 218.151 57.935 216.188 54.438 204.944 59.279 194.29 64.937 183.828 76.079 179.377 87.812 177.576 98.937 180.857 105.199 170.255 114.439 162.25 125.352 156.78 137.23 152.086 149.916 153.412 161.839 157.331 173.736 162.464 179.473 172.951 190.64 171.605 202.952 170.813 215.578 171.012 227.682 174.729 237.5 182.937 249.143 187.925 256.911 197.884 266.863 205.889 271.157 217.882 275.941 229.39 275.853 241.833 275.432 253.822 277.037 265.728 279.978 277.448 282.388 289.594 282.888 302.204 277.493 313.707 272.997 325.128 265.455 334.717 257.204 344.394 244.649 347.112 232.129 342.429 223.622 351.975 212.302 355.043 201.266 358.015 190.586 354.1 180.181 348.957 173.409 339.111 164.47 346.413 155.421 353.7 144.223 356.956 132.564 356.615 121.202 356.455 109.217 358.108 99.209 351.454 88.904 346.407 80.785 337.752z" transform="translate(-818 -5358) translate(208 5146) translate(610 212)"/>
                        <path fill="#000" d="M281.233 312.398c.056-.111.09-.19.11-.24-.031.07-.064.14-.098.208l-.012.032" transform="translate(-818 -5358) translate(208 5146) translate(610 212)"/>
                        <g transform="translate(-818 -5358) translate(208 5146) translate(610 212) translate(0 148.966)">
                            <mask id="5dxmi0ok9b" fill="#fff">
                                <use xlink:href="#43025e7r1a"/>
                            </mask>
                            <path fill="#000" d="M125.974 9.156l-.376.19c.124-.064.25-.126.376-.19M274.848 163.72c-1.461 3.116-2.666 6.326-3.928 9.528-.532 1.357-1.068 2.716-1.602 4.073-4.397 5.578-8.882 11.038-13.46 16.456l-8.21 1.777c-4.001-1.498-8.002-2.994-12.003-4.49-2.06-.773-5.47 1.566-6.74 2.992-2.227 2.497-4.453 4.996-6.678 7.493-6.023 1.63-12.045 3.26-18.069 4.882-3.661-1.31-7.496-2.43-10.972-4.15l-7.972-3.941c-.395-.195-.823-.487-1.245-.615-.02-.007-.027-.007-.044-.012-.546-.951-1.265-1.84-1.886-2.743-1.597-2.318-3.192-4.638-4.786-6.956-1.152-1.673-5.488 1.343-6.404 2.09-5.324 4.35-10.665 8.676-16.017 12.993l-7.994 2.324c-.039.012-.124.028-.228.049-.187-.006-.375-.002-.555-.007l-6.364-.187c-2.576-.075-5.149-.135-7.725-.172-3.055-.042-6.227-.359-9.264.06l-10.22 1.41c-2.697-1.791-5.393-3.584-8.088-5.377-2.256-1.5-4.688-2.588-7.124-3.781-1.486-.727-3.042-1.754-4.62-2.263-.04-.013-.062-.015-.084-.018-.027-.036-.057-.075-.106-.134-.497-.585-1.057-1.128-1.583-1.687-1.459-1.556-2.918-3.11-4.375-4.667-.609-.646-1.585-1.376-1.905-2.199-.25-.646-.237-1.534-.343-2.218l-.54-3.487c-.253-1.64-.509-3.28-.762-4.919-.025-.164-.174-.261-.413-.3-1.22-.71-4.331 1.157-5.144 1.752-.036.026-.071.053-.11.08-.271.176-.523.36-.754.55-2.17 1.587-4.339 3.173-6.51 4.758-6.887 1.318-13.76 2.525-20.693 3.604-3.956-1.44-7.926-2.856-11.865-4.344l-8.817-3.333c-.372-.141-.746-.317-1.129-.427h-.001l-.034-.09c-.476-1.11-1.424-2.186-2.08-3.198-2.786-4.286-5.347-8.507-7.784-13-.898-1.657-1.993-3.298-2.635-5.077-1.034-2.863-2.067-5.725-3.103-8.588-1.616-4.474-2.05-9.288-2.85-13.97-.023-.134-.088-.601-.102-.655-.015-.17-.03-.339-.047-.51l-.414-4.447-.466-5.017c-.06-.64-.244-1.396-.172-2.036.103-.929.606-1.957.88-2.844.494-1.59.985-3.178 1.477-4.766.532-1.718 1.084-3.428 1.568-5.159.837-2.982 1.673-5.965 2.508-8.947.132-.465.306-.939.397-1.413.005-.025.004-.032.008-.052.536-.962.961-2.017 1.434-3.008l2.231-4.66c.286-.596.57-1.192.853-1.788.084-.173.395-.633.506-.944.156-.144.316-.285.473-.428 1.213-1.092 2.423-2.185 3.636-3.278 3.697-3.336 7.415-6.648 11.135-9.96l.172-.15c1.162-.345 2.328-.687 3.49-1.031 1.373-.404 2.743-.809 4.114-1.214l1.07-.314c.106-.024.337-.083.46-.099.468-.066.936-.153 1.405-.23l4.069-.664 6.009-.981c1.538-.252 3.138-1.124 4.347-2.062.654-.507 2.021-1.492 1.709-2.494l-3.391-10.903c1.509-3.354 2.936-6.767 4.574-10.057 1.452-2.918 3.069-5.764 4.647-8.622 2.34-.895 4.686-1.792 6.98-2.784.35-.049.7-.109 1.047-.161l3.931-.604 5.226-.8c3.541 1.043 7.084 2.088 10.625 3.133 2.235.658 6.076-1.689 7.199-3.589l5.497-9.307c.156-.264.377-.556.548-.85 1.571-1.362 3.142-2.723 4.715-4.084.935-.811 1.947-1.59 2.874-2.432l2.183-1.094c1.993-1 3.987-2 5.983-2.999l.75-.377c-.099.054.088-.023.648-.244l9.174-3.625 10.168 1.063c.462.047.927.103 1.391.145.204.097.468.15.676.219 2.03.668 4.06 1.334 6.09 2.003 2.64.867 5.188 1.724 7.733 2.822 2.104.907 4.207 1.813 6.311 2.722.745.321 1.485.681 2.245.967.122.047.253.106.38.165l.001.004c1.617 3.536 3.777 6.903 5.643 10.317.278.508 1.234.338 1.633.291l5.583-.673 3.446-.416c.342-.04 1.574-.391 2.022-.284-.296-.04-.93.104-.223.072.366-.017.73-.046 1.095-.07l3.484-.224c2.304-.15 4.61-.343 6.918-.446 3.606-.161 7.262.081 10.87.138.6.01 1.277.103 1.885.046.263.126.647.18.898.256 2.303.709 4.606 1.415 6.908 2.122.948.292 1.893.583 2.84.873.273.083.628.266.915.281.097.004.145 0 .176-.008 1.525.978 2.899 2.444 4.282 3.6 1.694 1.416 3.383 2.84 5.081 4.25.947.785 2.168 1.142 3.291 1.624l6.9 2.955c.604.26 1.217.507 1.816.779.208.272.422.54.631.81l4.53 5.807c.898 1.15 1.728 2.478 2.822 3.448 3.066 2.716 6.425 5.147 9.608 7.727.431.35.077.257-.016-.01.039.111.121.247.128.36.057.852.695 1.94.982 2.739l2.53 7.069c1.175 3.278 2.583 6.466 3.92 9.681l1.182 2.846c.087.207.163.425.261.628.006.012.01.013.015.024.022 2.037-.028 4.075-.043 6.11-.024 3.369-.066 6.722-.185 10.086-.125 3.587-.402 7.073.078 10.626.47 3.482.663 7.118 1.52 10.53.92 3.67 1.954 7.334 2.758 11.034.844 3.885 1.63 7.808 2.329 11.725.01.292.023.586.035.878.046 1.19.093 2.381.142 3.573.093 2.367.186 4.736.281 7.104.005.178-.058.608.03.768.004.007.01.004.013.01-.3.58-.553 1.194-.829 1.78-1.107 2.36-2.214 4.723-3.322 7.083M75.736 32.23c-.295.135-.55.243-.775.334.259-.114.52-.217.775-.333m-1.38.528c.047-.005.096-.016.143-.022-1.033.365-.907.111-.143.022m42.605-19.4c-.198.2-.383.374-.555.525.188-.175.378-.346.555-.526m-1.027.83l.25-.124c-1.019.829-1.365.684-.25.124M286.721 149.92c-.185-4.65-.076-9.338-.983-13.91-.925-4.663-1.827-9.301-2.983-13.911-.617-2.46-1.373-4.93-1.863-7.421-.416-2.132-.59-4.343-.88-6.495l-.59-4.385c-.037-.274-.082-.551-.113-.826.008-.046.019-.117.035-.238.354-2.763.199-5.687.296-8.47.162-4.616.153-9.233.185-13.852.006-.675.118-1.464-.044-2.132-.188-.765-.644-1.545-.944-2.27l-3.468-8.343c-.623-1.5-1.14-3.039-1.686-4.568l-1.657-4.624c-.389-1.084-.67-2.347-1.206-3.368-.25-.473-.614-.724-1.04-1.066l-3.208-2.58c-1.95-1.568-4.1-3.04-5.926-4.756-.015-.034-.044-.088-.103-.19-.226-.386-.573-.736-.85-1.089l-2.927-3.752c-.928-1.193-1.86-2.386-2.79-3.578-.41-.525-.791-1.188-1.36-1.555-.71-.46-1.67-.716-2.445-1.048l-4.4-1.885c-1.297-.555-2.593-1.112-3.891-1.667-.263-.112-.526-.253-.797-.341.177.057.37.332-.094-.058-2.227-1.865-4.457-3.726-6.685-5.588-1.208-1.01-2.39-2.371-3.915-2.838l-8.57-2.633c-1.649-.507-3.01-.926-4.726-.953-4.519-.072-9.054-.315-13.567-.024-4.94.317-9.853.611-14.767 1.204l-5.692.686-5.134-9.385c-.527-.964-1.212-1.142-2.205-1.571l-6.243-2.694c-2.733-1.178-5.379-2.19-8.205-3.12-2.993-.984-6.102-2.433-9.254-2.762C148.154 1.459 144.18.72 140.29.637c-1.61-.033-3.492.972-5.01 1.572l-6.517 2.574c-2.992 1.183-5.815 2.584-8.694 4.026-3.246 1.628-6.556 3.019-9.317 5.412l-5.79 5.016c-1.229 1.066-2.704 2.107-3.588 3.489-1.148 1.788-2.229 3.627-3.296 5.475-1.026-.302-2.05-.606-3.077-.908-1.159-.34-2.312-.736-3.484-1.028-.878-.218-1.713-.043-2.587.091l-9.332 1.432c-2.242.344-4.258 1.236-6.355 2.074-2.622 1.047-5.286 2.024-7.876 3.146-1.827.791-3.505 1.92-4.46 3.685l-2.08 3.85c-2.486 4.595-4.694 9.191-6.856 13.951-.404.892-1.323 2.192-1.43 3.196-.1.939.635 2.293.902 3.149l1.593 5.122-4.046.66c-3.456.565-6.86 1.876-10.208 2.865-2.542.75-4.986 1.342-7.099 3.101-1.18.983-2.301 2.049-3.447 3.069-2.393 2.13-4.79 4.255-7.17 6.4l-5.403 4.874c-1.073.97-2.607 2.045-3.323 3.31-1.904 3.36-3.45 7.056-5.059 10.572-.51 1.114-.772 2.324-1.102 3.503l-1.943 6.935c-.858 3.06-1.829 6.089-2.769 9.125-.447 1.446-1.298 3.143-1.441 4.657-.127 1.32.262 2.883.385 4.196.305 3.28.472 6.599 1.028 9.85.618 3.618.94 7.45 1.886 10.997.993 3.718 2.661 7.367 3.97 10.988 1.133 3.142 3.188 6.098 4.777 9.027 1.52 2.8 3.282 5.42 5.019 8.093.884 1.36 1.71 3.263 2.865 4.408.887.88 2.683 1.188 3.817 1.617 3.106 1.173 6.202 2.37 9.322 3.506l6.634 2.419c1.446.525 2.868 1.307 4.43 1.105 3.783-.49 7.573-1.112 11.333-1.747 3.505-.59 6.988-1.353 10.476-2.033 2.149-.418 4.062-.984 5.917-2.291 1.262-.888 2.503-1.808 3.743-2.726L76.18 186l.562 3.637c.066.421.06.966.253 1.338.327.629 1.144 1.22 1.624 1.732.946 1.01 1.893 2.018 2.84 3.027 1.223 1.304 2.441 3.09 3.929 4.107 1.568 1.074 3.6 1.764 5.303 2.598 1.657.811 3.407 1.534 5.006 2.452 1.676.962 3.254 2.163 4.86 3.232 1.086.721 2.17 1.443 3.254 2.165.562.374 1.212.983 1.849 1.228.657.254 1.53.025 2.232-.073l3.46-.477c2.37-.327 4.747-.627 7.115-.981.184.002.423.008.443.008 1.121.034 2.245.032 3.366.047 2.34.033 4.684.056 7.024.099 3.863.072 7.736.347 11.6.336 1.75-.006 3.578-.749 5.246-1.234l7.24-2.104c2.405-.7 4.299-2.122 6.208-3.66l6.116-4.926c1.753-1.411 3.492-2.841 5.234-4.267l3.046 4.428c1.124 1.632 1.892 3.292 3.68 4.176 4.422 2.186 8.716 4.396 13.34 6.092l4.767 1.747c1.073.394 2.105.945 3.277.746 2.742-.467 5.483-1.467 8.166-2.19 4.706-1.267 9.412-2.544 14.117-3.819 3.656-.99 5.742-3.31 8.122-5.98.737-.825 1.473-1.65 2.208-2.477 1.121.418 2.24.838 3.362 1.257l4.261 1.594c.748.28 1.585.736 2.4.784.83.049 1.79-.298 2.587-.47l4.436-.96c2.52-.546 5.236-.883 7.664-1.778 3.417-1.26 5.375-4.15 7.635-6.801 1.553-1.82 3.145-3.613 4.661-5.465 1.43-1.747 2.794-3.552 4.189-5.326 1.341-1.706 3.18-3.495 4.07-5.49 1.086-2.43 1.96-4.975 2.934-7.45.449-1.143.906-2.284 1.35-3.428.007-.02.009-.023.017-.042-.016.03-.022.05-.04.08.02-.034.033-.074.052-.112.104-.258.134-.3.097-.207l.232-.493 3.841-8.19c.376-.802.794-1.598 1.133-2.417.307-.743.204-1.367.173-2.173" mask="url(#5dxmi0ok9b)"/>
                        </g>
                        <path fill="#000" d="M156.23 184.3c.431-.453.906-.503 0 0m25.669-11.918c-.897-1.688-3.665-3.48-5.602-2.254l-8.943 5.658c-2.683 1.697-5.087 3.742-7.57 5.72-1.062.847-2.66 1.73-3.56 2.796l-.01.007-2.278 1.255c-2.88 1.587-6.055 2.982-8.701 4.954-2.964 2.21-6.102 4.38-8.882 6.817-.843.74-1.53 1.771-2.233 2.649l-4.04 5.047-1.576 1.968c-1.258.976-2.331 2.397-3.44 3.534-1.988 2.038-3.95 4.1-6.002 6.074-2.422 2.327-5.002 4.561-7.297 7.014-2.45 2.619-4.661 5.51-6.977 8.25-2.046 2.418-3.42 5.257-4.977 8.011-1.332 2.357-2.67 4.707-4.027 7.05-1.508 2.607-3.298 5.183-4.504 7.948-1.467 3.367-2.956 6.724-4.404 10.099-1.365 3.178-2.128 6.675-3.12 9.985-.797 2.663-1.597 5.324-2.396 7.988-3.634 12.098-5.59 24.586-7.32 37.083l-.533 3.835c-.316 2.28.71 4.552 2.963 5.419 1.819.701 4.672-.053 4.987-2.328.859-6.196 1.73-12.367 2.783-18.53.966-5.654 1.88-11.45 3.442-16.97 1.836-6.494 3.883-12.939 5.82-19.402.227-.761.477-1.518.684-2.285.044-.165.073-.28.092-.361.637-1.43 1.25-2.873 1.878-4.308 1.102-2.527 2.1-5.085 3.48-7.472 3.494-6.038 6.953-12.092 10.386-18.164.317-.56 1.21-1.644-.104-.18.343-.383.665-.788.997-1.18l4.03-4.764c1.816-2.146 3.618-4.068 5.645-6.017 4.682-4.498 9.421-8.996 13.802-13.796 2.37-2.595 4.445-5.514 6.639-8.255.357-.446.717-.892 1.074-1.34.04-.015.069-.022.139-.063 1.521-.877 2.915-2.237 4.308-3.307 1.483-1.138 2.999-2.246 4.456-3.419.55-.284 1.087-.604 1.63-.902 3.05-1.68 6.473-3.14 9.285-5.212 2.88-2.122 5.613-4.475 8.411-6.704.449-.357 1.794-1.177.01-.135.444-.26.87-.551 1.304-.826 1.845-1.166 3.689-2.332 5.532-3.5l3.218-2.035c1.918-1.213 2.61-3.367 1.5-5.452" transform="translate(-818 -5358) translate(208 5146) translate(610 212)"/>
                        <path fill="#000" d="M131.528 258.872c.037.004.075.015.113.018.311.028.106.056-.113-.018m23.863 27.284c-.257-1.545-.38-3.104-1.005-4.543-1.061-2.45-2.155-4.884-3.234-7.325-.75-1.697-1.4-3.116-2.654-4.511l-5.42-6.019c-2.011-2.234-3.977-4.45-6.733-5.81l-6.736-3.32c-1.385-.684-2.731-1.533-4.254-1.83-2.557-.498-5.128-.923-7.692-1.385-4.093-.738-8.12-.554-12.284-.554-1.486 0-2.515.075-3.921.496l-7.804 2.339-1.846.552c-.69.208 2.41 3.436 2.642 3.643.844.756 2.627 2.611 3.908 2.227 3.178-.952 6.36-1.904 9.539-2.858.415-.124.849-.298 1.279-.387-.02.038.652.024.872.024h5.963c2.636.002 4.904.063 7.482.527l6.263 1.13c.574.102 1.16.247 1.74.315.122.062.252.118.372.184 2.425 1.352 4.97 2.526 7.491 3.719l3.011 3.343c.46.512.921 1.026 1.382 1.536.055.061.134.167.22.282.194.502.441.994.658 1.484 1.185 2.688 2.27 5.455 3.57 8.092-.002.024-.006.036-.008.073-.01.504.182 1.086.264 1.58l.829 4.99c.222 1.328.314 2.773.677 4.07.044.157.06.232.068.276-.099.355-.306.715-.448 1.05l-3.802 8.966c-.255.601-.474 1.666-.917 2.159-.425.475-1.498.79-2.05 1.083l-8.59 4.537c-.417.22-.83.463-1.26.665-.025.012-.037.02-.047.027-.04.001-.096.004-.184.012-1.487.123-2.973.35-4.454.524l-8.787 1.036c-1.203.142 1.271 2.679 1.51 2.92.791.803 1.657 1.555 2.587 2.191.47.322 1.287.995 1.883.926 4.366-.514 8.76-.918 13.113-1.546 1.289-.186 2.42-1.006 3.56-1.61l7.441-3.93c.496-.262 1.408-.542 1.804-.954.277-.286.412-.925.566-1.292l3.208-7.562c.51-1.201 1.54-2.733 1.47-4.067-.126-2.468-.836-5.035-1.242-7.475" transform="translate(-818 -5358) translate(208 5146) translate(610 212)"/>
                        <path fill="#000" d="M90.358 247.317c-1.324-1.194-3.014-1.626-4.655-2.2l-6.504-2.276c-3.513-1.227-7.336-.964-11.03-1.078-1.635-.05-3.391-.311-4.998.08-1.674.407-3.327.933-4.986 1.4-1.822.51-3.69.94-5.486 1.538-1.443.482-2.599 1.837-3.705 2.863l-4.986 4.619c-.967.894-1.521 1.603-1.987 2.845l-2.368 6.322c-.47 1.252-1.263 2.688-1.28 4.058-.025 1.846.256 3.745.383 5.585.108 1.564.137 3.155.325 4.711.26 2.154 2.465 4.02 3.775 5.611 1.204 1.463 2.396 2.937 3.614 4.388 1.526 1.818 3.943 2.615 6.029 3.64l5.076 2.496c1.764.866 4.405 1.419 5.856-.36 1.309-1.605.099-4.002-1.56-4.817-2.98-1.466-5.962-2.931-8.942-4.395l-5.356-6.504c-.125-1.856-.254-3.712-.382-5.569-.07-1.007.021-2.233-.2-3.243.106-.268.182-.625.246-.797l2.92-7.792c.1-.267.216-.542.317-.818.77-.416 1.552-1.46 2.172-2.034 1.626-1.504 3.25-3.009 4.875-4.515l4.67-1.31 3.561-.999c.361-.101.728-.199 1.088-.306.075-.003.155-.003.221.006.442.05.91.027 1.355.04 1.239.04 2.479.077 3.718.115 1.377.044 2.755.086 4.13.128l8.653 3.026 7.114 6.942c1.476 1.442 4.256 2.064 6.061.893 1.838-1.195 1.367-3.41-.002-4.748-2.572-2.51-5.065-5.138-7.732-7.545M139.57 198.61l-7.298-6.256c-2.001-1.715-4.423-2.91-6.676-4.265-2.336-1.407-4.597-2.753-7.082-3.877-2.59-1.171-5.17-2.562-7.855-3.503-3.323-1.165-6.711-2.164-10.062-3.245-5.222-1.685-5.195 6.404-1.078 7.731l9.09 2.932c2.448.79 4.75 1.975 7.094 3.034 1.259.57 2.764 1.59 4.122 1.865-.037-.009-1.287-.783-.258-.163.695.42 1.39.837 2.086 1.255 2.344 1.41 4.992 2.659 7.127 4.375 2.71 2.18 5.295 4.538 7.937 6.802 1.488 1.276 3.919 1.04 4.742-.844.92-2.103-.3-4.48-1.889-5.84" transform="translate(-818 -5358) translate(208 5146) translate(610 212)"/>
                        <path fill="#000" d="M216.65 247.534l-2.935-10.597c-.869-3.135-2.764-5.781-4.402-8.57-1.484-2.532-2.928-4.888-4.68-7.232l-4.162-5.568c-.702-.938-1.354-1.95-2.253-2.704-2.949-2.47-6.037-4.859-9.124-7.152-2.861-2.124-6.343-3.614-9.455-5.329-1.16-.639-2.245-1.362-3.548-1.657-1.749-.397-3.53-.681-5.293-1.02-3.199-.616-6.283-1.335-9.541-1.387l-7.72-.121c-1.137-.02-2.298-.122-3.426.017-3.971.493-7.929 1.354-11.874 2.03-2.16.368-4.35 1.763-4.538 4.167-.16 2.061 1.799 3.938 3.897 3.58l10.591-1.81c2.831-.483 5.702-.222 8.57-.176 1.791.028 3.588.102 5.381.085.576-.005-1.603-.23-.351.052.81.183 1.64.315 2.456.474l6.84 1.317c.675.13 1.354.3 2.037.392 1.109.15-1.132-.66-.23-.034 1.565 1.087 3.428 1.888 5.094 2.807 1.657.913 3.303 1.856 4.974 2.74 1.23.651-.8-.698-.131-.106.556.49 1.176.924 1.759 1.38 1.76 1.379 3.52 2.757 5.279 4.137.665.52 1.313 1.092 2.006 1.571 1.075.747-.449-.815-.024-.201 1.018 1.472 2.151 2.876 3.222 4.31 1.725 2.309 3.523 4.538 4.982 7.024l3.78 6.441c.435.741.824 1.575 1.331 2.27.626.858-.335-1.364-.012-.07.964 3.856 2.124 7.671 3.186 11.501 1.356 4.898 9.574 1.984 8.314-2.56" transform="translate(-818 -5358) translate(208 5146) translate(610 212)"/>
                        <path fill="#000" d="M242.847 309.452c-.257-1.698-1.02-3.355-1.585-4.966-.803-2.29-1.515-4.64-2.416-6.895-.626-1.567-1.756-2.997-2.644-4.427l-2.962-4.763 2.333-5.259c.907-2.043 2.06-4.111 2.766-6.236.588-1.771.743-3.797 1.089-5.625.455-2.415 1.064-4.85 1.376-7.287.214-1.66.11-3.412.15-5.086.06-2.53.272-5.11.18-7.64-.058-1.594-.479-3.225-.738-4.797-.425-2.573-.736-5.195-1.278-7.745-.383-1.8-1.255-3.561-1.9-5.283-.887-2.363-1.775-4.724-2.66-7.088-.9-2.395-9.33-.415-8.697 1.272l2.19 5.831c.752 2.009 1.736 4.05 2.296 6.121.493 1.826.637 3.825.944 5.69.374 2.27.943 4.595 1.137 6.89.146 1.746-.066 3.589-.107 5.34-.058 2.454.027 4.96-.176 7.407-.343 4.16-1.609 8.337-2.324 12.451-.003-.001-.004-.004-.01.006-.18.322-.31.696-.458 1.033l-1.806 4.073c-.6 1.348-1.196 2.695-1.795 4.043-.224.188-.44.398-.642.623l-3.283-.126-2.246-.086c-.048 0-.098-.002-.147-.005-.788-.42-2.378-.444-3.17-.608l-5.781-1.2-1.92-.4c-.043-.008-.088-.016-.131-.026-.231-.175-.825-.32-1.026-.404l-2.377-1.002c-1.754-.74-3.508-1.478-5.262-2.216-.565-.238-1.124-.498-1.698-.716-.094-.035-.2-.09-.303-.134-.945-.853-2.189-1.532-3.215-2.258-2.13-1.511-4.371-2.932-6.405-4.572-2.622-2.113-5.107-4.424-7.653-6.631-1.716-1.486-2.76-3.39-4.026-5.282l-3.278-4.9c-.162-.244-.492-.815-.433-.667-.18-.366-.353-.735-.528-1.102l-4.453-9.293c-1.153-2.405-9.386-.168-8.697 1.27 2.334 4.874 4.456 9.756 7.459 14.25l3.218 4.815c.46.687.873 1.463 1.441 2.061 2.269 2.397 5.107 4.426 7.6 6.587 1.762 1.525 3.68 2.809 5.582 4.156 2.05 1.455 4.105 3.316 6.409 4.354 3.138 1.415 6.355 2.678 9.528 4.014 2.295.967 4.831 1.279 7.26 1.782 2.871.596 5.7 1.344 8.637 1.456 2.719.104 5.437.209 8.156.312.977 1.572 1.952 3.143 2.93 4.714 1.072 1.725 2.377 3.435 3.27 5.26 1.665 3.399 2.19 7.353 3.774 10.79.026.206.061.413.083.607.136 1.16.272 2.32.405 3.479.257 2.203.207 4.765.8 6.91-.013.1-.023.204-.041.293l-.677 3.479c-.444 2.276-1.17 4.663-1.36 6.976-.052.119-.103.238-.156.345-.611 1.212-1.224 2.425-1.835 3.639l-3.038 6.027c-.936 1.86-.185 3.92 1.877 4.507 2.024.576 4.76-.461 5.735-2.394 1.772-3.513 3.683-6.985 5.322-10.56.85-1.854.994-4.128 1.38-6.11.418-2.14.923-4.283 1.255-6.437.279-1.815-.215-3.788-.425-5.592-.274-2.344-.466-4.713-.82-7.045M275.41 252.292c-.722-.752-1.605-1.525-2.63-1.808-.61-.168-1.698-.397-2.152.227-2.398 3.287-4.794 6.575-7.19 9.864-.634.869-.964 1.302-1.856 1.856l-6.05 3.758-4.795 2.978c-.614.382-.534 1.583-.415 2.127.216.986.878 2.068 1.567 2.783 1.186 1.235 3.09 2.634 4.783 1.582 3.44-2.136 6.879-4.271 10.317-6.408.9-.557 1.421-.863 2.027-1.694l4.183-5.74 3.364-4.615c1.136-1.56.036-3.674-1.153-4.91M180.81 319.296l-.963-5.427c-.301-1.703-3.277-1.746-4.55-1.61-.99.106-4.505.68-4.205 2.37l1.996 11.26c.016.093.127 1.028.215 1.388.042-.207.274-.517.099-.167-.034.07-.057.145-.086.22.017.054.03.093.044.096-.034-.006-.05-.031-.059-.061-.068.188-.128.382-.194.565l-2.266 6.28c-.6 1.66-1.198 3.321-1.797 4.983-1.025 2.838 7.608 2.892 8.533.323l3.878-10.741c.39-1.084.71-1.826.51-2.968l-1.155-6.51" transform="translate(-818 -5358) translate(208 5146) translate(610 212)"/>
                        <path fill="#000" d="M173.303 327.277c-.007.034-.007.062-.001.088l.015-.035-.014-.053M187.088 355.982c-2.002.378-3.978 1.876-5.113 3.536l-4.084 5.976c-1.09 1.597-2.31 3.12-3.04 4.92-1.716 4.238-3.646 8.38-4.764 12.818-1.218 4.838-2.318 9.579-3.164 14.492-.262 1.529-.527 3.058-.79 4.585-.048.286-.1.573-.147.859-.008.038-.014.064-.024.12-.548 2.802-1.058 5.612-1.586 8.417-.406 2.152-.59 4.025-.583 6.219.005 2.829.013 5.658.02 8.485.005 1.816 3.106.545 3.839.159 1.382-.729 3.707-2.338 3.702-4.158-.006-2.36-.012-4.72-.016-7.081-.005-1.287.044-2.587-.011-3.873-.01-.225-.012-.377-.02-.438.035-.17.064-.34.097-.509.862-4.579 1.745-9.153 2.536-13.745.463-2.684.932-5.368 1.389-8.054.008-.019.01-.022.02-.05.153-.42.223-.888.333-1.322l1.107-4.398c.463-1.835.806-3.76 1.438-5.543.928-2.615 2.094-5.167 3.136-7.738l.777-1.916c.019-.048.036-.097.058-.144.353-.356 1.583-2.377 1.7-2.549l4.7-6.878c.98-1.434.087-2.49-1.51-2.19" transform="translate(-818 -5358) translate(208 5146) translate(610 212)"/>
                        <g transform="translate(-818 -5358) translate(208 5146) translate(610 212) translate(136.563 363.934)">
                            <mask id="jdp4cfy52d" fill="#fff">
                                <use xlink:href="#6k5y0y79hc"/>
                            </mask>
                            <path fill="#000" d="M8.652 51.027l.027-.165c-.01.272-.15.803-.027.165M16.88.347c-2.056.488-3.885 1.952-4.65 3.919-1.513 3.886-3.374 7.773-4.58 11.762-.526 1.74-.756 3.627-1.122 5.405-.476 2.304-.975 4.603-1.427 6.912-1.6 8.18-3.042 16.447-4.221 24.699-.637 4.46-.468 9.13-.662 13.629-.088 2.021 3.184 1.37 4.192.943 1.754-.74 3.608-2.272 3.697-4.305.09-2.046.179-4.093.266-6.14.063-1.415.125-2.83.186-4.247.006-.146.185-1.722.125-2.108.064-.364.118-.73.176-1.094l.676-4.197c.35-2.172.682-4.35 1.052-6.52.7-4.123 1.44-8.247 2.224-12.354.778-4.065 1.457-8.254 2.525-12.25.488-1.822 1.36-3.6 2.044-5.358l2.6-6.676C20.74.422 18.142.05 16.881.347" mask="url(#jdp4cfy52d)"/>
                        </g>
                        <path fill="#000" d="M117.367 366.38c-.313-.114-4.334-1.437-4.375-.829-.492 7.394-1.259 14.79-1.686 22.185-.212 3.663-.05 7.347-.257 11.01-.207 3.645-.782 7.345-1.264 10.965-.506 3.782-1.26 7.543-1.896 11.307-.15.887 3.297 1.967 3.883 2.181.35.128 4.262 1.5 4.376.83 1.233-7.298 2.592-14.624 3.149-22.017.276-3.653.092-7.35.258-11.01.166-3.67.637-7.337.93-10.997.3-3.811.513-7.63.766-11.444.063-.956-3.221-1.939-3.884-2.181M83.436 402.984l.003.195c.015.667-.005.195-.003-.195m7.971-22.417c-.207-3.801-.442-7.747-1.004-11.514-.293-1.958-1.152-3.93-1.754-5.808-.688-2.154-1.378-4.308-2.068-6.462-1.511-4.723-9.67-3.257-7.965 2.069l1.662 5.195c.54 1.693.961 3.544 1.626 5.215-.004.387.07.794.105 1.18l.328 3.72c.181 2.065.414 4.133.546 6.2.478 7.47.394 14.977.55 22.456-.028.263-.029.537-.045.791l-.258 3.932-.433 6.612c-.15 2.294 1.406 4.284 3.655 4.8 1.902.436 4.686-.54 4.836-2.841.253-3.846.598-7.698.757-11.55.17-4.145-.054-8.355-.146-12.502-.086-3.827-.185-7.67-.392-11.493" transform="translate(-818 -5358) translate(208 5146) translate(610 212)"/>
                        <path fill="#5CFFE4" d="M94.125 98.865L112.67 94.972 148.427 230.3 141.25 237.715z" transform="translate(-818 -5358) translate(208 5146) translate(610 212)"/>
                        <path fill="#000" d="M94.467 100.14l18.543-3.893-2.888-.592c1.18 4.47 2.362 8.94 3.544 13.411l8.556 32.381 10.313 39.03 8.952 33.878c.979 3.705 1.96 7.41 2.937 11.114l.91 3.441c.139.531.2 1.37.485 1.84.038.062.045.164.062.235.168-.369.336-.736.505-1.102l-7.177 7.414c1.529-.09 3.058-.177 4.587-.266l-4.693-13.83-11.27-33.206-13.575-39.999c-3.93-11.573-7.857-23.146-11.784-34.72l-3.883-11.44c-.599-1.765-1.05-3.712-1.835-5.406-.036-.077-.056-.167-.083-.248-.604-1.778-5.67-.328-5.095 1.367l4.694 13.83 11.27 33.206 13.575 40 11.785 34.718 3.882 11.441c.6 1.765 1.05 3.712 1.835 5.406.037.077.056.167.084.248.535 1.578 3.798.551 4.589-.266l5.783-5.972c.783-.808 1.978-1.638 1.825-2.825-.263-2.051-1.104-4.179-1.632-6.174-2.662-10.08-5.326-20.157-7.99-30.238l-11.022-41.717-9.978-37.759c-1.125-4.26-2.25-8.518-3.377-12.777-.523-1.984-.849-4.21-1.617-6.117-.032-.083-.046-.179-.069-.264-.284-1.08-2.193-.738-2.888-.592L93.784 97.59c-.75.157-2.48.93-2.206 1.959.29 1.079 2.185.739 2.89.591" transform="translate(-818 -5358) translate(208 5146) translate(610 212)"/>
                        <path fill="#5CFFE4" d="M22.355 46.195L58.462 124.208 156.617 92.804 137.352 3.02z" transform="translate(-818 -5358) translate(208 5146) translate(610 212)"/>
                        <g transform="translate(-818 -5358) translate(208 5146) translate(610 212) translate(18.577)">
                            <mask id="qql3o2906f" fill="#fff">
                                <use xlink:href="#2obvqz5a7e"/>
                            </mask>
                            <path fill="#000" d="M101.43 100.829l-52.791 16.89-7.872 2.519-9.654-20.86-19.37-41.847c-1.373-2.968-2.745-5.937-4.12-8.905l10.961-4.116 27.357-10.27 33.26-12.488 28.76-10.798c2.837-1.065 5.742-2.05 8.61-3.107l5.036 23.468c3.46 16.126 6.92 32.253 10.382 48.38.758 3.542 1.52 7.085 2.278 10.628l-32.838 10.506m33.776-36.318c-3.458-16.128-6.92-32.254-10.379-48.381l-2.36-11.002c-.265-1.233-2.111-2.436-3.05-3.068-.853-.571-2.889-2.072-3.99-1.657l-11.459 4.3C94.85 8.128 85.73 11.554 76.61 14.977c-11.087 4.161-22.173 8.323-33.258 12.486L14.59 38.26l-9.444 3.546c-1.449.544-3.166.945-4.525 1.7-.058.03-.13.048-.192.071-.504.19-.403.626-.073 1.105l12.193 26.344c6.457 13.949 12.912 27.899 19.37 41.847l4.49 9.705c.554 1.198 2.297 2.264 3.331 2.899.775.475 2.492 1.671 3.494 1.35 11.087-3.548 22.173-7.095 33.26-10.641 17.597-5.631 35.194-11.26 52.791-16.892l12.104-3.871c.288-.055.402-.224.343-.511l-6.526-30.401" mask="url(#qql3o2906f)"/>
                        </g>
                        <path fill="#000" d="M150.486 212.156c.038-1.243-.015.085-.034.362-.051.734-.123 1.465-.21 2.195-.283 2.363-.723 4.711-1.355 7.007-1.471 5.337-4.093 10.981-9.425 13.371-3.638 1.63-7.735 1.046-11.402-.207-1.46-.5.22 3.249.361 3.487.9 1.533 2.11 3.309 3.862 3.909 3.573 1.221 7.4 1.7 11.046.49 2.835-.94 5.136-2.93 6.844-5.345 3.199-4.53 4.697-10.095 5.412-15.535.187-1.418.312-2.84.356-4.271.023-.756-.636-1.919-.977-2.522-.547-.962-1.25-1.93-2.04-2.71-.74-.732-2.382-2.06-2.438-.231M87.455 52.664c1.364 3.69 2.728 7.38 4.09 11.071-1.816-1.101-2.998-2.894-3.771-4.913-.455-1.188-.8-2.421-.867-3.697-.037-.673-.026-1.429.273-2.05.073-.152.166-.286.275-.41m11.25 16.454c1.623.642 2.825 1.918 3.597 3.643.978 2.185 1.408 4.727 1.309 7.111-.066.603-.126 1.104-.383 1.486-1.509-4.079-3.015-8.16-4.524-12.24m5.411-3.481c-2.11-1.522-4.683-1.57-7.154-1.237-1.548-4.194-3.099-8.388-4.648-12.582 1.085.615 1.968 1.585 2.688 2.631.48.7.903 1.435 1.281 2.193.247.493.507 1.653.96 1.974 1.516 1.08 3.8-1.369 4.227-2.583.487-1.38-.602-2.985-1.272-4.135-.807-1.385-1.797-2.756-3.06-3.76-1.997-1.59-4.282-1.658-6.523-.916l-1.199-3.254c-.187-.51-.268-1.356-.85-1.597-.744-.307-1.934.311-2.47.77-1.681 1.43-1.11 2.84-.439 4.658.137.37.47.9.482 1.303.025.778-.524 1.017-.98 1.493-.655.687-1.242 1.461-1.704 2.293-2.12 3.812-1.204 8.65 1.123 12.17 2.09 3.163 5.28 4.257 8.898 3.9l4.915 13.3c-1.326-.417-2.383-1.325-3.226-2.57-.451-.669-.811-1.403-1.134-2.14-.161-.372-.276-1.054-.644-1.287-1.453-.92-3.579 1.266-4.063 2.372-1.045 2.378 1.903 6.101 3.85 7.325 2.085 1.31 4.509 1.14 6.793.562.477 1.292.957 2.582 1.431 3.873.27.741.384 1.994 1.251 2.228 1.508.41 3.43-1.525 3.521-2.888.085-1.307-.992-3.1-1.444-4.323-.358-.971-.16-.959.542-1.64.392-.378.748-.79 1.074-1.226 1.947-2.597 2.17-5.71 1.726-8.828-.496-2.947-1.396-6.236-3.952-8.08M59.818 63.343c1.364 3.69 2.729 7.38 4.09 11.07-1.814-1.1-2.997-2.894-3.77-4.913-.455-1.188-.799-2.422-.867-3.696-.037-.673-.025-1.429.273-2.05.073-.152.167-.288.274-.41M71.07 79.796c1.623.643 2.825 1.918 3.597 3.644.977 2.185 1.407 4.727 1.31 7.11-.066.603-.126 1.105-.383 1.487-1.509-4.079-3.015-8.16-4.524-12.24m5.411-3.481c-2.11-1.522-4.685-1.57-7.154-1.237-1.55-4.194-3.1-8.388-4.648-12.582 1.084.615 1.967 1.583 2.686 2.631.482.698.905 1.435 1.282 2.193.246.492.508 1.654.96 1.974 1.516 1.08 3.8-1.37 4.227-2.583.487-1.382-.6-2.986-1.271-4.136-.809-1.384-1.797-2.755-3.061-3.76-1.997-1.59-4.283-1.659-6.523-.916l-1.2-3.253c-.186-.512-.267-1.357-.848-1.597-.744-.307-1.934.31-2.472.768-1.68 1.433-1.109 2.842-.437 4.658.137.372.47.902.482 1.305.024.777-.525 1.015-.98 1.492-.657.688-1.242 1.461-1.704 2.293-2.122 3.813-1.204 8.65 1.122 12.172 2.09 3.162 5.281 4.256 8.898 3.897l4.916 13.301c-1.327-.415-2.385-1.324-3.226-2.569-.451-.67-.812-1.403-1.136-2.14-.16-.372-.275-1.056-.642-1.289-1.455-.918-3.579 1.268-4.064 2.374-1.044 2.378 1.902 6.101 3.85 7.325 2.084 1.309 4.51 1.14 6.794.562.476 1.292.957 2.582 1.43 3.874.272.74.385 1.992 1.25 2.226 1.508.409 3.432-1.524 3.522-2.889.085-1.307-.993-3.1-1.444-4.322-.357-.971-.16-.96.543-1.639.391-.38.747-.79 1.074-1.226 1.947-2.597 2.17-5.71 1.726-8.83-.497-2.945-1.396-6.234-3.952-8.077M113.389 42.532c1.364 3.69 2.729 7.381 4.09 11.071-1.814-1.1-2.998-2.895-3.77-4.914-.457-1.188-.799-2.42-.868-3.696-.037-.673-.025-1.429.274-2.05.073-.152.166-.287.274-.41m11.25 16.455c1.623.642 2.825 1.916 3.598 3.643.977 2.184 1.407 4.726 1.308 7.11-.065.602-.124 1.104-.382 1.486-1.51-4.079-3.015-8.159-4.524-12.24m6.564 14.652c.39-.379.746-.79 1.074-1.225 1.945-2.598 2.168-5.71 1.725-8.829-.496-2.946-1.397-6.236-3.952-8.079-2.108-1.522-4.683-1.57-7.154-1.236-1.548-4.194-3.1-8.388-4.648-12.583 1.085.615 1.968 1.584 2.687 2.632.48.697.903 1.434 1.282 2.192.246.492.508 1.654.959 1.975 1.517 1.079 3.8-1.37 4.226-2.584.488-1.381-.6-2.986-1.27-4.136-.808-1.384-1.798-2.755-3.06-3.76-1.998-1.59-4.283-1.658-6.523-.915l-1.2-3.254c-.186-.51-.267-1.356-.85-1.597-.744-.307-1.932.312-2.47.77-1.68 1.431-1.109 2.84-.437 4.658.135.371.47.9.48 1.303.026.779-.523 1.017-.978 1.494-.657.686-1.243 1.46-1.706 2.292-2.121 3.812-1.203 8.651 1.124 12.17 2.089 3.163 5.28 4.257 8.898 3.898 1.637 4.435 3.277 8.87 4.916 13.303-1.328-.417-2.385-1.326-3.226-2.57-.453-.67-.813-1.403-1.136-2.141-.16-.372-.276-1.054-.643-1.287-1.454-.92-3.578 1.266-4.063 2.373-1.046 2.378 1.902 6.1 3.85 7.325 2.084 1.31 4.508 1.14 6.793.562.475 1.292.956 2.58 1.431 3.873.272.74.384 1.992 1.25 2.227 1.508.41 3.431-1.524 3.522-2.888.083-1.308-.993-3.1-1.444-4.324-.359-.971-.16-.959.543-1.639" transform="translate(-818 -5358) translate(208 5146) translate(610 212)"/>
                    </g>
                </g>
            </g>
        </g>
    </g>
</svg>
