<svg xmlns="http://www.w3.org/2000/svg" xmlns:xlink="http://www.w3.org/1999/xlink" width="389" height="292" viewBox="0 0 389 292">
    <defs>
        <path id="s2wp9o5mda" d="M0.18 0.656L59.976 0.656 59.976 115.343 0.18 115.343z"/>
        <path id="7249qezb7c" d="M0.668 0.657L24.485 0.657 24.485 13.222 0.668 13.222z"/>
    </defs>
    <g fill="none" fill-rule="evenodd">
        <g>
            <g>
                <g>
                    <g>
                        <path fill="#000" d="M345.853 141.892c-.581 2.904-1.092 5.806-1.583 8.726-.47 2.789-1.218 5.511-1.898 8.256-.605 2.442-1.082 4.985-1.877 7.37-.795 2.384-1.933 4.714-2.926 7.027-1.11 2.589-2.118 5.213-3.505 7.667-1.449 2.565-2.829 5.086-4.081 7.747-.53 1.127-5.841 7.09-6.045 7.352l-3.338 4.304c-1.542 1.99-2.9 4.23-4.605 6.079-1.736 1.881-3.933 3.336-5.687 5.207-1.944 2.072-10.665 9.864-12.982 11.82-2.245 1.894-4.274 3.966-6.353 6.04-1.725 1.72-3.685 3.258-5.55 4.83-1.287 1.084-5.694 4.677-6.12 5.001-2.432 1.855-5.236 4.531-7.618 6.448-.63.506-5.537 3.585-7.134 4.466-2.071 1.144-4.376 1.889-6.37 3.165-1.737.467-9.378 1.78-10.715 1.883-2.009.154-8.823.596-10.084.046-.51-.223-3.924-2.177-4.97-2.843-.756-.48-1.617-.914-2.315-1.473-.781-.629-1.469-1.43-2.186-2.13-2.745-2.67-5.672-4.462-7.996-7.503-.857-1.12-1.714-2.242-2.57-3.364l-.812-1.062-.006-.007-.264-.371c-1.219-1.712-2.55-3.386-3.664-5.167-1.17-1.87-2.194-3.838-3.31-5.742-1.092-1.862-2.236-3.695-3.316-5.564-1.03-1.784-1.854-3.708-2.765-5.555-.884-1.795-1.792-3.577-2.692-5.364-.864-1.717-1.67-3.46-2.485-5.2-.83-1.773-1.45-3.437-2.041-5.304-.59-1.863-1.18-3.693-1.884-5.513-.711-1.839-1.547-3.62-1.906-5.559-.36-1.942-.902-3.929-1.043-5.9-.154-2.139-.279-4.282-.389-6.422-.113-2.209-.259-4.434-.28-6.645-.018-2.097.19-4.215.29-6.31.091-1.943-.137-3.919-.235-5.862-.095-1.883.04-3.727.147-5.613l.105-1.857c.006-.095.058-.879.044-.821.097-.94.238-1.876.357-2.812.242-1.914.484-3.826.707-5.74.222-1.906.447-3.812.663-5.718.226-2.01.33-4.079.706-6.067.404-2.14.87-4.335 1.45-6.435.572-2.075 1.398-4.097 2.069-6.143.641-1.951 1.196-3.936 1.79-5.902.537-1.782.647-3.472.81-5.334.342-3.877.84-7.769 1.039-11.653.12-2.371.132-4.748.264-7.119.115-2.066.366-4.134.551-6.195.026-.285.036-.58.075-.865.015.044.18-.516.22-.646.417-1.3.834-2.6 1.25-3.902.578-1.804 1.264-3.446 2.043-5.179.788-1.755 1.5-3.41 2.555-5.012l2.334-3.545c.178-.269.35-.543.532-.809l.006-.003c.132-.122.253-.263.377-.391l4.33-4.48 2.437-1.14 1.92-.897c.055-.027.15-.07.26-.118.212-.054.466-.124.586-.15l2.14-.479 2.118-.473c2.46.1 4.935.275 7.39.121 3.175-.198 6.252-.454 9.394-.926 2.929-.44 5.82-.991 8.728-1.554 1.351-.263 2.603-.661 3.891-1.134 1.433-.525 3.085-.92 4.45-1.619.296-.075.59-.156.883-.235l2.879-.767c.551-.147 1.116-.28 1.67-.437.147-.011.295-.027.432-.034 2.962-.138 5.89-.279 8.838-.59 3.015-.317 6.017-.537 9.044-.731.31-.02.622-.036.931-.06.28.202 1.477.194 1.76.235 1.668.24 3.338.473 5.006.718 1.287.19 2.571.39 3.857.587l2.602.395c.047.008.094.016.142.022.07.024.36.092.469.12 1.773.461 3.546.92 5.32 1.382 1.025.266 1.927.688 2.899 1.117 1.363.603 2.752 1.17 4.099 1.811.025.018.183.103.299.17.324.182.654.359.98.54l2.648 1.457c.945.52 1.88.97 2.703 1.661l4.29 3.601c.84.705 1.433 1.661 2.097 2.527l1.808 2.358c.194.252.385.506.58.756l.1.13c1.548 2.194 3.103 4.389 4.56 6.642.973 1.507 1.991 2.994 2.924 4.525.607.997 1.025 2.128 1.512 3.186.5 1.09 1.135 2.188 1.491 3.333.515 1.651.86 3.374 1.286 5.05.648 2.547 1.388 5.073 2.006 7.627.6 2.478.977 5.014 1.708 7.458.508 1.698 1.06 3.39 1.526 5.1.3 1.101.298 2.307.412 3.44.125 1.24.18 2.513.4 3.742.31 1.74.713 3.468 1.07 5.2 1.042 5.058 1.412 10.234 2.172 15.336.254 1.708.31 3.604.783 5.265l.04.147c-.026.2-.084.405-.123.6l-.53 2.652M232.826 49.2c-.054-.004-.109-.004-.164-.006.162-.05.643.03.164.006m50.138-6.197l.059-.004c.573-.048.109.061-.06.004m67.624 91.672c-.379-2.55-.724-5.095-1.039-7.652-.631-5.102-1.483-10.12-2.52-15.155-.479-2.326-.382-4.745-.773-7.084-.372-2.216-1.369-4.363-1.93-6.541-.582-2.258-.922-4.576-1.51-6.833-.625-2.402-1.281-4.795-1.894-7.2l-1.2-4.715c-.22-.858-.618-1.62-.989-2.427-.631-1.372-1.201-2.796-1.902-4.134-.485-.927-1.136-1.794-1.704-2.674-2.785-4.307-5.702-8.495-8.825-12.568-.58-.756-1.11-1.62-1.817-2.263-1.193-1.087-2.484-2.084-3.72-3.122-1.955-1.64-4.203-2.713-6.442-3.947-2.24-1.233-4.646-2.169-6.984-3.202-.775-.343-1.562-.524-2.387-.738-1.56-.405-3.117-.84-4.685-1.216-2.43-.585-4.998-.806-7.471-1.173-2.318-.344-4.678-.837-7.014-1.007-1.331-.097-2.748.143-4.075.228-1.075.07-2.155.116-3.23.211-2.373.212-4.743.61-7.125.721-2.728.128-5.579.001-8.23.708-2.59.69-5.195 1.306-7.711 2.228-1.462.536-2.934 1.053-4.389 1.608-.623.116-1.245.241-1.867.362-2.56.496-5.102.941-7.681 1.33-.768.114-1.534.229-2.302.345-.12.017-.241.037-.363.054-1.542.026-3.095.195-4.634.29-.32.02-1.218-.083-1.518.084-.26-.01-.519-.017-.778-.026-1.6-.054-3.2-.116-4.801-.163-1.292-.04-2.504.275-3.754.555-1.466.327-2.95.613-4.405.984-1.206.307-2.348.952-3.47 1.477l-2.97 1.39c-.523.176-1.012.43-1.353.784l-2.664 2.757c-.844.873-1.83 1.71-2.543 2.695-.76 1.055-1.436 2.181-2.15 3.267-.602.914-1.303 1.815-1.82 2.78-.67 1.245-1.174 2.611-1.753 3.9-.404.897-.864 1.788-1.202 2.711-.515 1.407-.918 2.866-1.375 4.292-.294.92-.718 1.863-.81 2.827-.23 2.4-.526 4.816-.634 7.225-.112 2.489-.088 4.997-.295 7.48-.206 2.472-.458 4.942-.676 7.415l-.417 4.734c-.061.7-.124 1.4-.184 2.099-.006.065-.013.132-.017.199-.02.052-.056.171-.082.243-.85 2.347-1.394 4.81-2.176 7.183-.75 2.279-1.707 4.538-2.235 6.879-.545 2.42-1.208 4.826-1.486 7.292-.278 2.472-.556 4.944-.843 7.416-.587 5.031-1.335 10.04-1.62 15.098-.144 2.563-.112 4.98.018 7.546.129 2.561.02 5.042-.102 7.607-.236 4.963.279 9.996.579 14.952.053.888.262 1.757.424 2.63.27 1.468.462 2.978.819 4.427.546 2.22 1.72 4.334 2.48 6.496.764 2.182 1.22 4.516 2.13 6.643.96 2.242 2.038 4.463 3.136 6.643 2.267 4.505 4.337 9.156 6.92 13.492 1.339 2.246 2.665 4.496 3.972 6.762 1.305 2.265 2.703 4.337 4.223 6.47 1.509 2.12 3.088 4.179 4.668 6.246 1.525 1.995 3.33 3.745 5.06 5.567 1.672 1.76 3.407 3.56 5.242 5.145.732.632 1.644 1.098 2.46 1.617 1.12.712 2.22 1.526 3.39 2.156 1.14.615 2.41 1.058 3.597 1.575 1.182.516 2.487 1.372 3.813 1.34 2.358-.059 4.733-.187 7.087-.356 2.67-.192 5.579-.121 8.167-.849 2.748-.772 5.829-1.264 8.257-2.797l4.217-2.662c.216-.136.437-.266.648-.41.445-.235.882-.487 1.32-.73 1.385-.764 2.774-1.522 4.154-2.293.973-.543 1.798-1.302 2.663-1.997 4.063-3.268 8.237-6.384 12.246-9.715 1.984-1.649 3.935-3.333 5.888-5.017 1.893-1.63 3.608-3.45 5.375-5.212 3.362-3.352 7.454-5.926 10.92-9.156 1.744-1.625 3.196-3.56 4.903-5.224 1.707-1.667 3.779-3.072 5.347-4.865 1.578-1.805 2.903-3.869 4.367-5.769 1.522-1.977 3.193-3.887 4.58-5.96.88-1.314 1.74-2.64 2.61-3.958.465-.706.985-1.39 1.346-2.153 1.043-2.214 1.977-4.514 3.182-6.647 1.193-2.112 2.56-4.189 3.517-6.42.976-2.274 1.966-4.543 2.916-6.829.943-2.271 2.024-4.495 2.632-6.88.61-2.384 1.223-4.768 1.815-7.156.606-2.452 1.233-4.87 1.652-7.357.416-2.474.834-4.94 1.327-7.4.285-1.425.678-2.87.863-4.312.13-1.02-.233-2.194-.384-3.201" transform="translate(-259 -4477) translate(208 3647) translate(0 568) translate(51 262)"/>
                        <path fill="#000" d="M256.478 97c1.053 0 2.683-.306 3.332-1.037.666-.753-.578-.963-1.289-.963-1.052 0-2.682.306-3.33 1.037-.667.753.577.963 1.287.963M288.354 114.118c.017.057.04.113.056.17-.016-.044-.034-.096-.056-.17m7.594 9.853c-.705-1.823-1.852-7.797-2.557-9.62-.22-.567-.387-1.302-.745-1.802-.437-.61-1.086-1.134-1.601-1.671l-2.571-2.684c-.512-.535-.942-1.116-1.655-1.34-1.91-.6-3.883-1.036-5.815-1.553-1.196-.319-2.09-.477-3.355.002-.69.262-1.374.536-2.061.804l-3.385 1.32c-.619.242-1.27.442-1.835.808-2.96 1.919-5.776 4.103-8.383 6.506-1.39 1.28-2.912 2.455-4.014 4.018l-3.788 5.366c-.64.906.547 1.452 1.241 1.488 1.058.055 2.295-.39 2.938-1.302l3.71-5.258c.053-.073.353-.401.474-.606.083-.077.163-.16.238-.228l2.812-2.591c.596-.55 1.321-1.084 1.879-1.699-.11.099-.103.046.118-.13.025-.028.054-.054.078-.083l-.062.073c.034-.027.068-.054.112-.086l1.312-.947 3.197-2.306c.239-.173.495-.34.732-.523.04-.02.085-.043.112-.053 1.697-.62 3.377-1.297 5.06-1.966 1.855.496 3.711.99 5.567 1.487l2.278 2.379 1.745 1.821c.189.198.372.416.575.6.06.055.102.106.13.144.701 2.282 2.195 8.658 3.055 10.88.376.97 1.768.847 2.554.627.583-.163 2.279-.922 1.91-1.875" transform="translate(-259 -4477) translate(208 3647) translate(0 568) translate(51 262)"/>
                        <path fill="#000" d="M267.413 114.588c.044-.04.104-.1.174-.175l-.02.014c-.048.054-.103.106-.154.16M285.015 126.938c-.057.032-.193.116-.268.162l.182-.114c.495-.311.009-.04-.155.026l-4.511 1.8-.205.081c-.432.013-.87.059-1.295.083l-3.833.223-5.348-1.727-3.73-3.967 4.622-4.854 6.108-1.783 2.782.84c.567.172 1.132.356 1.702.516.09.081.393.209.444.237 1.303.736 2.607 1.473 3.912 2.208.151.086.308.192.468.27.238.476.765.942 1.09 1.346.667.826.055 1.559.721 2.385-.677.372-.078.837-.756 1.209l-1.93 1.06m-3.91-8.704c.03.008.059.019.088.026.358.098.062.035-.088-.026m12.72 5.595l-2.384-2.956c-.619-.767-1.19-1.734-2.036-2.248-2.028-1.233-4.117-2.557-6.38-3.242-1.407-.425-2.809-.903-4.229-1.278-1.203-.317-2.354.146-3.503.48l-4.676 1.367c-1.122.327-2.455.558-3.329 1.399-2.01 1.935-3.872 4.067-5.8 6.092-.022.022-.035.046-.055.07-.441.398-.605.863-.205 1.29l2.227 2.369c.726.772 1.42 1.68 2.226 2.365.823.702 2.337.915 3.33 1.235 1.146.37 2.3.834 3.469 1.12 1.03.253 2.372-.013 3.416-.074 1.287-.074 2.596-.085 3.878-.224 1.115-.122 2.249-.715 3.29-1.13 1.235-.493 2.488-.954 3.71-1.48 2.2-.949 4.287-2.322 6.392-3.478.531-.29 1.141-1.078.658-1.677" transform="translate(-259 -4477) translate(208 3647) translate(0 568) translate(51 262)"/>
                        <path fill="#000" d="M296.543 138.997c-4.475-.701-8.992-1.528-13.516-1.824-.093-.02-.187-.036-.273-.057l-1.954-.456c-1.358-.318-2.732-.597-4.08-.954-2.144-.57-4.228-1.566-6.31-2.34-.061-.058-.294-.22-.312-.233l-1.809-1.38-3.23-2.463c-1.377-1.049-5.48.977-3.554 2.446l2.692 2.051c.92.702 1.86 1.645 2.904 2.142 1.046.495 2.187.831 3.267 1.237 1.13.426 2.26.933 3.413 1.285 2.181.665 4.5 1.11 6.73 1.575 2.385.495 4.885.548 7.3.848 2.36.294 4.71.731 7.06 1.1 1 .156 2.471-.404 2.973-1.337.554-1.03-.486-1.512-1.3-1.64M224.45 126.312c-.24.15-.486.292-.722.448-.012.009-.03.018-.047.029l-.018.007c-.264.092-.525.197-.788.295l-2.173.812-1.757.658-2.235-.566-2.316-.585c-.246-.062-.494-.143-.744-.188-.033-.006-.052-.01-.078-.017-.124-.277-.493-.631-.642-.83-.503-.68-1.008-1.36-1.512-2.039l-1.805-2.433 3.956-5.156 4.117-1.199 2.768 1.597 2.146 1.238.804.465c.317.182.125.177.018.054.178.334.651.686.883.938l1.72 1.87 2.12 2.304-1.705 1.06-1.99 1.238m-10.9.889c-.234-.055-.099-.08 0 0m19.31-4.342l-4.746-5.16c-1.287-1.399-3.264-2.165-4.87-3.09-.813-.471-1.666-1.121-2.537-1.465-1.114-.439-2.625.234-3.737.558l-4.137 1.205c-1.095.318-2.246.572-3.027 1.513-1.61 1.942-3.087 4.025-4.625 6.03-.218.285-.248.518-.04.801l3.847 5.184c.424.571.668.75 1.34.92l3.596.91c.843.213 1.685.432 2.53.64 1.392.34 2.732-.305 4.024-.789 1.899-.71 4.024-1.239 5.799-2.26 1.975-1.141 3.89-2.42 5.83-3.626.198-.123.446-.31.628-.517.278-.292.365-.594.126-.854" transform="translate(-259 -4477) translate(208 3647) translate(0 568) translate(51 262)"/>
                        <path fill="#000" d="M222.528 119.541c-.016-.026-.043-.054-.055-.082.012.031.032.058.054.082" transform="translate(-259 -4477) translate(208 3647) translate(0 568) translate(51 262)"/>
                        <path fill="#000" d="M232.765 122.172c-1.279-2.1-2.433-4.39-3.878-6.367-.706-.965-1.59-1.832-2.37-2.732-.83-.958-1.634-1.95-2.494-2.879-.827-.89-2.213-1.375-3.245-1.948-1.138-.63-2.27-1.27-3.41-1.893-1.328-.723-2.92-.15-4.32.09-1.35.233-2.7.462-4.051.697-1.219.211-2.024.78-2.601 1.878l-1.147 2.18-2.099 3.993c-.542 1.032.49 1.89 1.38 2.013 1.124.155 2.368-.395 2.92-1.446l2.85-5.419 4.481-.77 3.13 1.738c.68.378 1.355.812 2.058 1.142.034.016.056.029.081.042-.04-.047-.083-.11-.117-.199.028.073.092.148.161.222.097.057.103.086.069.072.07.069.14.134.188.188 1.92 2.216 3.931 4.293 5.467 6.813l2.842 4.665c1.105 1.816 5.38.011 4.105-2.08" transform="translate(-259 -4477) translate(208 3647) translate(0 568) translate(51 262)"/>
                        <path fill="#000" d="M219.483 112.47l-.055-.028c.059.067.114.105.144.117l-.089-.09M224.767 133.616c-.692-.858-2.29-.685-3.185-.29l-5.063 2.236-2.432.152c-.924.058-2.009-.005-2.945.156.338-.025.4.082.072.018-.03-.006-.061-.01-.092-.014-.09.016-.188.021-.276.043.104-.025.192-.037.27-.044-.214-.038-.431-.067-.645-.1l-2.142-.329-3.116-.478c-1.077-.166-2.578.372-3.069 1.32-.522 1.01.47 1.624 1.416 1.77l4.002.615c1.139.175 2.214.387 3.368.314l4.89-.306c.754-.047 1.423-.08 2.146-.369.456-.183.898-.397 1.346-.595l4.324-1.91c.817-.36 1.828-1.324 1.13-2.189" transform="translate(-259 -4477) translate(208 3647) translate(0 568) translate(51 262)"/>
                        <path fill="#000" d="M211.516 135.498l-.032.003.007.001.025-.004zM291.173 207.104c-.523.091-2.549.497-2.658 1.25-.194 1.363-.39 2.725-.586 4.088-.136.95-.21 1.923-.48 2.847-.732 2.481-1.507 4.947-2.102 7.465-.624 2.64-1.264 5.26-1.97 7.879-.712 2.642-1.596 5.124-2.556 7.69-.946 2.532-2.436 4.805-3.765 7.154-.414.73 1.603.495 1.821.457.81-.142 2.163-2.104 2.617-2.905.678-1.199 1.397-.742 2.076-1.94.474-.836 1.016-1.65 1.354-2.552.908-2.431 1.888-4.825 2.563-7.332 1.409-5.226 2.606-10.49 4.136-15.682.763-2.588.988-5.293 1.37-7.962.116-.798-1.376-.534-1.82-.457M310.348 193.5c-.782 4.485-1.586 8.896-2.868 13.282-.627 2.144-1.361 4.335-2.182 6.417-.82 2.075-2.025 4.066-3.032 6.064-1.06 2.1-2.125 4.197-3.188 6.296-.455.9 1.21.153 1.618.101 1.003-.128 2.994-1.209 3.462-2.134 1.027-2.026 1.616-2.623 2.64-4.652 1.023-2.028 2.2-4.037 3.083-6.125.871-2.062 1.54-4.296 2.196-6.432.658-2.141 1.188-4.357 1.697-6.535.53-2.263.816-4.598 1.214-6.887.28-1.604-4.39-.835-4.64.604M229.509 235.52c-.021-.053-.026-.053 0 0" transform="translate(-259 -4477) translate(208 3647) translate(0 568) translate(51 262)"/>
                        <path fill="#000" d="M270.02 195.758c-1.06-.413-2.475-.016-3.194.861-1.215 1.48-2.43 2.961-3.643 4.442-1.061 1.293-1.73 2.874-2.506 4.35-1.56 2.966-3.209 5.984-4.444 9.1-.715 1.804-1.217 3.726-1.82 5.573-.486 1.486-1.142 2.895-1.761 4.33-1.263 2.924-2.634 5.823-4.209 8.593-.608 1.071-1.226 2.137-1.84 3.205-.3.522-.6 1.044-.898 1.566-.024.042-.048.085-.073.126-1.205 1.325-2.221 2.891-3.28 4.362l-3.847 1.136-5.506-1.981-3.328-3.993-.882-1.058c-.117-.14-.177-.243-.2-.293.017.046.05.143.082.317-.141-.74-.696-1.57-.999-2.255-.698-1.576-1.57-3.162-2.112-4.8-.65-1.965-1.07-4.04-1.6-6.04-.358-1.358-.514-2.688-.693-4.086l-.465-3.651c-.036-.283-.064-.569-.107-.85v-.063c-.01-2.163-.082-4.327-.123-6.49-.028-1.442.11-2.881.197-4.32.237-3.905.634-7.775 1.04-11.667.253-2.408-4.384-.485-4.585.305-.995 3.917-.82 8.015-1.065 12.05-.103 1.704-.184 3.359-.152 5.063.04 2.073-.069 4.207.163 6.268.264 2.342.585 4.68.893 7.018.25 1.89.948 3.779 1.435 5.618.189.712.33 1.459.574 2.154.299.857.747 1.688 1.115 2.518l1.646 3.717c.26.586.489 1.115.9 1.609 1.479 1.775 2.903 3.62 4.447 5.336.62.69 1.619.9 2.463 1.203l3.862 1.39c1.062.383 1.936.773 3.115.472 1.141-.292 2.267-.67 3.398-1.004 1.184-.35 2.868-.602 3.709-1.57.623-.718 1.155-1.544 1.725-2.305 1.238-1.654 2.369-3.25 3.397-5.042.933-1.624 1.884-3.234 2.738-4.902 1.768-3.457 3.673-6.972 4.926-10.659.706-2.076 1.245-4.24 2.051-6.279.774-1.956 1.81-3.842 2.706-5.744.819-1.735 1.764-3.413 2.656-5.11.23-.436.465-.868.687-1.307.003-.008.003-.01.007-.015.014-.014.018-.017.035-.036.816-.908 1.559-1.9 2.334-2.844l1.646-2.007c.681-.831.371-1.925-.616-2.31" transform="translate(-259 -4477) translate(208 3647) translate(0 568) translate(51 262)"/>
                        <path fill="#C58FFF" d="M344.764 128.666L345.215 135.842 345.399 143.028 345.84 150.224 345.354 157.413 344.58 164.567 344.175 171.755 343.2 178.886 341.68 185.979 347.896 184.741 354.085 185.82 359.79 188.601 364.38 193 368.011 186.864 371.364 180.575 373.931 173.906 376.549 167.297 378.96 160.611 380.747 153.743 382.549 146.85 383 139.731 382.177 132.645 378.843 126.426 377.709 119.308 376.223 112.345 374.383 105.465 372.015 98.752 370.142 91.861 366.967 85.468 363.829 79.1 361.183 72.457 357.375 66.439 353.498 60.476 349.387 54.669 344.569 49.44 339.515 44.471 334.615 39.32 329.029 34.94 323.052 31.138 317.228 27.672 323.785 27.531 330.021 30.674 335.799 34.479 331.664 28.755 326.506 23.741 321.533 18.584 315.933 14.123 310.109 9.941 303.637 6.871 297.05 4.089 290.072 2.551 283.079 1 275.92 1.305 268.776 1.316 261.755 2.662 254.795 4.262 247.884 6.194 241.319 9.1 235.261 13.194 228.119 11.761 221.003 10.818 214.03 12.399 207.626 15.451 204.165 21.638 202.724 28.564 202.619 35.773 204.546 42.618 201.409 47.2 195.996 51.436 190.889 56.017 185.599 60.396 180.159 64.592 174.822 69.016 170.441 74.398 166.485 80.05 163.567 86.298 161.659 92.977 161.821 99.931 162.993 106.752 165.094 113.339 167.418 119.86 169.831 126.347 172.619 132.69 174.104 139.99 173.096 147.383 169.883 154.077 165.086 159.701 159 163.99 161.649 170.131 165.389 175.49 170.738 179.163 176.533 182.01 182.912 183.237 189.668 183.319 188.379 176.408 188.546 169.659 188.116 162.931 188.688 156.213 189.161 149.503 189.732 142.791 190.848 136.153 191.855 129.494 193.131 122.876 195.029 116.415 196.758 109.942 197.467 103.209 198.052 96.447 198.721 89.692 200.185 83.061 201.038 76.304 203.538 69.983 206.116 63.75 209.729 58.042 214.472 53.202 220.092 50.086 226.431 49.157 232.835 49.351 239.227 49.586 245.431 47.978 252.32 45.922 259.366 44.516 266.426 43.181 273.513 41.89 280.637 41.022 287.858 41.099 295.021 41.901 301.941 43.919 308.772 46.152 315.138 49.482 320.926 53.697 325.304 59.25 328.535 65.538 331.23 72.093 333.343 78.898 334.495 85.939 334.795 93.064 335.377 100.17 334.453 106.754 332.807 113.193 330.844 119.544 328.706 125.841 327.278 132.344 325.324 138.726 324.829 145.38 325.332 151.994 327.302 158.384 329.516 151.398 331.744 144.479 334.473 137.716 338.596 131.685 344.965 128.683" transform="translate(-259 -4477) translate(208 3647) translate(0 568) translate(51 262)"/>
                        <path fill="#000" d="M325.474 67.403c.075.306.062.207 0 0M381.497 125.525c.003-.016.007-.03.004-.05-.002.016 0 .037-.004.05M347.494 142.642c.025-.465.006-.28 0 0M171.494 140.479l.01.042.002-.011-.012-.031" transform="translate(-259 -4477) translate(208 3647) translate(0 568) translate(51 262)"/>
                        <path fill="#000" d="M381.08 146.552c-.17 2.687-1.22 5.374-1.9 7.972-.493 1.885-.984 3.771-1.476 5.656-.075.287-.167.574-.226.864l-.005.033c-.292.753-.55 1.52-.824 2.28-1.165 3.22-2.394 6.398-3.657 9.58-1.037 2.611-1.876 5.346-3.063 7.888-1.28 2.743-2.842 5.41-4.387 8.014l-.789 1.33-1.738-1.662c-1.218-1.164-2.832-1.729-4.338-2.462-.72-.35-1.436-.705-2.158-1.05-.786-.373-1.74-.446-2.594-.594-1.885-.328-3.99-1.022-5.898-.656-1.01.193-2.017.398-3.026.6.66-3.139 1.27-6.253 1.708-9.448.474-3.458.492-6.92.837-10.387.414-4.16.84-8.284 1.123-12.454.114-1.697 0-3.327-.104-5.027l-.223-3.632c-.005-.077-.005-.174-.003-.26l-.006.12c.02-.357-.019-.729-.028-1.086-.11-4.269-.322-8.51-.584-12.77.21-.373.26-.797-.03-1.216-.36-.52-1.053-.651-1.73-.6-.363-.001-.704.038-.921.097-.452.12-.882.33-1.218.62-.851.402-1.702.802-2.554 1.201-1.125.53-2.475.956-3.487 1.697-1 .733-1.734 2.297-2.416 3.292-.766 1.116-1.684 2.222-2.337 3.408-.465.845-.76 1.832-1.121 2.725-.534 1.322-1.104 2.636-1.606 3.97-.802 2.133-1.437 4.343-2.123 6.52-.035-.263-.07-.526-.09-.792-.12-1.568-.254-3.137-.36-4.706.012.113.006-.183.023-.351.043-.415.062-.833.093-1.25.077-1.033.155-2.065.231-3.098.092-1.219.212-2.144.567-3.302.507-1.65 1.081-3.294 1.524-4.962.379-1.432.642-2.904.96-4.35.112-.504.599-1.62.468-2.124l-.005.009c.107-.31.212-.622.318-.933 2.018-5.927 4.016-11.874 5.401-17.99.292-1.288.397-2.638.582-3.947.18-1.272.44-2.505.335-3.786l-.468-5.704c-.02-.239-.03-.483-.06-.722v-.001c-.028-.806-.067-1.612-.102-2.418-.068-1.607-.035-3.255-.211-4.854-.177-1.606-.527-3.21-.789-4.805-.487-2.967-1.45-5.767-2.36-8.635-.364-1.147-.887-2.249-1.345-3.36-.552-1.337-1.04-2.727-1.697-4.017-1.27-2.49-2.366-5.157-4.103-7.354-1.12-1.417-2.184-2.911-3.375-4.27-.891-1.016-2.244-1.743-3.328-2.531-1.023-.743-2.023-1.602-3.125-2.223-1.599-.901-3.262-1.702-4.889-2.55-2.623-1.37-5.522-2.14-8.34-3.028-1.213-.381-2.443-.718-3.666-1.073-1.345-.39-2.724-.93-4.117-1.129-5.995-.855-12.075-1.202-18.093-.471-6.144.746-12.21 1.982-18.29 3.131-2.503.474-5.057.878-7.526 1.501-2.754.696-5.436 1.674-8.188 2.385l-3.114.805-1.176.303-.064.016-1.11-.04-3.208-.118c-1.17-.042-2.341-.079-3.512-.115-1.614-.049-3.308-.254-4.922-.127-1.73.136-3.472.507-5.19.758-.762.112-1.625.165-2.323.49-.6.278-1.173.648-1.75.968-.908.501-1.815 1.002-2.721 1.504-.69.381-1.474.735-2.046 1.28-1.176 1.123-2.285 2.325-3.424 3.484-.88.896-1.583 1.715-2.254 2.773-.956 1.505-2.029 2.983-2.885 4.546-.662 1.206-1.099 2.584-1.625 3.855-.45 1.086-.906 2.169-1.339 3.261-.688 1.736-1.392 3.465-2.065 5.207-.476 1.23-.505 2.607-.67 3.909-.399 3.152-1.023 6.16-1.71 9.267-.559 2.52-.647 5.173-.885 7.742-.26 2.8-.466 5.603-.761 8.398-.175 1.66-.232 3.384-.53 5.026-.269 1.485-.79 2.964-1.18 4.42-.757 2.83-1.717 5.61-2.433 8.447-1.42 5.629-2 11.497-2.963 17.215-.933 5.534-1.083 11.154-1.56 16.74l-.483 5.652c-.111 1.295.091 2.64.175 3.933l.187 2.924.03.465-.013.283c-.077 1.885-.094 3.775-.14 5.66-.03 1.16.215 2.232.428 3.373l.47 2.511c-1.116.01-2.23-.004-3.32-.114-1.947-.196-3.91-.712-5.841-1.11-1.552-.76-3.105-1.52-4.658-2.282-1.358-.665-2.56-1.604-3.807-2.459-.592-.406-1.403-1.212-2.113-1.486-.046-.058-.096-.115-.105-.13-.244-.385-.526-.751-.788-1.125-.7-1.002-1.402-2.003-2.103-3.004-.175-.25-.344-.6-.566-.81h-.001l-.035-.081c-.703-1.68-1.44-3.345-2.166-5.015l2.661-1.87c1.013-.712 2.144-1.354 2.973-2.283 1.22-1.364 2.383-2.785 3.573-4.176.765-.895 1.317-1.67 1.828-2.733l2.445-5.08c.506-1.054.528-2.27.685-3.417.214-1.564.603-3.2.654-4.778.047-1.452-.568-3.092-.855-4.502-.235-1.146-.35-2.403-.78-3.494-.67-1.699-1.48-3.355-2.216-5.027-1.076-2.442-1.947-4.982-2.863-7.488-1.881-5.144-3.966-10.364-4.898-15.773-.172-.99-.342-1.982-.513-2.972-.053-.309-.087-.627-.16-.932l-.02-.076c.08-1.634-.084-3.321-.122-4.954-.028-1.211.011-1.955.341-3.106.48-1.675 1.008-3.344 1.443-5.031l.003-.003c.164-.21.26-.553.372-.795l1.277-2.728c.36-.77.774-1.534 1.088-2.324.045-.113.069-.177.08-.21.056-.078.11-.156.164-.235 1.72-2.449 3.401-4.881 5.292-7.199l1.915-2.345c.189-.232.395-.456.57-.7.032-.044.05-.07.069-.099 1.284-.96 2.486-2.066 3.72-3.086 2.193-1.812 4.49-3.484 6.72-5.249 2.07-1.639 4.136-3.32 6.105-5.08l4.178-3.737.317-.285c.029-.019.065-.045.125-.089.67-.494 1.314-1.025 1.97-1.537 1.254-.978 2.991-1.947 3.911-3.275.917-1.324 1.823-2.656 2.734-3.984.349-.508.612-.866.474-1.537-.147-.717-.403-1.428-.601-2.131l-.844-2.988-.305-1.08c-.013-.048-.057-.172-.095-.278-.01-.07-.02-.155-.019-.219.01-.404.012-.808.018-1.212l.043-2.971c.016-1.094-.052-2.189.171-3.26l1.15-5.507c.032-.156.123-.388.142-.575l.014-.02c.445-.654.79-1.407 1.177-2.098l1.799-3.207 2.81-1.335c.739-.35 1.477-.702 2.216-1.053.093-.044.197-.086.3-.131 1.569-.239 3.14-.714 4.687-1.064.42-.096.865-.166 1.294-.265.11.005.218.007.298.018 2.508.332 5.04.576 7.522 1.073l5.148 1.03c.822.165 1.474.27 2.324-.042.595-.218 1.112-.615 1.635-.968l4.376-2.95c.162-.108.325-.217.486-.327.471-.11.994-.45 1.422-.64 1.535-.678 3.075-1.342 4.603-2.033l.109-.05c.02-.005.036-.008.059-.015.698-.178 1.39-.387 2.083-.58 5.103-1.423 10.234-2.616 15.437-3.612l2.429-.465.167-.032c.025.005.045.01.089.016 1.573.2 3.298-.004 4.883-.007 2.65-.004 5.29-.14 7.937-.253l.791-.034c4.105.908 8.211 1.815 12.318 2.718 1.957.43 3.76 1.364 5.605 2.14l1.654.696c.122.052.25.124.378.16 1.022.488 2.048.968 3.072 1.453.99.468 2.06.87 3.006 1.423.715.417 1.378.979 2.051 1.461 1.624 1.162 3.265 2.295 4.83 3.537l3.445 2.737c.309.246.62.53.948.759.079.09.182.177.255.252 1.545 1.599 3.065 3.226 4.64 4.796.744.744 1.537 1.459 2.325 2.18l-.335-.168c-.583-.293-1.233-.71-1.885-.778-.633-.068-1.324.013-1.957.026l-5.187.111c-1.105.024-3.72 1.777-1.964 2.82 2.53 1.501 5.072 2.979 7.557 4.555 1.417.9 2.899 1.742 4.27 2.71 1.425 1.009 2.767 2.164 4.142 3.24l1.037.81.136.106c.24.467.96.982 1.301 1.338 1.188 1.247 2.359 2.514 3.567 3.741 2.046 2.077 4.205 4.034 6.184 6.176 1.223 1.324 2.554 2.6 3.693 3.997 1.022 1.254 1.895 2.665 2.832 3.984 1.791 2.523 3.467 5.125 5.144 7.727.835 1.297 1.655 2.606 2.481 3.909.405.637.777 1.468 1.285 2.036.111.327.26.647.388.967 1.284 3.217 2.6 6.307 4.133 9.411 1.409 2.851 3.03 5.662 4.268 8.588 1.048 2.48 1.338 5.286 2.238 7.832 1.132 3.198 2.21 6.333 3.087 9.608.859 3.202 1.549 6.421 2.243 9.665.28 1.309.45 2.642.66 3.962.218 1.36.222 2.988.871 4.22.918 1.738 1.863 3.464 2.794 5.195.105.195.207.391.314.584-.009.03-.016.073-.022.14-.063.823.21 1.803.305 2.621l.38 3.256c.027.237.04.489.082.728-.005.033-.01.062-.016.114-.2 1.942-.247 3.911-.371 5.859m-22.537 43.571c-.141-.058-.111-.08 0 0M212.06 59.101l.086-.135c.22-.362.011.012-.086.135m-8.42 17.718c.017-.04.031-.08.048-.121-.017.137-.206.485-.048.121m129.6-35.925c.046.038.09.076.139.109.255.176-.003.116-.139-.109m52.281 94.714c-.166-1.433-.17-2.768-.853-4.038l-2.812-5.232-.036-.07c-.001.005.001.013-.001.017v-.018c-.224-.433-.02-.185.004-.038.017-.161-.098-.528-.115-.634l-.474-2.966c-.531-3.326-1.225-6.594-1.93-9.89-.554-2.592-1.22-5.273-2.09-7.776-1.094-3.146-2.211-6.23-3.087-9.442-.361-1.325-.595-2.787-1.163-4.04-.827-1.826-1.793-3.602-2.687-5.396-1.202-2.415-2.52-4.804-3.582-7.282-.784-1.83-1.478-3.702-2.216-5.55-.509-1.275-1.237-2.355-1.973-3.514-1.835-2.893-3.694-5.766-5.564-8.636-1.525-2.339-3.085-4.769-4.859-6.92-4.145-5.027-9.131-9.39-13.623-14.101-2.09-2.19-4.583-4.109-7.052-5.854-1.16-.82-2.363-1.594-3.58-2.346.364.193.73.385 1.087.59 1.991 1.143 3.87 2.541 5.79 3.802 1.223.802 5.128-.396 3.804-2.224l-3.68-5.077c-1.003-1.385-2.375-2.494-3.598-3.68-1.174-1.137-2.33-2.279-3.466-3.453-1.34-1.385-2.615-2.932-4.111-4.15-3.259-2.653-6.592-5.142-10.006-7.587-1.401-1.002-2.878-1.653-4.441-2.392-1.614-.764-3.217-1.543-4.862-2.236-1.797-.756-3.621-1.74-5.49-2.296-2.111-.628-4.357-.957-6.51-1.43-1.8-.396-3.597-.796-5.396-1.194-.997-.22-2.079-.574-3.105-.554-.826.017-1.654.07-2.48.106-1.783.076-3.569.198-5.352.201-2.144.003-4.352-.155-6.489.009-2.178.166-4.411.834-6.554 1.244-1.684.322-3.35.726-5.021 1.109-1.607.368-3.198.74-4.785 1.183-1.948.542-4.029.935-5.9 1.714-2.044.852-4.074 1.768-6.089 2.689-1.743.797-3.316 2.107-4.9 3.174l-.819.552c-3.47-.688-6.91-1.331-10.425-1.796-.923-.122-1.856-.298-2.784-.368-.981-.074-2.069.297-3.02.512-1.942.44-4.12.666-5.952 1.476-2.048.905-4.1 1.877-6.096 2.896-.965.493-1.338 1.176-1.83 2.055l-1.93 3.439c-.393.701-.925 1.422-1.134 2.208-.243.915-.39 1.867-.582 2.793-.349 1.665-.847 3.328-.871 5.033-.023 1.491-.044 2.983-.066 4.475-.01.759-.114 1.597.035 2.346.419 2.1 1.153 4.182 1.757 6.247l-2.565 3.738c-1.839 1.418-3.752 2.781-5.484 4.325-.853.761-1.705 1.526-2.558 2.29-.566.504-1.13 1.01-1.696 1.516l-.624.558c-.143.129-.171.177-.151.18-.226.175-.51.357-.589.422l-1.928 1.592c-.828.684-1.645 1.382-2.485 2.051-1.8 1.433-3.673 2.775-5.47 4.211-.98.783-1.935 1.599-2.902 2.398-.925.765-1.978 1.48-2.812 2.348-1.57 1.637-3.015 3.567-4.386 5.375-1.386 1.828-2.645 3.766-3.962 5.644-.658.94-1.064 2.076-1.55 3.112-.54 1.158-1.16 2.307-1.634 3.494-.388.972-.606 2.036-.894 3.04-.369 1.286-.927 2.645-1.137 3.969-.142.893.01 1.91.032 2.811.032 1.368.047 2.736.096 4.103.032.936.252 1.862.411 2.784.246 1.424.458 2.86.737 4.277.436 2.209 1.35 4.403 2.048 6.543 1.41 4.326 3.08 8.581 4.67 12.843.804 2.157 1.835 4.244 2.764 6.35.293.666.391 1.35.537 2.064l.95 4.66c.05.241.07.602.152.876-.041-.197.056-.25.008.024.017.053.032.108.055.151-.027-.052-.044-.099-.055-.142-.003.013-.003.021-.007.036-.054.254-.07.521-.106.778l-.646 4.72c-.056.412-.217.938-.2 1.369-.065.122-.113.292-.16.39-.694 1.44-1.387 2.881-2.08 4.323-.244.506-.522 1.008-.735 1.527-.019.046-.024.065-.033.094-.026.028-.043.043-.079.083-.979 1.09-1.907 2.23-2.859 3.343l-1.281 1.496c-.067.079-.208.198-.295.31-1.097.607-2.118 1.505-3.136 2.221l-2.684 1.886c-.413.29-1.025.98-.776 1.556l1.677 3.877c.435 1.006.8 2.079 1.415 2.989.96 1.422 1.97 2.814 2.954 4.22.629.898 1.317 1.371 2.222 1.99 1.3.892 2.572 1.877 3.924 2.689 1.033.62 2.19 1.087 3.271 1.616 1.177.577 2.408 1.36 3.701 1.613 1.6.313 3.204.614 4.805.921 2.69.516 5.474.324 8.206.357 1.159.014 3.341-.564 3.042-2.164l-.605-3.233c-.209-1.118-.276-2.454-.653-3.54.007-.141.003-.287.007-.425l.058-2.333c.03-1.221.11-2.45.092-3.67-.034-2.263-.265-4.544-.428-6.802.049-.151.031-.364.044-.523l.173-2.018c.114-1.327.235-2.654.34-3.983.355-4.441.568-8.9 1.04-13.332.231-2.188.723-4.369 1.083-6.54.36-2.177.662-4.363.998-6.544.34-2.214.825-4.417 1.26-6.615.425-2.144 1.21-4.251 1.826-6.347.618-2.097 1.146-4.223 1.711-6.336.553-2.062.565-4.313.788-6.43.456-4.322.782-8.658 1.21-12.981.212-2.131.744-4.184 1.208-6.275.462-2.09.704-4.18.973-6.308.078-.62.187-1.246.237-1.87.004-.056.064-.254.053-.346.529-1.23.989-2.496 1.482-3.74.808-2.035 1.642-4.056 2.48-6.078.337-.813.617-1.69 1.037-2.464.59-1.085 1.34-2.11 2.001-3.153l1.136-1.79.215-.338c.15-.044.814-.841.876-.904l1.607-1.635 1.89-1.923c1.568-.856 3.155-1.689 4.689-2.6.194-.032.388-.066.58-.094l3.753-.548c.345-.05.753-.053 1.086-.158l.015-.007c1.172.04 2.344.071 3.516.107 1.656.05 3.312.105 4.968.165 1.987.073 3.97.317 5.906-.184 1.812-.468 3.637-.903 5.44-1.409 2.057-.577 4.1-1.22 6.148-1.83 1.548-.461 3.164-.697 4.747-1.012 3.353-.667 6.712-1.307 10.074-1.93 2.058-.38 4.119-.748 6.178-1.123l.371-.067h.009c.142-.002.291-.035.431-.052l3.39-.412c.99-.12 2.061-.14 3.033-.368l.088-.024c.326.005.653.008.979.01 1.931.022 3.894-.059 5.822.065 2.078.135 4.162.465 6.232.696.215.024.481.091.716.099.066.014.132.027.186.042l3.29.957c1.48.43 2.958.853 4.422 1.33l3.672 1.198 1.352.44c.082.027.17.061.258.091.537.47 1.589.79 2.18 1.098l3.238 1.69c1.432.747 2.686 1.782 3.992 2.73.8.582 1.587 1.256 2.433 1.771.004.009.003.011.009.02.226.397.602.76.884 1.119 1.121 1.418 2.441 2.803 3.405 4.332 1.125 1.783 1.966 3.816 2.932 5.69.055.107.1.243.132.347l-.043-.18c.062.265.225.545.329.795l1.434 3.48c.58 1.408 1.09 2.767 1.543 4.22.518 1.667 1.185 3.35 1.543 5.06.447 2.135.637 4.326 1.062 6.467.02.107.034.166.043.207.007.34.031.683.046 1.023l.16 3.789c.066 1.572.165 3.132.293 4.702l.315 3.825c.018.224.026.46.05.691-.053.073-.047.346-.058.418-.284 2.017-.46 4.084-.856 6.08-.376 1.893-.964 3.764-1.442 5.632-.417 1.626-.954 3.22-1.451 4.823l-.476 1.535-.168.545-.17.502-.6 1.763c-.556 1.635-1.229 3.27-1.6 4.96-.427 1.936-.781 3.907-1.284 5.826-.514 1.964-1.197 3.898-1.792 5.84-.486 1.581-.38 3.412-.502 5.052-.125 1.673-.086 3.19.042 4.864.129 1.69.073 3.463.576 5.09l1.725 5.578c.29.94 1.524 1.055 2.328.907.999-.184 1.866-.703 2.184-1.704 1.162-3.657 2.326-7.313 3.505-10.966.283-.878.573-1.754.85-2.634.015-.028.046-.102.114-.261.21-.497.404-1.001.607-1.502.674-1.665 1.19-3.607 2.146-5.131 1.083-1.726 2.292-3.385 3.46-5.06l2.44-1.146.263 4.168.033.532c-.018-.264.008.375.013.597l.096 3.746c.044 1.707.11 3.403.216 5.106l.237 3.857.064 1.052c-.007.038-.016.094-.026.186-.258 2.23-.27 4.496-.456 6.733-.16 1.912-.41 3.82-.616 5.726-.359 3.307-.29 6.653-.74 9.946-.286 2.083-.47 4.208-.886 6.269-.455 2.253-.967 4.497-1.45 6.744-.308 1.438 1.891 1.414 2.657 1.262l3.006-.597 2.208-.439.059-.01c.22.031.596.059.78.09l2.09.364c.87.15 1.74.302 2.609.453l2.305 1.12 2.027.987c.207.1.414.223.629.305.038.015.116.037.184.053l.007.006c.178.174.36.345.54.517l1.551 1.482 2.3 2.198c1.173 1.12 3.396.593 4.195-.754 1.51-2.546 3.067-5.065 4.463-7.676.838-1.567 1.79-3.116 2.53-4.732.703-1.536 1.228-3.18 1.837-4.757 2.143-5.549 4.73-11.08 6.235-16.846.863-3.308 1.727-6.616 2.594-9.923.33-1.26.667-2.409.75-3.703.123-1.936.317-3.883.37-5.824.04-1.506-.302-3.075-.476-4.568" transform="translate(-259 -4477) translate(208 3647) translate(0 568) translate(51 262)"/>
                        <path fill="#000" d="M286 124c0 3.314-2.463 6-5.5 6s-5.5-2.686-5.5-6c0-3.313 2.463-6 5.5-6s5.5 2.687 5.5 6" transform="translate(-259 -4477) translate(208 3647) translate(0 568) translate(51 262)"/>
                        <path fill="#000" d="M278.544 120.279c.009-.031.1-.07.188-.102l-.188.102m2.185 8.737c.003-.01.044-.02.097-.027l-.097.027m2.299-2.594c-.03.105-.062.21-.095.314l-.023.075c-.005.006-.014.022-.034.066-.12.268-.253.53-.41.78-.07.113-.144.22-.22.33l-.014.022-.035.035c-.172.18-.346.355-.525.53-.096.066-.194.132-.29.2-.047.034-.078.06-.101.08l-.118.046c.01-.003.02-.005.023-.003l-.047.01c-.057.02-.107.038-.125.046l-.044.02c.098-.008.145-.009-.004.002-.15.069-.101.042-.006 0l-.06.005h-.002l.067-.006c.05-.023.104-.045.149-.06-.075.018-.186.048-.272.07-.091.006-.184.013-.274.023l-.038-.006c-.103-.015-.216-.02-.321-.03h-.028c-.02-.008-.03-.013-.06-.023-.147-.048-.302-.09-.45-.132l-.038-.01c-.103-.047-.204-.095-.303-.147-.206-.11-.405-.232-.596-.366-.018-.012-.269-.223-.232-.184-.053-.049-.106-.096-.157-.146-.225-.221-.43-.46-.617-.711-.528-.718-.885-1.692-.983-2.75-.01-.092-.015-.343-.003-.559.014-.282.048-.563.1-.84.052-.273.124-.538.207-.802.004-.014.02-.053.036-.09.06-.14.123-.279.193-.414.123-.238.27-.457.412-.682l.026-.043.018-.02c.085-.098.171-.196.263-.291.071-.074.152-.143.223-.218.02-.022.025-.03.039-.046l.02-.013c.086-.058.168-.121.255-.178.071-.048.145-.093.219-.137l.062-.023c-.005-.003-.013-.002-.02-.006.003.002.045-.01.093-.022l.009-.003c.057-.028.098-.046.127-.056.021 0 .03 0 .058-.002h.002c0 .002-.005.004-.006.006l.02-.006.002-.001c.089-.007.18-.015.267-.025.003 0 .002 0 .004.002.114.035.283.022.402.032.011.002.013.001.023.002.02.007.033.013.065.022.124.038.251.073.376.108.053.016.105.035.157.055l.05.022c.229.123.458.239.676.383.429.284.611.454 1.038 1.003.404.518.516.716.738 1.334.202.561.348 1.298.354 1.754-.008.566-.073 1.126-.222 1.674m-1.28 2.098c.078-.056.14-.098 0 0m1.44-11.097c-3.267-1.134-7.342.09-9.474 2.737-1.978 2.457-2.296 5.762-.682 8.486 1.702 2.874 5.279 3.844 8.453 3.128 3.56-.801 6.466-3.836 6.515-7.484-.042-3.093-1.769-5.81-4.813-6.867" transform="translate(-259 -4477) translate(208 3647) translate(0 568) translate(51 262)"/>
                        <path fill="#000" d="M279.661 120.443c-.048.015-.147.045-.233.069-.02.01-.05.02-.09.035.101.043.281-.056.323-.104M281.501 128.502l.029-.011c-.016.003-.035.009-.06.018l.031-.007" transform="translate(-259 -4477) translate(208 3647) translate(0 568) translate(51 262)"/>
                        <path fill="#000" d="M281.494 128.501h.006l.006-.002h-.007l-.005.002" transform="translate(-259 -4477) translate(208 3647) translate(0 568) translate(51 262)"/>
                        <path fill="#FFF" d="M284 122.056L282.117 124 280 122.056 282.117 120z" transform="translate(-259 -4477) translate(208 3647) translate(0 568) translate(51 262)"/>
                        <path fill="#000" d="M226 122c0 3.314-2.463 6-5.5 6s-5.5-2.686-5.5-6c0-3.313 2.463-6 5.5-6s5.5 2.687 5.5 6" transform="translate(-259 -4477) translate(208 3647) translate(0 568) translate(51 262)"/>
                        <path fill="#000" d="M223.51 124.863c-.14.232-.304.443-.461.662l-.042.06-.02.02c-.093.095-.187.187-.285.277-.077.07-.16.135-.24.204-.004.005-.004.006-.01.01l-.004.002c-.033.012-.105.072-.174.124-.052.024-.105.048-.157.07l-.044.01h.02l-.009.005-.026.014c-.02.004-.048.008-.088.013l-.049.008H221.902l-.035.007c-.02.005-.034.008-.04.011.009-.008.019-.015.032-.02l-.061-.002c.038.003-.056.003-.147-.005l-.057-.002.05.001c-.03-.002-.058-.005-.081-.01-.128-.028-.26-.057-.388-.082-.041-.008-.066-.011-.09-.014l-.076-.036c-.965-.418-1.59-.87-2.257-1.802-.602-.84-.926-1.927-1.01-2.98-.04-.504.009-1.007.106-1.503.05-.25.112-.498.19-.74.095-.296.211-.575.29-.721.127-.239.27-.47.429-.69.062-.087.131-.169.193-.256l.042-.06.022-.02c.166-.172.346-.323.523-.482.015-.013.018-.018.03-.029l.05-.025.133-.083.095-.054.069-.028v-.002l.006-.001.014-.009c.019-.007.054-.012.103-.018l.03-.007.013.001.012.001.017-.002c.034-.002.046-.004.058-.006l-.009.01.248.007c-.489-.009.004.003.11.024.142.026.282.061.422.1.021.006.04.013.053.018.168.073.336.14.5.223.27.137.428.233.548.324.463.35.87.782 1.209 1.255.678.946.98 2.171 1.02 3.357-.019.52-.078 1.037-.212 1.542-.147.555-.299.92-.546 1.33m-1.326 1.416c-.007 0-.025.005-.038.006l.111-.053c-.024.017-.048.035-.07.047h-.003m-2.551-9.436c.026-.03.09-.055.154-.078l-.155.078m9.368 4.031c-.037-2.847-1.837-5.517-4.546-6.438-3.471-1.181-7.614.106-9.899 2.966-1.877 2.35-2.053 5.729-.538 8.295 1.74 2.948 5.243 3.79 8.415 3.047 3.525-.826 6.518-3.761 6.568-7.533 0-.058-.016-.103-.024-.155.008-.06.025-.117.024-.182" transform="translate(-259 -4477) translate(208 3647) translate(0 568) translate(51 262)"/>
                        <path fill="#000" d="M221.415 126.497l.18.006c-.022-.002-.082-.004-.19-.006h.01M219.65 117.468l-.08-.002-.068.007-.143.032c-.003 0-.003.002-.006.003h-.002c-.021.033.185.05.3-.04" transform="translate(-259 -4477) translate(208 3647) translate(0 568) translate(51 262)"/>
                        <path fill="#000" d="M221.369 126.523c.018 0 .036 0 .053.002.066-.018.14-.035.21-.05-.06-.001-.18.012-.263.048M285.045 91.794l.056.022c.461.176.1.075-.056-.022m13.691 7.514c-2.097-2.233-4.14-4.517-6.382-6.595l-2.469-2.289c-.471-.436-.934-.976-1.455-1.35-.509-.362-1.236-.546-1.802-.774l-3.09-1.25c-.656-.266-1.31-.582-1.983-.802-.695-.23-1.597-.14-2.333-.15-1.859-.022-3.75-.154-5.606-.07-1.54.07-3.102.38-4.632.572-.75.094-1.504.173-2.252.282-.856.124-1.495.462-2.247.843l-3.257 1.654c-.759.385-1.491.709-2.078 1.367-1.292 1.452-2.52 2.973-3.778 4.457-.682.804-.39 1.853.572 2.206 1.044.383 2.438-.02 3.166-.878l3.568-4.21c1.44-.732 2.881-1.463 4.323-2.194 2.038-.282 4.098-.646 6.141-.76 2.005-.112 4.048.013 6.065.065l3.763 1.523c.68.275 1.359.564 2.045.827.083.112.369.323.415.366l3.924 3.637.509.472c.41.489.88.937 1.316 1.4l3.455 3.678c.787.838 2.062.81 3.035.326.674-.335 1.86-1.507 1.067-2.353M274.39 79.48c.075.022.149.035.22.041-.075-.01-.146-.023-.21-.042l-.01.001" transform="translate(-259 -4477) translate(208 3647) translate(0 568) translate(51 262)"/>
                        <path fill="#000" d="M305.913 100.758c-.169-.863-.254-1.805-.518-2.645-.212-.682-.597-1.35-.887-2.001l-1.627-3.654c-.236-.527-.441-1.009-.8-1.465L299.88 88.2c-.622-.791-1.202-1.702-1.909-2.424-.412-.42-1-.731-1.485-1.067l-3.258-2.259c-1.442-1-2.926-1.675-4.53-2.414-1.047-.483-2.086-.99-3.145-1.449-.703-.305-1.417-.304-2.17-.333-2.281-.089-4.645-.378-6.924-.191-2.294.19-4.585.41-6.877.616-.778.07-2.4.557-2.566 1.477-.18.986 1.348.941 1.923.89l3.617-.324 2.288-.205.617-.055c-.013-.005-.027-.006-.04-.01.014.005.034.005.05.01.065-.007.13-.012.196-.02.43-.04.24.072-.034.052.311.039.713-.007.976.003l2.392.094 2.988.116 3.802 1.75c.702.324 1.397.674 2.11.972.138.059.194.086.21.092.088.06.177.123.266.186 1.515 1.05 3.03 2.1 4.546 3.153.874.606 1.365 1.273 2.033 2.12l1.841 2.338c.395.501.777 1.17 1.256 1.6.081.25.222.497.329.737l1.174 2.635c.464 1.041 1.106 2.119 1.382 3.227.42 1.689.672 3.438 1.006 5.147.562 2.877 1.042 5.769 1.546 8.656.251 1.44 4.775.384 4.499-1.195-.663-3.796-1.336-7.584-2.075-11.366M227.504 92.091l-3.246-1.958c-1.071-.646-2.331-1.734-3.596-1.975-1.247-.237-2.582-.226-3.847-.326-1.278-.101-2.594-.306-3.877-.28-1.504.03-3.06 1.079-4.37 1.712-1.228.595-2.471 1.168-3.688 1.784-1.195.604-1.923 1.909-2.698 2.951-.213.285-.43.568-.647.85l.582-1.399.927-2.233c.096-.231.207-.46.29-.696.018-.053.05-.113.08-.166.187-.187.363-.386.544-.579l1.68-1.786 2.002-2.13 5.527-2.039 6.567-.694c.962-.101 2.354-.648 2.488-1.74.132-1.07-1.21-1.465-2.06-1.375l-6.438.68c-2.017.214-3.98 1.18-5.866 1.875-.862.317-1.773.583-2.608.962-.866.392-1.53 1.296-2.162 1.97l-2.773 2.95c-.452.48-.933.917-1.22 1.511-.983 2.038-1.747 4.203-2.614 6.29-.671 1.616 1.368 2.041 2.888 1.542-.571.861-.943 1.887-1.384 2.813l-1.84 3.87c-1.004 2.112 3.512 1.852 4.246.307l1.56-3.28c.512-1.076.944-2.256 1.56-3.28.62-1.03 1.474-1.979 2.193-2.944l1.744-2.342 5.075-2.453c1.884.148 3.768.297 5.651.447l5.809 3.502c.928.56 2.363.234 3.206-.335.704-.476 1.248-1.444.315-2.006M242.813 195.007c-1.132.094-2.28.663-2.63 1.738l-1.456 4.474c-.347 1.068-.773 2.126-.96 3.231-.497 2.925-1.028 5.845-1.414 8.786-.402 3.08-.77 6.139-1.048 9.23-.12 1.333-.389 2.73-.28 4.07.147 1.799.337 3.595.505 5.393.289 3.09 1.227 6.07 1.981 9.086.484 1.931 5.222.752 4.73-1.21l-1.135-4.534c-.27-1.083-.623-2.16-.727-3.27l-.53-5.672c-.027-.28-.049-.562-.08-.842.213-.584.13-1.429.184-2.04.553-6.144 1.365-12.218 2.4-18.304.511-3.015 1.655-5.894 2.603-8.808.346-1.067-1.428-1.388-2.143-1.328" transform="translate(-259 -4477) translate(208 3647) translate(0 568) translate(51 262)"/>
                        <path fill="#FFF" d="M225 121.115L222.604 123 221 121.115 222.604 119z" transform="translate(-259 -4477) translate(208 3647) translate(0 568) translate(51 262)"/>
                        <path fill="#C58FFF" d="M204.111 44L200.597 38.158 198.577 31.672 198 24.877 200.82 18.63 205.613 13.664 211.712 10.288 218.456 8.555 225.218 7.044 232.116 6.362 239.026 5.861 245.946 5 253 5.444 245.98 7.688 239.605 11.238 234.217 16.097 231.558 22.727 233.93 29.567 239.416 34.348 245.3 38.559" transform="translate(-259 -4477) translate(208 3647) translate(0 568) translate(51 262)"/>
                        <path fill="#000" d="M202.505 37.521c-.002-.014-.005-.028-.01-.042.002.011.001.02.002.03l.007.012M240.405 12.56c.294-.156.209-.166 0 0" transform="translate(-259 -4477) translate(208 3647) translate(0 568) translate(51 262)"/>
                        <path fill="#000" d="M253.461 3.468l-4.416-.28c-1.203-.077-2.489-.285-3.69-.134-2.784.349-5.56.749-8.36.953-2.947.214-5.882.448-8.821.74-1.35.135-2.737.191-4.067.469-1.687.351-3.365.757-5.046 1.135-2.708.61-5.403 1.304-8.08 2.037-1.246.34-2.345 1.102-3.464 1.727l-2.556 1.425c-.665.371-1.38.708-1.921 1.247-1.05 1.045-2.052 2.141-3.077 3.21-.82.855-1.743 1.623-2.231 2.712l-2.216 4.94c-.277.619-.565 1.116-.509 1.816.043.539.09 1.075.135 1.613.144 1.69.183 3.427.432 5.107.176 1.192.704 2.397 1.06 3.547.38 1.23.636 2.616 1.273 3.744.854 1.515 1.786 2.99 2.678 4.484l.772 1.294c1.068 1.789 5.409.059 4.171-2.013l-2.215-3.71c-.378-.633-.74-1.281-1.135-1.903.002.021.004.042-.002.06.006-.017-.001-.045-.004-.07-.012-.018-.022-.038-.035-.056-.235-.367-.014-.146.034.033-.026-.155-.147-.403-.176-.494l-1.579-5.104c-.293-.947-.347-1.824-.431-2.818-.122-1.457-.246-2.912-.369-4.368l1.278-2.85.946-2.11c.114-.254.24-.506.343-.764l.014-.031c.025-.03.05-.058.07-.077.203-.193.389-.407.582-.608l1.609-1.678 2.051-2.14 4.165-2.323c.36-.2.72-.4 1.079-.602l.02-.01c-.067.014-.14.022-.22.018.07.004.152-.015.228-.022.418-.228.306-.067.018-.001.614-.058 1.377-.397 1.921-.538 3.415-.883 6.83-1.692 10.273-2.466.262-.06.526-.115.789-.178.843-.06 1.686-.169 2.527-.252 1.46-.146 2.92-.315 4.383-.43 3.318-.262 6.614-.476 9.915-.89.647-.082 1.293-.163 1.94-.243-.311.18-.62.367-.93.541l-3.213 1.802c-.58.325-1.255.625-1.78 1.037-1.564 1.228-2.98 2.707-4.453 4.043-.538.49-1.297 1.04-1.616 1.687-.379.77-.645 1.62-.962 2.416l-1.302 3.267c-.25.629-.615 1.282-.454 1.967.474 1.999 1.37 3.978 2.04 5.922.23.67.368 1.202.921 1.704.669.606 1.358 1.192 2.036 1.787 1.316 1.155 2.584 2.398 4.008 3.424l5.33 3.84c.93.671 2.415.398 3.274-.26.785-.6 1.16-1.721.232-2.389-1.97-1.42-4.025-2.766-5.928-4.272-1.771-1.403-3.426-2.981-5.117-4.486l-2.148-6.235 2.35-5.898 2.8-2.543c.605-.549 1.233-1.08 1.818-1.65.04-.04.079-.074.114-.101-.079.041-.186.095-.343.162.175-.075.342-.19.508-.285 1.643-.92 3.284-1.84 4.925-2.762.254-.141.536-.268.774-.433l.03-.024c.53-.157 1.055-.345 1.578-.514l5.07-1.632c.797-.257 1.788-.812 1.885-1.75.086-.84-.75-1.464-1.533-1.513" transform="translate(-259 -4477) translate(208 3647) translate(0 568) translate(51 262)"/>
                        <path fill="#000" d="M212.484 11.503l.032-.006-.023.002-.009.004" transform="translate(-259 -4477) translate(208 3647) translate(0 568) translate(51 262)"/>
                        <path fill="#C58FFF" d="M277 27.675L283.193 24.915 289.73 23.212 296.161 21.085 302.861 20.191 309.607 20 316.338 20.424 322.825 22.268 329.081 24.701 334.765 28.317 339.811 32.825 344.219 38.034 347.577 44.017 350.534 50.232 352.255 56.916 353.826 63.612 355.409 70.336 356 77 352.592 71.332 348.832 65.693 344.195 60.79 338.782 56.879 332.892 53.733 326.267 52.62" transform="translate(-259 -4477) translate(208 3647) translate(0 568) translate(51 262)"/>
                        <path fill="#000" d="M331.26 54.858c.025.004.05.01.075.01.193 0-.001.08-.075-.01M315.1 21.942c.07.005.14.011.21.013.33.009-.016.008-.21-.013m42.332 47.806c-.22-1.879-.855-3.77-1.29-5.61-.793-3.35-1.554-6.709-2.416-10.042-.446-1.72-.725-3.58-1.492-5.185-.876-1.832-1.694-3.709-2.635-5.506-1.007-1.92-2.132-3.786-3.199-5.673-.938-1.66-2.474-3.073-3.7-4.516-1.122-1.318-2.386-2.395-3.678-3.546-1.345-1.196-2.593-2.25-4.104-3.206-1.502-.95-3.007-2.183-4.668-2.826-2.018-.78-4.028-1.708-6.098-2.335-1.974-.596-3.97-1.123-5.955-1.686-1.797-.508-3.87-.371-5.718-.488-3.506-.219-7.123-.18-10.607.282-1.997.264-4.176.312-6.113.898-2.05.619-4.055 1.399-6.107 2.011-1.882.562-3.81.993-5.711 1.485-1.84.477-3.546 1.36-5.283 2.132l-2.302 1.02c-.6.267-1.796 1.003-1.189 1.797.575.753 2.269.33 2.932.035l5.686-2.522c.038-.018.073-.03.108-.043-.057.009-.113.018-.188.027.114-.014.23-.048.344-.077.041-.012.075-.02.104-.025.219-.06.437-.128.646-.182l3.64-.944c1.641-.425 3.232-.943 4.846-1.474 1.018-.335 2.094-.604 3.086-1.015.406-.05.813-.107 1.218-.162 1.3-.171 2.598-.344 3.898-.517.324-.043.69-.054 1.015-.132l.089-.002c2.056-.058 4.131-.21 6.188-.175 2.021.034 4.055.254 6.073.38l.162.01c.13.108.85.227.942.254l3.666 1.037 1.413.4c.054.016.109.035.166.053.92.42 1.905.734 2.847 1.098 1.596.619 3.058 1.15 4.5 2.064l3.249 2.057c.282.179.564.37.853.543.056.07.241.203.264.223 1.554 1.384 3.23 2.694 4.695 4.177 1.398 1.416 2.617 3.074 3.908 4.593.109.13.213.27.332.391l.116.117.002.002.316.563 1.88 3.333c.826 1.465 1.559 2.937 2.286 4.458.764 1.597 1.568 3.085 2.011 4.8 1.02 3.94 1.98 7.884 2.916 11.847l.61 2.583-.843-1.26c-.547-.814-1.215-1.469-1.891-2.18-1.03-1.085-2.012-2.304-3.132-3.296-.963-.853-2.131-1.54-3.174-2.29-.908-.653-1.798-1.397-2.774-1.943-1.456-.815-2.95-1.568-4.422-2.352-.51-.27-1.028-.623-1.595-.76-.572-.138-1.175-.196-1.755-.294l-4.824-.806c-1.05-.176-2.332.118-3.135.858-.663.61-.534 1.42.414 1.578l4.033.675c.73.122 1.461.27 2.194.367.045.005.091.016.138.026.076.046.158.085.235.125l4.523 2.405c.232.124.461.259.699.372.055.027.094.044.121.055.419.322.862.617 1.29.925 1.256.905 2.608 1.744 3.802 2.736.894.742 1.66 1.717 2.462 2.561.768.808 1.649 1.583 2.32 2.477.972 1.297 1.818 2.715 2.72 4.063 1.529 2.28 2.907 4.659 4.327 7.01.435.721 2.084.335 2.642.135.686-.246 1.714-.732 1.635-1.622-.188-2.113-.318-4.239-.564-6.346" transform="translate(-259 -4477) translate(208 3647) translate(0 568) translate(51 262)"/>
                        <path fill="#000" d="M284.282 26.552c.477-.071.517-.124.339-.095-.046.012-.09.019-.135.03-.061.016-.13.038-.204.065M264.363 195.446c.042.07.162.1.274.108l-.105-.072c-.057-.012-.113-.022-.169-.036M276.532 191.614v-.04c-.018-.05-.037-.113-.055-.189-.02.079-.013.167.055.23" transform="translate(-259 -4477) translate(208 3647) translate(0 568) translate(51 262)"/>
                        <path fill="#000" d="M272.539 196.778l-4.245-2.733c-.796-.512-1.403-.831-2.33-1.025l-4.799-1c-.655-.138-1.325-.324-1.998-.26-.394.037-.788.118-1.18.175l-4.842.722c-2.372.353-4.746.7-7.119 1.05l-6.285-1.243c-1.937-.383-3.826-1.109-5.71-1.69-1.06-.328-2.308-.92-3.443-.799-.946.101-1.897.34-2.832.507-2.182.39-4.47.62-6.547 1.415l-5.409 2.069-3.584-3.475c-.046-.045-.108-.125-.173-.19.018-.244-.1-.873-.108-.994l-.312-4.045c-.036-.463-.067-.926-.107-1.388-.003-.033-.006-.045-.009-.071.015-.015.032-.037.055-.08.456-.871.618-2.061.9-3.002l1.086-3.627c.02-.065.177-.435.234-.659.08-.124.144-.291.208-.403l2.968-5.238c1.848-.272 3.706-.529 5.524-.914l.01-.003c.02.004.035.007.059.01.638.088 1.283.14 1.923.208 1.425.155 2.848.318 4.274.463 2.25.23 4.522.425 6.78.549 1.337.074 2.42-.508 3.599-1.033l4.152-1.85c.058-.026.122-.05.186-.075h.006c.713-.153 1.42-.343 2.13-.514l3.436-.828 5.871.339 4.383 2.13c.366.18.73.378 1.105.539.093.04.152.069.193.089.507.536 1.147 1.003 1.692 1.488 2.67 2.378 5.346 4.747 8.025 7.114 1.003.888 1.624 2.055 2.365 3.17l1.798 2.713c.08.118.193.376.315.536-.05-.084-.031-.133.017.016.033.04.067.08.1.1-.043-.026-.073-.059-.097-.09.014.045.029.1.046.18.419 2.004 1.011 3.985 1.515 5.968.01.042.046.28.088.46.029-.106.111-.18.066-.037-.017.055-.02.118-.023.182.013.032.026.058.039.064-.018-.008-.027-.02-.04-.032 0 .057 0 .115-.003.166l-.221 3.02c-.118 1.623-.26 3.244-.407 4.863-.393-.494-.789-.984-1.195-1.465-.561-.665-1.406-1.075-2.13-1.542m-58.833-20.245c.027-.027.052-.061.076-.097-.066.122-.203.22-.076.097m.076-.098c.02-.079.028-.14.012-.163.034.047.018.107-.012.163m29.624-8.272c-.172.052-.265.059 0 0m.318-.138c-.049.033-.111.06-.174.086.061-.026.123-.051.174-.086m36.68 20.229c-.37-1.452-.692-2.925-1.109-4.362-.236-.818-.82-1.508-1.288-2.213l-2.596-3.913c-.427-.644-.955-1.067-1.54-1.583l-3.55-3.138c-1.752-1.549-3.496-3.109-5.243-4.664-.662-.59-1.274-.942-2.073-1.33-1.427-.696-2.854-1.39-4.281-2.083-.897-.436-1.696-.618-2.688-.675l-4.79-.277c-2.615-.15-5.19.775-7.717 1.384-2.407.58-4.635 1.796-6.89 2.8l-.072.033c-3.049-.244-6.093-.49-9.135-.82-1.585-.17-3.216-.525-4.801-.268l-6.402 1.04c-1.145.187-2.312.425-2.979 1.486-.48.765-.894 1.58-1.34 2.366l-1.789 3.157c-.291.514-.626 1.015-.815 1.578-.64 1.907-1.158 3.864-1.735 5.79-.174.58-.475 1.226-.548 1.829-.09.735.107 1.596.163 2.325l.303 3.932c.058.752.061 1.147.612 1.68l4.546 4.409c.327.42.874.536 1.438.509.54-.002 1.096-.148 1.543-.349 2.533-.97 5.112-1.862 7.616-2.905l.077-.014 2.605-.466 3.596-.644 5.705 1.761c1.607.496 3.246.774 4.896 1.101 1.927.38 3.871.994 5.834.706 1.977-.292 3.955-.58 5.932-.875 2.105-.312 4.21-.626 6.314-.94l4.274.892c.391.08.783.163 1.175.245.031.006.064.016.097.024-.014-.022-.018-.049-.005-.082-.004.01.054.053.134.109.039.008.077.017.114.02.231.016.111.048-.033.036.368.242 1.084.671 1.145.711l5.039 3.245c.067.043.23.188.36.264l.05.072c.456.665 1.002 1.284 1.498 1.92 1.142 1.462 2.282 2.926 3.424 4.389.885 1.134 4.151.326 4.297-1.155.468-4.725 1.056-9.486 1.226-14.233.033-.942-.366-1.922-.594-2.824" transform="translate(-259 -4477) translate(208 3647) translate(0 568) translate(51 262)"/>
                        <path fill="#000" d="M274.509 184.504c-.007-.01-.014-.012-.022-.022.006.012.017.024.025.036 0-.006-.002-.01-.003-.014" transform="translate(-259 -4477) translate(208 3647) translate(0 568) translate(51 262)"/>
                        <path fill="#C58FFF" d="M227.876 107L235.322 109.817 237.46 117.009 236.591 123.937 235.728 130.852 233.481 137.351 229.483 143.423 226.015 149.767 225 156.878 226.718 162.432 230.428 166.808 235.842 168.837 242.41 166.93 248.879 164.426 256.19 166.911 257.15 167.404 261.164 162.782 260.898 156.997 258.285 151.748 262.937 155.888 267.485 160.526 271.314 165.767 274.719 171.327 276.473 177.59 277 184" transform="translate(-259 -4477) translate(208 3647) translate(0 568) translate(51 262)"/>
                        <path fill="#000" d="M215.083 53.114c-1.019-.315-2.51.04-3.224.856-1.58 1.807-3.081 3.738-4.765 5.45-1.585 1.61-3.394 3.05-5.101 4.544l-2.942 1.646c-.76.427-1.521.853-2.281 1.278-.182.102-.401.19-.566.317-.015.011-.013.014-.023.023-2.285.752-4.545 1.674-6.876 2.257-2.519.63-5.087 1.156-7.56 1.947l-5.098 1.631c-1.151.37-2.14.871-3.166 1.5l-4.433 2.717c-.917.562-1.548 1.407-2.256 2.203-1.064 1.195-2.164 2.37-3.197 3.593-.745.881-1 2.176-1.387 3.241-.483 1.328-.97 2.653-1.448 3.982-.435 1.215-.339 2.716-.446 3.99-.108 1.281-.414 2.692-.281 3.98.14 1.37.425 2.741.635 4.103.409 2.64.898 5.252 1.403 7.877.177.922.302 1.842.625 2.724l1.787 4.896.447 1.224c.334.915 1.529.999 2.347.846.73-.136 2.25-.705 2.232-1.664l-.11-5.822c-.029-1.582.247-3.156.425-4.725.173-1.52.353-2.908.74-4.383l.937-3.57c.09-.347.201-.696.276-1.048.023-.02.043-.036.077-.073.82-.898 1.488-2.004 2.212-2.98l1.344-1.81 2.122-1.668 1.723-1.354c.28-.22.764-.48.988-.77l.17-.087 1.948-.993c1.06-.54 2.111-1.105 3.183-1.622 3.874-1.87 7.908-3.396 11.8-5.22.984-.46 1.874-1.151 2.775-1.747l3.236-2.14c.741-.49 1.215-1.55.301-2.126-.95-.6-2.39-.246-3.255.327-1.671 1.105-3.449 2.13-5.053 3.332-.066.031-.13.065-.186.09-.565.244-1.13.49-1.696.733l-3.511 1.521c-3.548 1.538-7.01 3.196-10.452 4.95-.735.376-1.55.713-2.227 1.187-.907.633-1.753 1.378-2.621 2.06-.836.657-1.682 1.303-2.507 1.97-.74.6-1.283 1.5-1.847 2.258-1.14 1.538-2.727 3.077-3.219 4.95-.418 1.593-.932 3.198-1.307 4.812-.33-1.9-.645-3.802-.941-5.714l-.182-1.17c-.005-.034-.008-.087-.012-.141.059-.197.027-.533.042-.703l.135-1.602c.096-1.149.192-2.298.29-3.446.028-.332.109-.705.087-1.037-.004-.06-.01-.094-.017-.122.663-1.796 1.31-3.6 1.963-5.4.102-.277.29-.607.328-.9.002-.013-.001-.014-.001-.025.61-.631 1.172-1.319 1.755-1.974l2.374-2.668c.041-.046.088-.093.133-.14.209-.101.54-.37.634-.428l4.766-2.92c2.314-.757 4.623-1.584 6.984-2.174 2.913-.728 5.811-1.409 8.659-2.358 1.55-.517 3.103-1.02 4.649-1.55 1.467-.503 2.816-1.452 4.162-2.205 1.287-.72 2.795-1.37 3.907-2.344 1.323-1.159 2.629-2.338 3.943-3.506 2.282-2.03 4.177-4.417 6.184-6.713.66-.754.458-1.666-.534-1.973" transform="translate(-259 -4477) translate(208 3647) translate(0 568) translate(51 262)"/>
                        <path fill="#C58FFF" d="M329 185.246L333.014 192 339.274 190.049 343.096 183.93 345.498 177.071 347.649 170.137 350.519 163.479 352.958 156.641 356.548 150.378 358.669 143.871 359 137.057 357.505 130.435 353.97 124.855 348.165 123 342.32 126.624 338.167 132.27 336.458 139.054" transform="translate(-259 -4477) translate(208 3647) translate(0 568) translate(51 262)"/>
                        <path fill="#000" d="M339.49 133.51c.007-.005.013-.011.02-.02l-.015.011-.005.01" transform="translate(-259 -4477) translate(208 3647) translate(0 568) translate(51 262)"/>
                        <path fill="#000" d="M343.686 128.735l.016-.019c.276-.323.127-.126-.016.019m17.367 4.124c-.161-.752-.25-1.577-.495-2.307-.25-.744-.878-1.442-1.303-2.084l-2.096-3.163c-.444-.67-.758-1.226-1.58-1.491-1.971-.639-4.01-1.135-6.01-1.679-1.363-.37-2.41.06-3.515.8l-2.914 1.948c-.837.56-1.723 1.08-2.525 1.688-.475.359-.851.84-1.244 1.283-1.382 1.56-2.913 3.064-4.181 4.718-.415.542-.719 1.211-1.054 1.803-.633 1.12-.868 2.058-1.502 3.178-.336.595.336 1.568 0 2.163-.566 1-.895 1.692 0 1.822 1.17.17 2.353-.396 2.93-1.418l2.259-3.993c.395-.699.795-1.394 1.186-2.096-.014.012-.026.023-.035.021.007.002.025-.019.038-.027.01-.02.022-.038.032-.057.3-.539.099-.088-.019.047.1-.086.302-.36.334-.397l3.724-4.202c.173-.196.349-.391.521-.589.487-.148 1.093-.748 1.495-1.017l3.202-2.14 4.454 1.243 1.602 2.418 1.316 1.988c.118.178.234.36.356.537-.012.506.734 3.25.792 3.52l.467 2.177c.038.174.07.353.11.527-.115.27-.06 1.065-.078 1.282l-.21 2.459-.183 2.148c-.015.175-.053.373-.05.553-.554 1.096-.875 2.413-1.296 3.555-.322.87-.594 1.785-.981 2.627-.986 2.147-2.29 4.145-3.29 6.285-1.009 2.16-1.776 4.433-2.747 6.61-.962 2.157-2.16 4.216-3.08 6.392-.338.797-.516 1.687-.756 2.519-.407 1.41-.805 2.823-1.22 4.23-.646 2.183-1.718 4.295-2.58 6.402-.848 2.07-2.056 4.018-3.115 5.987l-3.948 1.025-3.507-5.7c-1.125-1.827-5.403-.048-4.119 2.04l4.178 6.789c.477.776 1.73.814 2.495.615l5.797-1.506c1.15-.299 2.242-.505 2.902-1.658.437-.762.829-1.553 1.242-2.327.775-1.452 1.685-2.889 2.31-4.415.822-2.006 1.671-4.004 2.465-6.021.624-1.587.99-3.31 1.462-4.946.438-1.516.892-2.767 1.575-4.184 1.703-3.532 3.247-7.074 4.752-10.696 1.196-2.877 3.018-5.447 4.1-8.377.43-1.169.862-2.338 1.293-3.506.232-.628.549-1.285.646-1.951.298-2.05.356-4.165.532-6.23.05-.588-.05-1.105-.172-1.678l-.762-3.544z" transform="translate(-259 -4477) translate(208 3647) translate(0 568) translate(51 262)"/>
                        <path fill="#000" d="M350.744 136.311l-1.76-4.158c-.453-1.071-1.705-1.329-2.78-1.047-.836.219-2.326 1.193-1.871 2.265l1.456 3.442.994 2.345c.04.094.318.943.47 1.19-.022.208-.028.419-.044.624l-.192 2.479c-.107 1.389-.182 2.785-.321 4.172-.252 2.487-.813 4.953-1.02 7.442.016-.045.038-.082.07-.09-.018.005-.044.05-.073.107-.003.037-.01.074-.012.112-.027.346-.049.095-.002-.083-.059.122-.123.286-.137.314l-.949 1.91c-.716 1.439-1.43 2.88-2.147 4.32-.115.23-.239.458-.357.69-.588-.433-1.456-.676-2.037-.911l-2.531-1.025c-.997-.403-2.68-.064-3.29.862l-2.254 3.418-1.447 2.195c-.319.483-.748 1.012-.927 1.556-.415 1.267-.54 2.688-.794 3.992-.256 1.318-.51 2.635-.767 3.953-.222 1.144 1.283 1.665 2.183 1.611 1.143-.068 2.321-.752 2.545-1.905l1.419-7.313 2.833-4.296 1.09.44.641 4.552c.124.887 1.414 1.193 2.146 1.149.985-.059 1.961-.578 2.417-1.448 1.153-2.201 2.328-4.392 3.458-6.605.593-1.158 1.158-2.33 1.738-3.496.572-1.149 1.272-2.3 1.737-3.495.451-1.158.426-2.625.592-3.837.195-1.419.424-2.836.585-4.259.285-2.509.518-5.096.593-7.62.035-1.201-.796-2.467-1.255-3.552" transform="translate(-259 -4477) translate(208 3647) translate(0 568) translate(51 262)"/>
                        <path fill="#000" d="M345.51 155.471c-.007.019-.014.036-.02.058l.018-.037.002-.021" transform="translate(-259 -4477) translate(208 3647) translate(0 568) translate(51 262)"/>
                        <path fill="#C58FFF" d="M342.196 89L344.768 95.369 347.24 101.764 350.663 107.754 353.701 113.901 358.184 119.118 363.622 123.319 369.911 126.162 376.717 127.66 383.11 130.14 386.118 136.329 387 143.313 385.688 150.243 384.298 157.146 381.643 163.684 378.759 170.095 376.139 176.65 372.084 182.446 367.382 188 369.034 181.438 370.602 175.03 372.032 168.562 372.582 161.956 371.851 155.368 371.047 148.782 367.41 143.118 361.108 140.652 354.546 140.315 348.348 138.164 343.02 134.554 339.08 129.632 336.824 123.666 333 119.668" transform="translate(-259 -4477) translate(208 3647) translate(0 568) translate(51 262)"/>
                        <g transform="translate(-259 -4477) translate(208 3647) translate(0 568) translate(51 262) translate(329 74)">
                            <mask id="m6e3jgkorb" fill="#fff">
                                <use xlink:href="#s2wp9o5mda"/>
                            </mask>
                            <path fill="#000" d="M48.71 73.846c.086.178.022.121 0 0m.025-.215c-.014.028-.02.065-.03.1.005-.034.013-.067.03-.1M16.699 60.455l-.191-.193c.01.005.48.489.19.193m42.429-1.234L57.4 54.897c-.259-.648-.485-1.204-1.212-1.508-.385-.163-.804-.273-1.2-.406l-4.593-1.55c-2.36-.798-4.895-.76-7.372-.957-.375-.03-.971-.182-1.375-.127-.145-.05-.293-.098-.437-.148l-4.583-1.62c-.417-.146-.933-.429-1.385-.5l-.345-.224-4.045-2.632c-.425-.276-.872-.67-1.341-.872-.013-.006-.016-.005-.026-.008l-.168-.178c-1.082-1.141-2.163-2.282-3.243-3.424-1.625-1.714-3.092-3.537-4.594-5.357-1.49-1.806-2.688-3.726-3.95-5.697-1.25-1.951-2.49-3.91-3.728-5.868l-1.125-1.78c-.06-.094-.122-.21-.19-.313-.43-1.323-1.002-2.619-1.497-3.92C9.349 13.496 7.568 9.24 5.973 4.91L4.825 1.795C4.43.719 3.111.49 2.09.758 1.224.986 3.845 12.26 5.616 16.909c.944 2.48 1.656 5.212 3.084 7.471 1.408 2.228 2.813 4.46 4.235 6.679 1.452 2.267 2.83 4.486 4.545 6.565 1.729 2.094 3.448 4.121 5.317 6.094.923.974 1.829 1.965 2.768 2.922.976.995 2.408 1.677 3.573 2.435 1.084.705 2.186 1.629 3.387 2.14 1.346.575 2.794.987 4.175 1.476 1.09.385 2.264.97 3.424 1.11 1.626.198 3.279.261 4.91.39.656.052 1.344.171 2.002.16.127.04.256.076.374.116l4.975 1.68.53.18.836 2.091c.448 1.122.778 2.481 1.406 3.52.022.035.036.05.052.07-.008.538.016 1.08.023 1.617l.059 4.213c.027 1.993-.153 3.99-.257 5.98l-.081 1.543c-.01.192-.006.277.005.305-.32 1.145-.638 2.29-.957 3.436-.688 2.47-1.509 4.893-2.4 7.295.027-.15.057-.3.081-.45.396-2.535.812-5.063 1.113-7.61.19-1.603.456-3.215.57-4.823.074-1.059-.646-2.097-1.071-3.042-.584-1.293-1.15-2.593-1.75-3.879-.406-.873-1.174-1.07-2.04-1.244l-2.269-.455c-1.355-.273-2.729-.645-4.1-.825-.685-.089-1.416.115-2.092.244-.857.164-1.714.328-2.572.49l-2.504.479-.396.075c-.519-.133-1.202-.043-1.734-.061l-2.838-.1-2.116-.073c-.548-.02.236-.06.323.007-.106-.084-.402-.09-.534-.12-1.666-.37-3.332-.743-4.998-1.115l-.682-.152c-.801-.51-1.604-1.019-2.405-1.527l-1.995-1.266c-.144-.092-.918-.732-1.086-.689l-.32-.322-1.589-1.598c-.844-.849-1.875-1.669-2.603-2.618-.569-.74-.945-1.718-1.387-2.537-.604-1.114-1.143-2.308-1.826-3.38l-.155-.354-.848-1.92c-.528-1.194-1.199-2.4-1.607-3.638-.316-.956-.352-2.066-.503-3.059l-.591-3.874c-.171-1.127-3.958 5.25-3.649 7.276.245 1.603 1.159 3.103 1.812 4.582.7 1.585 1.418 3.115 2.244 4.64l1.811 3.35c.246.454.43.847.791 1.211 1.514 1.521 3.019 3.051 4.54 4.564.546.543 1.232.906 1.883 1.319l3.247 2.06c.733.466 1.36.905 2.226 1.107 1.031.241 2.067.461 3.1.693 1.77.395 3.422.8 5.232.864l4.342.151c.874.031 1.646.07 2.507-.088 1.942-.357 3.881-.737 5.82-1.11l5.376 1.08 1.79 3.97c.159.351.292.732.482 1.068.023.041.038.07.053.1-.036.202-.023.462-.042.624l-.19 1.604c-.412 3.492-.912 6.951-1.454 10.427-.046.297-.136.618-.143.92 0 .015.001.015.002.026-.26.859-.505 1.72-.757 2.58-.4 1.369-.7 2.818-1.254 4.136-.784 1.867-1.631 3.711-2.446 5.565-.552 1.255-.919 2.584-1.346 3.883-.5 1.52-.903 3.026-1.673 4.43l-2.909 5.309c-.492.896.33 1.748 1.167 1.956 1.038.26 2.28-.086 2.968-.916 1.524-1.835 3.185-3.615 4.597-5.534.702-.956 1.267-2.042 1.888-3.047.695-1.124 1.43-2.233 2.087-3.379 2.36-4.117 4.162-8.451 5.876-12.854.853-2.19 1.7-4.403 2.451-6.628.744-2.206 1.27-4.507 1.89-6.75.264-.947.25-1.907.302-2.887.078-1.5.161-2.999.236-4.498.115-2.306-.04-4.646-.073-6.954-.013-.959-.378-1.699-.734-2.59z" mask="url(#m6e3jgkorb)"/>
                        </g>
                        <path fill="#000" d="M276.382 197.539l.002.023c.04.48-.039.06-.002-.023M258.2 157.267c-.05-.04-.018-.25 0 0m22.522 36.051c-.099-1.341-.094-2.738-.3-4.069-.166-1.07-.559-2.147-.834-3.194-.208-.789-.379-1.614-.582-2.427.002-.068.013-.133.007-.204l-.335-4.067c-.078-.948-.069-1.927-.327-2.846l-1.352-4.81c-.288-1.025-.715-1.78-1.275-2.692-1.425-2.321-2.837-4.566-4.447-6.765-.687-.938-1.325-1.957-2.089-2.836-1-1.151-2.16-2.197-3.23-3.285-1.903-1.934-3.969-3.692-6-5.496-.78-.692-1.818-.745-2.788-.385-.623.232-2.029 1.072-1.588 1.954l1.318 2.639.873 1.749c.104.207.19.451.321.644.06.09.094.126.113.138l.027.61.092 1.998.12 2.599c-.739.847-1.476 1.695-2.213 2.542-.631-.232-1.269-.448-1.922-.67-1.522-.515-3.045-1.135-4.598-1.559-1.204-.328-2.315.208-3.41.63l-2.892 1.116c-.705.273-1.413.54-2.116.817-.28.07-.557.163-.833.242-1.55.45-3.101.9-4.651 1.348l-4.192-1.567c-.724-.85-1.446-1.702-2.17-2.553-.376-.442-.731-.963-1.156-1.364-.038-.147-.136-.343-.164-.435l-1.33-4.29c-.04-.13-.072-.357-.14-.505.134-.467.136-1.037.203-1.504l.661-4.627c.023-.158.056-.325.074-.489.25-.257.47-.92.613-1.179 1.081-1.972 2.079-4.011 3.32-5.892l2.59-3.923c.42-.637.846-1.197 1.094-1.911l1.492-4.303c.28-.812.665-1.648.772-2.502l.854-6.825.534-4.244c.115-.914.448-2.035.256-2.957-.26-1.245-.74-2.484-1.104-3.704-.335-1.121-.585-2.318-1.017-3.408-.387-.98-2.209-1.353-3.121-1.696l-4.428-1.672-.913-.344c-1.035-.391-2.508.048-3.227.85-.718.801-.407 1.697.563 2.062l6.722 2.538 1.021 3.423.738 2.473c.05.17.083.437.169.612-.158.611-.159 1.317-.236 1.937l-.36 2.864c-.12.945-.238 1.89-.356 2.835l-.666 5.315c-.022.178-.118.463-.08.64.002.01.005.007.007.012-.228.647-.45 1.297-.675 1.945-.477 1.38-.825 2.931-1.471 4.245-.565 1.15-1.47 2.229-2.176 3.3-1.56 2.363-2.918 4.748-4.279 7.231-.511.933-1.128 1.804-1.28 2.863l-.76 5.315c-.063.439-.173.896-.191 1.34-.026.604.28 1.24.455 1.804.428 1.379.75 2.854 1.3 4.19.236.573.76 1.04 1.156 1.507l1.856 2.183c.37.436.749 1.041 1.24 1.365.521.344 1.274.514 1.852.73l2.708 1.011c.698.262 1.392.607 2.152.608.713.002 1.38-.24 2.056-.436l2.82-.818c2.873-.832 5.61-1.893 8.398-2.969l3.472 1.177 2.455.833c.02.006.297.117.424.153l.12.062.484.247c1.137.581 2.806.338 3.664-.648l2.524-2.9c.642-.736 1.887-1.752 1.923-2.776.036-1.027-.044-2.074-.12-3.114 1.15 1.184 2.238 2.42 3.206 3.741 1.603 2.188 3.108 4.337 4.525 6.642l1.32 2.152c.065.106.135.269.217.392l.008.043c.126.613.292 1.223.468 1.831-.327-.233-.651-.46-.94-.689-1.142-.906-3.297-2.746-4.439-3.652-.863-.685-1.06.342-2.039.774-.508.225-2.049 1.064-1.183 1.751.941.746 1.903 1.747 2.844 2.493.992.787 2.232 1.527 3.092 2.453.685.736 1.17 1.807 1.707 2.65.742 1.164 1.433 2.387 2.235 3.513-.017.1.114.411.135.493l.584 2.213c.374 1.418.821 2.837 1.127 4.271.19.895.171 1.86.239 2.771.112 1.513.21 3.03.335 4.542-.065.073-.086.463-.101.539l-.494 2.523-.828 4.237c-.377 1.924 4.25 1.247 4.587-.474l.717-3.67c.234-1.194.625-2.452.718-3.666.092-1.203-.17-2.51-.259-3.709" transform="translate(-259 -4477) translate(208 3647) translate(0 568) translate(51 262)"/>
                        <path fill="#FFF" d="M87.595 136.24c5.934 3.93 11.861 7.824 17.92 11.563 2.57 1.586 5.13 3.178 7.673 4.809 2.897 1.856 5.748 3.816 8.716 5.56l11.05 6.488c1.16.682 2.963.238 4.013-.456.86-.569 1.597-1.743.427-2.43l-10.1-5.932c-2.763-1.622-5.429-3.402-8.125-5.13-5.442-3.488-11.066-6.718-16.452-10.284l-10.68-7.073c-1.106-.732-3.009-.209-4.015.456-.913.604-1.54 1.693-.427 2.43M31.503 168.86c.813-.812.64-1.972-.6-2.217-7.005-1.387-13.995-2.789-20.968-4.332l-5.48-1.213c-1.326-.293-2.981.076-3.955 1.05-.83.83-.624 1.949.6 2.22 6.971 1.543 13.934 3.067 20.94 4.453l5.507 1.09c1.34.266 2.967-.061 3.956-1.05M57.108 176.401c5.707 1.452 11.423 2.865 17.096 4.444l6.411 1.783c.91.255 1.827.571 2.754.756 3.61.722 7.318 1.12 10.958 1.677 5.383.824 10.468 2.895 15.791 3.985 6.286 1.287 12.56 2.544 18.799 4.038 2.658.637 5.32 1.431 8.024 1.858l11.545 1.821 1.045.166c1.37.215 2.955-.037 3.974-1.058.787-.788.67-2.031-.603-2.233-5.826-.918-11.654-1.698-17.388-3.071-6.676-1.6-13.344-3.045-20.072-4.413-2.464-.502-4.858-1.162-7.287-1.821l-6.169-1.675c-.766-.209-1.528-.463-2.314-.585-3.79-.588-7.583-1.16-11.373-1.74-2.567-.393-5.023-1.192-7.523-1.888-6.403-1.782-12.829-3.435-19.272-5.073l-1.025-.26c-1.31-.334-3.015.097-3.974 1.056-.856.858-.603 1.927.603 2.233M77.821 221.742c1.108-.168 2.938-.776 3.16-2.18.22-1.384-1.613-1.665-2.487-1.533-6.174.934-12.338 1.85-18.53 2.631l-4.785.604c-1.106.14-2.94.794-3.16 2.182-.223 1.397 1.615 1.641 2.487 1.53 6.193-.781 12.371-1.579 18.545-2.512l4.77-.722M151.455 211.033l-10.999 1.777c-2.967.48-5.965.75-8.952 1.09-6.072.69-12.121 1.741-18.202 2.322-4.024.383-8.048.768-12.073 1.153-1.122.106-2.99.791-3.21 2.12-.228 1.375 1.643 1.573 2.527 1.488 6.7-.64 13.363-1.305 20.034-2.203 2.83-.38 5.655-.75 8.491-1.072 3.235-.368 6.51-.61 9.725-1.131l11.975-1.935c1.126-.182 2.982-.741 3.211-2.12.22-1.334-1.639-1.633-2.527-1.49" transform="translate(-259 -4477) translate(208 3647) translate(0 568) translate(51 262)"/>
                        <g transform="translate(-259 -4477) translate(208 3647) translate(0 568) translate(51 262) translate(29 278)">
                            <mask id="rurs9g7cid" fill="#fff">
                                <use xlink:href="#7249qezb7c"/>
                            </mask>
                            <path fill="#FFF" d="M20.568 1.107L4.614 8.97l-2.29 1.128c-.79.39-2.24 1.456-1.405 2.49.79.979 2.724.649 3.667.184l15.953-7.863 2.29-1.128c.792-.39 2.24-1.456 1.405-2.49-.79-.978-2.723-.649-3.666-.184" mask="url(#rurs9g7cid)"/>
                        </g>
                        <path fill="#FFF" d="M149.541 235.932l9.925-5.354.847-.457c.78-.422 2.293-1.432 1.428-2.484-.782-.95-2.797-.686-3.726-.184-4.96 2.675-9.845 5.458-14.986 7.762-6.052 2.71-12.018 5.529-17.98 8.435-2.162 1.054-4.367 1.955-6.59 2.876l-5.721 2.372c-.678.281-1.375.53-2.02.882-3.238 1.766-6.478 3.531-9.716 5.298-2.194 1.196-4.54 2.038-6.853 2.981-5.898 2.405-11.741 4.916-17.588 7.445-.294.127-.588.255-.883.381-.825.358-2.259 1.472-1.427 2.484.825 1.003 2.74.61 3.725.184 5.165-2.233 10.315-4.5 15.525-6.624 2.818-1.15 5.78-2.14 8.514-3.483 3.158-1.552 6.207-3.384 9.297-5.07 4.589-2.501 9.635-3.973 14.337-6.231 5.586-2.683 11.123-5.43 16.777-7.964 2.37-1.061 4.827-2.014 7.115-3.249M169.195 248.009c-1.346-.088-2.867.475-3.664 1.602-3.876 5.485-7.757 10.927-11.83 16.262-3.706 4.852-7.193 9.886-10.965 14.683l-7.49 9.527c-.855 1.087.728 1.852 1.58 1.908 1.404.091 2.798-.5 3.664-1.603 4.149-5.277 8.265-10.552 12.254-15.952 3.624-4.909 7.515-9.641 11.035-14.621l6.996-9.899c.788-1.116-.678-1.848-1.58-1.907" transform="translate(-259 -4477) translate(208 3647) translate(0 568) translate(51 262)"/>
                    </g>
                </g>
            </g>
        </g>
    </g>
</svg>
