<svg xmlns="http://www.w3.org/2000/svg" xmlns:xlink="http://www.w3.org/1999/xlink" width="325" height="325" viewBox="0 0 325 325">
    <defs>
        <path id="zw2xwctv2a" d="M0.107 0.119L7.926 0.119 7.926 33.218 0.107 33.218z"/>
    </defs>
    <g fill="none" fill-rule="evenodd">
        <g>
            <g>
                <g>
                    <path fill="#FFF" d="M259.045 139.063l-4.757 5.69c-.665.796-1.37 1.572-2.003 2.396.209-.271.4-.383-.009.012L251 148.398c-1.977 1.915-3.977 3.81-5.932 5.747-1.527 1.513-2.794 3.328-4.145 4.994-3.009 3.71-6.13 7.31-9.26 10.92-2.573 2.968-5.564 5.561-8.216 8.458-2.995 3.271-5.957 6.617-8.57 10.197-2.961 4.054-5.942 7.824-9.255 11.598-.742.845-1.52 1.671-2.232 2.543-.215.263.531-.5.043-.031-.391.376-.779.756-1.169 1.134-2.005 1.947-4.015 3.889-6.016 5.84-2.874 2.801-4.6 6.657-7.342 9.584-1.986 2.12-4.012 4.205-6.017 6.307-.26.273-.524.543-.781.819-.11.118.529-.5-.055.051-.929.876-1.844 1.766-2.766 2.648-1.656 1.585-3.427 3.107-4.987 4.787-1.737 1.87-3.302 3.93-4.944 5.883l-1.642 1.955 3.403-.57c-3.263-2.58-6.572-5.107-9.74-7.801-2.073-1.763-4.09-3.632-6.239-5.304-1.678-1.307-3.57-2.4-5.342-3.577-1.517-1.008-3.104-1.928-4.461-3.142l-6.449-5.769c-2.925-2.617-6.129-4.918-9.116-7.464-3.4-2.9-6.678-5.927-10.167-8.723-3.89-3.116-7.788-6.07-11.854-8.955-3.695-2.622-7.365-5.32-10.886-8.168-3.015-2.439-5.513-5.49-8.491-7.975-7.348-6.132-14.836-12.087-22.404-17.95l-2.011-1.557c-1.6-1.24-5.207 1.003-3.226 2.537 7.149 5.538 14.24 11.13 21.22 16.877 3.687 3.036 7.091 6.282 10.55 9.578 2.841 2.71 6.223 5.01 9.391 7.328 3.553 2.6 7.233 5.012 10.669 7.765 3.871 3.102 7.65 6.238 11.382 9.504 3.458 3.026 7.059 5.866 10.61 8.785 2.973 2.443 5.576 5.446 8.714 7.671 3.811 2.704 7.758 5.018 11.318 8.045 3.718 3.16 7.475 6.223 11.304 9.25l2.002 1.583c.991.784 2.66.316 3.403-.569l4.748-5.65c.612-.728 1.244-1.444 1.838-2.187-.483.603-.216.213.085-.075.446-.425.89-.852 1.335-1.277 3.518-3.369 6.969-6.744 10.33-10.266 1.28-1.342 2.677-2.62 3.78-4.113l5.212-7.053c.192-.26.406-.513.58-.785-.28.44-.3.281.129-.135l2.975-2.888c1.553-1.507 3.187-2.965 4.664-4.547 3.023-3.238 5.981-6.603 8.592-10.178 2.958-4.05 5.94-7.831 9.24-11.61 3.004-3.443 6.287-6.591 9.44-9.898 2.673-2.804 5.211-5.819 7.658-8.82 1.833-2.25 3.655-4.507 5.483-6.761.236-.291.492-.574.712-.878.08-.112-.525.489.058-.074.949-.915 1.894-1.835 2.841-2.753 1.619-1.568 3.346-3.076 4.871-4.734 1.8-1.957 3.428-4.101 5.132-6.14l1.628-1.947c1.729-2.069-2.256-2.984-3.58-1.4" transform="translate(-808 -1488) translate(208 1488) translate(600)"/>
                    <path fill="#FFF" d="M278.36 139.008c-1.68 2.258-3.907 4.175-5.864 6.189-3.716 3.824-6.16 8.656-10.006 12.344-4.497 4.313-8.68 8.7-12.741 13.44-3.817 4.454-7.487 9.025-11.132 13.62-3.303 4.165-5.843 9.002-9.467 12.874-2.032 2.17-4.044 4.362-6.1 6.51-2.316 2.417-4.827 4.713-7.013 7.247-1.95 2.26-3.583 4.88-5.342 7.291-1.637 2.244-3.435 4.361-5.187 6.515-3.337 4.104-6.658 8.24-10.168 12.194-2.024 2.28-4 4.614-6.081 6.84-2.279 2.439-4.77 4.7-6.978 7.202-1.952 2.21-3.423 5.023-5.056 7.478-1.515 2.28-3.524 4.001-5.486 5.913l-.678.66c-4.346-3.276-8.674-6.571-12.976-9.908-4.138-3.21-8.304-6.483-11.922-10.274-1.907-1.999-3.709-4.404-5.975-6.003-2.594-1.83-5.454-3.507-7.878-5.558-2.451-2.075-4.623-4.603-6.9-6.87-2.003-1.995-4.26-3.755-6.398-5.6-4.03-3.48-8.775-5.957-12.81-9.426-2.14-1.84-4.467-3.578-6.434-5.606-2.286-2.357-4.364-5.113-6.848-7.257-2.342-2.022-5.318-3.565-7.893-5.283-2.243-1.496-3.942-3.853-5.768-5.819-3.647-3.926-8.087-6.84-12.083-10.39-8.98-7.976-18.015-15.954-27.59-23.206l-1.17-.886 5.743-.32c.722-.04 1.461-.038 2.18-.12.018.013.037.027.06.04 1.528.99 3.524 1.577 5.185 2.32 1.27.568 2.786 1.601 4.202 1.692 1.408.09 3.139-.638 4.475-.984 2.935-.76 5.863-1.558 8.81-2.269 3.176-.766 6.354-1.523 9.53-2.283 5.206 4.66 10.58 9.17 15.696 13.923 2.666 2.477 5.163 5.342 8.146 7.435 3.147 2.208 6.455 4.209 9.193 6.916 2.704 2.673 5.38 5.354 8.201 7.9 1.721 1.554 3.385 3.25 5.2 4.694 1.203.956 2.606 1.73 3.891 2.57 1.624 1.062 3.458 2.02 4.963 3.245 1.416 1.154 2.64 2.682 3.92 3.983 1.142 1.162 2.235 2.434 3.46 3.508 1.591 1.393 3.405 2.588 5.089 3.868 3.504 2.664 6.715 5.592 9.995 8.533 2.887 2.588 5.91 5.027 8.875 7.526.896.755 3.223-.054 3.903-.84 2.315-2.677 4.713-5.3 6.947-8.044 2.276-2.797 4.4-5.718 6.67-8.52 4.706-5.812 9.357-11.801 14.578-17.16 5.38-5.52 10.613-11.083 14.99-17.45 2.166-3.15 4.35-6.091 6.78-9.041 2.515-3.056 5.097-5.73 7.938-8.494 3.152-3.065 5.666-6.472 8.352-9.965 2.041-2.655 4.25-5.186 6.418-7.742 3.473.152 6.957.264 10.413.59l9.055.853c.886.084 1.819.255 2.71.174 1.39-.126 2.323-.835 3.379-1.62 2.075-1.54 4.15-3.082 6.224-4.623l9.715-1.162-4.942 6.636m8.077-8.797l-12.617 1.509c-.522-.039-1.143.097-1.696.314-.568.177-1.168.45-1.364.807l-6.507 4.834c-3.599-.364-7.203-.784-10.81-.986-2.942-.165-5.887-.308-8.83-.461-2.247-.117-4.549-.43-6.16 1.492-3.11 3.71-6.203 7.401-9.154 11.239-1.225 1.592-2.36 3.342-3.769 4.776-2.021 2.056-4.139 4.025-6.205 6.036-6.215 6.044-10.277 13.826-15.867 20.367-5.965 6.98-12.49 13.393-18.38 20.447-6.001 7.187-11.633 14.648-17.736 21.748-6.487-5.544-12.796-11.278-19.59-16.443-1.41-1.072-2.685-2.067-3.92-3.324-1.927-1.96-3.764-4.154-5.846-5.947-3.006-2.588-6.9-4.064-9.86-6.735-3.73-3.367-7.4-6.736-10.974-10.268-1.348-1.333-2.605-2.744-4.156-3.833-2.392-1.678-4.846-3.29-7.185-5.04-3.133-2.344-5.728-5.453-8.681-8.029-3.677-3.207-7.349-6.415-10.976-9.677l-3.367-3.028c-.969-.872-1.515-1.016-2.945-.722-2.384.49-4.746 1.136-7.112 1.703-4.617 1.105-9.209 2.293-13.805 3.483l-.91.235-5.275-2.36c-1.44-.644-2.88-1.59-4.489-1.535-4.298.144-8.598.478-12.892.716-.412.023-3.875.974-2.85 1.751 9.056 6.858 17.793 14.093 26.29 21.64 2.127 1.89 4.196 3.886 6.426 5.654 2.532 2.009 5.311 3.877 7.676 6.08 2.316 2.157 4.364 4.695 6.52 7.015 1.873 2.017 4.586 3.349 6.862 4.867.883.588 1.882 1.122 2.69 1.81 1.12.957 2.082 2.208 3.092 3.278 1.893 2.007 3.712 4.016 5.8 5.812 2.177 1.872 4.282 3.948 6.61 5.627 2.718 1.958 5.645 3.636 8.328 5.641 4.611 3.448 8.755 7.627 12.828 11.683 1.92 1.911 3.67 3.381 5.883 4.943 2.278 1.607 4.69 3.04 6.62 5.06 2.073 2.173 4.056 4.52 6.27 6.547 2.465 2.257 5.151 4.336 7.743 6.446 4.392 3.577 8.96 6.956 13.488 10.359l3.193 2.4c1 .753 3.116-.073 3.903-.84 2.303-2.244 4.753-4.4 6.938-6.76 1.953-2.11 3.383-4.905 4.974-7.299 2.923-4.394 7.168-7.845 10.672-11.793 7.994-9.004 15.71-18.245 22.808-27.977 3.123-4.28 7.107-7.844 10.724-11.708 1.935-2.067 4.194-4.05 5.83-6.367 1.906-2.703 3.646-5.538 5.614-8.196 3.546-4.788 7.452-9.343 11.265-13.918 3.353-4.023 6.704-8.143 10.484-11.767 2.094-2.008 4.55-3.919 6.358-6.19 2.08-2.614 3.78-5.542 5.891-8.13 1.942-2.381 4.334-4.49 6.475-6.694 1.87-1.926 3.355-4.202 4.957-6.354l2.295-3.08c.743-.999-1.091-.917-1.58-.858" transform="translate(-808 -1488) translate(208 1488) translate(600)"/>
                    <path fill="#FFF" d="M56.069 170.019l5.115-5.637.729-.803c.237-.262-.814-.166-.87-.155-.437.081-.994.202-1.297.535l-5.115 5.636-.729.804c-.237.262.814.166.87.155.437-.081.994-.202 1.297-.535M69.33 181.79c1.463-2.158 2.928-4.316 4.392-6.473l.62-.914c.774-1.141-1.245-1.515-1.82-.668l-4.393 6.473-.62.914c-.774 1.14 1.245 1.515 1.82.667M82.715 192.459l4.534-6.122.651-.88c.29-.391-.25-.517-.507-.512-.43.01-1.036.177-1.324.565l-4.533 6.123-.652.879c-.29.392.251.518.508.513.429-.01 1.035-.177 1.323-.566M94.337 202.477l5.274-5.185.758-.745c.312-.307.217-.68-.216-.79-.468-.12-1.12.046-1.465.385l-5.274 5.184-.758.746c-.312.307-.217.68.216.79.468.12 1.12-.046 1.465-.385M108.055 214.07l5.139-5.477.733-.78c.323-.346-.283-.432-.551-.423-.467.015-1.152.16-1.473.501l-5.139 5.477-.732.78c-.324.346.283.432.55.423.467-.015 1.152-.16 1.473-.502M121.51 225.585l4.367-6.537.626-.937c.3-.45-.261-.802-.627-.838-.54-.055-1.085.192-1.391.65l-4.368 6.538-.625.936c-.302.45.26.802.626.839.54.054 1.086-.193 1.392-.651M133.033 235.659l5.201-5.85.738-.829c.31-.35.23-.76-.238-.895-.478-.136-1.193.032-1.532.414L132 234.348l-.737.83c-.311.349-.23.76.238.894.478.136 1.192-.03 1.532-.413M146.555 245.438l4.509-5.64.63-.79c.22-.273-.74-.185-.798-.173-.401.078-.913.2-1.18.534l-4.51 5.64-.63.789c-.218.274.74.185.8.174.4-.078.911-.2 1.179-.534M159.115 257.216l5.156-5.878.735-.838c.304-.346.248-.738-.243-.87-.476-.128-1.238.025-1.571.405l-5.156 5.878-.735.838c-.304.347-.249.738.242.87.477.129 1.239-.025 1.572-.405M270.14 151.593l-5.288-5.217-.744-.735c-.327-.323-.959-.196-1.324-.02-.216.103-.872.519-.535.852l5.288 5.217.744.735c.328.323.96.196 1.325.02.215-.103.872-.519.534-.852M260.293 164.374l-5.99-4.694-.85-.665c-.314-.247-1.047 0-1.372.115-.14.05-.93.366-.634.598l5.99 4.694.85.666c.314.246 1.047 0 1.372-.116.14-.05.93-.366.634-.598M248.59 177.635l-5.912-5.228-.844-.747c-.357-.316-1.044-.16-1.43.013-.204.09-.96.508-.597.83l5.913 5.228c.281.25.563.499.845.747.356.316 1.043.16 1.43-.012.203-.091.959-.51.595-.83M237.673 189.874l-6.076-4.172-.857-.589c-.423-.29-1.066-.176-1.454.123-.337.26-.53.775-.108 1.064l6.076 4.172.857.59c.423.29 1.065.175 1.454-.124.337-.26.53-.775.108-1.064M226.167 203.79l-5.208-5.362-.74-.763c-.454-.467-2.47.251-1.98.755l5.208 5.362.74.763c.454.467 2.47-.251 1.98-.756M215.218 215.746l-6.034-4.793-.847-.673c-.424-.336-1.101-.207-1.493.123-.362.303-.523.864-.1 1.2l6.033 4.792.848.673c.423.336 1.1.207 1.493-.123.36-.303.522-.864.1-1.2M204.474 228.567l-6.085-4.27c-.287-.2-.573-.402-.86-.603-.404-.283-1.08-.106-1.448.159-.334.239-.546.68-.14.964l6.085 4.27.859.603c.404.283 1.08.106 1.449-.159.333-.24.546-.68.14-.964M193.833 242.299l-5.293-5.262-.738-.733c-.319-.317-.972-.165-1.324 0-.208.098-.874.49-.546.817l5.293 5.262.738.733c.319.317.972.165 1.324 0 .208-.098.875-.49.546-.817M183.79 254.486l-6.73-4.153-.943-.582c-.464-.287-1.14-.174-1.564.136-.35.256-.588.796-.125 1.083l6.73 4.153.943.582c.464.286 1.14.174 1.564-.136.35-.257.589-.796.125-1.083" transform="translate(-808 -1488) translate(208 1488) translate(600)"/>
                    <path fill="#FFF" d="M135.352 57.459L127.99 71.437 118.978 84.01 111.227 97.352 103.658 110.806 94.81 123.485 87.675 137.203 78.799 149.859 70.869 163.091 63.726 176.802 54.86 189.47 47.159 202.852 39.26 216.109 30.505 228.857 22.445 242.403 36.938 236.218 45.222 225.012 51.627 212.379 59.313 200.555 67.752 189.205 74.445 176.748 82.158 164.923 90.45 153.465 97.141 141.026 107.473 127.19 122.909 121.171 131.76 107.827 142.059 95.36 150.776 81.788 159.807 68.445 147.939 62.66z" transform="translate(-808 -1488) translate(208 1488) translate(600)"/>
                    <path fill="#070606" d="M156.97 69.439l-1.243 1.836-3.54 5.23c-3.472 5.127-6.824 10.316-10.171 15.524-3.307 5.146-7.318 9.679-11.216 14.396-3.8 4.596-6.848 9.846-10.13 14.822l-13.599 5.3c-.744.29-1.544.519-2.112 1.096-.544.553-.973 1.302-1.435 1.921l-6.016 8.053c-1.018 1.363-2.179 2.692-3.043 4.158-1.494 2.536-2.8 5.204-4.195 7.796-.85 1.58-1.61 3.261-2.626 4.744-1.707 2.493-3.55 4.904-5.322 7.352-2.837 3.919-5.455 7.951-8.1 12.004-2.652 4.064-4.871 8.298-7.17 12.575-2.336 4.344-5.308 8.098-8.256 12.063-2.878 3.868-5.426 7.942-8.054 11.984-2.636 4.052-4.653 8.43-6.84 12.74-2.188 4.314-5.339 8.019-8.212 11.904l-1.143 1.546-9.665 4.123c3.08-5.215 6.096-10.464 9.527-15.457 2.13-3.1 4.375-6.147 6.397-9.316 2.226-3.488 4.247-7.124 6.366-10.678 3.204-5.376 5.998-11.072 9.461-16.276 2.436-3.66 5.052-7.214 7.574-10.817 1.71-2.442 2.955-5.136 4.333-7.778 3.512-6.739 7.326-13.2 11.235-19.72 3.136-5.233 7.465-9.772 10.282-15.185 2.046-3.934 4.007-7.927 6.145-11.812 1.598-2.903 3.805-5.566 5.7-8.281 1.665-2.383 3.301-4.692 4.724-7.22 2.071-3.68 4.121-7.373 6.214-11.041 3.213-5.63 6.313-11.354 10.093-16.625 2.233-3.114 4.744-6.155 6.754-9.419 2.032-3.301 3.654-6.935 5.461-10.365l.72-1.368c4.187 1.698 8.384 3.376 12.443 5.354l5.76 2.806 2.288 1.115c.201.098.657.235.938.402-.077.02-.125.216-.327.514m4.512-1.746c-3.962-1.93-7.885-3.987-11.902-5.799-4.131-1.863-8.397-3.469-12.587-5.199-.056-.033-.13-.056-.218-.071-.575-.149-1.278-.011-1.89.172-.72.155-1.684.44-1.97.982-3.122 5.924-5.938 11.994-9.844 17.44-2.187 3.05-4.555 6.033-6.584 9.19-2.234 3.473-4.171 7.176-6.247 10.746-3.141 5.405-5.859 11.153-9.3 16.364-2.422 3.669-5.042 7.222-7.558 10.827-1.707 2.444-2.951 5.139-4.327 7.783-1.426 2.741-2.66 5.732-4.44 8.269l-7.664 10.923c-1.778 2.534-3.266 5.278-4.857 7.931-1.545 2.579-3.162 5.119-4.552 7.785-2.049 3.932-4.012 7.923-6.153 11.805-1.6 2.902-3.813 5.562-5.712 8.274-4.093 5.846-7.475 12.024-11.075 18.185-3.272 5.598-6.505 11.238-10.177 16.583-2.183 3.178-4.485 6.302-6.561 9.55-2.095 3.278-3.99 6.703-5.98 10.045l-2.093 3.517c-.445.747 3.025-.096 3.266-.198 4.725-2.016 9.49-3.958 14.182-6.05 1.656-.739 2.548-2.535 3.596-3.953 1.846-2.496 3.725-4.971 5.54-7.49 1.016-1.41 1.686-3.088 2.47-4.634 1.36-2.68 2.684-5.381 4.08-8.043.82-1.562 1.886-3.009 2.848-4.487 1.625-2.5 3.212-5.03 4.88-7.503 2.65-3.928 5.789-7.522 8.468-11.43 2.668-3.888 4.45-8.456 6.803-12.546 2.341-4.07 5.098-8.01 7.739-11.895 2.664-3.92 5.797-7.553 8.346-11.546 2.536-3.973 4.225-8.482 6.73-12.475 1.004-1.599 2.285-3.076 3.414-4.588l5.814-7.783.894-1.195c4.77-1.85 9.561-3.657 14.303-5.578 2.208-.895 3.327-3.668 4.589-5.57 1.811-2.73 3.576-5.499 5.438-8.195 3.033-4.39 6.89-8.29 10.229-12.456 1.238-1.545 2.216-3.325 3.285-4.988 1.822-2.835 3.64-5.673 5.465-8.505 3.028-4.696 6.259-9.27 9.391-13.898.074-.126.048-.224-.08-.296" transform="translate(-808 -1488) translate(208 1488) translate(600)"/>
                    <path fill="#FFF" d="M171.61 55.663L181.948 66.78 191.958 78.538 202.304 90.006 212.337 101.747 222.822 113.101 232.495 125.153 243.075 136.418 252.665 148.539 262.87 160.129 273.171 171.641 283.659 182.998 293.109 195.247 303.809 206.428 313.329 218.163 299.145 214.775 289.689 204.149 279.595 194.251 270.862 183.116 261.445 172.597 251.798 162.279 242.543 151.599 233.222 140.991 223.933 130.369 211.071 118.768 194.637 115.699 183.023 104.49 172.078 92.636 160.666 81.218 149.931 69.582 160.401 62.106z" transform="translate(-808 -1488) translate(208 1488) translate(600)"/>
                    <path fill="#070606" d="M208.996 120.212c.067.118.221.169.378.184-.038-.033-.115-.091-.194-.154l-.184-.03" transform="translate(-808 -1488) translate(208 1488) translate(600)"/>
                    <path fill="#070606" d="M306.13 215.18l-4.9-1.175c-.103-.025-.292-.095-.492-.16-.013.076-.055.176-.14.309.012-.018-.237-.261-.253-.286-.034-.051-.073-.101-.109-.152-.076-.009-.145-.011-.193.005-.196.064-.053-.008.153-.06-.754-1.049-1.808-1.999-2.656-2.955l-3.858-4.347c-1.237-1.394-2.451-2.774-3.779-4.08-3.865-3.8-7.837-7.41-11.176-11.678-3.424-4.378-6.82-8.657-10.52-12.8-7.359-8.246-14.934-16.27-22.16-24.634-3.49-4.038-7.017-8.042-10.534-12.056-3.343-3.816-6.537-7.806-10.023-11.49-3.832-4.05-8.352-7.595-12.487-11.335-1.414-1.28-3.204-1.325-5.048-1.67l-10.857-2.034-1.52-.285c-5.97-5.783-11.841-11.544-17.472-17.66-5.308-5.766-11.032-11.116-16.375-16.843-3.215-3.446-6.387-6.934-9.575-10.406l3.874-2.773 3.49-2.5c.421-.302.848-.597 1.264-.906.046-.034.175-.127.282-.207.104-.065.213-.134.252-.156.452-.259.903-.52 1.354-.78l3.737-2.155 3.928-2.264c4.248 4.57 8.508 9.115 12.547 13.873 5.032 5.928 10.159 11.732 15.36 17.513 4.104 4.563 7.882 9.414 12.004 13.959 4.946 5.454 9.928 10.747 14.527 16.494 1.968 2.459 3.832 5.054 5.987 7.355l9.128 9.747c4.154 4.436 7.439 9.654 11.45 14.222 5.06 5.763 10.127 11.516 15.232 17.238 4.773 5.35 9.8 10.491 14.503 15.897 4.108 4.72 7.373 10.115 11.702 14.652 2.864 3.002 5.86 5.92 8.61 9.025 2.26 2.55 4.328 5.3 6.456 7.968l-1.712-.41m8.679 2.396c-4.287-5.3-8.444-10.642-13.15-15.574-2.386-2.5-4.966-4.911-7.186-7.56-2.758-3.287-5.256-6.83-7.872-10.231-3.74-4.862-8.218-9.14-12.314-13.702-4.894-5.451-9.757-10.931-14.59-16.437-5.04-5.739-9.756-11.648-14.487-17.646-3.766-4.773-8.513-8.725-12.313-13.474-2.742-3.426-5.469-6.865-8.227-10.28-2.056-2.545-4.423-4.872-6.639-7.278-4.862-5.28-9.429-10.788-14.13-16.211-4.09-4.718-8.416-9.226-12.457-13.986-5.143-6.059-10.343-11.96-15.746-17.787l-2.681-2.892c-.173-.187-.396-.316-.646-.4-.575-.322-1.41-.376-2.22.091-3.81 2.196-7.73 4.262-11.449 6.605-3.693 2.328-7.158 5.1-10.708 7.642-.513.368-1.08 1.287-.535 1.88 4.845 5.268 9.635 10.567 14.687 15.637 5.822 5.842 11.434 11.802 17.022 17.87 2.09 2.27 4.344 4.371 6.562 6.518l5.316 5.146c.91.88 1.528 1.54 2.817 1.793 4.567.896 9.151 1.714 13.726 2.571.446.084.92.219 1.387.303-.029-.05-.042-.112-.033-.189-.004.036.106.13.217.218.143.021.286.037.425.042.436.015.098.143-.23.112l.022.02c1.345 1.54 3.146 2.847 4.661 4.217l5.756 5.207c.556.503 1.11 1.01 1.67 1.51.072.064.123.109.165.143.025.039.068.097.14.188 2.709 3.437 5.785 6.637 8.663 9.935 4.5 5.156 9.023 10.29 13.497 15.468 9.811 11.356 20.414 21.961 29.667 33.793 2.029 2.594 3.95 4.945 6.29 7.247 2.59 2.547 5.338 5 7.772 7.696 2.967 3.286 5.802 6.7 8.82 9.94.876.94 1.916 1.02 3.138 1.312l7.508 1.799 4.531 1.085c1.045.25 4.522-.649 3.154-2.34" transform="translate(-808 -1488) translate(208 1488) translate(600)"/>
                    <path fill="#FFF" d="M176.83 50.276c.263 3.146-1.026 6.041-1.92 8.873-.927 2.935-1.328 6.257-3.265 8.574-1.937 2.318-4.676 4.125-7.385 5.54-2.613 1.366-5.727 1.477-8.841 1.742-3.114.266-6.244.814-9.047-.09-2.905-.936-5.388-2.955-7.682-4.912-2.294-1.957-4.06-4.414-5.46-7.15-1.352-2.64-1.803-5.539-2.066-8.684-.263-3.146.074-5.96.968-8.79.927-2.936 2.201-5.51 4.138-7.828 1.937-2.317 3.723-5.022 6.432-6.437 2.613-1.365 5.75-1.965 8.864-2.23 3.114-.266 6.325-.268 9.128.636 2.906.936 5.772 2.552 8.066 4.509 2.294 1.957 4.323 4.555 5.724 7.292 1.352 2.64 2.083 5.808 2.346 8.955" transform="translate(-808 -1488) translate(208 1488) translate(600)"/>
                    <path fill="#070606" d="M173.144 56.844c-.707 2.102-1.215 4.248-1.875 6.362-1.35 4.326-5.008 7.509-9.11 9.257-1.913.815-4.196.736-6.234.914-2.532.221-5.17.725-7.68.091-4.112-1.038-8.304-4.632-10.87-7.924-5.31-6.807-6.137-16.426-2.67-24.268.804-1.82 1.855-3.475 3.102-5.018 1.382-1.711 2.704-3.567 4.409-4.972 3.481-2.869 9.575-3.094 13.84-2.463 4.784.707 9.373 3.577 12.576 7.158 3.536 3.953 5.304 8.74 5.796 13.985.12 2.417-.522 4.612-1.284 6.878m5.502-8.015c-.498-5.297-2.31-10.006-5.825-14.022-3.358-3.838-8.205-6.814-13.282-7.563-5.057-.745-10.712-.11-15.555 1.503-2.284.761-4.443 1.828-6.205 3.499-1.663 1.576-3.091 3.461-4.503 5.262-6.334 8.077-6.541 20.44-.482 28.692 2.795 3.807 7.317 7.7 11.969 8.847 2.482.611 5.116.33 7.627.084 2.676-.26 5.383-.361 8.021-.915 4.96-1.042 10.871-4.233 13.647-8.643 1.451-2.305 1.822-5.116 2.623-7.676.94-3.009 2.125-5.855 1.965-9.068" transform="translate(-808 -1488) translate(208 1488) translate(600)"/>
                    <path fill="#FFF" d="M166.05 50.834c.286 3.476-.955 6.83-2.986 9.301-2.032 2.47-5.054 4.173-8.44 4.467-3.385.293-6.448-1.102-8.854-3.188-2.406-2.086-4.503-4.932-4.789-8.408-.285-3.476 1.628-6.373 3.66-8.844 2.031-2.47 4.464-5.228 7.85-5.522 3.385-.293 6.843 1.267 9.248 3.353 2.406 2.086 4.026 5.364 4.311 8.84" transform="translate(-808 -1488) translate(208 1488) translate(600)"/>
                    <path fill="#070606" d="M157.241 62.43c-4.09 1.881-8.805-.971-11.559-3.88-1.522-1.608-2.695-3.598-3.077-5.786-.418-2.4.327-4.653 1.63-6.668 1.193-1.848 2.71-3.604 4.346-5.086.641-.581 1.447-1.334 2.3-1.602.896-.28 2.298.06 3.242.31 5.314 1.41 8.979 5.91 9.521 11.25.303 4.536-2.099 9.484-6.403 11.463m10.617-12.577c-.596-5.853-4.888-10.48-10.68-11.812-3.096-.713-6.42-.267-9.25 1.142-2.396 1.193-4.207 3.118-5.907 5.12-1.848 2.173-3.531 4.62-3.74 7.534-.197 2.738 1.037 5.325 2.78 7.384 1.836 2.17 4.191 3.918 6.927 4.807 2.848.926 5.907.716 8.764-.065 6.496-1.775 11.567-7.193 11.106-14.11" transform="translate(-808 -1488) translate(208 1488) translate(600)"/>
                    <path fill="#DCFF02" d="M230.707 153.776c-.3-3.538-2.213-4.418-6.563-6.684-2.252-1.174-4.823-2.853-8.024-5.726-2.086-1.873-4.884-3.716-7.34-6.799-2.063-2.589-4.567-4.582-6.847-6.72-2.402-2.252-4.645-4.48-7.265-6.233-2.713-1.816-5.141-4.133-8.062-5.417-2.955-1.298-6.118-2.334-9.26-3.093-3.104-.749-6.452-.346-9.712-.57-3.16-.217-6.359-.463-9.64-.188-3.283.275-6.584.272-9.663 1.011-3.177.763-6.021 2.473-8.956 3.728-2.969 1.27-5.532 3.118-8.226 4.89-2.662 1.752-5.101 3.66-7.468 5.9-2.288 2.165-5.13 3.898-7.117 6.517-1.888 2.488-3.175 5.478-4.771 8.375-1.9 3.445-4.449 5.673-6.188 7.865-2.672 3.367-4.417 6.119-6.44 7.651-3.906 2.96-6.973 3.535-6.672 7.074.3 3.537 3.45 3.54 7.799 5.806 2.252 1.174 5.147 2.838 8.347 5.711 2.087 1.873 4.6 4.173 7.056 7.257 2.063 2.59 3.665 5.406 5.945 7.544 2.402 2.252 5.105 3.985 7.726 5.739 2.712 1.815 5.48 3.351 8.401 4.635 2.955 1.3 5.934 2.417 9.075 3.176 3.105.749 6.233 1.648 9.493 1.871 3.16.217 6.445.441 9.726.166 3.282-.275 6.516-.904 9.595-1.643 3.177-.763 6.416-1.525 9.35-2.78 2.969-1.27 5.346-3.699 8.04-5.47 2.662-1.753 4.982-3.87 7.349-6.11 2.287-2.164 4.663-4.266 6.65-6.885 1.889-2.488 3.424-5.261 5.021-8.158 1.9-3.445 4.14-5.95 5.88-8.142 2.671-3.367 4.654-6.047 6.677-7.58 3.907-2.958 6.385-3.18 6.084-6.718" transform="translate(-808 -1488) translate(208 1488) translate(600)"/>
                    <path fill="#070606" d="M225.128 158.213c-1.964 1.274-3.709 2.662-5.25 4.433-3.56 4.094-7.27 8.555-9.942 13.295-1.481 2.63-2.864 5.312-4.635 7.764-1.76 2.435-3.91 4.512-6.078 6.573-2.219 2.11-4.417 4.25-6.903 6.047-2.247 1.623-4.406 3.46-6.735 4.958-2.563 1.648-5.69 2.33-8.61 3.053-3.169.783-6.357 1.506-9.61 1.826-6.59.647-13.05-.41-19.403-2.087-5.97-1.578-11.61-4.295-16.726-7.74-2.481-1.671-4.994-3.335-7.189-5.384-2.204-2.056-3.763-4.637-5.557-7.036-3.307-4.422-7.539-8.569-12.136-11.623-1.936-1.286-3.993-2.425-6.123-3.353-1.59-.694-3.876-1.222-4.82-2.83-1.135-1.93-.331-3.924 1.328-5.133 1.948-1.42 4.093-2.508 5.802-4.247 1.815-1.847 3.243-4.07 4.823-6.112 1.559-2.015 3.385-3.803 4.9-5.852 1.732-2.338 2.906-4.993 4.273-7.548 1.457-2.724 3.181-4.945 5.551-6.92 2.218-1.85 4.305-3.853 6.538-5.679 2.215-1.81 4.596-3.394 6.977-4.972 2.563-1.7 5.288-2.93 8.046-4.264 3.066-1.482 5.906-2.313 9.31-2.556 3.316-.236 6.617-.499 9.942-.327 2.922.151 5.816.268 8.74.324 12.49.239 21.834 9.332 30.475 17.245 2.236 2.047 4.064 4.376 6.166 6.539 1.693 1.743 3.643 3.19 5.462 4.794 2.033 1.792 4.1 3.517 6.417 4.932 1.84 1.125 3.865 1.956 5.638 3.19 1.58 1.1 2.307 2.43 2.51 4.343.121 2.376-1.39 3.186-3.18 4.347m7.389-5.48c-.5-4.71-5.135-5.886-8.616-8.053-2.449-1.525-4.572-3.41-6.757-5.282-2.14-1.835-4.352-3.544-6.18-5.715-2.093-2.488-4.395-4.637-6.77-6.85-2.337-2.179-4.57-4.482-7.172-6.351-2.462-1.77-4.817-3.816-7.473-5.287-2.688-1.488-5.73-2.47-8.674-3.296-3.042-.851-5.973-1.065-9.118-1.077-3.365-.012-6.712-.418-10.079-.393-6.668.051-13.28.677-19.366 3.544-5.762 2.714-11.207 5.728-16.236 9.69-2.437 1.92-4.654 4.1-7.042 6.079-2.282 1.89-4.21 3.89-5.735 6.454-1.703 2.863-2.902 6.03-4.891 8.718-1.653 2.233-3.637 4.189-5.32 6.4-1.638 2.15-3.146 4.637-5.272 6.347-1.914 1.54-4.441 2.511-6.045 4.42-1.208 1.436-1.47 3.62-.517 5.273.952 1.653 2.97 2.303 4.623 2.996 5.283 2.214 9.715 5.562 13.79 9.568 4.606 4.526 7.556 10.471 12.672 14.456 4.998 3.891 10.498 7.197 16.373 9.551 6.268 2.513 13.01 3.978 19.74 4.305 6.82.33 13.32-.81 19.911-2.487 3.014-.767 6.137-1.612 8.887-3.107 2.64-1.435 4.853-3.519 7.313-5.225 2.559-1.775 4.873-3.817 7.13-5.961 2.313-2.198 4.71-4.353 6.691-6.868 1.91-2.424 3.442-5.135 4.925-7.835 1.557-2.835 3.35-5.393 5.368-7.91 1.852-2.31 3.577-4.745 5.579-6.928 1.76-1.92 3.999-3.032 6.038-4.587 1.592-1.214 2.327-2.565 2.223-4.59" transform="translate(-808 -1488) translate(208 1488) translate(600)"/>
                    <path fill="#FFF" d="M284.16 208.886l-13.102-4.37c-3.559-1.186-6.81-3.148-10.139-4.848l-5.74-2.929c-1.158-.591-5.06 1.092-3.387 1.945l12.302 6.279c3.33 1.7 7.017 2.646 10.566 3.83l6.113 2.038c.957.32 2.138.103 2.992-.412.463-.28 1.381-1.204.395-1.533M261.974 287.98c-5.556-6.218-11.006-12.397-16.193-18.92-4.703-5.913-8.864-12.15-13.173-18.357-2.864-4.123-5.731-8.243-8.596-12.364-.798-1.148-4.874.246-3.906 1.639 4.738 6.815 9.472 13.632 14.178 20.469 4.255 6.18 8.77 12.285 13.733 17.92 3.323 3.775 6.701 7.501 10.051 11.251.963 1.077 4.98-.436 3.906-1.639M301.827 175.967l-8.183.001h-1.178c-.977.001-2.062.252-2.89.83-.18.126-.55.373-.479.655.068.273.535.31.72.31l8.182-.002h1.178c.978 0 2.062-.252 2.891-.83.18-.126.549-.373.478-.654-.068-.273-.535-.31-.719-.31M145.03 279.634l1.927-13.888.274-1.972c.19-1.367-3.898-.588-4.07.653l-1.928 13.888-.274 1.972c-.19 1.367 3.898.587 4.07-.653M142.814 297.502l1.499-8.063.216-1.165c.311-1.674-4.264-1.001-4.54.481l-1.498 8.063-.216 1.164c-.311 1.675 4.264 1.002 4.54-.48M209.116 272.55l-4.985-12.915-.711-1.841c-.376-.975-1.512-1.194-2.396-.912-.684.219-2.034 1.054-1.646 2.06l4.986 12.914.71 1.842c.377.975 1.513 1.194 2.397.911.684-.218 2.034-1.053 1.645-2.06M216.339 289.243l-3.467-7.546-.49-1.066c-.347-.755-1.654-.518-2.267-.336-.474.14-.99.322-1.369.658-.185.165-.566.503-.43.799l3.467 7.545.49 1.066c.347.755 1.653.519 2.267.337.474-.14.99-.322 1.369-.659.184-.164.566-.502.43-.798" transform="translate(-808 -1488) translate(208 1488) translate(600)"/>
                    <g transform="translate(-808 -1488) translate(208 1488) translate(600) translate(174.171 289.088)">
                        <mask id="mape6m84ab" fill="#fff">
                            <use xlink:href="#zw2xwctv2a"/>
                        </mask>
                        <path fill="#FFF" d="M7.924 31.564L7.101 18.02c-.225-3.702-.982-7.359-1.569-11.022L4.518.674C4.325-.534-.107.407.115 1.794l2.148 13.4c.588 3.668.645 7.396.87 11.098l.388 6.391c.069 1.132 4.492.332 4.403-1.12" mask="url(#mape6m84ab)"/>
                    </g>
                    <path fill="#FFF" d="M260.128 233.912l-10.482-8.992c-2.912-2.497-6.03-4.735-9.08-7.052l-5.187-3.941c-1.215-.923-5.042.882-3.304 2.202l10.913 8.29c.523.398 1.043.797 1.567 1.191-.048-.036-.392-.337-.07-.046.265.238.541.464.811.695l6.096 5.23 4.86 4.167c.77.662 1.927.528 2.799.133.47-.214 1.851-1.213 1.077-1.877M274.19 244.91l-6.374-5.812-.906-.827c-.34-.31-1.057-.38-1.48-.35-.539.035-1.204.247-1.626.596-.348.288-.73.69-.75 1.17-.02.481.18.787.532 1.108l6.374 5.812.907.826c.34.31 1.056.38 1.48.351.538-.036 1.203-.248 1.625-.597.348-.288.73-.689.75-1.17.02-.48-.18-.787-.531-1.107M96.645 306.758c3.414-7.538 6.843-15.031 10.513-22.446 3.336-6.74 6.022-13.752 9.257-20.536 2.152-4.512 4.352-9.002 6.529-13.504.385-.798-1.425-.701-1.735-.659-.818.113-2.009.47-2.404 1.288-3.607 7.46-7.154 14.89-10.44 22.496-2.984 6.906-6.544 13.5-9.674 20.334-2.081 4.543-4.123 9.105-6.184 13.657-.446.984 3.588.585 4.138-.63M35.984 259.529c6.43-5.23 12.846-10.399 19.484-15.362 6.024-4.504 12.303-8.66 18.32-13.17 4.005-3.003 7.987-6.039 11.981-9.058.688-.52.482-.888-.28-1.044-.862-.175-2.277.27-2.97.793-6.614 5-13.221 9.956-19.994 14.738-6.128 4.327-12.303 8.678-18.145 13.38-3.898 3.137-7.764 6.315-11.646 9.472-.658.534-.507.882.28 1.043.835.17 2.31-.255 2.97-.792" transform="translate(-808 -1488) translate(208 1488) translate(600)"/>
                    <g fill="#FFF">
                        <path d="M1.585 6.914C9.77 6.09 17.43 5.246 25.595 4.243l6.35-.78c.725-.09 2.374-.286 2.806-.97.42-.664-.37-2.283-.954-2.211-8.169 1.003-16.327 1.986-24.515 2.81l-6.358.642c-.717.072-2.379.295-2.804.97-.425.67.372 2.269.953 2.21" transform="translate(-808 -1488) translate(208 1488) translate(600) translate(0 175.967)"/>
                    </g>
                    <path fill="#FFF" d="M90.93 257.687l7.877-11.254c2.137-3.053 4.672-5.81 7.075-8.655l4.195-4.97c.631-.748.383-1.606-.52-1.945-.935-.352-2.336.037-2.98.8l-8.878 10.516c-2.4 2.844-4.414 5.997-6.547 9.045l-3.723 5.319c-1.52 2.172 2.442 2.656 3.5 1.144M80.529 272.633l4.813-7.266c.23-.345.458-.691.687-1.037.558-.841-.48-1.276-1.179-1.278-.956-.002-2.306.329-2.879 1.194l-4.813 7.265-.687 1.038c-.558.84.48 1.275 1.179 1.277.956.002 2.306-.329 2.879-1.193M66.669 85.674c6.428 5.257 12.859 10.509 19.317 15.727l5.063 4.09c.79.638 1.916.517 2.8.12.444-.2 1.873-1.212 1.083-1.85-6.485-5.24-12.966-10.483-19.42-15.762l-4.96-4.056c-.784-.641-1.92-.515-2.8-.12-.448.202-1.869 1.208-1.083 1.85M52.26 74.1c2.16 1.81 4.321 3.62 6.482 5.428l.931.78c.781.653 1.929.605 2.816.163.41-.204.896-.484 1.106-.923.142-.295.263-.771-.04-1.024l-6.482-5.428-.932-.78c-.78-.653-1.928-.604-2.815-.163-.41.204-.896.485-1.106.923-.142.296-.263.772.04 1.025M23.236 141.446l8.117 1.878 1.157.267c.913.211 2.239-.205 2.943-.867.218-.205.531-.503.444-.863-.087-.356-.51-.442-.777-.503l-8.117-1.878-1.156-.267c-.914-.211-2.24.205-2.944.867-.217.204-.53.503-.443.863.086.356.51.442.776.503M11.84 96.807c7.597 3.509 15.135 6.94 22.914 10.034 7.064 2.81 14.332 5.233 21.307 8.236 4.62 1.988 9.216 4.035 13.824 6.052.958.42 4.8-1.089 3.45-1.68-7.587-3.321-15.122-6.576-22.866-9.519-3.302-1.255-6.598-2.515-9.88-3.82l-7.975-3.172c-.858-.34-1.715-.683-2.574-1.023-.24-.096-.384-.156-.063-.015-.19-.083-.378-.175-.567-.262-4.53-2.102-9.067-4.188-13.6-6.282-.828-.382-1.915-.12-2.734.186-.182.068-1.95.935-1.235 1.265M66.526 30.501c5.168 7.063 9.618 13.216 14.295 20.301 1.94 2.937 3.855 5.75 6.032 8.508l5.309 6.724c.57.723 1.149 1.442 1.713 2.17.117.151.271.352.084.092.122.17.232.348.347.521 2.76 4.17 5.539 8.33 8.308 12.494.745 1.12 4.622-.479 4.19-1.128l-7.637-11.484c-2.063-3.103-4.487-5.948-6.794-8.87-2.548-3.227-4.187-5.345-6.326-8.585-2.22-3.363-4.333-6.836-6.705-10.093-2.953-4.054-5.923-8.094-8.884-12.141-.64-.876-4.667.487-3.932 1.491M138.27 1.716l2.402 13.691.347 1.978c.22 1.249 4.66.26 4.413-1.146L143.03 2.55 142.682.57c-.219-1.249-4.66-.26-4.412 1.145M222.915 12.891l-4.973 12.86c-1.361 3.52-3.134 6.877-4.765 10.28-3.346 6.982-6.201 14.157-9.367 21.22-1.975 4.405-4.06 8.702-6.24 13.01-.399.787 1.456.676 1.753.634.827-.115 2.033-.466 2.445-1.277 3.749-7.407 7.083-14.93 10.336-22.563 1.389-3.258 2.784-6.48 4.315-9.673 1.756-3.666 3.754-7.298 5.257-11.075 1.858-4.668 3.625-9.374 5.437-14.06.403-1.041-3.726-.577-4.198.644M112.303 50.56l5.624 12.255.805 1.754c.423.921 1.546 1.134 2.476.857.665-.198 2.146-1.018 1.71-1.966l-5.624-12.256-.805-1.753c-.423-.922-1.546-1.134-2.476-.857-.665.198-2.146 1.017-1.71 1.966M105.997 33.54l3.37 7.471c.162.357.323.713.483 1.07.195.431.422.697.879.873.465.178 1.096.181 1.568.038.494-.15 1.022-.394 1.34-.82.23-.308.504-.8.325-1.196l-3.371-7.47-.483-1.07c-.195-.432-.421-.697-.878-.873-.465-.179-1.096-.181-1.569-.038-.494.15-1.022.393-1.339.819-.23.31-.504.8-.325 1.197M275.009 116.852l-13.12 3.892c-3.689 1.094-7.075 2.943-10.546 4.574l-5.875 2.76c-.586.276-1.686.938-1.104 1.691.535.694 2.145.362 2.775.066l12.31-5.785c.272-.128 1.614-.53 1.737-.817-.01.022-.814.242-.271.096.318-.085.633-.188.949-.282l7.644-2.267 6.08-1.803c.625-.186 2.042-.733 1.802-1.612-.232-.85-1.793-.687-2.381-.513M291.97 110.532l-8.051 2.182-1.152.312c-.495.134-1.029.392-1.371.776-.243.272-.483.732-.35 1.108.331.936 1.631 1.028 2.467.8l8.052-2.18 1.15-.313c.496-.134 1.03-.392 1.373-.776.242-.272.482-.732.35-1.108-.332-.935-1.632-1.028-2.468-.8M235.554 65.84l-8.375 11.018c-.372.49-.786.968-1.126 1.482.278-.42.285-.33.051-.075-.232.253-.456.515-.684.772l-5.307 5.985-4.277 4.824c-.604.681-.465 1.372.441 1.641.89.265 2.368-.09 2.999-.801l9.175-10.349c2.558-2.884 4.794-6.035 7.125-9.102l3.954-5.202c.628-.827-.538-1.339-1.188-1.384-1.024-.073-2.164.37-2.788 1.191M246.27 51.527l-4.842 6.936-.683.979c-.216.308-.163.788.061 1.072.26.33.8.503 1.204.528 1.098.07 2.185-.346 2.811-1.243l4.842-6.936.684-.98c.215-.308.162-.788-.062-1.07-.26-.33-.8-.504-1.204-.53-1.098-.07-2.185.347-2.81 1.244M291.53 65.003l-11.739 7.164c-3.259 1.99-6.176 4.454-9.192 6.79-5.967 4.625-11.807 9.49-17.944 13.883-4.067 2.911-8.166 5.778-12.248 8.666-.78.552-.987 1.635-.198 2.261.854.677 2.214.342 3.014-.224C249.94 98.79 256.59 94.04 263.088 89c2.771-2.15 5.542-4.299 8.314-6.447l6.733-5.217c.717-.555 1.504-1.073 2.174-1.684.37-.338.081-.105-.186.076.171-.116.356-.217.533-.325 4.259-2.595 8.513-5.196 12.77-7.795 2.406-1.468.201-3.887-1.897-2.606M178.526 23.237l-.664 8.325-.096 1.198c-.081 1.018 1.175 1.435 2.1 1.344.936-.092 2.436-.629 2.52-1.677.22-2.775.442-5.55.664-8.325l.095-1.199c.082-1.018-1.174-1.435-2.1-1.344-.935.092-2.435.629-2.519 1.678M323.015 144.546c-8.392.356-16.727.75-25.094 1.481l-6.49.567c-.942.082-2.232.701-2.336 1.822-.104 1.112 1.112 1.583 1.979 1.507 8.368-.73 16.685-1.416 25.073-1.771l6.51-.276c.94-.04 2.235-.73 2.336-1.823.107-1.14-1.114-1.543-1.978-1.507" transform="translate(-808 -1488) translate(208 1488) translate(600)"/>
                    <path fill="#070606" d="M178.685 191.181l-.057.026c-.072.095.147.1.057-.026M196.618 170.256l.037.114.026.044.082.086c.178.118.397.105.558-.033.173-.147.24-.4.158-.586l-.079-.1-.05-.04-.14-.056c-.24-.022-.383.08-.448.145-.107.107-.158.258-.144.426M181.467 233.595l-.009-.005c-.118.14-.111.287-.096.362l.082.121.003.012c.042.104.123.183.227.223l.121.015.052-.006.109-.037c.02-.01.068-.036.115-.083.022-.013.043-.029.064-.046l.101-.182.015-.085-.03-.204c-.096-.188-.263-.273-.517-.251l-.224.143-.013.023zM161.067 149.022c.165.034.29-.016.365-.065l.142-.215.015-.094c.01-.04.034-.152-.023-.275-.07-.15-.25-.278-.494-.226l-.103.1c-.053.023-.178.085-.236.23-.042.098-.04.212.022.347l.004.01.183.149.125.039zM181.84 165.193l-.096.003c-.155.033-.276.12-.344.246-.06.117-.062.257-.003.383.05.111.142.198.255.244l.112.022.072-.003c.154-.027.23-.11.27-.152l-.003-.002.047-.03.043-.051.058-.148c.003-.08-.012-.158-.046-.23-.047-.104-.132-.191-.238-.248l-.127-.034zM148.207 229.68l.03.037.084.066c.187.093.407.058.563-.093.146-.142.19-.35.11-.526-.022-.05-.053-.096-.091-.136l-.106-.067-.051-.017-.147-.008c-.069.01-.173.026-.295.1l-.105.123-.027.063-.016.164c-.007-.034-.004-.061-.004-.062v.001c-.01.045-.032.14.002.258l.053.098zM151.717 196.942l-.005-.038-.097-.168-.066-.052-.203-.068c-.259.005-.386.13-.44.204-.069.096-.127.26-.013.502l.135.132.073.034.196.026c.15-.027.49-.138.42-.572M186.764 169.154l.007.002-.03.26c.145.257.363.271.45.265.189-.012.35-.142.43-.346l.017-.14-.02-.102-.01-.021c-.06-.13-.16-.185-.206-.212l-.005.008-.064-.046-.063-.024-.16-.013c-.078.013-.335.084-.346.37M159.507 182.279l-.204-.028c-.13.021-.24.086-.31.182-.052.07-.107.19-.075.365l.084.163.093.099.365.09c.144-.05.253-.144.308-.269.054-.121.051-.258-.008-.386l-.016-.03-.158-.15-.079-.036zM178.242 156.22c-.15-.02-.297.035-.396.147l-.07.137-.014.065.007.153.032.088c.05.11.128.195.232.256l.163.047.122-.004c.133-.031.241-.115.297-.227.059-.116.06-.254.004-.377-.069-.152-.211-.26-.377-.286M140.136 187.904l-.041.04-.033.071-.007.19.024.054c.077.165.219.266.387.277l.107-.038.001.003c.28-.026.358-.214.379-.294l-.027-.178.004-.001c-.004-.036-.01-.096-.041-.161-.067-.141-.206-.226-.371-.229l-.069.007-.054.013c-.177.063-.24.19-.265.242l.006.004zM238.831 196.899l-.019.08.021.196.066.138.185.166.097.035.255-.006.059-.026.19-.222.025-.113-.023-.194-.029-.074c-.085-.18-.235-.236-.32-.254-.14-.028-.287.01-.402.107l-.105.167zM140.99 172.986l.004-.002.02.093.048.072.169.114c.138.026.273-.002.375-.03l.145-.103.044-.061.056-.179c0-.073-.014-.143-.041-.208-.103-.253-.396-.377-.625-.265-.1.048-.174.134-.209.24-.024.072-.041.187.013.33M220.028 170.817l-.009.01-.001.007-.01.016-.013.067.004.001-.006.011.005.002-.04.188.02.05c.12.273.385.378.66.262l.163-.191.016-.064c.067-.143.034-.267.006-.33l-.088-.112-.047-.037-.047-.02.003-.007c-.233-.162-.428-.07-.523 0l-.093.147zM185.92 177.938l-.07.231c-.008.05-.02.14.03.24.01.02.023.04.037.058l.002.015.168.148.088.03.237-.008c.137-.059.205-.149.226-.186l.102-.197v-.095c-.001-.056-.01-.135-.064-.243l-.001-.002-.182-.141-.094-.026-.126.015.007.001-.285.085-.075.075zM159.028 191.4l-.058.05-.041.08-.02.221.03.081c.047.106.121.19.22.246l.117.042.084.007c.2-.01.345-.127.392-.306l.004-.006.05-.214-.033-.116c-.062-.138-.177-.211-.293-.23l-.03-.014-.21-.012c-.136.043-.205.133-.225.16l.013.01zM219.03 160.76l-.172.097c-.07 0-.133.006-.18.01l-.227.047-.08.034-.136.106c-.05.086-.126.216-.013.353.053.065.143.12.26.16l.206.034.09.001.21-.028c.082-.025.159-.04.232-.055.19-.04.447-.092.652-.244l.075-.1.012-.045-.023-.109-.013-.018c-.043-.052-.106-.091-.165-.123l-.014-.051c-.335-.184-.68-.138-.9-.03.028-.013.098-.037.186-.039M174.25 146.54c-.07.09-.096.213-.067.332l.032.047.034.094-.003.018.016.018.002.008.02.018.11.125.08.038.25-.006c.368-.096.358-.415.337-.547l-.157-.215-.063-.03c-.225-.186-.434-.065-.493-.022l-.098.123zM170.695 166.212l-.09.139-.022.067-.003.165c.01.04.024.077.038.11.108.235.336.344.581.276l.126-.07.046-.041.083-.127c.038-.114.03-.245-.022-.36-.064-.14-.183-.239-.328-.27-.143-.03-.292.01-.409.111M192.172 160.457c.087.174.286.272.496.242l.142-.053.053-.035.094-.102c.088-.16.09-.333.006-.502l-.14-.135-.086-.041-.234-.024c-.14.034-.259.123-.323.245-.068.128-.07.28-.008.405M196.658 129.905c.022.047.052.095.094.15l.185.11.089.015.244-.07c.09-.056.183-.126.244-.307l-.05-.208.006-.024-.016-.05-.025-.055-.158-.15-.078-.03-.203-.004c-.11.038-.266.109-.339.275-.049.113-.046.23.007.348M223.54 205.071l-.147-.3-.115-.07-.361-.005c-.148.085-.312.257-.253.603l.2.246.117.049.327-.026c.247-.154.243-.4.241-.496l-.009-.001zM140.049 209.547l-.29.014.218-.155-.083-.1-.337-.12c-.28.044-.44.264-.39.533l.065.14.082.1.336.124c.277-.043.44-.263.399-.536M165.152 202.242l-.038-.07-.16-.131-.08-.03-.198-.008c-.109.03-.199.095-.258.184-.104.103-.148.258-.107.413l.07.13.04.048.12.087c.179.073.389.031.524-.107.131-.136.165-.339.087-.516M227.17 231.889l-.03.186c.006.08.021.144.049.203.047.102.128.18.236.228l.143.022.062-.008.038-.015.16-.02.077-.047.12-.177c.01-.055.037-.202-.033-.352-.069-.15-.21-.25-.39-.28l-.217.077-.004-.008-.063.026-.116.108-.032.057zM167.892 185.325l-.005.058.033.166c.07.155.178.23.255.265l.139.029.061-.002.14-.036c.243-.13.334-.392.222-.637l-.024-.047-.15-.133-.08-.032-.206-.011c-.191.055-.292.168-.344.254l-.041.126zM182.251 186.299l-.016-.193c-.115-.234-.3-.313-.556-.234-.015.006-.033.012-.055.016l-.172.12-.044.072-.016.108-.017-.005c-.015.046-.053.167.031.358l.005.011c.041.063.128.157.287.164.069.028.148.033.226.008l.105-.063.038-.038.047-.097.115-.151.022-.076zM175.967 222.191l.045.19.04.066.14.107c.023.006.045.016.082.03.083.033.185.074.314.067l.104-.036.04-.027.08-.09c.06-.11.07-.246.026-.362l-.034-.063-.047-.134c-.128-.114-.243-.124-.313-.13.043.005.091.044.109.077l-.209-.132-.089.006-.2.164c-.028.048-.08.138-.088.267M147.688 164.296l-.052.004c-.242.04-.316.198-.342.253l.007.004-.042.052-.021.062.002.155.018.04c.029.06.06.095.054.08l.024-.008.125.162.03.01c.121.095.246.09.312.076l.134-.064.067-.065c.05-.072.202-.29.092-.516-.04-.082-.127-.19-.32-.237l-.088-.008zM195.765 185.193c-.029.073-.083.209-.012.39.013.034.034.076.066.132l.144.111.07.017.169-.037c-.034.026-.08.032-.091.03.023.004.066.01.12.002l.14-.09.044-.057.008-.03.02-.01c.134-.068.199-.232.163-.393-.002-.04-.01-.08-.025-.117-.054-.14-.185-.218-.32-.191l-.078.06c-.039-.015-.079-.025-.12-.03l-.142.033-.052.035-.104.145zM162.651 223.623l-.097.112-.025.058-.01.089-.01-.002c-.008.04-.025.137.031.261l.13.127.047.02-.003.005c.253.251.455.135.53.074l.004-.034.13-.17.01-.09c.007-.03.026-.12-.023-.228l-.022-.041-.165-.117c-.04-.048-.098-.098-.186-.123-.077-.022-.2-.03-.34.06M130.18 178.075l-.02-.05c-.045-.099-.117-.15-.153-.172l-.036-.034-.087-.046-.251-.01-.15.064-.126.109-.037.06-.038.179c0 .092.016.175.05.247.047.103.127.179.23.218l.115.02.09-.006c.227-.053.309-.205.344-.272l-.007-.005.05-.064.023-.062.003-.176zM209.23 202.664l.042.078.172.133.085.026.215-.015.137-.062.157-.158.037-.084.008-.239-.014-.038c-.05-.111-.125-.17-.15-.188l-.01.013-.051-.059-.082-.043-.221-.025c-.15.04-.268.133-.327.261-.058.123-.057.265.002.4M163.481 175.262c-.077.094-.106.231-.064.39l.028.059c.144.24.428.323.675.198l.145-.167.03-.086-.008-.223-.069-.159-.18-.163-.092-.03-.092.01.001-.02c-.037-.003-.134-.009-.245.051l-.124.13-.005.01zM203.028 178.826l-.005-.003c-.133.137-.13.282-.115.36-.002.056.008.113.032.168l.197.175.103.032.271-.033c.269-.162.295-.375.286-.486l-.15-.238-.02-.012.001-.011c-.14-.125-.29-.124-.366-.113l-.232.157-.002.004zM148.188 181.172l.338.14c-.02.002-.037 0-.05-.005.06.026.224.097.384-.013l.082-.088c.064-.11.083-.23.056-.346l.035-.099c-.116-.283-.434-.366-.647-.263-.103.05-.182.14-.22.25-.033.09-.055.236.022.424M157.975 162.733c-.022-.048-.053-.093-.095-.14l-.148-.08-.07-.013-.135.012c-.05.004-.155.013-.272.096l-.09.112-.024.056-.02.097c-.007.042-.023.142.03.26l.039.069.128.08c.14.145.3.12.366.101l.091-.066.016-.006.128-.1.037-.056.047-.168c.008-.046.022-.142-.028-.254M172.529 175.155c-.186.147-.182.376-.096.537.092.172.276.278.48.275l.254-.155.037-.089.01-.112c.008.04.001.071.002.073l.002-.003c.031-.068.104-.226.006-.409l-.011-.02-.14-.112-.06-.021c-.196-.095-.363-.034-.445.01l-.039.026zM141.827 148.457l-.05-.114-.202-.177-.103-.03-.254.03c-.256.126-.294.354-.248.512l.08.086-.008.004c.088.195.24.246.325.26.145.023.289-.032.395-.151l.077-.162.012-.077-.024-.181zM170.297 191.26l-.128-.03h-.09c-.148.026-.272.109-.342.23-.07.125-.073.28-.008.413.058.121.165.209.29.24.135.034.278.007.404-.076l.052-.043.031-.036c.092-.123.099-.296.019-.462-.052-.107-.13-.188-.228-.235M205.608 151.396l.154.21.142.08c.036.016.131.055.256.035l.198-.118.06-.076.074-.217-.039-.19c-.098-.23-.35-.347-.577-.265-.21.078-.324.31-.268.541M176.901 212.412l-.036.098c.047.109.134.192.243.235.116.046.25.041.367-.013.224-.103.375-.38.23-.71l-.368-.144-.02.01-.004-.002c-.064.011-.16.028-.273.097l-.116.14c-.044.116-.041.213-.023.29M185.914 217.948c.011.022.023.043.036.065l.165.125.084.025.214-.009.13-.051.163-.167.027-.085-.01-.08h.006c.009-.039.031-.144-.03-.267l-.145-.13-.077-.032-.041-.043-.102-.034-.278.035c-.082.053-.336.26-.142.648M180.503 201.38l-.035.092c-.008.039-.034.157.028.296l.028.052.216.16.098.023.232-.034c.273-.129.314-.369.266-.536l-.158-.185.005-.009c-.152-.149-.316-.143-.4-.125l-.224.164-.056.102zM202.6 210.69l-.003-.005c-.022.021-.051.041-.09.048l-.088-.037c-.007-.012-.008-.02-.013-.032l-.092-.012c.059.11.184.154.286.14l.01.025c.016-.006.035-.016.055-.03l-.066-.096zm-.24-.544l.061-.045c.238-.063.483.042.582.25l-.263.11.095-.008-.18.046-.001.015.047.026-.054.03-.006.058.106.054c.015-.038.018-.077.015-.109l.09.05-.052.085.176.088c-.089.154-.234.258-.401.287l-.312-.063-.174-.148c-.098-.16-.112-.317-.043-.465.039-.085.126-.2.313-.262v.001zM195.718 196.08l.029.163c-.002-.017-.001-.037.004-.058l.055.23.064.076.234.12c.196.02.378-.02.512-.114l-.202-.214c.007-.041.007-.082-.002-.123l.006-.003-.01-.011v-.004l-.003-.071v-.002l-.01-.289c.061-.001.103.014.102.012l-.002-.001c-.327-.157-.585-.035-.718.13l-.059.158zM201.99 226.565l-.05-.106c-.215-.278-.473-.226-.61-.175l-.05.029c-.166.122-.22.337-.134.533.053.12.153.223.268.273l.124.022.054-.003.117-.036.043-.024c.148-.08.215-.173.25-.345v-.118l-.012-.05zM195.757 204.43l.094.083c.12.183.295.206.42.167l.096-.054.036-.031.036-.056.151-.136c.038-.097.034-.204-.01-.304-.039-.09-.103-.154-.163-.214l-.125-.071-.062-.016-.151.006c-.06.021-.244.084-.325.27-.049.11-.048.237.003.356M188.609 144.748l-.067.212c-.005.044-.008.09-.005.138l.145.243.094.06.28.041c.32-.094.423-.364.36-.583l-.163-.187.003-.007c-.15-.134-.309-.128-.39-.113l-.2.121-.057.075zM162.632 210.17l-.038.038-.067.106c-.041.123-.035.256.016.375.054.122.153.218.272.262.126.047.264.038.39-.025l.14-.194.012-.064.017-.019.024-.096-.061-.247c-.222-.248-.448-.245-.599-.199l-.106.064zM189.788 190.335l-.198.096-.023.026c-.109.085-.158.228-.121.372l.017.022c0 .033.002.073.015.118l.064.115.04.043.112.073c.101.036.192.03.302.026l.15-.053.057-.04.1-.134c.052-.148.02-.258.005-.312.006.02.007.049.003.067l-.03-.196-.04-.071-.151-.127c-.102-.035-.193-.03-.302-.025M179.598 171.266l.075.099.32.113c.082-.013.277-.043.396-.234.066-.11.084-.242.05-.37l-.068-.134-.042-.048-.119-.085c-.267-.106-.564.122-.652.325l.04.334zM213.705 177.466c.02.049.053.092.092.127l.065.107c.187.107.338.05.388.026l.135-.044.05-.034.095-.109c.053-.11.056-.24.007-.353-.023-.052-.05-.09-.051-.081l-.008.003-.03-.074-.179-.156c-.189-.051-.395.055-.5.185-.098.119-.122.27-.064.403M212.82 192.377l-.042.128c-.004.053-.005.134.034.224.004.01.01.021.013.024l.006-.002.053.123.054.058.167.087c.25.033.39-.083.449-.15.062-.07.159-.227.103-.479l-.118-.176-.07-.047-.228-.04c-.07.012-.175.03-.3.106l-.092.095-.03.049zM217.215 139.188l.061.013c.114-.035-.059-.169-.06-.013" transform="translate(-808 -1488) translate(208 1488) translate(600)"/>
                    <path fill="#070606" d="M190.291 145.165l.036-.12.004-.053-.014-.125c-.07-.21-.242-.337-.44-.321-.212.017-.403.189-.443.4l.003.134.016.065.075.134c.17.17.334.172.419.158.14-.024.262-.12.344-.272M240.302 103.236l.005.01c.18-.037.258-.161.288-.233v-.152l.004-.01c.023-.113 0-.23-.065-.33l-.093-.092-.047-.03-.114-.04c-.023-.004-.078-.015-.145-.007-.025-.003-.052-.005-.08-.004l-.19.082-.06.06-.09.186c-.027.215.066.393.292.541l.27.029.025-.01zM206.366 183.312c-.106-.127-.232-.159-.318-.163l-.235.096-.067.07c-.032.029-.115.108-.143.246-.035.168.028.383.247.486l.137-.022c.055.012.187.034.316-.053.09-.058.156-.155.187-.306l.002-.01-.053-.236-.073-.108zM199.444 157.909l.08.054c.146.064.298.064.43-.002.123-.062.21-.178.241-.32.027-.123.007-.25-.056-.356l-.077-.085-.06-.04c-.142-.068-.255-.045-.313-.033v.003l-.057-.002-.066.017-.139.09c-.052.065-.088.139-.106.22-.025.115-.01.24.041.35l.082.104zM263.95 126.117l-.003-.048-.027-.106c-.091-.191-.279-.296-.481-.268-.19.029-.338.173-.377.367-.01.055-.012.111-.005.168l.043.12.03.045.108.096c.058.034.146.084.28.097l.149-.036.056-.035.102-.126c-.013.033-.03.053-.031.054.034-.032.102-.096.142-.214l.014-.114zM242.452 150.236l-.02.036-.029.197.018.083.11.172c.198.143.369.109.455.076.11-.043.253-.15.315-.42l-.02-.189-.034-.07-.131-.133c-.13-.062-.452-.16-.664.248M197.331 151.575l-.004-.006.18-.196c.042-.297-.119-.434-.19-.479-.154-.099-.357-.085-.541.038l-.099.105-.045.097-.005.023c-.03.141.012.244.032.293l.009-.003.021.075.036.056.115.103c.07.033.311.123.491-.106M227.217 156.921l.146.14c.116.057.244.068.359.03.085-.027.202-.094.283-.254l.034-.18-.014-.135-.238-.282c-.144-.043-.29-.029-.41.04-.118.069-.2.182-.23.32l-.006.034.035.212.04.075zM197.662 167.768c.112.1.27.14.422.108l.143-.069.052-.042.091-.125.028-.087c.026-.115.015-.226-.034-.333l-.106-.13-.105-.066c-.13-.05-.272-.046-.388.01-.122.059-.209.166-.24.295-.036.158.014.325.137.439M246.617 164.222l.056-.009.07-.04.12-.155.016-.06c.04-.184-.01-.35-.135-.458l-.108-.03.002-.003c-.236-.142-.412-.03-.477.025l-.088.165-.004-.001c-.018.032-.05.087-.065.159-.034.157.023.31.152.408l.057.035.05.02c.178.05.305-.02.357-.049l-.003-.007zM172.17 98.68l.065-.052.107-.166.034-.145-.046-.23-.056-.081-.21-.134-.063-.013-.294.072-.09.074-.104.166-.023.074c-.044.188.041.314.098.374.096.1.239.149.392.136l.19-.075zM236.986 175.643l-.006-.001.036-.083v-.084l-.076-.19c-.1-.104-.23-.165-.33-.206l-.178-.01-.072.02-.147.102c-.041.056-.07.118-.084.184-.056.255.119.527.373.582.11.024.22.004.31-.056.06-.04.14-.117.174-.258M172.112 131.016l.014-.002.005-.005.018-.006.05-.046-.002-.002.01-.006-.002-.003.143-.125.014-.05c.063-.284-.092-.522-.386-.591l-.247.054-.05.04c-.14.073-.186.189-.201.255l.006.139.017.056.027.043-.008.003c.096.264.31.306.43.307l.162-.06zM203.462 145.418l.194-.155c.036-.037.102-.108.126-.219.005-.022.008-.045.009-.068l.007-.014-.032-.215-.046-.074-.18-.12c-.137-.026-.242.013-.28.033l-.198.11-.058.08c-.034.049-.077.119-.103.24v.001l.046.218.054.072.102.056-.005-.005.262.084.102-.024zM233.085 149.895l.077-.006.08-.04.147-.167.023-.084c.025-.113.015-.224-.03-.329l-.07-.102-.064-.056c-.166-.11-.352-.102-.495.015l-.007.002-.167.143-.042.114c-.031.148.018.275.1.359l.016.029.16.133c.135.047.244.015.276.005l-.004-.016zM166.57 139.085l.235-.026c.055.026.109.044.15.057l.224.041.097-.002.217-.048c.129-.062.323-.155.38-.324.026-.08.015-.166-.033-.246l-.124-.108-.07-.035-.19-.052c-.09-.007-.165-.021-.238-.035-.186-.033-.44-.08-.758-.014l-.162.065-.057.037-.097.11-.008.022c-.022.065-.014.124-.002.176l-.043.053c.067.296.38.381.665.362-.036.002-.115-.002-.185-.033M195.423 177.725c.112-.028.208-.106.254-.216l.001-.055.027-.093.013-.012-.003-.024.003-.007-.006-.026-.02-.163-.045-.076-.215-.145c-.37-.145-.55.108-.612.223l.006.26.035.06c.08.278.33.309.406.311l.156-.037zM208.811 164.294l.16-.058.06-.04.104-.128c.017-.037.028-.073.036-.107.057-.246-.064-.46-.309-.546l-.146-.017-.064.007-.147.052c-.103.067-.178.175-.206.295-.033.146.004.29.105.398.1.104.248.157.407.144M188.525 155.825c.043-.193-.048-.384-.227-.474l-.142-.033h-.062l-.136.033c-.168.084-.278.228-.32.415l.023.19.04.08.163.149c.129.049.275.039.401-.027.132-.07.23-.195.26-.333M166.075 177.406c.012-.052.017-.11.016-.182l-.082-.204-.063-.064-.237-.089c-.106-.007-.223-.005-.38.11l-.086.203-.02.017-.016.051-.014.061.037.221.044.072.16.125c.112.034.28.069.438-.027.107-.064.176-.163.203-.294M189.5 101.712l-.066.315.047.117.283.202c.168.014.403-.031.567-.333l-.008-.302-.062-.101-.274-.159c-.29-.014-.436.18-.493.256l.007.005zM259.495 146.611l.243.151-.277.006.003.129.196.289c.256.119.529.028.662-.222l.037-.152-.002-.13-.192-.29c-.254-.12-.528-.03-.67.219M235.232 138.638l-.011.081.051.205.045.073.152.128c.103.042.21.043.308.006.141-.02.265-.122.322-.274l.02-.15-.006-.065-.044-.145c-.098-.17-.287-.263-.474-.231-.18.032-.324.178-.363.372M202.666 78.06l.138-.13c.044-.066.072-.126.086-.189.024-.107.007-.215-.05-.314l-.104-.098-.054-.03-.04-.008-.14-.075-.093-.006-.206.072c-.042.038-.153.14-.19.298-.035.157.018.318.146.442l.222.062-.002.009.066.015.16-.02.061-.027zM222.526 150.704l.039-.045.073-.157c.036-.171-.004-.297-.045-.372l-.093-.106-.049-.035-.132-.053c-.27-.038-.498.125-.556.395l-.009.053.04.2.044.073.157.133c.184.068.331.034.423-.006l.108-.08zM211.983 141.115l-.095.17c-.042.265.057.445.3.537.014.005.032.011.05.021l.2.008.075-.033.073-.08.01.015c.038-.03.135-.105.177-.315l.003-.013c.003-.077-.011-.208-.13-.313-.038-.066-.097-.118-.171-.146l-.117-.013-.05.008-.092.05-.173.055-.06.05zM237.852 115.681l.062-.163v-.072l-.066-.164c-.017-.019-.032-.04-.057-.073-.055-.076-.124-.17-.242-.246l-.111-.04-.05-.006-.12.014c-.112.04-.193.13-.218.24l-.003.066-.03.124c.051.162.148.242.206.29-.035-.03-.057-.089-.055-.123l.114.225.083.052.265.01c.05-.017.144-.048.222-.134M226.421 179.485l.045.026c.218.101.379.012.434-.019l-.003-.008.067-.02.057-.039.097-.13.011-.043c.015-.064.013-.112.008-.096l-.024-.007.003-.204-.016-.024c-.037-.148-.14-.213-.2-.239l-.148-.022-.096.017c-.085.031-.346.128-.403.376-.02.09-.02.229.104.376l.064.056zM199.986 133.725c.06-.04.17-.111.207-.304.006-.036.011-.083.014-.149l-.057-.186-.046-.06-.153-.085c.04.003.08.029.088.037-.017-.018-.047-.052-.094-.081l-.156-.024-.064.017-.022.019-.02-.007c-.14-.035-.274.052-.328.205-.018.034-.032.07-.04.11-.027.148.037.299.156.368l.093.005c.023.037.05.073.08.105l.127.068.059.008.156-.046zM249.16 122.1l.154-.033.059-.03.065-.063.008.007c.033-.027.108-.09.14-.217l-.03-.17-.027-.04.006-.003c-.055-.332-.3-.355-.403-.349l-.026.024-.219.06-.066.061c-.025.02-.099.079-.126.188l-.007.044.065.18c.003.06.021.13.08.198.052.06.15.132.328.142M248.712 178.042l-.015.053c-.023.11.003.194.018.234l.008.05.04.09.188.157.154.034.163-.015.064-.029.136-.126c.054-.077.09-.156.107-.235.024-.115.007-.224-.05-.317l-.077-.085-.074-.048c-.207-.091-.36-.013-.428.022l.003.008-.077.024-.055.039-.105.144zM200.195 111.847l.012-.088-.06-.21-.054-.073-.18-.118-.145-.032-.216.033-.078.046-.143.186-.011.04c-.025.119.001.21.01.24l.017-.003.006.078.04.084.163.153c.143.058.29.054.41-.013.118-.065.199-.18.23-.323M220.559 160.672c.12-.028.224-.116.283-.262l.012-.062c.024-.267-.16-.494-.439-.541l-.218.044-.076.048-.125.176-.037.162.051.229.06.076.08.046-.013.015c.03.023.106.084.233.101l.18-.028.009-.004zM189.941 134.663l.003.006c.189-.038.275-.163.31-.24.036-.047.063-.101.077-.162l-.05-.27-.062-.089-.235-.135c-.313-.023-.463.143-.524.244l-.026.294.01.023-.01.008c.036.192.155.281.223.317l.28.006.004-.002zM236.119 164.793l-.192-.31c.016.01.03.023.037.035-.034-.057-.126-.209-.31-.222l-.112.017c-.11.044-.19.124-.23.228l-.08.053c-.06.285.147.539.37.59.108.024.218.003.308-.057.074-.048.17-.145.209-.334M217.276 173.64c-.011.051-.014.107-.007.17l.068.155.047.051.113.071c.041.027.129.082.269.084l.136-.038.05-.032.073-.068c.03-.03.101-.103.128-.231l.01-.08-.054-.142c-.026-.203-.165-.278-.227-.302h-.11l-.016-.005-.158.007-.062.023-.135.11c-.032.034-.1.104-.125.226M212.331 155.316c.24-.028.39-.225.432-.408.045-.196-.024-.383-.18-.487l-.296-.001-.087.057-.083.091c.02-.039.047-.062.048-.064l-.004.002c-.069.041-.23.138-.278.346l-.005.023.032.17.03.05c.086.182.253.218.345.223l.046-.002zM221.782 195.125l-.028.12.06.257.068.084.234.123c.296.05.47-.11.528-.26l-.014-.115.01.001c.047-.204-.05-.334-.113-.393-.109-.103-.265-.143-.428-.11l-.166.083-.058.053-.093.157zM223.597 143.454l.081.096.073.05c.133.061.285.062.418.002.134-.063.234-.187.267-.333.03-.132 0-.263-.08-.357-.086-.103-.217-.161-.37-.163l-.068.006-.048.011c-.15.05-.265.188-.306.368-.027.117-.016.227.033.32M171.478 155.037l-.006-.258-.074-.15c-.021-.033-.08-.122-.198-.182l-.24-.027-.096.023-.192.125-.08.172c-.055.24.092.485.335.559.225.066.462-.047.55-.262M231.54 123.627l.08-.059c.023-.119.004-.241-.055-.344-.061-.109-.163-.187-.28-.216-.222-.053-.483.082-.553.444l.197.346.02.005.002.003c.054.03.135.077.255.089l.162-.044c.095-.068.145-.15.172-.224M227.127 113.574l.014-.07-.048-.187-.048-.064-.17-.105-.133-.026-.23.048-.075.053-.043.07-.004-.004c-.032.028-.116.1-.147.23l.028.18.04.066.004.056.057.08.235.118c.097 0 .423-.032.52-.445M222.405 130.13l.084-.055c.03-.027.121-.11.154-.263l.009-.06-.081-.265-.067-.079-.21-.114c-.301-.06-.48.114-.54.282l.018.25-.008.004c.035.216.173.311.253.349h.281l.107-.049zM209.697 109.004l-.002.006c.03-.006.063-.005.096.012l.044.083c-.002.014-.006.022-.009.034l.061.064c.02-.127-.047-.238-.132-.285l.008-.028c-.015-.004-.035-.007-.058-.006l-.008.12zm-.14.602l-.073.002c-.215-.086-.336-.318-.289-.552l.261.06-.075-.049.162.066.01-.011-.02-.05.057.006.04-.046-.049-.107c-.034.023-.059.054-.075.083l-.039-.094.09-.042-.08-.178c.156-.079.327-.082.469-.009l.196.236.043.226c-.02.194-.102.335-.24.42-.08.05-.213.097-.389.04v-.001zM207.242 124.67l.081-.143c-.01.015-.022.03-.039.043l.104-.208.002-.092-.097-.21c-.131-.113-.29-.172-.447-.164l.013.268c-.03.03-.055.062-.075.098h-.006v.013l-.002.003-.043.058-.174.233c-.046-.03-.067-.062-.067-.06v.002c.141.286.407.319.608.254l.142-.095zM219.083 97.236l-.022.115c.01.35.255.461.397.502l.059.006c.21.002.383-.137.43-.345.028-.127.006-.268-.06-.377l-.088-.091-.046-.03-.118-.041-.05-.006c-.17-.025-.28.01-.413.126l-.07.095-.02.046zM211.878 119.05l-.027-.127c.01-.227-.122-.355-.251-.4l-.111-.015-.05.004-.063.025-.21.018c-.089.057-.15.149-.174.259-.022.099-.007.192.006.279l.062.137.042.051.13.089c.063.02.254.081.434-.023.108-.061.183-.167.212-.297M181.943 170.552l.186-.135c.032-.034.062-.07.09-.111l.032-.286-.038-.105-.203-.197c-.32-.11-.573.052-.656.27l.016.25-.007.003c.039.2.172.288.248.322l.238.017.094-.028zM242.01 132.873l.053-.007.119-.042c.107-.07.182-.173.21-.293.028-.123.003-.252-.07-.353-.076-.108-.196-.18-.337-.203l-.233.066-.048.042-.025.005-.077.059-.096.222c.035.314.225.44.378.492l.126.012zM207.66 133.731l.212.04.032-.008c.136-.003.257-.086.311-.219v-.028c.018-.025.04-.058.056-.1l.016-.126-.006-.056-.047-.121c-.06-.086-.134-.135-.224-.194l-.149-.046h-.068l-.155.046c-.127.086-.166.189-.186.24.008-.019.024-.042.037-.054l-.09.17-.01.078.047.185c.06.086.135.135.224.193M205.594 154.943l-.005-.132-.19-.3c-.072-.042-.241-.142-.44-.06-.112.05-.199.148-.244.276l-.019.156.006.067.047.147c.152.26.511.262.692.15l.153-.304zM181.345 128.982c.012-.053.011-.108-.001-.16l.01-.127c-.096-.2-.259-.248-.315-.26l-.14-.047-.065-.004-.145.03c-.112.056-.191.159-.218.28-.012.057-.012.103-.006.098l.009.002-.018.078.057.237c.13.157.368.199.536.158.154-.036.265-.142.296-.285M190.998 117.57l.105-.08c.034-.04.081-.105.101-.2.003-.012.005-.024.004-.028l-.007-.003.028-.131-.01-.08-.083-.173c-.18-.18-.358-.172-.443-.153-.09.019-.256.085-.356.323l-.006.215.03.083.159.17c.062.033.156.083.298.097l.129-.02.05-.02z" transform="translate(-808 -1488) translate(208 1488) translate(600)"/>
                </g>
            </g>
        </g>
    </g>
</svg>
