<svg height="190" viewBox="0 0 140 190" width="140" xmlns="http://www.w3.org/2000/svg" xmlns:xlink="http://www.w3.org/1999/xlink"><mask id="a" fill="#fff"><path d="m0 .235h132.37v101.765h-132.37z" fill="#fff" fill-rule="evenodd"/></mask><g fill="none" fill-rule="evenodd"><path d="m132.362 83.906c-.01-.102-.127-.163-.308-.192-2.457-1-6.096-1.843-7.654-3.807-1.674-2.11-2.89-5.93-2.948-8.617-.132-6.262-.091-12.593.01-18.857.201-12.506-.2-25.018.063-37.518.075-3.574-.683-7.035-2.739-10.134-.91-1.374-.852-1.277-2.665-2-.941-.375-5.106-1.324-5.515-2.177-.08-.169-.352-.202-.508-.2-26.802.311-53.615-.487-80.413-.017-2.805.05-5.448-.167-8.091.77-2.305.816-6.192 1.582-7.75 3.501-1.572 1.935-2.636 6.093-2.902 8.596-.34 3.2-.083 6.572-.08 9.8.019 13.214.135 26.426-.05 39.64-.094 6.716.066 13.44.085 20.157.014 4.662.016 7.59-1.755 11.86-.418 1.006-.768 2.151-1.292 3.11-.032.058-.032.082-.042.114-.345.128-.737.238-.905.298-2.011.731-3.994 1.561-5.987 2.34-.388.151-1.57.9-.442.914 14.71.194 29.43.29 44.139.163 7.885-.067 15.767-.057 23.652-.093 6.114-.028 13.895 1.244 19.792-.4 2.883-.805 7.327-2.069 8.844-4.688 2.251-3.889 2.722-7.2 2.855-11.392 10.07-.143 20.148-.082 30.222-.109.467 0 2.456-.239 2.39-.977l-.007-.085z" fill="#a9ff03" mask="url(#a)" transform="translate(3 77.226)"/><path d="m112.714 77.881c-2.42.988-6.843 1.774-8.64 3.73-1.605 1.75-2.79 6.235-3.117 8.608-.981 7.12-.151 15.07-.055 22.26.179 13.513-.028 27.03-.082 40.542-.032 8.246.144 16.488.132 24.734-.001.453 2.896.05 2.897-.776.038-26.65-.256-53.306-.054-79.956.034-4.542-.087-7.885 1.592-12.07.446-1.112.836-2.28 1.349-3.363.073-.154.09-.24.087-.299.208-.066.417-.123.572-.18 2.128-.795 4.215-1.723 6.318-2.583 1.902-.777.105-1.098-1-.647m-12.266-.418c-2.496 1.02-6.594 1.776-8.432 3.794-1.506 1.651-2.903 6.186-3.223 8.435-.953 6.704-.174 14.257-.082 21.03.183 13.573.069 27.15.121 40.724-2.056.476-4.274.858-6.126 1.691-1.698.766-2.786 2.084-4.143 3.412-1.262 1.236-2.531 2.198-3.222 3.77-.811 1.846-1.163 4.07-1.612 6.117-10.241-.173-20.483-.1-30.725-.085-.638-2.681-1.006-5.81-2.643-7.931-1.955-2.53-4.396-4.958-7.469-5.772-1.207-.32-2.456-.79-3.688-.978-.848-.131-1.486-.667-1.542-.434-.331-1.612.186-4.23.191-5.686.012-3.401-.014-6.803-.029-10.203-.054-12.733.066-25.467.018-38.198-.009-2.392-.415-5.07-.084-7.433.23-1.643 1.027-3.21 1.702-4.826.354-.85.677-2.094 1.189-2.915.103-.056.459-.287 1.227-.575 2.018-.759 3.989-1.67 5.977-2.502 1.839-.77.201-2.17-1.245-1.566-2.519 1.053-6.608 1.848-8.473 3.885-1.512 1.651-3.011 6.225-3.306 8.475-.873 6.69-.004 14.27.035 21.039.076 13.82.09 27.645.041 41.466-.001.4.214.69.612.794 2.02.536 4.069 1.006 6.069 1.61 1.799.542 2.152 1.144 3.936 2.907 1.31 1.294 2.324 2.16 3.024 3.76.861 1.964 1.155 4.376 1.705 6.463.147.555.845.602 1.301.6 11.066-.01 21.994-.106 32.852.107.773.014 1.76-.27 1.981-1.12l1.451-5.598c.612-2.362.742-2.087 2.774-4.076.839-.823 1.65-1.697 2.528-2.476a1.58 1.58 0 0 0 .293-.31c.126-.012.315-.042.611-.11 2.182-.502 4.338-1.177 6.5-1.762.413-.112 1.218-.505 1.216-1.05-.055-12.88.09-25.765-.084-38.643-.089-6.622-.061-13.24.004-19.862.016-1.525-.164-3.307.158-4.727.428-1.89 1.69-3.59 2.224-5.456.106-.373.698-1.299.642-1.47.595-.268 1.376-.454 1.846-.646 1.715-.7 3.43-1.401 5.146-2.104 1.845-.754.202-2.157-1.246-1.566" fill="#000"/><path d="m77.631 77.406c-.25-1.244-3.156-.508-2.897.776.461 2.294 1.271 4.726 1.064 7.02-.139 1.553-.857 3.229-1.257 4.732-.3 1.13-.673 2.362-.849 2.62-.833 1.22-2.302 2.314-3.335 3.352-.425.428-2.477 2.076-1.975 2.015-1.252.484-2.804.69-4.045 1.018-.606.16-2.693.68-3.12.865-.418-.185-2.544-.714-3.133-.87-1.323-.35-3.082-.507-4.298-1.134-.81-.42-4.486-3.815-5.554-5.473-2.843-4.417-2.178-9.568-1.254-14.372.26-1.35-2.693-.95-2.925.26-1.015 5.28-1.686 11.25 1.951 15.783 3.625 4.517 8.861 8.05 14.954 7.785 6.09-.264 11.667-3.558 15.131-8.478 3.401-4.833 2.62-10.545 1.542-15.9m-14.449 57.46c-1.239 1.24-2.476 2.484-3.714 3.726-1.45-1.44-2.9-2.874-4.346-4.318-.882-.882-5.29-4.361-5.31-5.211-.02-.853 4.35-4.308 5.25-5.206 1.24-1.236 2.481-2.47 3.723-3.702 1.446 1.444 2.892 2.889 4.336 4.334.881.882 5.285 4.345 5.304 5.19.02.852-4.346 4.29-5.243 5.187m-2.68-16.687c-.443-.442-2.296.242-2.674.618a4016.446 4016.446 0 0 0 -10.734 10.716c-.125.125-.2.2-.067.335 3.57 3.584 7.147 7.159 10.735 10.723.294.293 1.34.02 2.06-.32.276-.086.504-.188.613-.297a9840.68 9840.68 0 0 1 10.707-10.724c.125-.125.202-.2.067-.335a12020 12020 0 0 0 -10.708-10.716" fill="#000"/><path d="m132.798 70.866c-2.89-5.026-9.199-7.304-14.045-9.73-10.411-5.214-20.857-10.36-31.21-15.687-2.644-1.361-5.262-2.777-7.918-4.117-2.227-1.124-4.903-3.037-7.397-3.752-.037-1.59-.201-3.306-.09-4.903 2.942-.98 6.788-1.955 8.691-3.903 1.058-1.083 1.518-3.18 2.08-4.537.641-1.551 2.225-3.97 2.261-5.687.028-1.333-.878-2.73-1.366-3.913-.704-1.708-1.26-4.4-2.41-5.848-.917-1.153-2.466-1.49-3.835-2.062l-3.543-1.477-1.668-.695c-.11-.045-.191-.083-.256-.113-.695-.878-3.402-.214-3.9-.008-3.23 1.34-8.915 2.428-10.89 5.458-2.094 3.216-3.757 7.929-3.741 11.748.01 2.505 5.815 1.319 5.806-.683-.016-3.852 1.763-7.218 3.299-10.722l5.876-2.438c1.988.884 3.99 1.837 6.036 2.486.274.087.702.22 1.06.383.053.099.168.283.327.565.776 1.374 1.26 3.057 1.859 4.51.914 2.217 1.594 3.03 1.014 4.984-.681 2.296-1.794 4.54-2.774 6.763l-7.038 2.89c-1.253.249-2.411.919-2.581 1.947-.328 1.968-.041 4.238-.019 6.26-1.193.602-2.33 1.298-3.316 1.8-2.648 1.347-5.3 2.687-7.954 4.023-10.197 5.134-20.453 10.153-30.618 15.35-6.1 3.119-12.234 5.516-17.138 10.359-2.741 2.706-2.454 4.215-2.636 8.18-.15 3.282 2.23 5.655 3.972 8.393.892 1.403 6.248-.842 5.795-1.552-1.23-1.936-3.544-4.394-4.076-6.574-.316-1.293.188-3.263.264-4.588.101-1.745.062-2.246.511-2.922.978-1.476 2.755-2.561 3.939-3.89.236-.265.466-.488.557-.595.428-.217.876-.413 1.29-.62 2.432-1.208 4.87-2.408 7.291-3.64 10.088-5.133 20.21-10.197 30.343-15.242 4.479-2.23 8.938-4.5 13.396-6.77 9.47 4.686 18.843 9.565 28.28 14.32 4.632 2.335 9.277 4.643 13.917 6.96 4.58 2.287 10.063 4.098 13.66 7.759.949.966 3.042 2.5 3.525 3.696.559 1.387.243 4.07.241 5.56-.004 3.178-2.483 5.46-4.311 8.065-.366.523 4.73.37 5.713-1.031 1.374-1.957 3.936-4.445 4.474-6.738.463-1.977.226-6.331-.747-8.023" fill="#5cffe4"/><path d="m102.174 89.317c4.784-.009 9.569-.011 14.353-.005 1.296.002 3.073-.209 4.099-1.098.716-.623.938-1.393-.375-1.394-4.784-.006-9.568-.004-14.353.005-1.296.003-3.07.207-4.097 1.097-.715.622-.94 1.398.373 1.395" fill="#000"/></g></svg>