<svg height="190" viewBox="0 0 100 190" width="100" xmlns="http://www.w3.org/2000/svg" xmlns:xlink="http://www.w3.org/1999/xlink"><mask id="a" fill="#fff"><path d="m.163.224h61.143v59.707h-61.143z" fill="#fff" fill-rule="evenodd"/></mask><g fill="none" fill-rule="evenodd"><path d="m54.823 64.68.845 6.553 2.479 7.23 1.422 7.521.193 7.65-1.073 7.566-2.918 7.337-4.973-4.998-6.411-2.343-6.678.631-5.536 4.743-1.688 7.187-6.52-.545-6.314 1.28-4.94 5.345-2.333 6.995.514 7.432 2.6 6.94 2.86 6.82 4.08 6.186 3.336 5.588 1.325 6.456-1.212 6.492-2.427 6.13-4.25 5.326 7.473.947 7.279.087 7.21-1.083 7.287-.234 7.145-1.414 6.878-2.405 6.77-2.584 6.49-3.089 4.672-5.525 3.76-6.227 3.398-6.443 2.157-6.956 1.43-7.149-.923-7.22-2.451-6.777-4.345-5.71-5.312-4.82 1.637-6.095 1.309-6.25.525-6.375-.296-6.389-.254-7.043-1.95-6.793-2.942-6.422-4.275-5.602-5.05-4.863-6.17-1.5z" fill="#5cffe4"/><path d="m87.229 144.892c-.44 2.203-.785 4.194-1.383 6.122-.6 1.932-.992 4.131-1.934 5.93-1.054 2.01-2.065 4.053-3.181 6.03-1.168 2.066-2.357 4.285-3.751 6.207-1.351 1.863-2.998 3.568-4.497 5.323l-5.203 2.476c-.275.131-.558.253-.83.394.667-.347-.148.057-.35.134l-3.522 1.345a168.225 168.225 0 0 1 -4.545 1.672l-3.752 1.312c-.28.097-.57.185-.85.291-1.203.221-2.403.476-3.604.713-.915.181-1.94.272-2.84.55-.514.007-1.03.033-1.544.05l-3.993.128c-1.694.054-3.321.315-5 .567-1.16.174-2.326.33-3.485.523-.073.013-.148.023-.221.034-.39-.002-.776-.009-1.164-.014l-4.42-.052c-.463-.006-.93-.003-1.393-.016-.12-.013-.238-.03-.356-.046-2.204-.298-4.414-.562-6.621-.84l2.35-2.945c.619-.777 1.408-1.546 1.842-2.442.704-1.453 1.204-3.04 1.798-4.542.337-.849.573-1.56.739-2.453l.925-4.95c.175-.937-.178-1.873-.37-2.799-.273-1.336-.37-2.896-.855-4.17-.424-1.112-1.313-2.209-1.92-3.225-1.316-2.206-2.711-4.34-4.125-6.485-.498-.755-1.081-1.496-1.47-2.314-.681-1.43-1.233-2.939-1.846-4.4-.986-2.349-1.87-4.729-2.764-7.115-.308-.822-.713-1.617-.786-2.492-.14-1.672-.231-3.349-.347-5.022-.096-1.379-.177-1.756.22-2.95.588-1.758 1.174-3.516 1.76-5.273.347-1.039 1.263-1.74 1.999-2.537l2.688-2.909 1.892-.384 2.125-.43c.139-.029.28-.059.42-.086.904.222 2.082.134 2.96.208l3.26.273c.5.042 2.467-.135 2.624-.8l.816-3.473c.262-1.117.363-2.577.844-3.632.02-.028.052-.068.104-.122.2-.207.448-.384.667-.572l1.903-1.63 2.135-1.829 4.89-.463c1.024.374 2.048.75 3.072 1.123.954.348 2.238.586 3.096 1.137.915.587 1.715 1.724 2.479 2.491l2.485 2.5c.406.406 2.595-.248 2.795-.75l1.995-5.015c.482-1.212.92-2.246 1.103-3.527.293-2.069.676-4.147.882-6.227.148-1.495-.035-3.07-.073-4.57-.035-1.363.027-2.739-.227-4.079-.396-2.1-.786-4.203-1.191-6.3-.543-2.81-2.27-5.395-2.636-8.232l-.48-3.715c-.071-.567-.145-1.134-.217-1.7-.028-.216-.033-.622-.07-.532.326-.783 1.41-1.624 1.962-2.259l.806-.927 1.61.392 2.046.497c.213.052.434.091.643.156.066.021.11.037.143.05.934.69 1.744 1.68 2.578 2.484.799.768 1.675 1.503 2.417 2.327-.108-.12.334.447.425.566l1.283 1.681c.792 1.04 1.7 2.051 2.404 3.152 1.168 1.824 1.905 4.067 2.808 6.04.887 1.935 1.284 4.162 1.87 6.205.59 2.058.432 4.263.509 6.395.075 2.09.175 4.176.272 6.264.103 2.225-.12 4.377-.301 6.601-.402 4.883-1.805 9.221-3.06 13.883-.05.085-.032.152.055.201 1.705 1.547 3.468 3.047 5.123 4.648.294.284.857 1.066 1.282 1.625l2.603 3.42c1.21 1.591 1.65 3.733 2.324 5.596.249.69.567 1.384.719 2.1.255 1.2.317 2.472.472 3.688.136 1.063.455 2.247.425 3.321-.022.79-.315 1.647-.47 2.42m-64.166-31.09a1.274 1.274 0 0 1 -.286-.064c.087.03.193.04.286.063m.004.001c.109-.02.219-.039.326-.066.51-.133.184.124-.326.066m67.243 25.651c-.207-1.617-.253-3.36-.635-4.945-.42-1.738-1.253-3.465-1.861-5.145-.463-1.28-.864-1.987-1.691-3.074-1.065-1.399-2.055-2.94-3.233-4.248-1.057-1.172-2.377-2.175-3.545-3.235-.543-.492-1.365-1.012-1.783-1.617l-.006.011.067-.164c.145-.36.209-.775.31-1.15.43-1.603.912-3.2 1.286-4.817.734-3.179 1.304-6.27 1.57-9.513.11-1.347.27-2.67.209-4.019-.084-1.807-.177-3.615-.251-5.422-.12-2.897.09-5.849-.712-8.644-.492-1.714-.865-3.524-1.49-5.193-.578-1.543-1.388-3.033-2.073-4.53-.548-1.196-1.017-2.093-1.808-3.13-1.102-1.444-2.134-2.999-3.332-4.367-1.051-1.199-2.326-2.253-3.475-3.359-.492-.474-1.035-1.219-1.628-1.568-.383-.225-.972-.269-1.398-.372l-4.975-1.21c-.734-.179-2.121.22-2.624.8-1.178 1.355-2.446 2.667-3.55 4.084-.343.443-.294.542-.22 1.123l.429 3.327c.183 1.417.35 2.613.81 3.951.652 1.902 1.424 3.8 1.966 5.736.437 1.56.625 3.23.925 4.82.249 1.315.522 2.56.555 3.892.053 2.093.195 4.203.16 6.295-.026 1.501-.39 3.042-.6 4.528-.27 1.898-.403 3.08-1.041 4.685-.437 1.096-.873 2.191-1.308 3.287l-.79-.794c-.741-.745-1.52-1.852-2.41-2.416-1.053-.666-2.611-.954-3.778-1.38-1.027-.376-2.235-1.065-3.354-1.005-1.234.065-2.47.234-3.7.35-1.321.125-2.834.09-4.1.542-1.165.417-2.106 1.508-3.025 2.295-1.035.887-2.383 1.741-3.256 2.79-.626.751-.678 2.246-.9 3.19l-.74 3.151c-2.135-.224-4.271-.407-6.376.02-1.66.337-3.332.635-4.984 1.01-1.84.42-2.787 1.9-4.02 3.233-.84.91-2.131 1.905-2.69 3.011-.812 1.616-1.203 3.611-1.776 5.328-.398 1.193-.52 1.782-.432 3.03.132 1.907.128 3.88.399 5.773.175 1.22.844 2.46 1.274 3.61.467 1.245.909 2.504 1.407 3.737 1.096 2.711 2.067 5.557 3.679 8.003 1.802 2.733 3.56 5.458 5.237 8.27.682 1.141 1.258 1.988 1.522 3.271l.633 3.082c.143.7.419 1.48.45 2.196.019.415-.132.87-.208 1.278l-.605 3.235c-.276 1.482-.432 2.125-.961 3.461-.586 1.481-1.024 3.231-1.824 4.61-.821 1.413-2.152 2.695-3.171 3.972l-1.08 1.353c-.055.07-.04.117.005.153.026.044.085.081.219.098 2.87.365 5.78.941 8.678.976 2.019.023 4.042.085 6.06.071 1.43-.01 2.888-.365 4.299-.577.998-.15 1.997-.288 2.993-.449l.327-.05c.135-.005.41-.022.489-.024l6.086-.196c1.38-.044 2.723-.388 4.076-.656 1.689-.334 3.468-.545 5.11-1.07 6.234-1.997 12.369-4.358 18.275-7.169 1.226-.583 2.388-.986 3.27-2.029 1.296-1.532 2.615-3.048 3.889-4.599.85-1.036 1.466-2.294 2.157-3.44.7-1.16 1.446-2.3 2.082-3.496.95-1.784 1.886-3.576 2.828-5.363.613-1.164.91-2.448 1.3-3.703.43-1.388.952-2.778 1.277-4.195.433-1.89.762-3.812 1.142-5.714.264-1.319.143-2.23-.031-3.59" fill="#000"/><path d="m63.044 135.213c.33.162.098.116 0 0m-11.135 8.524c.018-.167.035-.329.06-.472l.496-2.822c.075-.423.182-.855.259-1.288.72.792 1.443 1.585 2.165 2.377a.9.9 0 0 0 .332.226c-1.134.602-2.213 1.311-3.312 1.98m-2.84 1.177c-.027-.005-.078.021-.137.061.037-.04.083-.07.138-.06m28.224-28.053c-1.961-1.525-3.865-3.21-5.921-4.602-.725-.49-1.593-.808-2.38-1.183l-4.252-2.027c-.73-.348-1.404-.356-2.21-.42l-4.776-.38c-1.14-.09-2.184-.237-3.224.382-1.244.741-2.436 1.587-3.65 2.377l-1.741 1.134c-.324.211-.887.475-1.104.793-.185.271-.2.653-.263.965l-.471 2.303-.5 2.442c-.095.463-.337 1.077-.32 1.556.03.781.994 1.742 1.418 2.375.852 1.27 1.688 2.553 2.558 3.812.436.631 1.052 1.028 1.653 1.51 1.779 1.422 3.488 3.021 5.464 4.161l4.625 2.67c.26.15.522.33.794.457l.003.002c-.062.301.037.811.044 1.073l.048 2.013-5.998 1.544-5.044-5.536a.782.782 0 0 0 -.25-.173c-.43-1.397-.947-2.762-1.666-4.014-1.383-2.407-2.683-4.649-4.39-6.827-.83-1.057-1.6-2.293-2.56-3.23-1.295-1.26-2.857-2.33-4.257-3.473-2.09-1.707-4.865-2.523-7.32-3.604-.6-.265-1.506-.009-2.042.306-.356.21-.911.722-.29.995l4.624 2.038 1.094.482c.12.053.402.205.419.2.514.364.99.811 1.476 1.208 1.21.987 2.614 1.91 3.7 3.032 1.24 1.282 2.26 2.884 3.36 4.288l.634.81c.098.122.118.144.12.144l.008.012c.435.68.809 1.407 1.21 2.107.71 1.236 1.64 2.497 2.16 3.825.679 1.73 1.076 3.626 1.604 5.407.085.285.205.582.259.875.006.028.01.034.015.032-.006.03-.014.076-.026.16-.12.86-.301 1.714-.451 2.568l-.58 3.296c-.025.15-.042.235-.054.296-.178.14-.394.347-.46.397l-3.695 2.834-5.291-.56c-.137-.014-.378-.076-.582-.096-.107-.113-.297-.225-.391-.304l-2.977-2.51c-.722-.608-1.56-1.18-2.212-1.864-.49-.512-.883-1.163-1.307-1.728a9423.82 9423.82 0 0 0 -2.47-3.295c-.242-.325-.504-.642-.731-.978l-.04-.059c-.04-.079-.08-.16-.114-.24-.965-2.22-2.078-4.386-3.115-6.574-.423-.893-3.244.045-2.897.777 1.096 2.315 2.006 4.89 3.369 7.056.712 1.13 1.629 2.173 2.43 3.242.704.94 1.357 2.03 2.17 2.881.959 1.004 2.184 1.84 3.245 2.735.83.7 1.889 2.025 2.98 2.304 1.336.34 2.88.304 4.247.448.976.103 2.169.385 3.242.348-.022.024-.048.047-.07.072-1.38 1.623-2.601 3.407-3.894 5.1-.404.528.35.68.74.68.6.002 1.534-.234 1.925-.746l3.503-4.587c.156-.205.32-.406.47-.616-.28.393.084-.07.265-.23l2.48-2.188c.623-.548 1.446-1.084 1.965-1.732l.006-.008.092-.056c.418-.25.834-.505 1.25-.758l2.95-1.79c.312-.19.662-.359.952-.579.03-.022.04-.032.056-.046a.917.917 0 0 1 .037-.015c1.278-.563 2.55-1.136 3.825-1.707l2.335-.6c.04 1.695.082 3.39.123 5.084.019.795 2.923.265 2.898-.777l-.213-8.787c-.024-1.034.058-1.319-.838-1.836l-4.547-2.624c-.43-.248-.875-.48-1.295-.746a.915.915 0 0 0 -.085-.07c-.197-.154-.391-.313-.586-.469l-4.17-3.336c-2.001-1.602-3.206-4.096-4.625-6.21-.12-.178-.243-.442-.4-.603.318-.49.337-1.638.452-2.2l.925-4.519 5-3.256 3.515.28c.829.066 1.66.155 2.492.2.123.005.279.038.33.043.125.058.247.122.367.18l5.237 2.496c.283.135.564.271.848.404.065.031.095.044.12.055.549.38 1.063.827 1.589 1.236l4.323 3.36c.753.585 3.403-.549 2.702-1.094" fill="#000"/><path d="m88.857 30.807c0 2.634.143 5.243-.507 7.673-.672 2.514-1.796 4.885-3.07 7.086-1.291 2.232-2.943 4.24-4.755 6.05-1.811 1.812-3.983 3.175-6.216 4.466-2.201 1.273-4.386 2.76-6.9 3.432-2.43.65-5.058.418-7.692.418s-5.148-.199-7.577-.848c-2.513-.672-4.993-1.418-7.195-2.692-2.232-1.29-4.193-2.996-6.005-4.808s-3.132-3.996-4.423-6.228c-1.274-2.2-2.352-4.472-3.024-6.986-.65-2.429-.863-4.929-.863-7.563s.317-5.106.966-7.536c.672-2.513 1.124-5.115 2.397-7.316 1.292-2.232 3.229-4.02 5.04-5.832 1.812-1.812 3.883-3.26 6.115-4.552 2.2-1.273 4.37-2.77 6.884-3.443 2.429-.65 5.05-.466 7.685-.466 2.634 0 5.228-.082 7.658.568 2.514.672 4.78 1.948 6.98 3.222 2.233 1.291 4.535 2.56 6.346 4.372 1.812 1.811 3.229 4.027 4.52 6.26 1.273 2.2 2.095 4.634 2.766 7.147.65 2.43.87 4.942.87 7.576" fill="#a9ff03"/><path d="m57.444 39.47c-.961 2.793-2.377 5.524-4.146 7.89-3.334 4.464-7.98 7.58-12.939 10.023-2.813 1.385-5.753 1.145-8.801 1.12-3.103-.025-6.026-.41-9.005-1.29-5.464-1.616-10.326-5.02-13.571-9.75-3.312-4.826-5.603-10.081-5.865-15.982-.132-2.961.087-5.908.803-8.79.647-2.603 1.155-5.394 2.508-7.744 1.4-2.433 3.638-4.524 5.699-6.4 2.12-1.931 4.618-3.354 7.079-4.798 1.123-.66 2.279-1.33 3.523-1.735 1.477-.481 3.064-.496 4.603-.497 2.903 0 5.949-.2 8.818.308 3.391.6 6.415 2.513 9.338 4.23 2.646 1.555 4.953 3.308 6.804 5.783 4.055 5.422 6.082 11.836 6.116 18.582.008 3.102.059 6.079-.964 9.05m-1.884-27.901c-1.792-2.555-3.948-4.49-6.611-6.102-2.7-1.637-5.5-3.371-8.518-4.353-2.954-.964-6.039-.875-9.106-.882-3.267-.007-6.509-.136-9.641.965-2.815.989-5.43 2.69-7.944 4.27-2.567 1.614-4.744 3.608-6.855 5.769-2.212 2.264-3.865 4.654-4.751 7.718-.823 2.845-1.579 5.775-1.834 8.732-.283 3.267-.154 6.676.634 9.868.754 3.054 2.181 5.839 3.783 8.525 3.171 5.315 7.824 9.728 13.743 11.788 2.927 1.018 5.941 1.71 9.039 1.882 3.191.176 6.641.378 9.797-.2 3.412-.626 6.296-2.467 9.238-4.196 2.91-1.71 5.533-3.601 7.783-6.135 2.284-2.574 4.11-5.538 5.429-8.716 1.485-3.582 1.57-7.04 1.559-10.86-.032-6.578-1.965-12.684-5.745-18.074" fill="#000" mask="url(#a)" transform="translate(29 .776)"/><path d="m78.601 30.807c0 2.6-.038 5.16-.975 7.42-.97 2.341-2.527 4.432-4.293 6.197-1.765 1.765-3.935 3.13-6.277 4.101-2.26.937-4.74 1.207-7.339 1.207s-5.189-.007-7.449-.944c-2.342-.97-4.129-2.873-5.895-4.638-1.765-1.765-3.254-3.723-4.226-6.066-.937-2.259-1.713-4.678-1.713-7.277 0-2.598.67-5.062 1.606-7.322.971-2.342 2.59-4.234 4.356-5.999 1.765-1.765 3.722-3.226 6.064-4.198 2.26-.937 4.658-1.313 7.257-1.313 2.598 0 4.956.475 7.216 1.412 2.342.971 4.767 1.906 6.532 3.671 1.765 1.766 2.835 4.136 3.806 6.478.937 2.26 1.33 4.673 1.33 7.271" fill="#fff"/><path d="m76.662 37.027c-.455 1.782-1.37 3.45-2.454 4.925-2.116 2.88-5.043 5.346-8.481 6.468-1.808.59-3.746.656-5.63.658-1.948 0-3.963-.01-5.838-.6-3.166-.997-5.841-3.89-7.928-6.363-4.877-5.78-5.931-14.401-1.797-20.892 1.862-2.924 4.7-5.71 7.827-7.238 3.375-1.651 7.58-1.733 11.163-.757 3.846 1.047 7.948 2.888 10.16 6.339a21.905 21.905 0 0 1 3.469 11.628c-.003 1.95-.005 3.93-.491 5.832m-.424-18.76c-2.245-3.266-6.244-5.027-9.944-6.13-3.951-1.175-8.407-1.101-12.357.05-3.967 1.155-7.255 3.535-10.013 6.566-2.801 3.077-4.536 6.912-4.88 11.08-.341 4.158 1.115 8.572 3.515 11.953 1.155 1.627 2.573 3.042 4.007 4.42 1.34 1.289 2.79 2.468 4.524 3.185 1.99.825 4.202.952 6.33.986 2.17.034 4.35.01 6.492-.391 4.436-.83 8.592-3.186 11.608-6.538 1.533-1.703 2.912-3.691 3.698-5.857.829-2.28.83-4.777.833-7.172-.04-4.312-1.361-8.582-3.813-12.151" fill="#000"/><path d="m63.737 19.822c-4.447-1.621-10.427-.407-13.511 3.286-3.214 3.849-3.618 9.602-1.027 13.873 2.656 4.379 7.887 6.699 12.892 5.692 5.791-1.167 9.882-6.042 9.975-11.95-.107-4.738-3.948-9.304-8.329-10.901" fill="#000"/><path d="m69.195 20.177c-2.317-1.301-5.406-.833-7.552.619-2.143 1.45-3.328 4.208-2.567 6.738 1.689 5.615 9.901 4.528 12.178-.02 1.315-2.625.491-5.821-2.059-7.337" fill="#fff"/></g></svg>